<svg xmlns="http://www.w3.org/2000/svg" fill="none" viewBox="-0.5 -0.5 200 200" id="We-Got-A-Problem--Streamline-Bangalore.svg" height="200" width="200"><desc>We Got A Problem Streamline Illustration: https://streamlinehq.com</desc><g id="Product-We-got-a-problem-01"><g id="color 2"><path id="Subtract" fill="#eee4ff" fill-rule="evenodd" d="M49.9489005 6.7471248500000005 70.6847005 42.6855c0.310042 0.5379965 0.4731225 1.148031 0.47302299999999997 1.7689110000000001 -0.0000995 0.62088 -0.1634785 1.230815 -0.4737195 1.7686125000000001 -0.31024100000000004 0.537897 -0.7564985 0.9846520000000001 -1.293898 1.295689 -0.5373995 0.3109375 -1.1471355 0.4751125 -1.7680155 0.47610749999999996l-41.49349 0.0029850000000000002c-0.621278 -0.0006965 -1.2315115 -0.164772 -1.769309 -0.4759085s-0.9843535 -0.7582895 -1.294694 -1.2965845c-0.3103405 -0.5382950000000001 -0.4735205 -1.1487275000000001 -0.4733215 -1.7701049999999998 0.0002985 -0.621278 0.163976 -1.231611 0.47471450000000004 -1.769707l20.73978 -35.93837515c0.31163399999999997 -0.5388124 0.7594835 -0.98617435 1.2985745 -1.2972014 0.5391905 -0.31101710000000005 1.1506180000000001 -0.47474435 1.7729905000000001 -0.47474435 0.622472 0 1.2338995 0.16372725 1.77309 0.47474435 0.539091 0.31102704999999997 0.9869405 0.758389 1.2984749999999998 1.2972014ZM46.874449999999996 38.8313675c0.7252554999999999 0 1.313201 -0.5879455 1.313201 -1.313201 0 -0.7252554999999999 -0.5879455 -1.3131015000000001 -1.313201 -1.3131015000000001 -0.725156 0 -1.3131015000000001 0.587846 -1.3131015000000001 1.3131015000000001 0 0.7252554999999999 0.5879455 1.313201 1.3131015000000001 1.313201Z" clip-rule="evenodd" stroke-width="1"></path><path id="Vector" fill="#eee4ff" d="M158.434845 38.3354595c-7.485385 -1.417875 -14.6265 2.985 -15.92 9.829604999999999 -0.43979 2.3979500000000002 -0.12935 4.8734105 0.88953 7.08838l-3.232755 5.2934 6.12522 -1.24773c2.056665 1.97209 4.645655 3.2995195 7.4475750000000005 3.81881 7.485385 1.417875 14.6265 -2.985 15.92 -9.829604999999999 1.30345 -6.84361 -3.724285 -13.534984999999999 -11.229569999999999 -14.952860000000001Z" stroke-width="1"></path><path id="Vector_2" fill="#eee4ff" d="M64.3517245 83.96805c0.689137 0 1.24773 -0.558593 1.24773 -1.24773 0 -0.6890375 -0.558593 -1.24773 -1.24773 -1.24773 -0.6890375 0 -1.24773 0.5586925 -1.24773 1.24773 0 0.689137 0.5586925 1.24773 1.24773 1.24773Z" stroke-width="1"></path><path id="Vector_3" fill="#eee4ff" d="M75.5812945 93.49616999999999c0 0.24685949999999998 -0.07313249999999999 0.48804749999999997 -0.2102435 0.6932165 -0.137111 0.205169 -0.3320315 0.365165 -0.559986 0.45959049999999996 -0.2279545 0.0944255 -0.4788935 0.1191015 -0.7208775000000001 0.0709435 -0.24208349999999998 -0.048058500000000004 -0.4643665 -0.166961 -0.6388895 -0.34138450000000004 -0.174523 -0.174523 -0.29332600000000003 -0.39690549999999997 -0.341484 -0.6388895 -0.048158 -0.24208349999999998 -0.0233825 -0.492923 0.07104300000000001 -0.7208775000000001 0.0944255 -0.22805399999999998 0.254322 -0.422875 0.459491 -0.559986 0.20526850000000002 -0.137111 0.4464565 -0.210343 0.6932165 -0.210343 0.33014099999999996 0.0026865 0.645954 0.134922 0.8793810000000001 0.368349 0.2335265 0.233427 0.365762 0.5493395 0.368349 0.8793810000000001Z" stroke-width="1"></path><path id="Vector_4" fill="#eee4ff" d="M87.244585 84.42177000000001c0 0.24685949999999998 -0.07313249999999999 0.48804749999999997 -0.2102435 0.6932165 -0.137111 0.205169 -0.331932 0.365165 -0.559986 0.45959049999999996 -0.2279545 0.0944255 -0.478794 0.1191015 -0.7208775000000001 0.0709435 -0.241984 -0.048058500000000004 -0.4643665 -0.166961 -0.6388895 -0.341484 -0.1744235 -0.1744235 -0.29332600000000003 -0.396806 -0.341484 -0.63879 -0.048058500000000004 -0.24208349999999998 -0.0233825 -0.492923 0.07104300000000001 -0.720977 0.0944255 -0.2279545 0.254322 -0.42277549999999997 0.45959049999999996 -0.5598865 0.205169 -0.137111 0.446357 -0.210343 0.693117 -0.210343 0.3300415 0.0028854999999999996 0.645755 0.13532 0.879182 0.3686475 0.2333275 0.233427 0.365762 0.549041 0.368548 0.8790825Z" stroke-width="1"></path><path id="Vector_5" fill="#eee4ff" d="M100.06118 95.083195c0 0.24685949999999998 -0.07263499999999999 0.4882465 -0.209945 0.693515 -0.13631500000000002 0.205368 -0.331335 0.365364 -0.5594885 0.45998849999999997 -0.2279545 0.0946245 -0.4788935 0.11939999999999999 -0.720977 0.071441 -0.24208349999999998 -0.048058500000000004 -0.464466 -0.1668615 -0.6390885 -0.341285 -0.17462249999999999 -0.1744235 -0.293525 -0.396806 -0.34178250000000004 -0.63879 -0.048158 -0.24208349999999998 -0.0235815 -0.4930225 0.070844 -0.7210765 0.0944255 -0.22805399999999998 0.254322 -0.4229745 0.45959049999999996 -0.5600854999999999 0.205169 -0.13721049999999999 0.4464565 -0.2104425 0.6932165 -0.2104425 0.329942 0.0028854999999999996 0.6454565000000001 0.135121 0.8784855 0.368349 0.23382499999999998 0.23312850000000002 0.36616 0.5485435 0.369145 0.878386Z" stroke-width="1"></path><path id="Vector_6" fill="#eee4ff" d="M110.949465 84.42177000000001c0 0.24685949999999998 -0.07363 0.48804749999999997 -0.209945 0.6932165 -0.13731000000000002 0.205169 -0.33233 0.365165 -0.5601849999999999 0.45959049999999996 -0.227855 0.0944255 -0.478595 0.1191015 -0.721375 0.0709435 -0.241785 -0.048058500000000004 -0.46367 -0.166961 -0.63879 -0.341484 -0.174125 -0.1744235 -0.29252999999999996 -0.396806 -0.341285 -0.63879 -0.047760000000000004 -0.24208349999999998 -0.022885 -0.492923 0.070645 -0.720977 0.094525 -0.2279545 0.25472 -0.42277549999999997 0.45969000000000004 -0.5598865 0.20596499999999998 -0.137111 0.446755 -0.210343 0.693515 -0.210343 0.33034 0.0028854999999999996 0.645755 0.13532 0.87958 0.3686475 0.23283 0.233427 0.365165 0.549041 0.36815 0.8790825Z" stroke-width="1"></path><path id="Vector_7" fill="#eee4ff" d="M124.56007000000001 85.14016c0 0.24676 -0.07363 0.48804749999999997 -0.209945 0.6932165 -0.13731000000000002 0.205169 -0.33233 0.365165 -0.5601849999999999 0.45959049999999996 -0.227855 0.0944255 -0.478595 0.1191015 -0.721375 0.0709435 -0.241785 -0.048158 -0.46367 -0.166961 -0.63879 -0.341484 -0.174125 -0.1744235 -0.293525 -0.396806 -0.341285 -0.63879 -0.047760000000000004 -0.24208349999999998 -0.022885 -0.492923 0.070645 -0.720977 0.094525 -0.2279545 0.25472 -0.42277549999999997 0.45969000000000004 -0.5598865 0.20596499999999998 -0.137111 0.446755 -0.210343 0.693515 -0.210343 0.33034 0.0028854999999999996 0.645755 0.1352205 0.87958 0.3686475 0.23283 0.2333275 0.365165 0.549041 0.36815 0.8790825Z" stroke-width="1"></path><path id="Vector_8" fill="#eee4ff" d="M138.37863000000002 84.42177000000001c0.6895349999999999 0 1.24773 -0.558593 1.24773 -1.24773 0 -0.6890375 -0.558195 -1.24773 -1.24773 -1.24773 -0.6885399999999999 0 -1.24773 0.5586925 -1.24773 1.24773 0 0.689137 0.5591900000000001 1.24773 1.24773 1.24773Z" stroke-width="1"></path><path id="Vector_9" fill="#eee4ff" d="M132.952895 96.61449999999999c0 0.24676 -0.07363 0.48804749999999997 -0.209945 0.6932165 -0.13731000000000002 0.205169 -0.33233 0.3650655 -0.5601849999999999 0.45959049999999996 -0.227855 0.0944255 -0.478595 0.1191015 -0.721375 0.0709435 -0.241785 -0.048158 -0.46367 -0.166961 -0.63879 -0.341484 -0.174125 -0.1744235 -0.29252999999999996 -0.396806 -0.341285 -0.63879 -0.047760000000000004 -0.24208349999999998 -0.022885 -0.492923 0.070645 -0.720977 0.094525 -0.2279545 0.25472 -0.422875 0.45969000000000004 -0.5598865 0.20596499999999998 -0.137111 0.446755 -0.210343 0.693515 -0.210343 0.16417500000000002 -0.0016914999999999999 0.327355 0.029352499999999997 0.47958999999999996 0.0914405 0.152235 0.062088 0.29053999999999996 0.1539265 0.40695499999999996 0.2701425 0.11542000000000001 0.116216 0.207955 0.25452100000000005 0.269645 0.40665650000000003 0.062685 0.1521355 0.09353 0.31521600000000005 0.09154 0.4794905Z" stroke-width="1"></path></g><g id="color 1"><path id="Vector_10" fill="#6b63ff" d="M45.4865245 78.42988v6.124225c0.86963 -0.359195 1.791 -0.737295 2.76013 -1.1342999999999999v-3.12828c-1.029029 -0.441382 -1.9654235 -1.0729085 -2.76013 -1.861645Z" stroke-width="1"></path><path id="Vector_11" fill="#6b63ff" d="M45.4865245 91.75691v102.24918500000001h2.76013V90.036555c-0.86963 0.5482450000000001 -1.871595 1.1910150000000002 -2.76013 1.720355Z" stroke-width="1"></path><path id="Vector_12" fill="#6b63ff" d="m102.95264999999999 70.75445 -1.5114049999999999 2.15517 0.037809999999999996 -1.833785 1.473595 -0.32138500000000003Z" stroke-width="1"></path><path id="Vector_13" fill="#6b63ff" d="m141.13876000000002 76.9135 0.45372 -0.28357499999999997c0.0995 -0.051739999999999994 4.014825 -1.4128999999999998 4.0794999999999995 -1.43678 -2.568095 -1.28156 -4.816795 -0.71441 -4.53322 1.720355Z" stroke-width="1"></path><path id="Vector_14" fill="#6b63ff" d="m149.342535 82.49346 -2.587 0.90744c1.73926 0.71839 3.4825 0.62088 3.95214 -0.834805l-1.36514 -0.07263499999999999Z" stroke-width="1"></path><path id="Vector_15" fill="#6b63ff" d="M94.54101949999999 191.18925000000002c-0.2189 -2.205915 -0.701276 -4.377005 -1.43678 -6.4675 -4.0338295 1.153205 -8.310140500000001 1.153205 -12.34397 0 -5.34912 1.55021 -11.455435 6.29437 -14.65038 9.28136 10.737045 0 17.845325 -0.094525 26.01129 -0.11343 0.3423795 0.000995 0.6808785 -0.070645 0.993607 -0.21094 0.312629 -0.1393 0.5923235 -0.34228 0.8207755 -0.5979949999999999 0.228452 -0.25472 0.4004875 -0.5552100000000001 0.504863 -0.880575 0.10427600000000001 -0.32636000000000004 0.13860350000000002 -0.6706300000000001 0.10059449999999999 -1.01092Z" stroke-width="1"></path><path id="Vector_16" fill="#6b63ff" d="m154.46579 175.045375 -3.51633 -1.8904999999999998c-1.3989699999999998 4.593915 -3.06261 5.955075 -7.3918550000000005 8.790825000000002 2.174075 3.2516599999999998 1.66364 4.858585 1.417875 5.80284 -2.2885 2.15517 -3.4397149999999996 2.146215 -5.027735 6.2684999999999995h7.96c1.06863 0.023880000000000002 2.122335 -0.2587 3.03674 -0.8129149999999999 0.914405 -0.554215 1.650705 -1.358175 2.124325 -2.31636 1.194 -2.587 2.189 -7.825675 3.3073799999999998 -10.90719 0.34825 -0.91341 0.345265 -1.923335 -0.006965 -2.8347550000000004 -0.35322499999999996 -0.91142 -1.03082 -1.65966 -1.903435 -2.100445Z" stroke-width="1"></path><path id="Vector_17" fill="#6b63ff" d="M156.90354 55.139915c-0.00796 0.1730305 -0.08358 0.335912 -0.21094 0.452924 -0.12736 0.11701199999999999 -0.29651 0.178503 -0.46963999999999995 0.170941 -0.17312999999999998 -0.0074624999999999995 -0.33631 -0.083381 -0.452725 -0.21103950000000002 -0.11740999999999999 -0.1276585 -0.17909999999999998 -0.29651 -0.17114 -0.46954049999999997 0.00398 -0.08557 0.023880000000000002 -0.1696475 0.060695 -0.247357 0.03582 -0.0777095 0.08756 -0.14755849999999998 0.150245 -0.2054675 0.06368 -0.057909 0.13731000000000002 -0.102883 0.217905 -0.13223549999999998 0.080595 -0.029352499999999997 0.166165 -0.0424865 0.251735 -0.038805 0.08557 0.003781 0.17014500000000002 0.024278 0.247755 0.060496 0.07761 0.036218 0.14726 0.08746050000000001 0.20496999999999999 0.150643 0.057710000000000004 0.0631825 0.10347999999999999 0.13721049999999999 0.132335 0.21770599999999998 0.028855000000000002 0.080595 0.042785 0.166165 0.038805 0.251735Z" stroke-width="1"></path><path id="Vector_18" fill="#6b63ff" d="M45.5054295 77.995065V47.997805l2.76013 -0.0029850000000000002v30.170389999999998c-1.682545 -0.30247999999999997 -2.49546 -0.32138500000000003 -2.76013 -0.17014500000000002Z" stroke-width="1"></path><path id="Vector_19" fill="#6b63ff" d="M121.440745 57.411500000000004c0.592025 -0.17014500000000002 1.103455 -0.5451605 1.443745 -1.0579835 0.341285 -0.5128229999999999 0.48755 -1.130121 0.414915 -1.7413494999999999 -0.07263499999999999 -0.611328 -0.36019 -1.1767865000000002 -0.81192 -1.5954825 -0.450735 -0.41859650000000004 -1.03679 -0.663068 -1.6517 -0.6896345 0.432825 -0.389841 0.72237 -0.914007 0.82187 -1.488122 0.0995 -0.5742145 0.00199 -1.1650455 -0.27462000000000003 -1.6776695 -0.27661 -0.512624 -0.71839 -0.917191 -1.252705 -1.1487275000000001 -0.5353100000000001 -0.231636 -1.13231 -0.2767095 -1.6954799999999999 -0.128156 0.243775 -0.5180965000000001 0.30944499999999997 -1.1019625 0.18706 -1.6613514999999999 -0.12139 -0.5592895 -0.42386999999999997 -1.0629585 -0.860675 -1.4330984999999998 -0.436805 -0.3700405 -0.9830599999999999 -0.586055 -1.555185 -0.6144125 -0.5711299999999999 -0.028457 -1.1362899999999998 0.13223549999999998 -1.60792 0.4572025 0.066665 -0.593816 -0.07363 -1.1923085 -0.397005 -1.6949825 -0.32238 -0.502674 -0.808935 -0.8788834999999999 -1.376085 -1.065645 -0.5681449999999999 -0.186662 -1.1820599999999999 -0.17243350000000002 -1.740255 0.040396999999999995 -0.5591900000000001 0.21273099999999998 -1.02684 0.6111289999999999 -1.326335 1.1282305 -0.114425 -0.619089 -0.44277500000000003 -1.1785775 -0.9263450000000001 -1.5820500000000002 -0.482575 -0.403373 -1.09251 -0.6253574999999999 -1.72135 -0.6275465 -0.629835 -0.0022884999999999997 -1.2407650000000001 0.215318 -1.72732 0.615308 -0.486555 0.39999 -0.8178899999999999 0.95719 -0.93729 1.5753834999999998 -0.29551499999999997 -0.5192905 -0.76018 -0.921171 -1.31738 -1.138479 -0.5562050000000001 -0.217308 -1.1701199999999998 -0.23681 -1.73926 -0.055123 -0.56914 0.18168700000000002 -1.05868 0.5533195000000001 -1.38703 1.052909 -0.327355 0.49949 -0.47362 1.0964900000000002 -0.41391999999999995 1.690903 -0.468247 -0.329345 -1.032014 -0.49541050000000003 -1.604139 -0.47262499999999996 -0.572125 0.0227855 -1.1208675000000001 0.23312850000000002 -1.561553 0.598592 -0.440785 0.365563 -0.749036 0.865849 -0.8772915 1.4239445 -0.1282555 0.5579959999999999 -0.0693515 1.1427575 0.16755799999999998 1.6639385 -0.5613790000000001 -0.149051 -1.1564885 -0.1065645 -1.6911019999999999 0.120793 -0.534514 0.227258 -0.9779855 0.626452 -1.260068 1.1342005 -0.28208249999999996 0.507848 -0.3867565 1.0951965 -0.297306 1.669212 0.089351 0.573916 0.3676525 1.101664 0.7908259999999999 1.4995645000000002 -0.61491 0.02189 -1.2020594999999998 0.2611875 -1.657073 0.675406 -0.45501349999999996 0.4142185 -0.7483394999999999 0.9763934999999999 -0.8277405 1.5865275 -0.079401 0.610134 0.0601975 1.2287255000000001 0.3941195 1.7455285 0.3338225 0.516803 0.840178 0.898485 1.4290189999999998 1.076988 -0.5897365 0.1740255 -1.098679 0.551628 -1.436183 1.065645 -0.337504 0.514017 -0.48158 1.131116 -0.406756 1.741449 0.0749235 0.6103329999999999 0.363971 1.174299 0.8156015 1.5915024999999998 0.45173 0.4172035 1.0368895 0.6605805 1.6512025 0.6868485 -0.427651 0.394418 -0.710828 0.920773 -0.8041590000000001 1.4950869999999998 -0.09323150000000001 0.574314 0.0086565 1.1632545 0.289545 1.6726945 0.2808885 0.5095395 0.7244594999999999 0.9101265 1.259869 1.1378819999999998 0.5354095 0.227656 1.131713 0.269247 1.69349 0.1181065 -0.1925325 0.40904450000000003 -0.27442099999999997 0.861471 -0.23770550000000001 1.312007 0.036715500000000005 0.4506355 0.19094049999999999 0.883759 0.4472525 1.2561875 0.256312 0.3724285 0.6056565 0.671227 1.0134075 0.8665455 0.407751 0.1953185 0.859481 0.280391 1.3103155 0.24676 -1.153205 -0.9263450000000001 -1.569115 -2.985 0.32138500000000003 -7.35305 3.3649904999999998 -7.76896 6.4455105 -2.34422 6.4077005 0.8129149999999999 0.056715 0.5671499999999999 0.3781 0.6805800000000001 1.228825 -0.018904999999999998 1.77707 -1.47459 3.32728 1.6258299999999999 -0.056715 3.401905 -0.6427700000000001 0.341285 -1.077585 1.0945 -0.52934 5.273499999999999 0.03383 0.298898 0.08358 0.5955075000000001 0.15123999999999999 0.888535 0.369145 0.18875150000000002 0.777095 0.2878535 1.1910150000000002 0.289346 0.41391999999999995 0.0014925000000000001 0.822865 -0.0946245 1.193005 -0.28058999999999995 0.37013999999999997 -0.1859655 0.691525 -0.4566055 0.93729 -0.789831 0.24576499999999998 -0.33332500000000004 0.40993999999999997 -0.7197830000000001 0.478595 -1.1283299999999998 0.291535 0.5221760000000001 0.75421 0.928335 1.30942 1.1503195 0.5552100000000001 0.2219845 1.1701199999999998 0.2464615 1.74125 0.069252 0.5711299999999999 -0.17720950000000002 1.06465 -0.5452600000000001 1.3969799999999999 -1.0426605 0.331335 -0.497301 0.482575 -1.093704 0.42785 -1.689311 0.46466500000000005 0.333723 1.025845 0.505062 1.5979700000000001 0.48755 0.5711299999999999 -0.017512 1.121365 -0.22288 1.56414 -0.584264 0.44377 -0.3614835 0.755205 -0.858884 0.88754 -1.415288 0.132335 -0.556404 0.07761 -1.140867 -0.156215 -1.663043 0.5601849999999999 0.1509415 1.1542 0.111042 1.688515 -0.11343 0.534315 -0.2243725 0.97908 -0.6205815 1.2626549999999999 -1.125942 0.28457 -0.5052610000000001 0.39203 -1.0908185000000001 0.305465 -1.6641375 -0.08557 -0.573319 -0.36019 -1.1015645 -0.78008 -1.5013554999999998 0.60894 -0.027959499999999998 1.189025 -0.268849 1.638765 -0.6806795 0.44974000000000003 -0.411731 0.7402799999999999 -0.9683339999999999 0.82187 -1.5725975 0.080595 -0.6042635 -0.052735 -1.2179795 -0.377105 -1.733887 -0.325365 -0.5159075 -0.8208749999999999 -0.90147 -1.40096 -1.089326Z" stroke-width="1"></path></g><g id="outlines"><path id="Vector_20" stroke="#120071" d="M64.3517245 83.96805c0.689137 0 1.24773 -0.558593 1.24773 -1.24773 0 -0.6890375 -0.558593 -1.24773 -1.24773 -1.24773 -0.6890375 0 -1.24773 0.5586925 -1.24773 1.24773 0 0.689137 0.5586925 1.24773 1.24773 1.24773Z" stroke-width="1"></path><path id="Vector_21" stroke="#120071" d="M75.5812945 93.49616999999999c0 0.24685949999999998 -0.07313249999999999 0.48804749999999997 -0.2102435 0.6932165 -0.137111 0.205169 -0.3320315 0.365165 -0.559986 0.45959049999999996 -0.2279545 0.0944255 -0.4788935 0.1191015 -0.7208775000000001 0.0709435 -0.24208349999999998 -0.048058500000000004 -0.4643665 -0.166961 -0.6388895 -0.34138450000000004 -0.174523 -0.174523 -0.29332600000000003 -0.39690549999999997 -0.341484 -0.6388895 -0.048158 -0.24208349999999998 -0.0233825 -0.492923 0.07104300000000001 -0.7208775000000001 0.0944255 -0.22805399999999998 0.254322 -0.422875 0.459491 -0.559986 0.20526850000000002 -0.137111 0.4464565 -0.210343 0.6932165 -0.210343 0.33014099999999996 0.0026865 0.645954 0.134922 0.8793810000000001 0.368349 0.2335265 0.233427 0.365762 0.5493395 0.368349 0.8793810000000001Z" stroke-width="1"></path><path id="Vector_22" stroke="#120071" d="M87.244585 84.42177000000001c0 0.24685949999999998 -0.07313249999999999 0.48804749999999997 -0.2102435 0.6932165 -0.137111 0.205169 -0.331932 0.365165 -0.559986 0.45959049999999996 -0.2279545 0.0944255 -0.478794 0.1191015 -0.7208775000000001 0.0709435 -0.241984 -0.048058500000000004 -0.4643665 -0.166961 -0.6388895 -0.341484 -0.1744235 -0.1744235 -0.29332600000000003 -0.396806 -0.341484 -0.63879 -0.048058500000000004 -0.24208349999999998 -0.0233825 -0.492923 0.07104300000000001 -0.720977 0.0944255 -0.2279545 0.254322 -0.42277549999999997 0.45959049999999996 -0.5598865 0.205169 -0.137111 0.446357 -0.210343 0.693117 -0.210343 0.3300415 0.0028854999999999996 0.645755 0.13532 0.879182 0.3686475 0.2333275 0.233427 0.365762 0.549041 0.368548 0.8790825Z" stroke-width="1"></path><path id="Vector_23" stroke="#120071" d="M100.06118 95.083195c0 0.24685949999999998 -0.07263499999999999 0.4882465 -0.209945 0.693515 -0.13631500000000002 0.205368 -0.331335 0.365364 -0.5594885 0.45998849999999997 -0.2279545 0.0946245 -0.4788935 0.11939999999999999 -0.720977 0.071441 -0.24208349999999998 -0.048058500000000004 -0.464466 -0.1668615 -0.6390885 -0.341285 -0.17462249999999999 -0.1744235 -0.293525 -0.396806 -0.34178250000000004 -0.63879 -0.048158 -0.24208349999999998 -0.0235815 -0.4930225 0.070844 -0.7210765 0.0944255 -0.22805399999999998 0.254322 -0.4229745 0.45959049999999996 -0.5600854999999999 0.205169 -0.13721049999999999 0.4464565 -0.2104425 0.6932165 -0.2104425 0.329942 0.0028854999999999996 0.6454565000000001 0.135121 0.8784855 0.368349 0.23382499999999998 0.23312850000000002 0.36616 0.5485435 0.369145 0.878386Z" stroke-width="1"></path><path id="Vector_24" stroke="#120071" d="M110.949465 84.42177000000001c0 0.24685949999999998 -0.07363 0.48804749999999997 -0.209945 0.6932165 -0.13731000000000002 0.205169 -0.33233 0.365165 -0.5601849999999999 0.45959049999999996 -0.227855 0.0944255 -0.478595 0.1191015 -0.721375 0.0709435 -0.241785 -0.048058500000000004 -0.46367 -0.166961 -0.63879 -0.341484 -0.174125 -0.1744235 -0.29252999999999996 -0.396806 -0.341285 -0.63879 -0.047760000000000004 -0.24208349999999998 -0.022885 -0.492923 0.070645 -0.720977 0.094525 -0.2279545 0.25472 -0.42277549999999997 0.45969000000000004 -0.5598865 0.20596499999999998 -0.137111 0.446755 -0.210343 0.693515 -0.210343 0.33034 0.0028854999999999996 0.645755 0.13532 0.87958 0.3686475 0.23283 0.233427 0.365165 0.549041 0.36815 0.8790825Z" stroke-width="1"></path><path id="Vector_25" stroke="#120071" d="M124.56007000000001 85.14016c0 0.24676 -0.07363 0.48804749999999997 -0.209945 0.6932165 -0.13731000000000002 0.205169 -0.33233 0.365165 -0.5601849999999999 0.45959049999999996 -0.227855 0.0944255 -0.478595 0.1191015 -0.721375 0.0709435 -0.241785 -0.048158 -0.46367 -0.166961 -0.63879 -0.341484 -0.174125 -0.1744235 -0.293525 -0.396806 -0.341285 -0.63879 -0.047760000000000004 -0.24208349999999998 -0.022885 -0.492923 0.070645 -0.720977 0.094525 -0.2279545 0.25472 -0.42277549999999997 0.45969000000000004 -0.5598865 0.20596499999999998 -0.137111 0.446755 -0.210343 0.693515 -0.210343 0.33034 0.0028854999999999996 0.645755 0.1352205 0.87958 0.3686475 0.23283 0.2333275 0.365165 0.549041 0.36815 0.8790825Z" stroke-width="1"></path><path id="Vector_26" stroke="#120071" d="M138.37863000000002 84.42177000000001c0.6895349999999999 0 1.24773 -0.558593 1.24773 -1.24773 0 -0.6890375 -0.558195 -1.24773 -1.24773 -1.24773 -0.6885399999999999 0 -1.24773 0.5586925 -1.24773 1.24773 0 0.689137 0.5591900000000001 1.24773 1.24773 1.24773Z" stroke-width="1"></path><path id="Vector_27" stroke="#120071" d="M132.952895 96.61449999999999c0 0.24676 -0.07363 0.48804749999999997 -0.209945 0.6932165 -0.13731000000000002 0.205169 -0.33233 0.3650655 -0.5601849999999999 0.45959049999999996 -0.227855 0.0944255 -0.478595 0.1191015 -0.721375 0.0709435 -0.241785 -0.048158 -0.46367 -0.166961 -0.63879 -0.341484 -0.174125 -0.1744235 -0.29252999999999996 -0.396806 -0.341285 -0.63879 -0.047760000000000004 -0.24208349999999998 -0.022885 -0.492923 0.070645 -0.720977 0.094525 -0.2279545 0.25472 -0.422875 0.45969000000000004 -0.5598865 0.20596499999999998 -0.137111 0.446755 -0.210343 0.693515 -0.210343 0.16417500000000002 -0.0016914999999999999 0.327355 0.029352499999999997 0.47958999999999996 0.0914405 0.152235 0.062088 0.29053999999999996 0.1539265 0.40695499999999996 0.2701425 0.11542000000000001 0.116216 0.207955 0.25452100000000005 0.269645 0.40665650000000003 0.062685 0.1521355 0.09353 0.31521600000000005 0.09154 0.4794905Z" stroke-width="1"></path><path id="Vector_28" stroke="#120071" d="M156.90354 55.139915c-0.00796 0.1730305 -0.08358 0.335912 -0.21094 0.452924 -0.12736 0.11701199999999999 -0.29651 0.178503 -0.46963999999999995 0.170941 -0.17312999999999998 -0.0074624999999999995 -0.33631 -0.083381 -0.452725 -0.21103950000000002 -0.11740999999999999 -0.1276585 -0.17909999999999998 -0.29651 -0.17114 -0.46954049999999997 0.00398 -0.08557 0.023880000000000002 -0.1696475 0.060695 -0.247357 0.03582 -0.0777095 0.08756 -0.14755849999999998 0.150245 -0.2054675 0.06368 -0.057909 0.13731000000000002 -0.102883 0.217905 -0.13223549999999998 0.080595 -0.029352499999999997 0.166165 -0.0424865 0.251735 -0.038805 0.08557 0.003781 0.17014500000000002 0.024278 0.247755 0.060496 0.07761 0.036218 0.14726 0.08746050000000001 0.20496999999999999 0.150643 0.057710000000000004 0.0631825 0.10347999999999999 0.13721049999999999 0.132335 0.21770599999999998 0.028855000000000002 0.080595 0.042785 0.166165 0.038805 0.251735Z" stroke-width="1"></path><path id="Vector_29" stroke="#120071" stroke-linecap="round" stroke-linejoin="round" d="M45.486225999999995 77.995065V47.99482" stroke-width="1"></path><path id="Vector_30" stroke="#120071" stroke-linecap="round" stroke-linejoin="round" d="M45.486225999999995 84.55410499999999v-6.10532" stroke-width="1"></path><path id="Vector_31" stroke="#120071" stroke-linecap="round" stroke-linejoin="round" d="M45.486225999999995 194.025V91.813625" stroke-width="1"></path><path id="Vector_32" stroke="#120071" stroke-linecap="round" stroke-linejoin="round" d="M48.265261 90.112175V194.025" stroke-width="1"></path><path id="Vector_33" stroke="#120071" stroke-linecap="round" stroke-linejoin="round" d="M48.265261 80.301475v3.137235" stroke-width="1"></path><path id="Vector_34" stroke="#120071" stroke-linecap="round" stroke-linejoin="round" d="M48.265261 47.99482v30.170389999999998" stroke-width="1"></path><path id="Vector_35" stroke="#120071" stroke-linecap="round" stroke-linejoin="round" d="M148.64305 84.9512095c4.731225 10.7373435 5.3133 22.8480855 1.632795 33.9891005 -3.67951 11.14201 -11.360909999999999 20.52287 -21.556675 26.32969" stroke-width="1"></path><path id="Vector_36" stroke="#120071" stroke-linecap="round" stroke-linejoin="round" d="M64.89967100000001 79.318415c3.985174 -6.495161 9.477773 -11.933532499999998 16.0120375 -15.8540315 3.1138525 -1.868212 6.4204365 -3.365488 9.852092 -4.4708334999999995m51.646569500000005 15.642395c-4.7381899999999995 -5.968209 -10.8455 -10.705802 -17.80453 -13.811197 -0.4577 -0.204373 -0.918385 -0.4012835 -1.382055 -0.5907315" stroke-width="1"></path><path id="Vector_37" stroke="#120071" stroke-linecap="round" stroke-linejoin="round" d="M86.979915 147.786355c-8.612321999999999 -3.610855 -15.966068499999999 -9.68533 -21.1380785 -17.460259999999998 -5.17201 -7.775925 -7.931742 -16.906045 -7.9328365 -26.244120000000002 -0.000199 -4.6610775 0.6802815 -9.297279999999999 2.0197505000000002 -13.761845" stroke-width="1"></path><path id="Vector_38" stroke="#120071" stroke-linecap="round" stroke-linejoin="round" d="M113.255875 150.79225000000002c-2.615855 0.55123 -5.28942 0.773115 -7.96 0.661675 -1.2935 0 -2.5939650000000003 -0.051739999999999994 -3.87453 -0.154225" stroke-width="1"></path><path id="Vector_39" stroke="#120071" stroke-linecap="round" stroke-linejoin="round" d="M150.325595 83.24966c-3.7053800000000003 3.7053800000000003 -8.605754999999998 9.07042 -13.66732 15.17972 -1.2626549999999999 1.529315 -3.06062 2.51934 -5.026739999999999 2.76809 -1.9671150000000002 0.249745 -3.9551250000000002 -0.26069000000000003 -5.5590649999999995 -1.425835 -4.4426749999999995 -3.2317600000000004 -7.44857 -5.557075 -12.325065 -9.13012" stroke-width="1"></path><path id="Vector_40" stroke="#120071" stroke-linecap="round" stroke-linejoin="round" d="m101.41835999999999 72.94146 1.53429 -2.18701" stroke-width="1"></path><path id="Vector_41" stroke="#120071" stroke-linecap="round" stroke-linejoin="round" d="M141.55865 75.16528500000001c-4.1640749999999995 3.6133425 -7.895325 7.6964245 -11.12012 12.167855 0 0 -9.433595 -7.899305 -15.897115 -11.833535000000001 -6.67446 -4.062585 -8.24457 2.6467 -8.979875 -2.930275 -0.550235 -4.179 -0.11343 -4.9352 0.52934 -5.273499999999999 3.383 -1.78304 1.827815 -4.8854500000000005 0.056715 -3.4029 -1.053705 0.882565 -1.17211 0.4975 -1.216885 -0.327355 -0.17512 -3.184 -3.1571350000000002 -7.96 -6.400835 -0.466655 -4.577 10.566899999999999 4.422775000000001 7.65553 4.422775000000001 7.65553" stroke-width="1"></path><path id="Vector_42" stroke="#120071" stroke-linecap="round" stroke-linejoin="round" d="M101.47806 71.0629c0.11243500000000001 1.6198599999999999 -0.152235 4.229745 -1.75717 3.85065 -4.1193 -0.97311 -5.88244 -0.32636000000000004 -8.223675 1.4925 -4.6566 3.6198099999999998 -14.1211395 8.978879999999998 -14.1211395 8.978879999999998 -5.613790000000001 -3.383 -9.6782655 -4.838685000000001 -14.913955499999998 -7.08838 -2.7735625 3.0648985 -4.3846665 7.0050985 -4.55312 11.135045 7.4625 3.1949449999999997 10.322130000000001 5.026739999999999 16.162779999999998 7.88239 1.3082259999999999 0.6435660000000001 2.7572445 0.948036 4.2139245 0.8852515000000001 1.4565805 -0.06278450000000001 2.8740575 -0.490734 4.122086 -1.2444465 3.6705550000000002 -2.2248200000000002 7.12619 -4.271535 10.888285 -6.25656" stroke-width="1"></path><path id="Vector_43" stroke="#120071" stroke-linecap="round" stroke-linejoin="round" d="M145.67496500000001 75.197125c-2.2536750000000003 -1.127335 -4.26059 -0.82983 -4.530235 0.90346 -0.231835 1.4925 0.7810750000000001 3.25365 1.744235 4.408845 1.344245 1.6904055 3.23773 2.8575405000000003 5.352105 3.29942 0.49152999999999997 0.1374095 1.01689 0.086167 1.4726 -0.1437775 0.45571 -0.2299445 0.808935 -0.621875 0.99102 -1.0989775" stroke-width="1"></path><path id="Vector_44" stroke="#120071" stroke-linecap="round" stroke-linejoin="round" d="M92.12108 82.777035c0.409343 6.243824 2.0070145 12.352029499999999 4.707345 17.996565 5.771 1.531305 10.45347 1.17211 16.295115 -0.6049599999999999 -0.45969000000000004 -4.374816 0.11740999999999999 -8.7962975 1.682545 -12.90714" stroke-width="1"></path><path id="Vector_45" stroke="#120071" stroke-linecap="round" stroke-linejoin="round" d="M146.75255 83.4009995c2.68053 -1.0331085 5.435685 -1.8607495 8.24258 -2.4755599999999998 2.51536 -0.4305365 5.072509999999999 -0.5574985 7.617719999999999 -0.3781 3.744185 0.22089 4.34218 -0.625855 0.47262499999999996 -1.9472150000000001 -1.419865 -0.48556 -8.676400000000001 -1.5133949999999998 -10.283325000000001 -1.73926 -2.5710800000000003 -0.361185 -6.368 -0.737295 -8.885349999999999 -0.8129149999999999 -0.19104000000000002 0.000398 -0.38208000000000003 0.012338 -0.5711299999999999 0.03582" stroke-width="1"></path><path id="Vector_46" stroke="#120071" stroke-linecap="round" stroke-linejoin="round" d="M141.13876000000002 76.9135995c0.05373 -0.03383 8.77789 -3.2834999999999996 12.249445 -4.875500000000001 4.028755 -1.8516949999999999 2.944205 -0.41989 1.909405 0.8129149999999999 -0.76018 0.904455 -4.518295 3.4029 -2.49546 4.00786" stroke-width="1"></path><path id="Vector_47" stroke="#120071" stroke-linecap="round" stroke-linejoin="round" d="M149.32363 82.4855c2.2885 -0.5482450000000001 6.8058 -0.07263499999999999 8.808735 0.04179 1.6258299999999999 0.09353 3.9889550000000003 0.62685 5.803835 0.796 0.41591 0.038805 0.86963 -0.5671499999999999 -1.55021 -1.55021 -0.908435 -0.367155 -2.50939 -1.03082 -3.26559 -1.26365" stroke-width="1"></path><path id="Vector_48" stroke="#120071" stroke-linecap="round" stroke-linejoin="round" d="M149.227115 82.52729c1.8825399999999999 0.006965 3.758115 0.21103950000000002 5.59787 0.60894 1.4925 0.34029000000000004 3.99393 1.2845449999999998 5.5948850000000006 1.720355 0.398 0.108455 0.9452499999999999 -0.41591 -1.266635 -1.7959749999999999 -0.16716 -0.11144 -0.480585 -0.2985 -0.850725 -0.5174" stroke-width="1"></path><path id="Vector_49" stroke="#120071" stroke-linecap="round" stroke-linejoin="round" d="M58.07616 87.74905c-3.0529585 -0.4526255 -6.1396475 -0.6361034999999999 -9.224645 -0.5482450000000001 -2.5478965000000002 0.19472150000000002 -5.0656445 0.6766995 -7.505285 1.43678 -3.590955 1.11639 -4.378 0.40993999999999997 -0.9263450000000001 -1.791 5.8283119999999995 -2.7783385 11.856619 -5.1161905 18.034375 -6.993855 0.8763960000000001 -0.239397 1.804134 -0.2130295 2.665605 0.07561999999999999" stroke-width="1"></path><path id="Vector_50" stroke="#120071" stroke-linecap="round" stroke-linejoin="round" d="M50.0792455 82.72032c1.81488 -1.077585 -2.474565 -2.587 -3.4208100000000004 -3.2834999999999996 -1.2845449999999998 -0.94724 -2.701425 -2.0696 1.66364 -1.24773 3.656227 0.744459 7.357228999999999 1.2490235 11.079324999999999 1.51041" stroke-width="1"></path><path id="Vector_51" stroke="#120071" stroke-linecap="round" stroke-linejoin="round" d="M44.711121 87.78685999999999c-0.796 0.49152999999999997 -2.3800399999999997 1.6477199999999999 -2.83575 1.99 -2.0895 1.545235 -1.53031 2.02582 -1.1342999999999999 1.8904999999999998 1.573095 -0.5373 3.9889550000000003 -1.682545 5.444640000000001 -2.136265 2.363125 -0.737295 6.89933 -2.30641 9.054499999999999 -2.07955" stroke-width="1"></path><path id="Vector_52" stroke="#120071" stroke-linecap="round" stroke-linejoin="round" d="M46.053376 89.56393c-0.32138500000000003 0.32138500000000003 -0.5671499999999999 0.586055 -0.71839 0.71839 -1.81488 1.8526900000000002 -1.175095 2.2447199999999996 -0.8129149999999999 2.04174 1.44474 -0.8129149999999999 3.6496600000000003 -2.30243 5.02873 -2.985 1.6850325 -0.7956019999999999 3.437128 -1.4409589999999999 5.23569 -1.92831" stroke-width="1"></path><path id="Vector_53" stroke="#120071" stroke-linecap="round" stroke-linejoin="round" d="M94.5408205 191.18925000000002c-0.2189 -2.205915 -0.701276 -4.377005 -1.43678 -6.4675 -4.0338295 1.153205 -8.310140500000001 1.153205 -12.34397 0 -5.34912 1.55021 -11.455435 6.29437 -14.65038 9.28136 10.737045 0 17.845325 -0.094525 26.01129 -0.11343 0.34228 0.000995 0.6808785 -0.070645 0.9935075000000001 -0.21094 0.3127285 -0.1393 0.592423 -0.34228 0.8208749999999999 -0.5979949999999999 0.228452 -0.25472 0.40038799999999997 -0.5552100000000001 0.5047634999999999 -0.880575 0.1043755 -0.32636000000000004 0.138703 -0.6706300000000001 0.10069399999999999 -1.01092v0Z" stroke-width="1"></path><path id="Vector_54" stroke="#120071" stroke-linecap="round" stroke-linejoin="round" d="M99.56965 155.13642c0.124375 5.278474999999999 -4.085669 15.74488 -6.4676990000000005 29.60722" stroke-width="1"></path><path id="Vector_55" stroke="#120071" stroke-linecap="round" stroke-linejoin="round" d="m80.76017 184.72473499999998 6.14512 -31.745475000000003" stroke-width="1"></path><path id="Vector_56" stroke="#120071" stroke-linecap="round" stroke-linejoin="round" d="m107.659 131.77580999999998 -7.42867 23.25116c-4.8951015 0.8616699999999999 -9.9371645 -0.03582 -14.23447 -2.53327l10.832565 -51.7002" stroke-width="1"></path><path id="Vector_57" stroke="#120071" stroke-linecap="round" stroke-linejoin="round" d="m154.484695 175.06428 -3.51633 -1.8904999999999998c-1.3989699999999998 4.5929199999999994 -3.0845000000000002 5.95408 -7.410760000000001 8.78983 2.174075 3.2516599999999998 1.66364 4.858585 1.417875 5.80284 -2.2885 2.15517 -3.4397149999999996 2.12731 -5.027735 6.248600000000001h7.96c1.06863 0.023880000000000002 2.122335 -0.2587 3.03674 -0.8129149999999999 0.91341 -0.554215 1.650705 -1.358175 2.124325 -2.31636 1.194 -2.587 2.189 -7.825675 3.3073799999999998 -10.90719 0.34825 -0.908435 0.347255 -1.9123899999999998 -0.00199 -2.820825 -0.34924499999999997 -0.90744 -1.02286 -1.652695 -1.889505 -2.09348v0Z" stroke-width="1"></path><path id="Vector_58" stroke="#120071" stroke-linecap="round" stroke-linejoin="round" d="M143.57651 181.96460499999998 120.797975 157.409" stroke-width="1"></path><path id="Vector_59" stroke="#120071" stroke-linecap="round" stroke-linejoin="round" d="M130.7032 149.63904499999998c3.2039 2.635755 6.1013399999999995 5.622745 8.639585 8.904255 3.475535 4.765054999999999 11.62558 14.6265 11.62558 14.6265" stroke-width="1"></path><path id="Vector_60" stroke="#120071" stroke-linecap="round" stroke-linejoin="round" d="m102.95264999999999 113.854865 8.6963 33.176285c0.66068 2.518345 2.008905 4.801869999999999 3.8944300000000003 6.59685l4.3332250000000005 4.1252699999999995c4.617795 -1.48852 8.56894 -4.546155 11.166885 -8.643564999999999l-3.91234 -6.4675 -2.476555 -25.217280000000002c-0.9094300000000001 -9.3928 -6.516255 -15.869254999999999 -11.531055 -17.25927" stroke-width="1"></path><path id="Vector_61" stroke="#120071" stroke-linecap="round" stroke-linejoin="round" d="M109.701735 74.13844499999999c-3.18599 4.0065665 -5.71926 8.4916285 -7.50429 13.28922 -2.514365 -4.140194999999999 -4.9750995 -12.935 -4.9750995 -12.935" stroke-width="1"></path><path id="Vector_62" stroke="#120071" stroke-linecap="round" stroke-linejoin="round" d="M26.052881000000003 194.025H176.412505" stroke-width="1"></path><path id="Vector_63" stroke="#120071" stroke-linecap="round" stroke-linejoin="round" d="M158.434845 38.3354595c-7.485385 -1.417875 -14.6265 2.985 -15.92 9.829604999999999 -0.43979 2.3979500000000002 -0.12935 4.8734105 0.88953 7.08838l-3.232755 5.2934 6.12522 -1.24773c2.056665 1.97209 4.645655 3.2995195 7.4475750000000005 3.81881 7.485385 1.417875 14.6265 -2.985 15.92 -9.829604999999999 1.30345 -6.84361 -3.724285 -13.534984999999999 -11.229569999999999 -14.952860000000001Z" stroke-width="1"></path><path id="Vector_64" stroke="#120071" stroke-linecap="round" stroke-linejoin="round" d="M156.241865 52.26735c0.018904999999999998 -0.850725 0.345265 -1.471605 1.3989699999999998 -2.87356 2.273575 -3.0238050000000003 0.8955 -5.107335 -1.039775 -5.198874999999999 -0.34625999999999996 -0.0154225 -0.691525 0.045571 -1.01092 0.1788015 -0.319395 0.133131 -0.605955 0.3352155 -0.838785 0.5917265 -0.23283 0.256511 -0.40695499999999996 0.5612795 -0.508445 0.8924155 -0.10149 0.331136 -0.128355 0.6806795 -0.0796 1.0235565" stroke-width="1"></path><path id="Vector_65" stroke="#120071" stroke-linecap="round" stroke-linejoin="round" d="M148.03809 143.89292h4.08348" stroke-width="1"></path><path id="Vector_66" stroke="#120071" stroke-linecap="round" stroke-linejoin="round" d="M159.36119 143.874015h4.08348" stroke-width="1"></path><path id="Vector_67" stroke="#120071" stroke-linecap="round" stroke-linejoin="round" d="M155.74138 136.17968v4.08348" stroke-width="1"></path><path id="Vector_68" stroke="#120071" stroke-linecap="round" stroke-linejoin="round" d="M155.760285 147.503775v4.082485" stroke-width="1"></path><path id="Vector_69" stroke="#120071" stroke-linecap="round" stroke-linejoin="round" d="m150.287785 138.44828 2.892465 2.87356" stroke-width="1"></path><path id="Vector_70" stroke="#120071" stroke-linecap="round" stroke-linejoin="round" d="m158.321415 146.445095 2.892465 2.872565" stroke-width="1"></path><path id="Vector_71" stroke="#120071" stroke-linecap="round" stroke-linejoin="round" d="m161.194975 138.429375 -2.892465 2.892465" stroke-width="1"></path><path id="Vector_72" stroke="#120071" stroke-linecap="round" stroke-linejoin="round" d="m153.199155 146.445095 -2.892465 2.89147" stroke-width="1"></path><path id="Vector_73" stroke="#120071" stroke-linecap="round" stroke-linejoin="round" d="M26.128600499999997 47.99482c-0.6207805 -0.0012935 -1.2303175 -0.1656675 -1.767518 -0.47670450000000003s-0.983259 -0.757792 -1.2935 -1.2955895c-0.31014149999999996 -0.537698 -0.4735205 -1.147434 -0.473819 -1.7682144999999998 -0.0002985 -0.6207805 0.16258299999999998 -1.230815 0.472227 -1.7688115l20.73779 -35.93837515c0.31163399999999997 -0.5388124 0.7594835 -0.98617435 1.2985745 -1.2972014 0.539091 -0.31101710000000005 1.1506180000000001 -0.47474435 1.7729905000000001 -0.47474435 0.622472 0 1.2338995 0.16372725 1.7729905000000001 0.47474435 0.5391905 0.31102704999999997 0.98704 0.758389 1.2985745 1.2972014L70.6847005 42.6855c0.31073850000000003 0.5380959999999999 0.4745155 1.148429 0.47471450000000004 1.769707 0.0002985 0.6213775 -0.162981 1.23181 -0.4733215 1.7701049999999998 -0.3103405 0.5382950000000001 -0.756797 0.985448 -1.2945944999999999 1.2965845 -0.5377974999999999 0.3111365 -1.148031 0.475212 -1.7694085 0.4759085l-41.49349 -0.0029850000000000002Z" stroke-width="1"></path><path id="Vector_74" stroke="#120071" stroke-linecap="round" stroke-linejoin="round" d="M76.37420999999999 27.220215c0.0335315 0.3738215 -0.044476499999999995 0.7491355000000001 -0.224273 1.0784805000000002 -0.1797965 0.32944450000000003 -0.45322250000000003 0.598194 -0.785652 0.77212 -0.332529 0.1740255 -0.7091365 0.24556599999999998 -1.0822615 0.205567 -0.373125 -0.039999 -0.7260515 -0.1897465 -1.0140045 -0.4303375 -0.2880525 -0.240591 -0.498296 -0.5611799999999999 -0.6040645 -0.921171 -0.10586799999999999 -0.3600905 -0.1025845 -0.7433645 0.009452499999999999 -1.1015645 0.11203700000000001 -0.35819999999999996 0.327753 -0.6751075 0.619885 -0.910624 0.292132 -0.23561600000000002 0.6475460000000001 -0.3791945 1.021268 -0.4128255 0.5009825 -0.043680500000000004 0.9988805000000001 0.112833 1.384841 0.435213 0.38596050000000004 0.3222805 0.628641 0.784458 0.674809 1.285142v0Z" stroke-width="1"></path><path id="Vector_75" stroke="#120071" stroke-linecap="round" stroke-linejoin="round" d="M60.996485 164.87548v7.63762" stroke-width="1"></path><path id="Vector_76" stroke="#120071" stroke-linecap="round" stroke-linejoin="round" d="M64.824051 168.69429h-7.65553" stroke-width="1"></path><path id="Vector_77" stroke="#120071" stroke-linecap="round" stroke-linejoin="round" d="M105.71278 73.457865c0.365165 0.19621399999999997 0.7711250000000001 0.30247999999999997 1.18604 0.30984300000000004 0.41391999999999995 0.007363000000000001 0.8238599999999999 -0.08427649999999999 1.1959899999999999 -0.2673565 0.371135 -0.18308 0.69451 -0.452327 0.940275 -0.785254 0.24676 -0.33292700000000003 0.410935 -0.7198825 0.47759999999999997 -1.1288275 0.291535 0.5221760000000001 0.75421 0.928335 1.30942 1.1503195 0.5552100000000001 0.222084 1.1701199999999998 0.2464615 1.74125 0.069252 0.5711299999999999 -0.17720950000000002 1.06465 -0.5452600000000001 1.395985 -1.0426605 0.33233 -0.497301 0.48357 -1.093704 0.428845 -1.689311 0.46466500000000005 0.333723 1.025845 0.505062 1.5979700000000001 0.48755 0.5711299999999999 -0.017512 1.121365 -0.2227805 1.56414 -0.584264 0.44377 -0.3614835 0.755205 -0.858884 0.88754 -1.415288 0.132335 -0.556404 0.07761 -1.140867 -0.156215 -1.663043 0.39004 0.10875349999999999 0.7989850000000001 0.1248725 1.196985 0.046964 0.397005 -0.078008 0.77013 -0.247755 1.089525 -0.49580850000000004 0.319395 -0.24805349999999998 0.5771 -0.5674485 0.751225 -0.9326135 0.174125 -0.3652645 0.26069000000000003 -0.76615 0.251735 -1.170717 -0.0059700000000000005 -0.347255 -0.08159000000000001 -0.6898335 -0.22089 -1.0078354999999999 -0.1393 -0.3181015 -0.34029000000000004 -0.6052584999999999 -0.592025 -0.8448545 0.6805800000000001 -0.0190045 1.326335 -0.30556449999999996 1.79697 -0.7974924999999999 0.47063499999999997 -0.491928 0.72834 -1.1495235 0.717395 -1.8303025 -0.00995 -0.5501355 -0.192035 -1.083356 -0.5213800000000001 -1.5242405 -0.32835000000000003 -0.440984 -0.7880400000000001 -0.767543 -1.312405 -0.9334095 0.546255 -0.160792 1.02684 -0.494714 1.3671300000000002 -0.9515185 0.341285 -0.456705 0.524365 -1.0118155 0.52337 -1.5817515 -0.008955 -0.664262 -0.27263000000000004 -1.2997685 -0.737295 -1.7747815 -0.46466500000000005 -0.4749135 -1.0945 -0.7529165 -1.758165 -0.7763985 0.39203 -0.3549165 0.6666500000000001 -0.820676 0.787045 -1.3353895 0.12139 -0.5147134999999999 0.082585 -1.0541029999999998 -0.110445 -1.546429 -0.192035 -0.49222649999999996 -0.530335 -0.9143055 -0.9691299999999999 -1.2099199999999999 -0.4378 -0.29571400000000003 -0.9561949999999999 -0.4510335 -1.48454 -0.4454615 -0.21094 0.0046765 -0.420885 0.036417 -0.623865 0.094525 0.24278 -0.5180965000000001 0.30944499999999997 -1.1019625 0.18706 -1.6613514999999999 -0.12139 -0.5592895 -0.42386999999999997 -1.0629585 -0.860675 -1.4330984999999998 -0.436805 -0.3700405 -0.9830599999999999 -0.586055 -1.555185 -0.6144125 -0.5711299999999999 -0.028457 -1.1362899999999998 0.13223549999999998 -1.60792 0.4572025 0.06567 -0.593816 -0.07363 -1.1923085 -0.397005 -1.6949825 -0.323375 -0.502674 -0.808935 -0.8788834999999999 -1.3770799999999999 -1.065645 -0.5671499999999999 -0.186662 -1.1820599999999999 -0.17243350000000002 -1.740255 0.040396999999999995 -0.558195 0.21273099999999998 -1.025845 0.6111289999999999 -1.32534 1.1282305 -0.42188 -2.906395 -4.85759 -2.974055 -5.312305 -0.018904999999999998 -0.29551499999999997 -0.5191910000000001 -0.76018 -0.921171 -1.31738 -1.138479 -0.5562050000000001 -0.217308 -1.1701199999999998 -0.23681 -1.73926 -0.055123 -0.570135 0.18168700000000002 -1.05868 0.5533195000000001 -1.38703 1.052909 -0.327355 0.49949 -0.47362 1.0964900000000002 -0.41391999999999995 1.690903 -0.468446 -0.329345 -1.032213 -0.49541050000000003 -1.604338 -0.47262499999999996 -0.572125 0.0227855 -1.1208675000000001 0.23312850000000002 -1.561553 0.598592 -0.440785 0.365563 -0.749036 0.865849 -0.8772915 1.4239445 -0.1282555 0.5579959999999999 -0.0693515 1.1427575 0.16765750000000001 1.6639385 -0.562374 -0.1529315 -1.1596724999999999 -0.11303200000000001 -1.6965745 0.1133305 -0.5370014999999999 0.226462 -0.9825625 0.626253 -1.2655405 1.135693 -0.282978 0.5093405 -0.38705500000000004 1.098878 -0.29561449999999995 1.6743860000000002 0.0914405 0.575508 0.373125 1.1037535 0.8000795 1.5003605 -0.616701 0.019104 -1.206338 0.2570085 -1.6635404999999999 0.671227s-0.7519215 0.9775875 -0.8316209999999999 1.589413c-0.0796 0.611726 0.0611925 1.23181 0.3971045 1.74921 0.3360115 0.5174995 0.845153 0.8983855000000001 1.436382 1.0746 -0.592224 0.1716375 -1.103853 0.5485435 -1.4434465 1.0631575 -0.3395935 0.514614 -0.4848635 1.1332055 -0.409741 1.74523 0.07502299999999999 0.6119249999999999 0.365563 1.1771845 0.8193825 1.5943880000000001 0.453919 0.4172035 1.041566 0.659287 1.65767 0.6826695 -0.4277505 0.394418 -0.7109275 0.9208725 -0.8041590000000001 1.4950869999999998 -0.093331 0.574314 0.0086565 1.1632545 0.289545 1.6726945 0.280789 0.5095395 0.7244594999999999 0.9101265 1.259869 1.1378819999999998 0.5353100000000001 0.227656 1.1316135 0.269247 1.69349 0.1181065 -0.19671149999999998 0.4148155 -0.2794955 0.8745055 -0.23979499999999998 1.331907 0.039601000000000004 0.4574015 0.2002935 0.8959975 0.465461 1.2707145 0.2651675 0.3748165 0.6253574999999999 0.672222 1.0434565 0.861869 0.418099 0.1895475 0.8790825 0.26447099999999996 1.3357875000000001 0.2170095" stroke-width="1"></path><path id="Vector_78" stroke="#120071" stroke-linecap="round" stroke-linejoin="round" d="m127.01772000000001 153.77924 -4.9342049999999995 -5.879455" stroke-width="1"></path><path id="Vector_79" stroke="#120071" stroke-linecap="round" stroke-linejoin="round" d="m94.80559 155.121495 2.0228349999999997 -7.33514" stroke-width="1"></path><path id="Vector_80" stroke="#120071" stroke-linecap="round" stroke-linejoin="round" d="M109.701735 106.74758c2.703415 3.26957 5.70931 4.649635 8.94107 4.611825" stroke-width="1"></path><path id="Ellipse 1" stroke="#120071" d="M45.56105 37.518465a1.3134000000000001 1.3134000000000001 0 1 0 2.6268000000000002 0 1.3134000000000001 1.3134000000000001 0 1 0 -2.6268000000000002 0" stroke-width="1"></path><path id="Vector 1" stroke="#120071" stroke-linecap="round" d="M46.8556445 18.799529999999997v12.7219705" stroke-width="1"></path></g></g></svg>