<svg width="500" height="500" viewBox="0 0 500 500" fill="none" xmlns="http://www.w3.org/2000/svg">
<path d="M95.58 383.98C109.183 383.98 120.21 377.614 120.21 369.76C120.21 361.907 109.183 355.54 95.58 355.54C81.9772 355.54 70.95 361.907 70.95 369.76C70.95 377.614 81.9772 383.98 95.58 383.98Z" fill="#E6E6E6" fill-opacity="0.26"/>
<path d="M285.26 293.53L123.38 387C122.755 387.346 122.234 387.853 121.871 388.469C121.508 389.084 121.316 389.785 121.316 390.5C121.316 391.215 121.508 391.916 121.871 392.531C122.234 393.147 122.755 393.654 123.38 394L218.52 448.93C220.911 450.311 223.624 451.037 226.385 451.037C229.146 451.037 231.859 450.311 234.25 448.93L396.13 355.47C396.755 355.124 397.276 354.617 397.639 354.001C398.002 353.386 398.193 352.685 398.193 351.97C398.193 351.255 398.002 350.554 397.639 349.939C397.276 349.323 396.755 348.816 396.13 348.47L301 293.53C298.607 292.148 295.893 291.42 293.13 291.42C290.367 291.42 287.652 292.148 285.26 293.53Z" fill="#E6E6E6" fill-opacity="0.26"/>
<path d="M236.65 294.44L171.85 331.86C170.548 332.61 169.466 333.689 168.714 334.99C167.961 336.291 167.565 337.767 167.565 339.27C167.565 340.773 167.961 342.249 168.714 343.55C169.466 344.851 170.548 345.93 171.85 346.68L204.48 365.52C206.64 366.763 209.088 367.418 211.58 367.418C214.072 367.418 216.52 366.763 218.68 365.52L283.49 328.1C284.79 327.348 285.869 326.268 286.619 324.967C287.369 323.667 287.764 322.191 287.764 320.69C287.764 319.188 287.369 317.713 286.619 316.413C285.869 315.112 284.79 314.032 283.49 313.28L250.85 294.44C248.692 293.192 246.243 292.534 243.75 292.534C241.257 292.534 238.808 293.192 236.65 294.44Z" fill="#E6E6E6" fill-opacity="0.26"/>
<path d="M96.8799 333C96.8799 333 81.6599 318.13 90.3199 293.23C95.1699 279.28 111.26 269.03 120.42 268.07C117.387 271.673 114.968 275.751 113.26 280.14L101.72 287.81L112.33 284.49L110.07 293.57C110.07 293.57 100.21 299.57 98.7499 300.83L109.38 298C109.38 298 108.56 323.72 96.8799 333Z" fill="#4FFFD1"/>
<path opacity="0.4" d="M96.8799 333C96.8799 333 81.6599 318.13 90.3199 293.23C95.1699 279.28 111.26 269.03 120.42 268.07C117.387 271.673 114.968 275.751 113.26 280.14L101.72 287.81L112.33 284.49L110.07 293.57C110.07 293.57 100.21 299.57 98.7499 300.83L109.38 298C109.38 298 108.56 323.72 96.8799 333Z" fill="black"/>
<path d="M96.8801 333C96.8801 333 89.0001 301.89 100.66 283.75C100.66 283.71 87.0001 299.72 96.8801 333Z" fill="white" fill-opacity="0.22"/>
<path d="M114.3 337.17L95.67 336.93H95.48L76.86 337.17C76.86 337.17 76.65 360.11 83.72 369.44C85.72 371.93 90.25 373.67 95.58 373.67C100.91 373.67 105.5 371.92 107.45 369.43C114.5 360.09 114.3 337.17 114.3 337.17Z" fill="#37474F"/>
<path d="M95.5801 347.22C105.919 347.22 114.3 342.721 114.3 337.17C114.3 331.62 105.919 327.12 95.5801 327.12C85.2413 327.12 76.8601 331.62 76.8601 337.17C76.8601 342.721 85.2413 347.22 95.5801 347.22Z" fill="#455A64"/>
<path d="M95.58 334.5C102.02 334.5 107.47 336.57 109.39 339.43C109.864 338.77 110.125 337.982 110.14 337.17C110.14 333.17 103.62 329.98 95.58 329.98C87.54 329.98 81 333.2 81 337.17C81.0168 337.98 81.2744 338.767 81.74 339.43C83.68 336.57 89.14 334.5 95.58 334.5Z" fill="#263238"/>
<path d="M95.58 344.36C103.207 344.36 109.39 342.153 109.39 339.43C109.39 336.707 103.207 334.5 95.58 334.5C87.953 334.5 81.77 336.707 81.77 339.43C81.77 342.153 87.953 344.36 95.58 344.36Z" fill="#E0E0E0" fill-opacity="0.42"/>
<path d="M95.8101 340.67C95.8101 340.67 88.5901 340.39 82.4101 330.81C79.8501 326.86 78.6201 324.81 78.6201 324.81L88.6201 324.06L77.3601 321.25L72.0401 313.11L81.3901 312.41C81.3901 312.41 74.3901 309.97 69.4601 309.94C69.4601 309.94 60.8301 294.71 58.3101 292.54C64.8314 292.941 71.2064 294.644 77.0582 297.551C82.9099 300.457 88.1199 304.506 92.3801 309.46C106.6 326.19 97.9101 341.1 95.8101 340.67Z" fill="#4FFFD1"/>
<path d="M95.81 340.67C95.81 340.67 100.32 313.49 71.53 297.15C71.53 297.15 101.41 311.5 95.81 340.67Z" fill="white" fill-opacity="0.22"/>
<path d="M95.8101 340.67C95.8101 340.67 102.34 341.09 108.81 333.03C111.48 329.71 112.81 327.95 112.81 327.95L103.81 326.33L114.23 324.85L119.8 318L111.43 316.49C111.43 316.49 117.94 314.95 122.43 315.39C122.43 315.39 131.65 302.45 134.13 300.73C128.208 300.48 122.296 301.419 116.743 303.492C111.19 305.565 106.109 308.73 101.8 312.8C87.4302 326.59 93.8701 340.86 95.8101 340.67Z" fill="#4FFFD1"/>
<path opacity="0.2" d="M95.8101 340.67C95.8101 340.67 102.34 341.09 108.81 333.03C111.48 329.71 112.81 327.95 112.81 327.95L103.81 326.33L114.23 324.85L119.8 318L111.43 316.49C111.43 316.49 117.94 314.95 122.43 315.39C122.43 315.39 131.65 302.45 134.13 300.73C128.208 300.48 122.296 301.419 116.743 303.492C111.19 305.565 106.109 308.73 101.8 312.8C87.4302 326.59 93.8701 340.86 95.8101 340.67Z" fill="black"/>
<path d="M95.8101 340.67C95.8101 340.67 94.2901 315.73 121.81 303.67C121.81 303.69 93.5001 313.83 95.8101 340.67Z" fill="white" fill-opacity="0.22"/>
<path d="M128.91 119.4V169.08L85.8801 193.92V144.24L128.91 119.4Z" fill="#FAFAFA" fill-opacity="0.5"/>
<path d="M124.25 122.09V166.39L85.8801 188.54V144.24L124.25 122.09ZM126.58 118.09L83.5801 142.93V192.61L85.9101 193.96L128.91 169.12V119.4L126.58 118.05V118.09Z" fill="#E0E0E0" fill-opacity="0.42"/>
<path d="M126.58 123.43V167.73L88.2102 189.88V145.58L126.58 123.43ZM128.91 119.43L85.9102 144.27V193.95L128.91 169.11V119.4V119.43Z" fill="#EBEBEB" fill-opacity="0.38"/>
<path d="M122.59 157.71L90.04 176.5L99.66 151.49L106.32 159.39L113.13 149.7L122.59 157.71Z" fill="#E0E0E0" fill-opacity="0.42"/>
<path d="M111.3 142.1C111.241 143.134 110.939 144.14 110.418 145.035C109.896 145.93 109.171 146.689 108.3 147.25C106.66 148.19 105.3 147.43 105.3 145.53C105.36 144.498 105.663 143.494 106.185 142.601C106.706 141.708 107.431 140.95 108.3 140.39C110 139.44 111.3 140.21 111.3 142.1Z" fill="#E0E0E0" fill-opacity="0.42"/>
<path d="M143.26 57.5499V97.1199L108.99 116.91V77.3299L143.26 57.5499Z" fill="#FAFAFA" fill-opacity="0.5"/>
<path d="M139.55 59.69V95L109 112.63V77.33L139.56 59.69M141.42 56.47L107.13 76.26V115.84L108.99 116.91L143.26 97.12V57.54L141.41 56.47H141.42Z" fill="#E0E0E0" fill-opacity="0.42"/>
<path d="M141.41 60.7599V96.0499L110.84 113.7V78.3999L141.41 60.7599ZM143.26 57.5399L109 77.3299V116.91L143.27 97.1199V57.5399H143.26Z" fill="#EBEBEB" fill-opacity="0.38"/>
<path d="M138.23 88.0699L112.3 103.04L119.96 83.1099L125.27 89.4099L130.69 81.6799L138.23 88.0699Z" fill="#E0E0E0" fill-opacity="0.42"/>
<path d="M129.24 75.6299C129.196 76.4518 128.959 77.2516 128.547 77.9642C128.135 78.6767 127.56 79.2818 126.87 79.7299C125.56 80.4899 124.51 79.8699 124.51 78.3699C124.552 77.5488 124.788 76.7492 125.198 76.0366C125.608 75.324 126.181 74.7186 126.87 74.2699C128.18 73.5099 129.24 74.1299 129.24 75.6299Z" fill="#E0E0E0" fill-opacity="0.42"/>
<path d="M216.15 286.33L230.06 371.22C230.162 371.841 230.482 372.405 230.962 372.812C231.442 373.218 232.051 373.441 232.68 373.44C233.052 373.439 233.42 373.36 233.759 373.208C234.099 373.056 234.403 372.834 234.651 372.557C234.899 372.279 235.086 371.953 235.199 371.599C235.313 371.244 235.351 370.87 235.31 370.5L225.55 282.92L216.15 286.33Z" fill="#263238"/>
<path d="M264.17 257.78L278.09 342.67C278.19 343.29 278.507 343.854 278.986 344.261C279.464 344.668 280.072 344.891 280.7 344.89C281.073 344.89 281.442 344.81 281.782 344.658C282.122 344.505 282.427 344.282 282.675 344.003C282.923 343.725 283.11 343.397 283.223 343.042C283.336 342.686 283.372 342.311 283.33 341.94L273.57 254.37L264.17 257.78Z" fill="#263238"/>
<path d="M194.8 266.48L181.07 339.63C180.978 340.143 180.708 340.607 180.307 340.94C179.906 341.273 179.401 341.453 178.88 341.45C178.559 341.449 178.243 341.379 177.951 341.245C177.66 341.111 177.401 340.916 177.191 340.674C176.982 340.431 176.827 340.146 176.737 339.838C176.647 339.531 176.624 339.207 176.67 338.89L186.81 271.09L194.8 266.48Z" fill="#263238"/>
<path d="M243.36 239.19L229.71 311.89C229.618 312.403 229.348 312.867 228.947 313.2C228.546 313.533 228.041 313.713 227.52 313.71C227.2 313.709 226.885 313.639 226.594 313.506C226.304 313.373 226.045 313.179 225.836 312.937C225.626 312.695 225.471 312.412 225.38 312.105C225.29 311.799 225.266 311.477 225.31 311.16L235.37 243.79L243.36 239.19Z" fill="#263238"/>
<path d="M239.4 233.65C236.253 232.257 233.531 230.054 231.512 227.266C229.494 224.479 228.251 221.205 227.91 217.78C225.7 195.5 217.85 149.6 191.27 164.88C158.45 183.74 170.2 238.51 174.97 256.07C176.03 260.026 178.098 263.64 180.97 266.56C186.9 272.56 199.17 282.82 220.05 291.56C222.611 292.63 225.46 292.799 228.13 292.04C238.5 289.09 265.59 280.04 279.13 262.74C279.897 261.759 280.245 260.516 280.099 259.279C279.953 258.043 279.324 256.915 278.35 256.14C272.88 251.8 260.51 243.07 239.4 233.65Z" fill="#4FFFD1"/>
<path opacity="0.5" d="M239.4 233.65C236.253 232.257 233.531 230.054 231.512 227.266C229.494 224.479 228.251 221.205 227.91 217.78C225.7 195.5 217.85 149.6 191.27 164.88C158.45 183.74 170.2 238.51 174.97 256.07C176.03 260.026 178.098 263.64 180.97 266.56C186.9 272.56 199.17 282.82 220.05 291.56C222.611 292.63 225.46 292.799 228.13 292.04C238.5 289.09 265.59 280.04 279.13 262.74C279.897 261.759 280.245 260.516 280.099 259.279C279.953 258.043 279.324 256.915 278.35 256.14C272.88 251.8 260.51 243.07 239.4 233.65Z" fill="black"/>
<path d="M280.11 259.61C280.168 260.743 279.813 261.859 279.11 262.75C278.39 263.68 277.62 264.57 276.83 265.45C276.39 265.93 275.95 266.4 275.49 266.86C275.04 267.32 274.58 267.77 274.11 268.22L272.69 269.54C272.2 269.97 271.69 270.4 271.2 270.82C263.53 277.25 254.2 282.15 245.93 285.68L244.39 286.33L244.23 286.39L242.81 286.97L242.56 287.06L241.24 287.58L240.94 287.7L239.71 288.16L239.35 288.29L238.21 288.71L237.8 288.86L236.75 289.23L236.32 289.38L235.32 289.71L234.85 289.87L233.97 290.16L233.47 290.33L232.68 290.58L232.14 290.75L231.46 290.97L230.88 291.14L230.31 291.32L229.6 291.53L229.24 291.63C228.9 291.74 228.56 291.83 228.24 291.92C225.57 292.679 222.721 292.51 220.16 291.44C199.28 282.69 187.01 272.44 181.08 266.44C178.208 263.52 176.14 259.906 175.08 255.95C170.31 238.39 158.56 183.62 191.38 164.76C191.96 164.433 192.53 164.133 193.09 163.86L193.46 163.68C194.02 163.42 194.56 163.18 195.1 162.97L195.26 162.91C195.77 162.72 196.26 162.55 196.78 162.41L197.01 162.34C197.55 162.19 198.08 162.07 198.6 161.97H198.74C199.776 161.785 200.829 161.711 201.88 161.75H201.94C202.954 161.788 203.961 161.942 204.94 162.21C199.7 159.9 193.3 160 186.94 163.65C154.12 182.51 165.87 237.28 170.64 254.84L171.45 257.84C173.078 263.935 176.678 269.319 181.69 273.15L190.21 279.66C199.361 286.637 209.374 292.404 220 296.82C222.568 297.902 225.428 298.078 228.11 297.32C238.47 294.37 265.58 285.32 279.11 268.02C279.694 267.283 280.043 266.388 280.11 265.45V259.6V259.61Z" fill="#4FFFD1"/>
<path opacity="0.6" d="M280.11 259.61C280.168 260.743 279.813 261.859 279.11 262.75C278.39 263.68 277.62 264.57 276.83 265.45C276.39 265.93 275.95 266.4 275.49 266.86C275.04 267.32 274.58 267.77 274.11 268.22L272.69 269.54C272.2 269.97 271.69 270.4 271.2 270.82C263.53 277.25 254.2 282.15 245.93 285.68L244.39 286.33L244.23 286.39L242.81 286.97L242.56 287.06L241.24 287.58L240.94 287.7L239.71 288.16L239.35 288.29L238.21 288.71L237.8 288.86L236.75 289.23L236.32 289.38L235.32 289.71L234.85 289.87L233.97 290.16L233.47 290.33L232.68 290.58L232.14 290.75L231.46 290.97L230.88 291.14L230.31 291.32L229.6 291.53L229.24 291.63C228.9 291.74 228.56 291.83 228.24 291.92C225.57 292.679 222.721 292.51 220.16 291.44C199.28 282.69 187.01 272.44 181.08 266.44C178.208 263.52 176.14 259.906 175.08 255.95C170.31 238.39 158.56 183.62 191.38 164.76C191.96 164.433 192.53 164.133 193.09 163.86L193.46 163.68C194.02 163.42 194.56 163.18 195.1 162.97L195.26 162.91C195.77 162.72 196.26 162.55 196.78 162.41L197.01 162.34C197.55 162.19 198.08 162.07 198.6 161.97H198.74C199.776 161.785 200.829 161.711 201.88 161.75H201.94C202.954 161.788 203.961 161.942 204.94 162.21C199.7 159.9 193.3 160 186.94 163.65C154.12 182.51 165.87 237.28 170.64 254.84L171.45 257.84C173.078 263.935 176.678 269.319 181.69 273.15L190.21 279.66C199.361 286.637 209.374 292.404 220 296.82C222.568 297.902 225.428 298.078 228.11 297.32C238.47 294.37 265.58 285.32 279.11 268.02C279.694 267.283 280.043 266.388 280.11 265.45V259.6V259.61Z" fill="black"/>
<path d="M298.21 322.28C295.97 307.99 293.1 285.15 291.46 271.65C291.353 270.763 291.203 269.883 291.01 269.01C290.147 265.284 288.529 261.774 286.257 258.697C283.985 255.62 281.107 253.042 277.8 251.12L244.14 231.12L221.29 219.12C221.29 219.12 215.21 236.74 222.29 247.52C228.17 256.52 254.13 267.6 261.85 271.35C269.57 275.1 269.73 276.11 269.57 281.12C269.41 286.13 269.4 292.51 278.88 312.49C281.61 318.23 283.51 322.49 284.83 325.82C289.562 326.186 294.278 324.938 298.21 322.28Z" fill="#4FFFD1"/>
<path opacity="0.7" d="M298.21 322.28C295.97 307.99 293.1 285.15 291.46 271.65C291.299 270.324 291.045 269.01 290.7 267.72C288.731 260.737 284.123 254.795 277.85 251.15L244.14 231.08L221.29 219.08C221.29 219.08 215.21 236.7 222.29 247.48C228.17 256.48 254.13 267.56 261.85 271.31C269.57 275.06 269.73 276.07 269.57 281.08C269.41 286.09 269.4 292.47 278.88 312.45C281.61 318.19 283.51 322.45 284.83 325.78C289.557 326.158 294.273 324.924 298.21 322.28Z" fill="black"/>
<path d="M287.8 337.41C287.786 338.003 287.927 338.589 288.21 339.11C289.552 341.377 291.262 343.405 293.27 345.11C297.81 349.2 312.84 365.21 318.12 355.27C318.12 355.27 302.59 340.4 300.54 334.27C299.524 330.32 298.746 326.313 298.21 322.27C294.265 324.911 289.542 326.138 284.81 325.75C287.72 333 287.85 335.35 287.8 337.41Z" fill="#D9D4D4"/>
<path d="M304 336.43L303.57 335.14C303.397 334.666 303.052 334.275 302.603 334.046C302.155 333.816 301.635 333.764 301.15 333.9L294.86 335.84C294.465 335.962 294.12 336.208 293.875 336.541C293.63 336.874 293.499 337.277 293.5 337.69V338.32C293.497 338.618 293.377 338.903 293.166 339.113C292.954 339.322 292.668 339.44 292.37 339.44C291.038 339.441 289.748 338.978 288.72 338.13L287.84 337.41V335.21C287.273 335.58 286.813 336.093 286.506 336.696C286.199 337.3 286.055 337.974 286.09 338.65C286.17 340.14 286.24 341.96 286.18 342.65C286.08 343.97 284.85 349.47 286.32 351.1C287.79 352.73 291.09 352.92 295.17 352.48C299.25 352.04 303.71 356.05 307.49 357.54C311.27 359.03 326.93 362.23 326.89 352.22C326.89 349.67 324.36 348.63 321.89 347.73C319.42 346.83 310.48 343.68 308.19 341.79C307.27 341.024 306.417 340.181 305.64 339.27C304.911 338.441 304.354 337.476 304 336.43Z" fill="#455A64"/>
<path d="M307.45 357.57C303.67 356.08 299.21 352.07 295.13 352.51C291.05 352.95 287.75 352.76 286.28 351.13C285.809 350.453 285.564 349.645 285.58 348.82C285.51 350.36 285.63 351.82 286.28 352.56C287.75 354.19 291.05 354.38 295.13 353.94C299.21 353.5 303.67 357.52 307.45 359C311.23 360.48 326.89 363.69 326.85 353.68C326.84 353.536 326.82 353.392 326.79 353.25C325.81 362 311.1 359 307.45 357.57Z" fill="#263238"/>
<path d="M267.64 339.62C265.39 325.34 262.53 302.5 260.88 288.99C260.018 281.891 256.512 275.378 251.06 270.75L210.67 236.41L189.08 236C189.08 236 184.63 254 191.69 264.77C197.58 273.77 223.53 284.86 231.25 288.6C238.97 292.34 239.13 293.37 238.97 298.37C238.81 303.37 238.8 309.76 248.29 329.74C251.01 335.49 252.91 339.74 254.23 343.07C258.961 343.464 263.687 342.249 267.64 339.62Z" fill="#4FFFD1"/>
<path opacity="0.7" d="M267.64 339.62C265.39 325.34 262.53 302.5 260.88 288.99C260.018 281.891 256.512 275.378 251.06 270.75L210.67 236.41L189.08 236C189.08 236 184.63 254 191.69 264.77C197.58 273.77 223.53 284.86 231.25 288.6C238.97 292.34 239.13 293.37 238.97 298.37C238.81 303.37 238.8 309.76 248.29 329.74C251.01 335.49 252.91 339.74 254.23 343.07C258.961 343.464 263.687 342.249 267.64 339.62Z" fill="black"/>
<path d="M257.21 353.46C257.21 354.06 256.8 355.83 257.63 356.46C258.69 357.25 259.7 359.78 262.7 362.46C267.23 366.55 272.02 357.74 269.96 351.63C268.949 347.679 268.175 343.672 267.64 339.63C263.69 342.269 258.965 343.495 254.23 343.11C257.15 350.33 257.27 351.41 257.21 353.46Z" fill="#D9D4D4"/>
<path d="M230.52 161.52C233.61 161.029 236.774 161.65 239.449 163.273C242.124 164.895 244.137 167.413 245.13 170.38C246.556 174.664 247.473 179.101 247.86 183.6C249.03 197.45 249.35 204.37 249.35 204.37L263.26 210.68C263.26 210.68 255.75 211.04 256.26 221.68L238.93 217.31L230.52 161.52Z" fill="#D9D4D4"/>
<path d="M249.86 196C247.81 181 247 173.15 245.24 169.43C244.032 166.649 241.923 164.356 239.252 162.921C236.582 161.486 233.506 160.993 230.52 161.52L235.76 202.72L236.43 202.66C241.07 202.202 245.441 200.267 248.9 197.14L249.86 196Z" fill="#4FFFD1"/>
<path opacity="0.2" d="M249.86 196C247.81 181 247 173.15 245.24 169.43C244.032 166.649 241.923 164.356 239.252 162.921C236.582 161.486 233.506 160.993 230.52 161.52L235.76 202.72L236.43 202.66C241.07 202.202 245.441 200.267 248.9 197.14L249.86 196Z" fill="black"/>
<path d="M249.35 204.37C247.787 204.85 246.373 205.721 245.24 206.9C245.24 206.9 246.92 203.71 249.24 202.72L249.35 204.37Z" fill="#ECECEC"/>
<path d="M197.1 173.67L212.66 166.13L225.48 161.7C225.48 161.7 235.76 158.43 238.38 172.12C240.55 183.37 240.83 226.12 240.83 226.12L240.6 230.79C240.6 230.79 234.67 247.41 213.48 248.79C192.29 250.17 188.16 241.23 188.16 241.23C188.16 241.23 186 184.66 197.1 173.67Z" fill="#4FFFD1"/>
<path d="M246.13 128C246.13 128 250.94 140.33 244.3 145.76C237.66 151.19 240 129.33 240 129.33L246.13 128Z" fill="#263238"/>
<path d="M287.81 198.49L140 283.83V302.32V392.17C140.007 392.526 140.116 392.873 140.315 393.169C140.513 393.465 140.793 393.698 141.12 393.84C141.965 394.272 142.901 394.497 143.85 394.497C144.799 394.497 145.735 394.272 146.58 393.84C146.905 393.697 147.183 393.463 147.379 393.167C147.576 392.871 147.684 392.525 147.69 392.17V306.77L227.83 353V443.73C227.839 444.085 227.949 444.429 228.148 444.724C228.346 445.018 228.624 445.249 228.95 445.39C229.795 445.822 230.731 446.047 231.68 446.047C232.629 446.047 233.565 445.822 234.41 445.39C234.736 445.249 235.014 445.018 235.212 444.724C235.411 444.429 235.521 444.085 235.53 443.73V353L371.76 274.35V360.35C371.771 360.706 371.885 361.05 372.087 361.343C372.289 361.635 372.571 361.864 372.9 362C373.745 362.432 374.681 362.657 375.63 362.657C376.579 362.657 377.515 362.432 378.36 362C378.686 361.86 378.965 361.629 379.164 361.335C379.363 361.04 379.472 360.695 379.48 360.34V251.43L287.81 198.49Z" fill="#455A64"/>
<path d="M234.41 445.41C233.565 445.842 232.629 446.067 231.68 446.067C230.731 446.067 229.795 445.842 228.95 445.41C227.44 444.54 227.44 443.13 228.95 442.26C229.795 441.828 230.731 441.603 231.68 441.603C232.629 441.603 233.565 441.828 234.41 442.26C235.92 443.13 235.92 444.54 234.41 445.41Z" fill="#455A64"/>
<path d="M235.55 350.79H227.83V443.75H235.55V350.79Z" fill="#37474F"/>
<path d="M143.87 394.5C146.002 394.5 147.73 393.502 147.73 392.27C147.73 391.038 146.002 390.04 143.87 390.04C141.738 390.04 140.01 391.038 140.01 392.27C140.01 393.502 141.738 394.5 143.87 394.5Z" fill="#455A64"/>
<path d="M147.73 299.23H140.01V392.19H147.73V299.23Z" fill="#263238"/>
<path d="M378.36 362C377.515 362.432 376.579 362.657 375.63 362.657C374.681 362.657 373.745 362.432 372.9 362C371.39 361.13 371.39 359.72 372.9 358.85C373.745 358.418 374.681 358.193 375.63 358.193C376.579 358.193 377.515 358.418 378.36 358.85C379.87 359.73 379.87 361.14 378.36 362Z" fill="#455A64"/>
<path d="M379.5 267.39H371.78V360.35H379.5V267.39Z" fill="#37474F"/>
<path d="M284 291.66C283.241 292.045 282.401 292.245 281.55 292.245C280.699 292.245 279.859 292.045 279.1 291.66C277.75 290.88 277.75 289.66 279.1 288.84C279.858 288.451 280.698 288.247 281.55 288.247C282.402 288.247 283.242 288.451 284 288.84C285.31 289.62 285.31 290.88 284 291.66Z" fill="#455A64"/>
<path d="M284.98 212.6H278.05V290.18H284.98V212.6Z" fill="#455A64"/>
<path d="M140 283.83V302.32L231.69 355.26V336.76L140 283.83Z" fill="#263238"/>
<path d="M379.5 251.43L231.69 336.76V355.26L379.5 269.92V251.43Z" fill="#37474F"/>
<path d="M287.81 198.49L140 283.83L231.69 336.76L379.5 251.43L287.81 198.49Z" fill="#455A64"/>
<path d="M213.66 256.08L247.28 275.49L303.17 243.16L269.56 223.36L213.66 256.08Z" fill="#EBEBEB" fill-opacity="0.38"/>
<path d="M243.66 250.55L256.27 243.27L248.37 238.71L235.76 245.99L243.66 250.55Z" fill="#E0E0E0" fill-opacity="0.42"/>
<path d="M248.71 270.64L231.72 260.64L264.92 240.54L248.71 270.64Z" fill="#E0E0E0" fill-opacity="0.42"/>
<path d="M258.22 208.28L271.67 214.59C275.688 215.604 279.651 216.829 283.54 218.26C283.54 218.26 292.9 222.08 293.33 224.59C293.76 227.1 286.33 233.15 279.76 230.21C278.043 229.29 276.205 228.617 274.3 228.21C272.55 228.02 267.3 227.21 263.55 223.6L247.86 219.52C247.86 219.52 247.08 209.84 258.22 208.28Z" fill="#D9D4D4"/>
<path d="M266.93 227C268.48 228.67 272.93 232.88 273.93 234.1C274.93 235.32 277.19 232.19 273.18 227.52C269.709 226.249 266.444 224.473 263.49 222.25C264.514 223.919 265.664 225.507 266.93 227Z" fill="#D9D4D4"/>
<path d="M228.62 146.81H212.66V166.13H228.62V146.81Z" fill="#D9D4D4"/>
<path d="M228.63 166.13C225.375 164.915 222.4 163.052 219.885 160.654C217.371 158.257 215.368 155.374 214 152.18V146.81H228.67L228.63 166.13Z" fill="#ECECEC"/>
<path d="M234 121.3C234 121.3 248.52 123.05 245.19 147.86C243.65 159.33 240.58 165.13 231.74 164.15C221.74 163.03 207.87 155.25 210.02 135.59C212.17 115.93 234 121.3 234 121.3Z" fill="#D9D4D4"/>
<path d="M234.81 143.42L234.29 151.99L239.4 150.76L234.81 143.42Z" fill="#ECECEC"/>
<path d="M227.21 142.65C227.189 142.996 227.271 143.34 227.445 143.639C227.62 143.938 227.879 144.179 228.19 144.33C228.502 144.482 228.851 144.538 229.194 144.491C229.537 144.444 229.859 144.296 230.118 144.066C230.377 143.837 230.562 143.535 230.65 143.2C230.737 142.865 230.724 142.512 230.611 142.185C230.497 141.857 230.29 141.571 230.014 141.362C229.738 141.153 229.406 141.03 229.06 141.01C228.597 140.983 228.143 141.14 227.796 141.447C227.449 141.755 227.238 142.187 227.21 142.65Z" fill="#263238"/>
<path d="M238.76 142.14C238.739 142.485 238.821 142.829 238.995 143.128C239.169 143.426 239.428 143.667 239.739 143.819C240.049 143.971 240.398 144.027 240.741 143.981C241.083 143.934 241.405 143.788 241.664 143.559C241.924 143.33 242.109 143.03 242.198 142.696C242.287 142.361 242.275 142.008 242.163 141.681C242.051 141.354 241.845 141.067 241.571 140.857C241.296 140.646 240.965 140.522 240.62 140.5C240.39 140.485 240.16 140.516 239.942 140.59C239.723 140.665 239.522 140.781 239.349 140.934C239.177 141.086 239.036 141.271 238.934 141.478C238.833 141.685 238.774 141.91 238.76 142.14Z" fill="#263238"/>
<path d="M242.86 138.74L239.57 136.5C239.57 136.5 240.96 135.22 242.22 136.12C242.578 136.442 242.831 136.864 242.945 137.331C243.059 137.799 243.03 138.29 242.86 138.74Z" fill="#263238"/>
<path d="M228.42 138.35L224.87 140.13C224.87 140.13 224.43 138.29 225.82 137.64C226.274 137.482 226.766 137.465 227.23 137.592C227.694 137.718 228.109 137.983 228.42 138.35Z" fill="#263238"/>
<path d="M234.54 155.47C232.542 155.49 230.594 154.838 229.01 153.62C229.01 153.62 228.45 156.56 230.89 157.27C233.33 157.98 234.54 155.47 234.54 155.47Z" fill="#ECECEC"/>
<path d="M212.49 143.22C212.49 143.22 214.72 147.87 216.1 147.71C217.48 147.55 216.1 129.9 218.96 129.79C221.82 129.68 235.32 136.38 247.25 127.73C251.84 124.41 252.75 115.93 250 116.73C247.25 117.53 243.54 119.94 238.53 119.6C233.52 119.26 215.98 111.12 211.63 122.6C211.63 122.6 201.93 121.81 205.57 141.07C206.48 145.86 209.34 157.72 212.66 158.89L212.49 143.22Z" fill="#263238"/>
<path d="M213.28 147.46C213.335 146.005 213.065 144.557 212.49 143.22C212.202 142.397 211.681 141.675 210.99 141.142C210.3 140.61 209.469 140.289 208.6 140.22C204.12 140.1 203.51 144.42 203.6 145.95C203.76 149.95 207.03 154.35 213.11 154.52L213.28 147.46Z" fill="#D9D4D4"/>
<path d="M214.66 233.91L226.1 243C228.056 243.184 229.995 243.519 231.9 244C234.09 244.65 239.83 246.76 241.35 247.09C242.87 247.42 240.91 250.09 236.93 249.09C236.93 249.09 245.27 254.8 245.16 257.34C245.05 259.88 236.49 264.22 230.71 259.96C229.22 258.715 227.569 257.679 225.8 256.88C224.12 256.33 219.19 254.42 216.26 250.1L206.26 244.89C206.26 244.89 203.44 233.08 214.66 233.91Z" fill="#D9D4D4"/>
<path d="M202.18 171.21C202.18 171.21 208.85 176.38 204.75 192.45C200.65 208.52 198.46 222.37 198.46 222.37L214.66 233.91C212.442 234.881 210.508 236.4 209.038 238.324C207.569 240.248 206.613 242.515 206.26 244.91C206.26 244.91 180.72 234.91 180.2 228.42C179.68 221.93 185.53 194.07 186.42 188.94C187.31 183.81 191.85 173.64 202.18 171.21Z" fill="#D9D4D4"/>
<path d="M198.46 222.37C196.441 221.974 194.361 221.994 192.35 222.43C194.267 221.389 196.419 220.856 198.6 220.88L198.46 222.37Z" fill="#ECECEC"/>
<path d="M311 206.13L305.15 244.38C305.158 244.403 305.158 244.427 305.15 244.45L247 278.12C246.985 278.127 246.969 278.131 246.953 278.129C246.937 278.128 246.921 278.123 246.908 278.114C246.895 278.104 246.884 278.092 246.878 278.077C246.871 278.062 246.868 278.046 246.87 278.03L252.54 240.93C252.66 240.139 252.952 239.384 253.394 238.717C253.836 238.051 254.418 237.489 255.1 237.07L308.36 204.41C308.639 204.227 308.966 204.129 309.301 204.128C309.635 204.128 309.962 204.225 310.242 204.407C310.522 204.59 310.743 204.85 310.878 205.156C311.012 205.462 311.055 205.8 311 206.13Z" fill="#FAFAFA" fill-opacity="0.5"/>
<path d="M247 278.12L216 260.12C215.285 259.705 214.692 259.11 214.28 258.394C213.867 257.678 213.65 256.866 213.65 256.04L247.27 275.45L247 278.12Z" fill="#E0E0E0" fill-opacity="0.42"/>
<path d="M277.37 243C277.37 245.74 279.29 246.84 281.65 245.48C282.898 244.668 283.937 243.572 284.683 242.283C285.428 240.994 285.859 239.547 285.94 238.06C285.94 235.32 284.02 234.22 281.65 235.58C280.405 236.395 279.369 237.491 278.625 238.78C277.882 240.069 277.452 241.514 277.37 243Z" fill="#E0E0E0" fill-opacity="0.42"/>
<path d="M213.17 128.21C213.17 128.21 210.53 124.31 212.17 123.05C213.81 121.79 215 125.8 213.17 128.21Z" fill="#263238"/>
<path d="M213.61 129C213.61 129 208.95 128.42 209.06 126.38C209.17 124.34 213 126.06 213.61 129Z" fill="#263238"/>
<path d="M212.66 166.13C212.66 166.13 216.09 175.13 223.99 174.01C231.89 172.89 228.63 166.13 228.63 166.13H212.66Z" fill="#D9D4D4"/>
<path d="M202.18 171.21C202.18 171.21 207.38 173.7 206.58 184.16C205.78 194.62 201.65 215.7 201.65 215.7C201.65 215.7 183.04 223.24 181.26 212.61C180.81 209.86 185.5 184.43 189.51 179.05C190.982 176.954 192.864 175.179 195.042 173.832C197.219 172.484 199.648 171.592 202.18 171.21Z" fill="#4FFFD1"/>
<path opacity="0.2" d="M202.18 171.21C202.18 171.21 207.38 173.7 206.58 184.16C205.78 194.62 201.65 215.7 201.65 215.7C201.65 215.7 183.04 223.24 181.26 212.61C180.81 209.86 185.5 184.43 189.51 179.05C190.982 176.954 192.864 175.179 195.042 173.832C197.219 172.484 199.648 171.592 202.18 171.21Z" fill="black"/>
<path d="M257.63 354C258.328 355.058 259.399 355.815 260.63 356.12C261.76 356.3 259.48 353.37 262.2 352.19C264.92 351.01 271.15 349.4 271.71 351.74L272.4 354.66C273.05 357.42 274.369 359.979 276.24 362.11C278.056 364.308 280.123 366.285 282.4 368C285.96 370.29 291.81 375.84 284.3 380.57C276.79 385.3 267.57 381.3 265.76 375.93C263.95 370.56 262.04 369 261.08 368.11C259.057 366.691 257.615 364.588 257.02 362.19C256.532 359.814 256.198 357.409 256.02 354.99C255.982 354.502 256.078 354.012 256.296 353.574C256.514 353.135 256.848 352.764 257.26 352.5L257.63 354Z" fill="#455A64"/>
<path d="M284.34 380.55C276.83 385.27 267.61 381.28 265.8 375.91C263.99 370.54 262.08 368.98 261.12 368.09C259.425 366.864 258.122 365.172 257.37 363.22C257.37 363.36 257.37 363.52 257.37 363.66C257.66 368.31 260.51 369.4 261.47 370.3C262.43 371.2 264.01 372.66 265.82 378.04C267.63 383.42 277.15 386.76 284.65 382.04C288.3 379.75 288.79 377.26 287.93 375.04C288.11 376.85 287.19 378.76 284.34 380.55Z" fill="#263238"/>
<path d="M248.26 309.16L224.34 323L194.14 305.56L218.14 291.72C218.454 291.543 218.809 291.45 219.17 291.45C219.531 291.45 219.885 291.543 220.2 291.72L248.29 307.94C248.394 308.005 248.479 308.097 248.538 308.205C248.596 308.314 248.625 308.435 248.622 308.558C248.619 308.681 248.584 308.802 248.52 308.907C248.457 309.012 248.367 309.1 248.26 309.16Z" fill="#4FFFD1"/>
<path opacity="0.7" d="M248.26 309.16L224.34 323L194.14 305.56L218.14 291.72C218.454 291.543 218.809 291.45 219.17 291.45C219.531 291.45 219.885 291.543 220.2 291.72L248.29 307.94C248.394 308.005 248.479 308.097 248.538 308.205C248.596 308.314 248.625 308.435 248.622 308.558C248.619 308.681 248.584 308.802 248.52 308.907C248.457 309.012 248.367 309.1 248.26 309.16Z" fill="black"/>
<path d="M246.6 308.66L224.34 321.51L196.23 305.29L218.54 292.41C218.829 292.238 219.159 292.148 219.495 292.148C219.831 292.148 220.161 292.238 220.45 292.41L246.6 307.5C246.702 307.559 246.786 307.643 246.845 307.745C246.904 307.847 246.935 307.962 246.935 308.08C246.935 308.197 246.904 308.313 246.845 308.415C246.786 308.517 246.702 308.601 246.6 308.66Z" fill="white" fill-opacity="0.22"/>
<path d="M224.34 321.51V319L246.94 305.96V308.09L224.34 321.51Z" fill="white" fill-opacity="0.22"/>
<path d="M224.34 321.51V319L196.23 302.78V305.29L224.34 321.51Z" fill="#E0E0E0" fill-opacity="0.42"/>
<path d="M248.26 305.19L224.34 319L194.14 301.57L218.14 287.73C218.454 287.553 218.809 287.46 219.17 287.46C219.531 287.46 219.885 287.553 220.2 287.73L248.26 304C248.359 304.064 248.44 304.153 248.497 304.257C248.553 304.36 248.583 304.477 248.583 304.595C248.583 304.713 248.553 304.829 248.497 304.933C248.44 305.037 248.359 305.125 248.26 305.19Z" fill="#4FFFD1"/>
<path opacity="0.5" d="M248.26 305.19L224.34 319L194.14 301.57L218.14 287.73C218.454 287.553 218.809 287.46 219.17 287.46C219.531 287.46 219.885 287.553 220.2 287.73L248.26 304C248.359 304.064 248.44 304.153 248.497 304.257C248.553 304.36 248.583 304.477 248.583 304.595C248.583 304.713 248.553 304.829 248.497 304.933C248.44 305.037 248.359 305.125 248.26 305.19Z" fill="black"/>
<path d="M221.21 321.17C221.142 321.204 221.066 321.222 220.99 321.222C220.914 321.222 220.838 321.204 220.77 321.17C220.683 321.123 220.61 321.054 220.559 320.97C220.508 320.885 220.481 320.789 220.48 320.69V318.4C220.485 317.888 220.621 317.386 220.875 316.941C221.128 316.497 221.492 316.124 221.93 315.86L222.02 315.8C222.061 315.777 222.108 315.766 222.155 315.767C222.202 315.768 222.249 315.781 222.289 315.805C222.329 315.829 222.363 315.864 222.386 315.905C222.409 315.946 222.421 315.993 222.42 316.04C222.42 316.165 222.47 316.284 222.558 316.372C222.646 316.46 222.765 316.51 222.89 316.51C223.015 316.51 223.134 316.46 223.222 316.372C223.311 316.284 223.36 316.165 223.36 316.04C223.362 315.826 223.306 315.616 223.199 315.431C223.092 315.247 222.937 315.094 222.75 314.99C222.568 314.88 222.358 314.821 222.145 314.821C221.932 314.821 221.723 314.88 221.54 314.99L221.45 315.04C220.869 315.385 220.387 315.875 220.052 316.462C219.717 317.05 219.541 317.714 219.54 318.39V320.66C219.54 320.928 219.613 321.192 219.75 321.422C219.887 321.653 220.084 321.842 220.32 321.97C220.535 322.085 220.776 322.143 221.02 322.14C221.316 322.142 221.605 322.055 221.85 321.89C221.94 321.829 222.004 321.736 222.03 321.63L221.21 321.17Z" fill="white" fill-opacity="0.22"/>
<path d="M216.74 318.59C216.672 318.624 216.596 318.642 216.52 318.642C216.444 318.642 216.368 318.624 216.3 318.59C216.213 318.543 216.14 318.474 216.089 318.39C216.038 318.305 216.011 318.209 216.01 318.11V315.84C216.013 315.326 216.148 314.822 216.402 314.376C216.656 313.929 217.02 313.555 217.46 313.29H217.55C217.591 313.267 217.638 313.255 217.685 313.255C217.732 313.255 217.779 313.267 217.82 313.29C217.86 313.314 217.892 313.348 217.915 313.388C217.938 313.428 217.95 313.474 217.95 313.52C217.95 313.645 218 313.764 218.088 313.852C218.176 313.94 218.295 313.99 218.42 313.99C218.545 313.99 218.664 313.94 218.752 313.852C218.841 313.764 218.89 313.645 218.89 313.52C218.883 313.315 218.824 313.115 218.717 312.94C218.61 312.765 218.459 312.62 218.28 312.52C218.098 312.41 217.888 312.351 217.675 312.351C217.462 312.351 217.253 312.41 217.07 312.52L216.98 312.57C216.399 312.915 215.917 313.405 215.582 313.992C215.247 314.58 215.071 315.244 215.07 315.92V318.19C215.07 318.458 215.143 318.722 215.28 318.952C215.417 319.183 215.614 319.372 215.85 319.5C216.065 319.615 216.306 319.673 216.55 319.67C216.846 319.672 217.135 319.585 217.38 319.42C217.47 319.359 217.534 319.266 217.56 319.16L216.74 318.59Z" fill="white" fill-opacity="0.22"/>
<path d="M212.27 316C212.201 316.032 212.126 316.049 212.05 316.049C211.974 316.049 211.899 316.032 211.83 316C211.743 315.953 211.67 315.884 211.619 315.8C211.568 315.715 211.541 315.619 211.54 315.52V313.25C211.543 312.736 211.678 312.232 211.932 311.786C212.186 311.339 212.55 310.965 212.99 310.7L213.08 310.65C213.121 310.627 213.168 310.615 213.215 310.615C213.262 310.615 213.309 310.627 213.35 310.65C213.39 310.674 213.422 310.708 213.445 310.748C213.468 310.788 213.48 310.834 213.48 310.88C213.48 311.005 213.53 311.124 213.618 311.212C213.706 311.3 213.825 311.35 213.95 311.35C214.075 311.35 214.194 311.3 214.282 311.212C214.371 311.124 214.42 311.005 214.42 310.88C214.413 310.675 214.354 310.475 214.247 310.3C214.14 310.125 213.989 309.98 213.81 309.88C213.628 309.77 213.418 309.711 213.205 309.711C212.992 309.711 212.783 309.77 212.6 309.88L212.51 309.93C211.929 310.275 211.447 310.765 211.112 311.352C210.777 311.94 210.601 312.604 210.6 313.28V315.55C210.6 315.818 210.673 316.082 210.81 316.312C210.947 316.543 211.144 316.732 211.38 316.86C211.595 316.975 211.836 317.033 212.08 317.03C212.376 317.032 212.665 316.945 212.91 316.78C213 316.719 213.064 316.626 213.09 316.52L212.27 316Z" fill="white" fill-opacity="0.22"/>
<path d="M207.8 313.43C207.731 313.462 207.656 313.479 207.58 313.479C207.504 313.479 207.429 313.462 207.36 313.43C207.273 313.383 207.2 313.314 207.149 313.23C207.098 313.145 207.071 313.049 207.07 312.95V310.68C207.073 310.166 207.208 309.662 207.462 309.216C207.716 308.769 208.08 308.395 208.52 308.13L208.61 308.08C208.651 308.057 208.698 308.045 208.745 308.045C208.792 308.045 208.839 308.057 208.88 308.08C208.919 308.104 208.952 308.138 208.975 308.178C208.998 308.218 209.01 308.264 209.01 308.31C209.01 308.435 209.059 308.554 209.148 308.642C209.236 308.73 209.355 308.78 209.48 308.78C209.605 308.78 209.724 308.73 209.812 308.642C209.9 308.554 209.95 308.435 209.95 308.31C209.943 308.105 209.883 307.905 209.776 307.73C209.67 307.554 209.519 307.41 209.34 307.31C209.157 307.2 208.948 307.141 208.735 307.141C208.522 307.141 208.312 307.2 208.13 307.31L208.04 307.36C207.458 307.705 206.977 308.195 206.642 308.782C206.307 309.37 206.131 310.034 206.13 310.71V312.98C206.13 313.248 206.202 313.512 206.34 313.742C206.477 313.973 206.674 314.162 206.91 314.29C207.125 314.405 207.366 314.463 207.61 314.46C207.905 314.462 208.195 314.375 208.44 314.21C208.53 314.149 208.594 314.056 208.62 313.95L207.8 313.43Z" fill="white" fill-opacity="0.22"/>
<path d="M203.33 310.85C203.261 310.882 203.186 310.899 203.11 310.899C203.034 310.899 202.959 310.882 202.89 310.85C202.803 310.803 202.73 310.734 202.679 310.65C202.628 310.565 202.601 310.469 202.6 310.37V308.1C202.603 307.586 202.738 307.082 202.992 306.636C203.246 306.189 203.61 305.815 204.05 305.55H204.14C204.181 305.527 204.228 305.515 204.275 305.515C204.322 305.515 204.369 305.527 204.41 305.55C204.449 305.574 204.482 305.608 204.505 305.648C204.528 305.688 204.54 305.734 204.54 305.78C204.54 305.905 204.589 306.024 204.678 306.112C204.766 306.2 204.885 306.25 205.01 306.25C205.135 306.25 205.254 306.2 205.342 306.112C205.43 306.024 205.48 305.905 205.48 305.78C205.473 305.575 205.413 305.375 205.306 305.2C205.2 305.025 205.049 304.88 204.87 304.78C204.687 304.67 204.478 304.611 204.265 304.611C204.052 304.611 203.842 304.67 203.66 304.78L203.57 304.83C202.989 305.175 202.507 305.665 202.172 306.252C201.837 306.84 201.661 307.504 201.66 308.18V310.45C201.66 310.718 201.732 310.982 201.87 311.212C202.007 311.443 202.204 311.632 202.44 311.76C202.657 311.87 202.897 311.928 203.14 311.93C203.435 311.932 203.725 311.845 203.97 311.68C204.06 311.619 204.124 311.526 204.15 311.42L203.33 310.85Z" fill="white" fill-opacity="0.22"/>
<path d="M198.86 308.27C198.791 308.302 198.716 308.319 198.64 308.319C198.564 308.319 198.489 308.302 198.42 308.27C198.333 308.223 198.26 308.154 198.209 308.07C198.158 307.985 198.131 307.889 198.13 307.79V305.5C198.133 304.986 198.268 304.482 198.522 304.036C198.776 303.589 199.14 303.215 199.58 302.95L199.67 302.9C199.711 302.877 199.758 302.865 199.805 302.865C199.852 302.865 199.899 302.877 199.94 302.9C199.981 302.922 200.015 302.956 200.038 302.996C200.061 303.037 200.072 303.083 200.07 303.13C200.07 303.255 200.119 303.374 200.208 303.462C200.296 303.55 200.415 303.6 200.54 303.6C200.665 303.6 200.784 303.55 200.872 303.462C200.96 303.374 201.01 303.255 201.01 303.13C200.999 302.922 200.936 302.72 200.826 302.544C200.715 302.368 200.561 302.222 200.379 302.122C200.197 302.022 199.992 301.97 199.783 301.971C199.575 301.973 199.371 302.027 199.19 302.13L199.1 302.19C198.519 302.535 198.037 303.025 197.702 303.612C197.367 304.2 197.191 304.864 197.19 305.54V307.81C197.19 308.078 197.262 308.342 197.4 308.572C197.537 308.803 197.734 308.992 197.97 309.12C198.187 309.23 198.427 309.288 198.67 309.29C198.965 309.292 199.255 309.205 199.5 309.04C199.59 308.979 199.654 308.886 199.68 308.78L198.86 308.27Z" fill="white" fill-opacity="0.22"/>
<path d="M251.34 298.95L225.48 313.88L191.82 294.45L217.69 279.52L251.34 298.95Z" fill="#E6E6E6" fill-opacity="0.26"/>
<path d="M252.83 298.46L225.81 311.18L193.89 288.99L220.92 276.28L252.83 298.46Z" fill="#FAFAFA" fill-opacity="0.5"/>
<path d="M192.5 258.75H170.55L172.55 281.98C172.68 282.716 172.986 283.41 173.442 284.002C173.898 284.594 174.491 285.067 175.17 285.38C177.146 286.386 179.333 286.91 181.55 286.91C183.768 286.91 185.954 286.386 187.93 285.38C188.607 285.065 189.199 284.591 189.655 284C190.111 283.408 190.418 282.715 190.55 281.98L192.5 258.75Z" fill="#4FFFD1"/>
<path d="M193.9 257.48V255.64H193.47C192.76 254.271 191.647 253.154 190.28 252.44C185.45 249.65 177.61 249.65 172.78 252.44C171.411 253.151 170.296 254.269 169.59 255.64H169.15V257.5C169.15 259.32 170.36 261.15 172.78 262.55C177.61 265.34 185.45 265.34 190.28 262.55C192.7 261.15 193.91 259.31 193.9 257.48Z" fill="#E0E0E0" fill-opacity="0.42"/>
<path d="M190.28 260.8C185.45 263.59 177.61 263.59 172.78 260.8C167.95 258.01 167.94 253.49 172.78 250.7C177.62 247.91 185.45 247.9 190.28 250.7C195.11 253.5 195.11 258 190.28 260.8Z" fill="#EBEBEB" fill-opacity="0.38"/>
<path d="M191.45 255V253.53H191.1C190.53 252.433 189.636 251.539 188.54 250.97C186.371 249.869 183.972 249.296 181.54 249.296C179.107 249.296 176.709 249.869 174.54 250.97C173.44 251.535 172.545 252.43 171.98 253.53H171.63V255C171.63 256.47 172.63 257.94 174.54 259.05C176.709 260.151 179.107 260.724 181.54 260.724C183.972 260.724 186.371 260.151 188.54 259.05C190.48 257.92 191.45 256.45 191.45 255Z" fill="#E0E0E0" fill-opacity="0.42"/>
<path d="M188.54 257.64C186.371 258.741 183.972 259.314 181.54 259.314C179.107 259.314 176.709 258.741 174.54 257.64C170.66 255.41 170.66 251.78 174.54 249.55C176.709 248.449 179.107 247.876 181.54 247.876C183.972 247.876 186.371 248.449 188.54 249.55C192.41 251.78 192.41 255.41 188.54 257.64Z" fill="#F5F5F5" fill-opacity="0.27"/>
<path d="M186.92 256.46C185.248 257.308 183.4 257.75 181.525 257.75C179.65 257.75 177.802 257.308 176.13 256.46C173.24 254.8 173.13 252.14 175.83 250.46C175.925 250.39 176.026 250.326 176.13 250.27C176.785 249.897 177.483 249.608 178.21 249.41C181.118 248.59 184.228 248.897 186.92 250.27C189.91 252 189.91 254.74 186.92 256.46Z" fill="#F0F0F0" fill-opacity="0.39"/>
<path d="M176.13 251.12C177.802 250.267 179.653 249.823 181.53 249.823C183.407 249.823 185.258 250.267 186.93 251.12C187.471 251.373 187.949 251.744 188.328 252.206C188.707 252.668 188.978 253.21 189.12 253.79C189.35 252.52 188.61 251.2 186.93 250.23C185.255 249.386 183.406 248.946 181.53 248.946C179.654 248.946 177.805 249.386 176.13 250.23C174.44 251.23 173.71 252.52 173.93 253.79C174.074 253.209 174.346 252.667 174.726 252.205C175.107 251.743 175.587 251.372 176.13 251.12Z" fill="#E0E0E0" fill-opacity="0.42"/>
<path d="M180.21 251.41L178 252.82L175.84 251.27V250.42C175.935 250.35 176.036 250.286 176.14 250.23C176.795 249.857 177.494 249.568 178.22 249.37V250L180.21 251.41Z" fill="#E0E0E0" fill-opacity="0.42"/>
<path d="M440.86 115L316.38 43.08C315.856 42.6934 315.222 42.4849 314.57 42.4849C313.919 42.4849 313.284 42.6934 312.76 43.08L308.45 46.08L311.39 49.72V150.07C311.39 153.75 313.63 158.07 316.39 159.61L439.64 230.77L439.87 234.68L444.41 231.57C444.931 231.08 445.334 230.478 445.587 229.809C445.84 229.14 445.937 228.422 445.87 227.71V124.49C445.86 120.81 443.62 116.54 440.86 115Z" fill="#4FFFD1"/>
<path opacity="0.3" d="M440.86 115L316.38 43.08C315.856 42.6934 315.222 42.4849 314.57 42.4849C313.919 42.4849 313.284 42.6934 312.76 43.08L308.45 46.08L311.39 49.72V150.07C311.39 153.75 313.63 158.07 316.39 159.61L439.64 230.77L439.87 234.68L444.41 231.57C444.931 231.08 445.334 230.478 445.587 229.809C445.84 229.14 445.937 228.422 445.87 227.71V124.49C445.86 120.81 443.62 116.54 440.86 115Z" fill="black"/>
<path d="M436.62 234.4L312.14 162.53C309.39 160.94 307.14 156.67 307.14 152.99V49.77C307.14 46.1 309.38 44.41 312.14 46L436.62 117.87C439.38 119.46 441.62 123.73 441.62 127.41V230.62C441.62 234.3 439.38 236 436.62 234.4Z" fill="#4FFFD1"/>
<path d="M436.62 234.4L312.14 162.53C309.39 160.94 307.14 156.67 307.14 152.99V49.77C307.14 46.1 309.38 44.41 312.14 46L436.62 117.87C439.38 119.46 441.62 123.73 441.62 127.41V230.62C441.62 234.3 439.38 236 436.62 234.4Z" fill="#4FFFD1"/>
<path d="M436.62 117.87L312.14 46C309.39 44.41 307.14 46.1 307.14 49.77V54.77L441.61 132.4V127.4C441.62 123.73 439.38 119.46 436.62 117.87Z" fill="#455A64"/>
<path d="M310.16 46.4C310.685 46.4247 311.194 46.583 311.64 46.86L436.12 118.73C438.56 120.14 440.62 124.11 440.62 127.41V230.62C440.62 232.62 439.83 234 438.62 234C438.091 233.975 437.578 233.813 437.13 233.53L312.64 161.66C310.21 160.26 308.15 156.28 308.15 152.99V49.77C308.15 47.72 308.94 46.4 310.15 46.4M310.15 45.4C308.38 45.4 307.15 47.03 307.15 49.77V153C307.15 156.68 309.39 160.95 312.15 162.54L436.62 234.4C437.222 234.774 437.912 234.981 438.62 235C440.39 235 441.62 233.36 441.62 230.62V127.41C441.62 123.73 439.38 119.41 436.62 117.87L312.14 46C311.54 45.6238 310.849 45.4165 310.14 45.4H310.15Z" fill="#4FFFD1"/>
<path d="M364.86 100C364.674 100.004 364.49 99.9551 364.33 99.86L316.94 72.54C316.718 72.3896 316.561 72.1605 316.501 71.899C316.441 71.6375 316.482 71.3629 316.617 71.1308C316.751 70.8986 316.969 70.726 317.226 70.6479C317.482 70.5698 317.759 70.592 318 70.71L365.39 98.07C365.604 98.181 365.774 98.3616 365.871 98.582C365.969 98.8023 365.988 99.0494 365.926 99.2823C365.865 99.5153 365.725 99.7202 365.532 99.8634C365.338 100.007 365.101 100.079 364.86 100.07V100Z" fill="white" fill-opacity="0.22"/>
<path d="M431.53 138.54C431.343 138.541 431.159 138.489 431 138.39L395.9 118.13C395.656 117.989 395.478 117.758 395.405 117.486C395.332 117.214 395.37 116.924 395.51 116.68C395.651 116.436 395.882 116.258 396.154 116.185C396.426 116.111 396.716 116.149 396.96 116.29L432.06 136.56C432.274 136.671 432.444 136.852 432.541 137.072C432.639 137.292 432.658 137.539 432.596 137.772C432.535 138.005 432.395 138.21 432.202 138.353C432.008 138.497 431.771 138.569 431.53 138.56V138.54Z" fill="white" fill-opacity="0.22"/>
<path d="M388.82 113.88C388.635 113.878 388.453 113.829 388.29 113.74L374 105.5C373.869 105.436 373.753 105.346 373.659 105.235C373.565 105.125 373.494 104.996 373.452 104.856C373.41 104.717 373.396 104.571 373.413 104.426C373.43 104.282 373.476 104.142 373.549 104.017C373.622 103.891 373.72 103.781 373.837 103.695C373.954 103.609 374.087 103.547 374.229 103.515C374.371 103.482 374.518 103.479 374.661 103.506C374.804 103.533 374.94 103.588 375.06 103.67L389.32 111.9C389.534 112.011 389.704 112.192 389.801 112.412C389.899 112.632 389.918 112.879 389.856 113.112C389.795 113.345 389.655 113.55 389.462 113.693C389.268 113.837 389.031 113.909 388.79 113.9L388.82 113.88Z" fill="white" fill-opacity="0.22"/>
<path d="M364.86 166.41C364.674 166.409 364.492 166.361 364.33 166.27L316.94 138.91C316.718 138.76 316.561 138.531 316.501 138.269C316.441 138.007 316.482 137.733 316.617 137.501C316.751 137.269 316.969 137.096 317.226 137.018C317.482 136.94 317.759 136.962 318 137.08L365.39 164.43C365.633 164.572 365.809 164.804 365.88 165.076C365.952 165.348 365.912 165.637 365.77 165.88C365.683 166.044 365.551 166.181 365.391 166.274C365.23 166.368 365.046 166.415 364.86 166.41Z" fill="white" fill-opacity="0.22"/>
<path d="M431.53 204.9C431.344 204.904 431.16 204.855 431 204.76L395.9 184.5C395.656 184.359 395.478 184.128 395.405 183.856C395.332 183.584 395.37 183.294 395.51 183.05C395.651 182.806 395.882 182.628 396.154 182.555C396.426 182.482 396.716 182.519 396.96 182.66L432.06 202.93C432.302 203.07 432.478 203.3 432.551 203.57C432.624 203.839 432.588 204.127 432.45 204.37C432.356 204.531 432.222 204.664 432.061 204.757C431.899 204.85 431.716 204.899 431.53 204.9Z" fill="white" fill-opacity="0.22"/>
<path d="M388.82 180.24C388.634 180.244 388.45 180.195 388.29 180.1L374 171.87C373.869 171.806 373.753 171.716 373.659 171.605C373.565 171.495 373.494 171.366 373.452 171.226C373.41 171.087 373.396 170.941 373.413 170.796C373.43 170.652 373.476 170.512 373.549 170.387C373.622 170.261 373.72 170.151 373.837 170.065C373.954 169.979 374.087 169.917 374.229 169.885C374.371 169.852 374.518 169.849 374.661 169.876C374.804 169.903 374.94 169.958 375.06 170.04L389.32 178.27C389.562 178.41 389.738 178.64 389.811 178.91C389.884 179.179 389.848 179.467 389.71 179.71C389.619 179.866 389.489 179.997 389.333 180.09C389.178 180.183 389.001 180.234 388.82 180.24Z" fill="white" fill-opacity="0.22"/>
<path d="M364.86 182C364.674 182.004 364.49 181.955 364.33 181.86L316.94 154.51C316.696 154.369 316.518 154.138 316.445 153.866C316.372 153.594 316.409 153.304 316.55 153.06C316.691 152.816 316.922 152.638 317.194 152.565C317.466 152.492 317.756 152.529 318 152.67L365.39 180C365.604 180.111 365.774 180.292 365.871 180.512C365.969 180.732 365.988 180.979 365.926 181.212C365.865 181.445 365.725 181.65 365.531 181.793C365.338 181.937 365.101 182.009 364.86 182Z" fill="white" fill-opacity="0.22"/>
<path d="M416.59 211.88C416.404 211.884 416.22 211.835 416.06 211.74L395.9 200.1C395.77 200.036 395.653 199.946 395.559 199.835C395.465 199.724 395.394 199.596 395.352 199.456C395.31 199.317 395.296 199.171 395.313 199.026C395.33 198.882 395.376 198.742 395.449 198.617C395.522 198.491 395.62 198.381 395.737 198.295C395.854 198.209 395.987 198.147 396.129 198.115C396.271 198.082 396.418 198.079 396.561 198.106C396.704 198.133 396.84 198.188 396.96 198.27L417.12 209.91C417.241 209.978 417.347 210.07 417.432 210.18C417.517 210.289 417.579 210.415 417.615 210.549C417.652 210.683 417.661 210.822 417.643 210.96C417.625 211.097 417.58 211.23 417.51 211.35C417.416 211.511 417.282 211.644 417.121 211.737C416.959 211.83 416.776 211.879 416.59 211.88Z" fill="white" fill-opacity="0.22"/>
<path d="M388.82 195.85C388.635 195.848 388.453 195.8 388.29 195.71L374 187.48C373.756 187.339 373.578 187.108 373.505 186.836C373.432 186.564 373.469 186.274 373.61 186.03C373.751 185.786 373.982 185.608 374.254 185.535C374.526 185.462 374.816 185.499 375.06 185.64L389.32 193.87C389.534 193.981 389.704 194.162 389.801 194.382C389.899 194.602 389.918 194.849 389.856 195.082C389.795 195.315 389.655 195.52 389.461 195.663C389.268 195.807 389.031 195.88 388.79 195.87L388.82 195.85Z" fill="white" fill-opacity="0.22"/>
<path d="M341.23 94.6499C341.043 94.6505 340.859 94.5986 340.7 94.4999L316.94 80.7899C316.757 80.6264 316.636 80.4042 316.598 80.1614C316.561 79.9186 316.608 79.6703 316.734 79.4589C316.859 79.2474 317.054 79.0861 317.285 79.0024C317.516 78.9187 317.768 78.9178 318 78.9999L341.76 92.7099C342.003 92.8518 342.179 93.0843 342.25 93.3563C342.322 93.6282 342.282 93.9173 342.14 94.1599C342.047 94.3168 341.914 94.4453 341.753 94.5316C341.593 94.618 341.412 94.6589 341.23 94.6499Z" fill="white" fill-opacity="0.22"/>
<path d="M409.66 134.16C409.475 134.158 409.293 134.109 409.13 134.02L374 113.75C373.869 113.686 373.753 113.596 373.659 113.485C373.565 113.375 373.494 113.246 373.452 113.106C373.41 112.967 373.396 112.821 373.413 112.676C373.43 112.532 373.476 112.392 373.549 112.267C373.622 112.141 373.72 112.031 373.837 111.945C373.954 111.859 374.087 111.797 374.229 111.765C374.371 111.732 374.518 111.729 374.661 111.756C374.804 111.783 374.94 111.838 375.06 111.92L410.16 132.18C410.374 132.291 410.544 132.472 410.641 132.692C410.739 132.912 410.758 133.159 410.696 133.392C410.635 133.625 410.495 133.83 410.302 133.973C410.108 134.117 409.871 134.189 409.63 134.18L409.66 134.16Z" fill="white" fill-opacity="0.22"/>
<path d="M365.19 108.48C365.004 108.484 364.82 108.435 364.66 108.34L350.4 100.11C350.156 99.9695 349.978 99.7377 349.905 99.4658C349.832 99.1939 349.87 98.904 350.01 98.66C350.151 98.416 350.382 98.2379 350.654 98.1647C350.926 98.0916 351.216 98.1295 351.46 98.27L365.72 106.5C365.963 106.642 366.139 106.874 366.21 107.146C366.282 107.418 366.242 107.707 366.1 107.95C366.013 108.114 365.881 108.251 365.721 108.345C365.56 108.438 365.376 108.485 365.19 108.48Z" fill="white" fill-opacity="0.22"/>
<path d="M364.86 116.54C364.673 116.541 364.489 116.489 364.33 116.39L316.94 89C316.75 88.8384 316.622 88.6147 316.581 88.3684C316.539 88.1221 316.586 87.8691 316.713 87.6538C316.839 87.4386 317.038 87.275 317.274 87.192C317.509 87.109 317.766 87.1118 318 87.2L365.39 114.56C365.633 114.702 365.809 114.934 365.88 115.206C365.952 115.478 365.912 115.767 365.77 116.01C365.683 116.174 365.551 116.311 365.391 116.404C365.23 116.498 365.046 116.545 364.86 116.54Z" fill="white" fill-opacity="0.22"/>
<path d="M405.78 140.16C405.594 140.164 405.41 140.115 405.25 140.02L395.9 134.62C395.77 134.556 395.653 134.466 395.559 134.355C395.465 134.245 395.394 134.116 395.352 133.976C395.31 133.837 395.296 133.691 395.313 133.546C395.33 133.402 395.376 133.262 395.449 133.137C395.522 133.011 395.62 132.901 395.737 132.815C395.854 132.729 395.987 132.667 396.129 132.635C396.271 132.602 396.418 132.599 396.561 132.626C396.704 132.653 396.84 132.708 396.96 132.79L406.31 138.19C406.552 138.33 406.728 138.56 406.801 138.83C406.874 139.099 406.838 139.387 406.7 139.63C406.606 139.791 406.472 139.924 406.311 140.017C406.149 140.11 405.966 140.159 405.78 140.16Z" fill="white" fill-opacity="0.22"/>
<path d="M345.9 113.84C345.715 113.838 345.533 113.789 345.37 113.7L336 108.3C335.879 108.23 335.773 108.138 335.688 108.027C335.603 107.917 335.541 107.79 335.505 107.656C335.468 107.521 335.459 107.381 335.477 107.242C335.495 107.104 335.54 106.971 335.61 106.85C335.68 106.729 335.772 106.623 335.883 106.538C335.993 106.453 336.12 106.391 336.254 106.355C336.389 106.318 336.529 106.309 336.668 106.327C336.806 106.345 336.939 106.39 337.06 106.46L346.41 111.86C346.624 111.971 346.794 112.152 346.891 112.372C346.989 112.592 347.008 112.839 346.946 113.072C346.885 113.305 346.745 113.51 346.551 113.653C346.358 113.797 346.121 113.869 345.88 113.86L345.9 113.84Z" fill="white" fill-opacity="0.22"/>
<path d="M388.82 130.37C388.635 130.368 388.453 130.32 388.29 130.23L374 122C373.879 121.93 373.773 121.838 373.688 121.727C373.603 121.617 373.541 121.49 373.505 121.356C373.468 121.221 373.459 121.081 373.477 120.942C373.495 120.804 373.54 120.671 373.61 120.55C373.68 120.429 373.772 120.323 373.883 120.238C373.993 120.153 374.12 120.091 374.254 120.055C374.389 120.019 374.529 120.009 374.668 120.027C374.806 120.045 374.939 120.09 375.06 120.16L389.32 128.39C389.534 128.501 389.704 128.682 389.801 128.902C389.899 129.122 389.918 129.369 389.856 129.602C389.795 129.835 389.655 130.04 389.461 130.183C389.268 130.327 389.031 130.4 388.79 130.39L388.82 130.37Z" fill="white" fill-opacity="0.22"/>
<path d="M332.66 106.19C332.474 106.194 332.29 106.145 332.13 106.05L316.94 97.28C316.718 97.1296 316.561 96.9005 316.501 96.639C316.441 96.3775 316.482 96.1029 316.617 95.8707C316.751 95.6386 316.969 95.466 317.226 95.3879C317.482 95.3098 317.759 95.332 318 95.45L333.19 104.22C333.415 104.323 333.596 104.503 333.701 104.726C333.807 104.95 333.83 105.204 333.766 105.443C333.703 105.682 333.557 105.891 333.355 106.033C333.153 106.175 332.906 106.241 332.66 106.22V106.19Z" fill="white" fill-opacity="0.22"/>
<path d="M365.19 125C365.004 125.004 364.82 124.955 364.66 124.86L350.4 116.6C350.27 116.536 350.153 116.446 350.059 116.335C349.965 116.224 349.894 116.096 349.852 115.956C349.81 115.817 349.796 115.671 349.813 115.526C349.83 115.382 349.876 115.242 349.949 115.117C350.022 114.991 350.12 114.881 350.237 114.795C350.354 114.709 350.487 114.647 350.629 114.615C350.771 114.582 350.918 114.579 351.061 114.606C351.204 114.633 351.34 114.688 351.46 114.77L365.72 123C365.934 123.111 366.104 123.292 366.201 123.512C366.299 123.732 366.318 123.979 366.256 124.212C366.195 124.445 366.055 124.65 365.862 124.793C365.668 124.937 365.431 125.009 365.19 125Z" fill="white" fill-opacity="0.22"/>
<path d="M364.86 133.63C364.674 133.634 364.49 133.585 364.33 133.49L316.94 106.13C316.718 105.98 316.561 105.751 316.501 105.489C316.441 105.228 316.482 104.953 316.617 104.721C316.751 104.489 316.969 104.316 317.226 104.238C317.482 104.16 317.759 104.182 318 104.3L365.39 131.65C365.633 131.792 365.809 132.024 365.88 132.296C365.952 132.568 365.912 132.857 365.77 133.1C365.683 133.264 365.551 133.401 365.391 133.495C365.23 133.588 365.046 133.635 364.86 133.63Z" fill="white" fill-opacity="0.22"/>
<path d="M431.53 172.12C431.346 172.13 431.162 172.088 431 172L395.9 151.74C395.656 151.599 395.478 151.368 395.405 151.096C395.332 150.824 395.37 150.534 395.51 150.29C395.651 150.046 395.882 149.868 396.154 149.795C396.426 149.722 396.716 149.759 396.96 149.9L432.06 170.17C432.302 170.31 432.478 170.54 432.551 170.81C432.624 171.079 432.588 171.367 432.45 171.61C432.354 171.767 432.218 171.897 432.057 171.986C431.896 172.075 431.714 172.121 431.53 172.12Z" fill="white" fill-opacity="0.22"/>
<path d="M388.82 147.46C388.634 147.464 388.45 147.415 388.29 147.32L374 139.09C373.869 139.026 373.753 138.936 373.659 138.825C373.565 138.714 373.494 138.586 373.452 138.446C373.41 138.307 373.396 138.161 373.413 138.016C373.43 137.872 373.476 137.732 373.549 137.607C373.622 137.481 373.72 137.371 373.837 137.285C373.954 137.199 374.087 137.137 374.229 137.105C374.371 137.072 374.518 137.069 374.661 137.096C374.804 137.123 374.94 137.178 375.06 137.26L389.32 145.49C389.562 145.632 389.739 145.864 389.812 146.135C389.885 146.406 389.848 146.695 389.71 146.94C389.616 147.093 389.486 147.221 389.33 147.312C389.175 147.403 389 147.453 388.82 147.46Z" fill="white" fill-opacity="0.22"/>
<path d="M341.23 128.23C341.044 128.234 340.86 128.185 340.7 128.09L316.94 114.38C316.696 114.239 316.518 114.008 316.445 113.736C316.372 113.464 316.409 113.174 316.55 112.93C316.691 112.686 316.922 112.508 317.194 112.435C317.466 112.361 317.756 112.399 318 112.54L341.76 126.26C341.974 126.371 342.144 126.552 342.241 126.772C342.338 126.992 342.358 127.239 342.296 127.472C342.235 127.705 342.095 127.91 341.901 128.053C341.708 128.197 341.471 128.269 341.23 128.26V128.23Z" fill="white" fill-opacity="0.22"/>
<path d="M409.66 167.75C409.473 167.751 409.289 167.699 409.13 167.6L374 147.34C373.756 147.199 373.578 146.968 373.505 146.696C373.432 146.424 373.469 146.134 373.61 145.89C373.751 145.646 373.982 145.468 374.254 145.395C374.526 145.322 374.816 145.359 375.06 145.5L410.16 165.77C410.374 165.881 410.544 166.062 410.641 166.282C410.739 166.502 410.758 166.749 410.696 166.982C410.635 167.215 410.495 167.42 410.301 167.563C410.108 167.707 409.871 167.779 409.63 167.77L409.66 167.75Z" fill="white" fill-opacity="0.22"/>
<path d="M365.19 142.07C365.005 142.067 364.823 142.019 364.66 141.93L350.4 133.69C350.27 133.626 350.153 133.536 350.059 133.425C349.965 133.314 349.894 133.186 349.852 133.046C349.81 132.907 349.796 132.761 349.813 132.616C349.83 132.472 349.876 132.332 349.949 132.207C350.022 132.081 350.12 131.971 350.237 131.885C350.354 131.799 350.487 131.737 350.629 131.705C350.771 131.672 350.918 131.669 351.061 131.696C351.204 131.723 351.34 131.778 351.46 131.86L365.72 140.09C365.963 140.232 366.139 140.464 366.21 140.736C366.282 141.008 366.242 141.297 366.1 141.54C366.013 141.704 365.881 141.841 365.721 141.934C365.56 142.028 365.376 142.075 365.19 142.07Z" fill="white" fill-opacity="0.22"/>
<path d="M364.86 150.12C364.674 150.124 364.49 150.075 364.33 149.98L316.94 122.62C316.718 122.47 316.561 122.241 316.501 121.979C316.441 121.718 316.482 121.443 316.617 121.211C316.751 120.979 316.969 120.806 317.226 120.728C317.482 120.65 317.759 120.672 318 120.79L365.39 148.15C365.604 148.261 365.774 148.442 365.871 148.662C365.969 148.882 365.988 149.129 365.926 149.362C365.865 149.595 365.725 149.8 365.532 149.943C365.338 150.087 365.101 150.16 364.86 150.15V150.12Z" fill="white" fill-opacity="0.22"/>
<path d="M405.78 173.75C405.595 173.748 405.413 173.699 405.25 173.61L395.9 168.21C395.77 168.146 395.653 168.056 395.559 167.945C395.465 167.834 395.394 167.706 395.352 167.566C395.31 167.427 395.296 167.281 395.313 167.136C395.33 166.992 395.376 166.852 395.449 166.727C395.522 166.601 395.62 166.491 395.737 166.405C395.854 166.319 395.987 166.257 396.129 166.225C396.271 166.192 396.418 166.189 396.561 166.216C396.704 166.243 396.84 166.298 396.96 166.38L406.31 171.77C406.524 171.881 406.694 172.062 406.791 172.282C406.889 172.502 406.908 172.749 406.846 172.982C406.785 173.215 406.645 173.42 406.452 173.563C406.258 173.707 406.021 173.779 405.78 173.77V173.75Z" fill="white" fill-opacity="0.22"/>
<path d="M345.9 147.43C345.713 147.431 345.529 147.379 345.37 147.28L336 141.89C335.756 141.749 335.578 141.518 335.505 141.246C335.432 140.974 335.469 140.684 335.61 140.44C335.751 140.196 335.982 140.018 336.254 139.945C336.526 139.872 336.816 139.909 337.06 140.05L346.41 145.45C346.624 145.561 346.794 145.742 346.891 145.962C346.989 146.182 347.008 146.429 346.946 146.662C346.885 146.895 346.745 147.1 346.551 147.243C346.358 147.387 346.121 147.459 345.88 147.45L345.9 147.43Z" fill="white" fill-opacity="0.22"/>
<path d="M388.82 164C388.635 163.998 388.453 163.949 388.29 163.86L374 155.59C373.756 155.449 373.578 155.218 373.505 154.946C373.432 154.674 373.469 154.384 373.61 154.14C373.751 153.896 373.982 153.718 374.254 153.645C374.526 153.572 374.816 153.609 375.06 153.75L389.35 162C389.564 162.111 389.734 162.292 389.831 162.512C389.929 162.732 389.948 162.979 389.886 163.212C389.825 163.445 389.685 163.65 389.491 163.793C389.298 163.937 389.061 164.009 388.82 164Z" fill="white" fill-opacity="0.22"/>
<path d="M332.66 139.78C332.474 139.784 332.29 139.735 332.13 139.64L316.94 130.87C316.692 130.729 316.51 130.496 316.434 130.221C316.358 129.947 316.394 129.653 316.535 129.405C316.676 129.157 316.909 128.975 317.184 128.899C317.458 128.823 317.752 128.859 318 129L333.19 137.76C333.404 137.871 333.574 138.052 333.671 138.272C333.769 138.492 333.788 138.739 333.726 138.972C333.665 139.205 333.525 139.41 333.332 139.553C333.138 139.697 332.901 139.769 332.66 139.76V139.78Z" fill="white" fill-opacity="0.22"/>
<path d="M365.19 158.56C365.004 158.564 364.82 158.515 364.66 158.42L350.4 150.19C350.156 150.049 349.978 149.818 349.905 149.546C349.832 149.274 349.87 148.984 350.01 148.74C350.151 148.496 350.382 148.318 350.654 148.245C350.926 148.172 351.216 148.209 351.46 148.35L365.72 156.59C365.934 156.701 366.104 156.882 366.201 157.102C366.299 157.322 366.318 157.569 366.256 157.802C366.195 158.035 366.055 158.24 365.862 158.383C365.668 158.527 365.431 158.599 365.19 158.59V158.56Z" fill="white" fill-opacity="0.22"/>
<path d="M345.9 163.23C345.714 163.234 345.53 163.185 345.37 163.09L336.02 157.69C335.889 157.626 335.773 157.536 335.679 157.425C335.585 157.314 335.514 157.186 335.472 157.046C335.43 156.907 335.416 156.761 335.433 156.616C335.45 156.472 335.496 156.332 335.569 156.207C335.642 156.081 335.74 155.971 335.857 155.885C335.974 155.799 336.107 155.737 336.249 155.705C336.391 155.672 336.538 155.669 336.681 155.696C336.824 155.723 336.96 155.778 337.08 155.86L346.43 161.26C346.655 161.363 346.836 161.543 346.941 161.766C347.047 161.99 347.07 162.244 347.006 162.483C346.943 162.722 346.797 162.931 346.595 163.073C346.393 163.215 346.146 163.281 345.9 163.26V163.23Z" fill="white" fill-opacity="0.22"/>
<path d="M332.66 155.59C332.474 155.588 332.292 155.539 332.13 155.45L316.94 146.68C316.696 146.539 316.518 146.308 316.445 146.036C316.372 145.764 316.409 145.474 316.55 145.23C316.691 144.986 316.922 144.808 317.194 144.735C317.466 144.662 317.756 144.699 318 144.84L333.19 153.61C333.404 153.721 333.574 153.902 333.671 154.122C333.768 154.342 333.788 154.589 333.726 154.822C333.665 155.055 333.525 155.26 333.331 155.403C333.138 155.547 332.901 155.619 332.66 155.61V155.59Z" fill="white" fill-opacity="0.22"/>
<path d="M365.19 174.37C365.005 174.368 364.823 174.32 364.66 174.23L350.4 166C350.156 165.859 349.978 165.628 349.905 165.356C349.832 165.084 349.87 164.794 350.01 164.55C350.151 164.306 350.382 164.128 350.654 164.055C350.926 163.982 351.216 164.019 351.46 164.16L365.72 172.39C365.963 172.532 366.139 172.764 366.21 173.036C366.282 173.308 366.242 173.597 366.1 173.84C366.013 174.004 365.881 174.141 365.721 174.235C365.56 174.328 365.376 174.375 365.19 174.37Z" fill="white" fill-opacity="0.22"/>
<path d="M326.85 82.83V121.17C326.85 121.79 326.63 122.17 326.28 122.34L324.81 123.15V121.84L324.6 82.42L326.52 81.42C326.735 81.8592 326.848 82.3412 326.85 82.83Z" fill="#263238"/>
<path d="M326.52 81.4499L324.6 82.4499L278.11 55.1599L277 54.5199L278.53 53.6599H278.58C278.723 53.5839 278.884 53.55 279.045 53.5624C279.206 53.5748 279.361 53.6329 279.49 53.7299L325.49 80.2199C325.947 80.5198 326.305 80.9476 326.52 81.4499Z" fill="#37474F"/>
<path d="M325.19 83.66V121.75C325.211 121.954 325.182 122.16 325.105 122.349C325.028 122.539 324.907 122.708 324.75 122.84H324.66C324.521 122.896 324.371 122.916 324.222 122.899C324.074 122.881 323.932 122.827 323.81 122.74L278.11 96.41C277.69 96.1106 277.346 95.7165 277.106 95.2596C276.867 94.8028 276.738 94.2959 276.73 93.78V55.75C276.709 55.5511 276.737 55.3501 276.81 55.1639C276.883 54.9777 277 54.8118 277.15 54.68C277.191 54.6439 277.238 54.6167 277.29 54.6C277.426 54.5515 277.571 54.5361 277.713 54.5552C277.856 54.5744 277.992 54.6275 278.11 54.71L323.81 81C324.253 81.2897 324.601 81.7036 324.81 82.19C325.047 82.6446 325.177 83.1475 325.19 83.66Z" fill="#455A64"/>
<path d="M314.937 100.492V97.2614L303.733 85.1324V88.8494L311.404 96.8095L311.301 96.5574V97.0162L311.404 96.883L303.733 96.0263V99.7432L314.937 100.492ZM293.27 74.2638L298.521 99.7857L301.442 101.464L296.19 75.9422L293.27 74.2638ZM279.772 80.2824L290.976 92.4114V88.6945L283.305 80.7343L283.409 80.9865V80.5276L283.305 80.6609L290.976 81.5176V77.8006L279.772 77.0519V80.2824Z" fill="#FAFAFA" fill-opacity="0.5"/>
<path d="M277.38 54.64C277.529 54.6443 277.674 54.6892 277.8 54.77L323.8 81.26C324.205 81.528 324.524 81.9063 324.72 82.35C324.931 82.7619 325.044 83.2171 325.05 83.68V122C325.073 122.158 325.058 122.32 325.006 122.472C324.954 122.623 324.866 122.76 324.75 122.87H324.67C324.604 122.886 324.536 122.886 324.47 122.87C324.322 122.858 324.179 122.814 324.05 122.74L278.05 96.24C277.668 95.9605 277.356 95.5968 277.137 95.1771C276.919 94.7575 276.8 94.2931 276.79 93.82V55.6C276.773 55.4395 276.793 55.2773 276.846 55.1252C276.9 54.973 276.986 54.8346 277.1 54.72H277.19C277.249 54.706 277.311 54.706 277.37 54.72M277.37 54.46C277.273 54.4596 277.178 54.4801 277.09 54.52L276.95 54.6C276.802 54.7353 276.688 54.9035 276.616 55.0911C276.545 55.2787 276.519 55.4804 276.54 55.68V93.91C276.549 94.4284 276.679 94.9375 276.918 95.3974C277.158 95.8572 277.501 96.2552 277.92 96.56L323.92 123.05C324.083 123.149 324.269 123.204 324.46 123.21C324.566 123.211 324.672 123.191 324.77 123.15L324.86 123.1C325.017 122.966 325.14 122.796 325.216 122.604C325.293 122.413 325.322 122.205 325.3 122V83.68C325.288 83.1793 325.165 82.6876 324.94 82.24C324.725 81.7544 324.379 81.3387 323.94 81.04L277.94 54.55C277.774 54.4468 277.585 54.3882 277.39 54.38L277.37 54.46Z" fill="#37474F"/>
<path d="M319.46 55.63C319.46 56.72 318.69 57.16 317.75 56.63C317.245 56.3035 316.827 55.8606 316.529 55.3385C316.232 54.8164 316.064 54.2304 316.04 53.63C316.04 52.54 316.8 52.1 317.75 52.63C318.251 52.96 318.667 53.4038 318.964 53.9251C319.262 54.4464 319.431 55.0306 319.46 55.63Z" fill="white" fill-opacity="0.22"/>
<path d="M325.82 59.55C325.82 60.64 325.05 61.09 324.1 60.55C323.597 60.2217 323.18 59.7784 322.883 59.2567C322.585 58.735 322.416 58.1499 322.39 57.55C322.39 56.46 323.16 56.01 324.1 56.55C324.605 56.8771 325.024 57.32 325.323 57.8418C325.622 58.3635 325.793 58.9492 325.82 59.55Z" fill="white" fill-opacity="0.22"/>
<path d="M332.17 63.4799C332.17 64.5699 331.41 65.0099 330.46 64.4799C329.959 64.1499 329.543 63.7061 329.246 63.1848C328.948 62.6635 328.779 62.0793 328.75 61.4799C328.75 60.3899 329.52 59.9499 330.46 60.4799C330.965 60.8064 331.383 61.2493 331.681 61.7714C331.978 62.2935 332.146 62.8795 332.17 63.4799Z" fill="white" fill-opacity="0.22"/>
</svg>
