<svg width="500" height="500" viewBox="0 0 500 500" fill="none" xmlns="http://www.w3.org/2000/svg">
<path d="M84.5501 410.85L81.4101 409C80.8902 408.657 80.4576 408.197 80.1468 407.657C79.836 407.117 79.6557 406.512 79.6201 405.89V173.16C79.6572 172.54 79.8383 171.937 80.149 171.399C80.4597 170.861 80.8915 170.402 81.4101 170.06L225.81 86.68C226.367 86.4003 226.982 86.2546 227.605 86.2546C228.228 86.2546 228.843 86.4003 229.4 86.68L232.54 88.5C233.061 88.8411 233.494 89.2989 233.807 89.8371C234.119 90.3752 234.302 90.9789 234.34 91.6V324.37C234.303 324.993 234.122 325.598 233.809 326.138C233.496 326.678 233.062 327.138 232.54 327.48L88.1401 410.85C87.5831 411.13 86.9684 411.275 86.3451 411.275C85.7218 411.275 85.1071 411.13 84.5501 410.85Z" fill="#37474F"/>
<path d="M234.32 91.31C234.19 90.39 233.44 90.05 232.54 90.57L88.1401 173.94C87.6094 174.267 87.1719 174.725 86.8701 175.27L80.1401 171.39C80.4448 170.847 80.8816 170.389 81.4101 170.06L225.81 86.68C226.367 86.4003 226.982 86.2546 227.605 86.2546C228.228 86.2546 228.843 86.4003 229.4 86.68L232.54 88.5C233.021 88.8133 233.429 89.2263 233.736 89.7112C234.043 90.1961 234.242 90.7413 234.32 91.31Z" fill="#455A64"/>
<path d="M87.8201 411C87.7873 411.008 87.753 411.008 87.7201 411L87.5301 411.07H87.4601C87.3501 411.07 87.2401 411.13 87.1301 411.16C86.4186 411.298 85.6831 411.243 85.0001 411C84.8624 410.95 84.7287 410.89 84.6001 410.82L81.4101 409C80.8902 408.657 80.4576 408.197 80.1468 407.657C79.836 407.117 79.6557 406.512 79.6201 405.89V173.16C79.6421 172.536 79.8209 171.927 80.1401 171.39L86.8701 175.27C86.5446 175.805 86.3621 176.414 86.3401 177.04V409.82C86.3241 410.155 86.419 410.485 86.6101 410.76C86.7319 410.899 86.8898 411.002 87.0663 411.056C87.2428 411.111 87.4311 411.116 87.6101 411.07L87.8201 411Z" fill="#263238"/>
<path d="M138.45 163.82C138.404 163.576 138.293 163.348 138.13 163.16L138.01 163.06C137.916 162.989 137.805 162.942 137.688 162.925C137.571 162.907 137.451 162.92 137.34 162.96C137.251 162.981 137.166 163.019 137.09 163.07C136.646 163.376 136.299 163.803 136.09 164.3C135.823 164.863 135.68 165.477 135.67 166.1C135.63 166.566 135.774 167.029 136.07 167.39C136.202 167.517 136.373 167.595 136.556 167.609C136.738 167.624 136.92 167.575 137.07 167.47C137.284 167.341 137.474 167.175 137.63 166.98C137.773 166.794 137.9 166.597 138.01 166.39C138.317 165.788 138.485 165.125 138.5 164.45C138.506 164.239 138.489 164.028 138.45 163.82ZM161.93 111.35C161.409 111.044 160.815 110.885 160.21 110.89C159.063 110.944 157.948 111.288 156.97 111.89C154.241 113.561 152.133 116.079 150.97 119.06C150.78 119.48 150.6 119.92 150.44 120.35C150.28 120.78 150.11 121.22 149.97 121.67C149.83 122.12 149.67 122.57 149.54 123.02C149.49 123.17 149.45 123.33 149.4 123.47L149.14 124.38C149.145 124.423 149.145 124.467 149.14 124.51C148.99 125.06 148.85 125.63 148.69 126.19C148.61 126.5 148.54 126.79 148.46 127.09L148.23 127.98C147.91 129.17 147.59 130.31 147.23 131.4L147 132.06C146.89 132.37 146.78 132.68 146.66 132.98C146.54 133.28 146.47 133.44 146.38 133.65C146.23 134.02 146.07 134.37 145.9 134.71C145.73 135.05 145.69 135.14 145.58 135.35C143.05 140.21 139.96 142.11 138.17 144.61C136.6 146.79 136.17 148.53 134.05 151.98C133.38 153.08 132.54 154.35 131.44 155.87C128.39 160.07 127.3 162.15 126.93 163.41C126.926 163.443 126.926 163.477 126.93 163.51C126.93 163.61 126.93 163.7 126.86 163.79C126.857 163.82 126.857 163.85 126.86 163.88C126.856 163.96 126.856 164.04 126.86 164.12C126.825 164.365 126.808 164.612 126.81 164.86V174.2L130.17 176.14V166.79C130.162 166.302 130.233 165.815 130.38 165.35C130.75 164.09 131.83 162.02 134.89 157.82C135.99 156.29 136.83 155.02 137.5 153.92C139.6 150.48 140.05 148.73 141.62 146.57C143.41 144.06 146.5 142.17 149.03 137.3C149.395 136.552 149.719 135.784 150 135C151.62 131 152.35 125.61 154.34 121.08C155.501 118.103 157.61 115.59 160.34 113.93C162.39 112.75 163.89 112.65 165.04 113.19L161.93 111.35ZM176.66 123.29C176.381 123.131 176.082 123.01 175.77 122.93C174.5 122.63 172.61 123.37 170.71 123.15C173.38 126.6 177.09 124.38 179.13 124.87C179.448 124.946 179.751 125.071 180.03 125.24L176.66 123.29ZM183.78 136.12C183.68 136.181 183.587 136.251 183.5 136.33L183.36 136.47L183.23 136.62C182.669 137.345 182.36 138.233 182.35 139.15C182.317 139.61 182.456 140.066 182.74 140.43C182.778 140.466 182.818 140.499 182.86 140.53C182.953 140.601 183.062 140.648 183.177 140.665C183.293 140.683 183.411 140.671 183.52 140.63C183.612 140.608 183.7 140.571 183.78 140.52C183.88 140.46 183.97 140.38 184.07 140.31C184.215 140.174 184.346 140.023 184.46 139.86C184.936 139.164 185.197 138.343 185.21 137.5C185.21 136.29 184.57 135.66 183.78 136.12ZM185.98 127.67C184.901 127.068 183.728 126.652 182.51 126.44C181.99 126.32 181.51 126.19 181.12 126.06C182.458 127.251 184.098 128.05 185.86 128.37C186.93 128.578 187.971 128.914 188.96 129.37L185.98 127.67Z" fill="#4FFFD1"/>
<path d="M189.23 129.54L188.96 129.38C187.97 128.924 186.93 128.588 185.86 128.38C184.097 128.062 182.457 127.262 181.12 126.07C180.785 125.761 180.42 125.486 180.03 125.25C179.75 125.085 179.447 124.963 179.13 124.89C177.13 124.4 173.38 126.62 170.72 123.17L170.63 123.06C168.77 120.55 168.09 114.95 165.3 113.31L165.02 113.15C163.87 112.61 162.37 112.71 160.32 113.89C152.93 118.16 152.68 128.3 150.02 134.97C147.36 141.64 143.58 143.73 141.53 146.6C139.48 149.47 139.34 151.6 134.79 157.86C130.24 164.12 130.07 165.66 130.07 166.86V176.2L190.59 141.2V131.86C190.627 131.381 190.516 130.902 190.273 130.487C190.03 130.073 189.666 129.742 189.23 129.54ZM137.09 167.47C136.3 167.93 135.67 167.32 135.67 166.1C135.662 165.525 135.786 164.955 136.032 164.435C136.278 163.915 136.64 163.459 137.09 163.1C137.88 162.64 138.51 163.26 138.51 164.48C138.518 165.054 138.394 165.622 138.148 166.14C137.902 166.659 137.54 167.113 137.09 167.47ZM160.32 139.33C159.941 139.618 159.499 139.813 159.03 139.896C158.561 139.98 158.079 139.95 157.623 139.811C157.168 139.671 156.752 139.425 156.411 139.093C156.069 138.76 155.812 138.351 155.66 137.9C155.138 136.717 154.888 135.432 154.93 134.14C154.93 129.55 157.34 124.44 160.32 122.72C160.722 122.48 161.162 122.308 161.62 122.21C163.98 121.74 165.71 124 165.71 127.91C165.71 132.5 163.3 137.61 160.32 139.33ZM183.78 140.51C182.99 140.97 182.35 140.36 182.35 139.15C182.344 138.574 182.47 138.004 182.718 137.484C182.966 136.964 183.329 136.508 183.78 136.15C184.57 135.7 185.21 136.31 185.21 137.53C185.216 138.103 185.09 138.67 184.842 139.187C184.594 139.703 184.231 140.156 183.78 140.51Z" fill="#4FFFD1"/>
<path opacity="0.1" d="M189.23 129.54L188.96 129.38C187.97 128.924 186.93 128.588 185.86 128.38C184.097 128.062 182.457 127.262 181.12 126.07C180.785 125.761 180.42 125.486 180.03 125.25C179.75 125.085 179.447 124.963 179.13 124.89C177.13 124.4 173.38 126.62 170.72 123.17L170.63 123.06C168.77 120.55 168.09 114.95 165.3 113.31L165.02 113.15C163.87 112.61 162.37 112.71 160.32 113.89C152.93 118.16 152.68 128.3 150.02 134.97C147.36 141.64 143.58 143.73 141.53 146.6C139.48 149.47 139.34 151.6 134.79 157.86C130.24 164.12 130.07 165.66 130.07 166.86V176.2L190.59 141.2V131.86C190.627 131.381 190.516 130.902 190.273 130.487C190.03 130.073 189.666 129.742 189.23 129.54ZM137.09 167.47C136.3 167.93 135.67 167.32 135.67 166.1C135.662 165.525 135.786 164.955 136.032 164.435C136.278 163.915 136.64 163.459 137.09 163.1C137.88 162.64 138.51 163.26 138.51 164.48C138.518 165.054 138.394 165.622 138.148 166.14C137.902 166.659 137.54 167.113 137.09 167.47ZM160.32 139.33C159.941 139.618 159.499 139.813 159.03 139.896C158.561 139.98 158.079 139.95 157.623 139.811C157.168 139.671 156.752 139.425 156.411 139.093C156.069 138.76 155.812 138.351 155.66 137.9C155.138 136.717 154.888 135.432 154.93 134.14C154.93 129.55 157.34 124.44 160.32 122.72C160.722 122.48 161.162 122.308 161.62 122.21C163.98 121.74 165.71 124 165.71 127.91C165.71 132.5 163.3 137.61 160.32 139.33ZM183.78 140.51C182.99 140.97 182.35 140.36 182.35 139.15C182.344 138.574 182.47 138.004 182.718 137.484C182.966 136.964 183.329 136.508 183.78 136.15C184.57 135.7 185.21 136.31 185.21 137.53C185.216 138.103 185.09 138.67 184.842 139.187C184.594 139.703 184.231 140.156 183.78 140.51Z" fill="black"/>
<path opacity="0.25" d="M130.28 165.39C130.133 165.855 130.062 166.342 130.07 166.83V176.18L126.71 174.24V164.9C126.708 164.652 126.725 164.405 126.76 164.16C126.756 164.08 126.756 164 126.76 163.92C126.756 163.89 126.756 163.86 126.76 163.83C126.76 163.74 126.76 163.65 126.83 163.55V163.45L130.28 165.39Z" fill="black"/>
<path opacity="0.25" d="M141.52 146.61C139.95 148.77 139.52 150.52 137.4 153.96L134.05 152C136.15 148.55 136.6 146.81 138.17 144.63L141.52 146.61Z" fill="black"/>
<path opacity="0.25" d="M154.36 121C152.36 125.53 151.64 130.87 150.02 134.92C149.705 135.73 149.345 136.521 148.94 137.29L145.58 135.36C145.69 135.15 145.8 134.93 145.9 134.72C146 134.51 146.23 134.03 146.38 133.66C146.47 133.45 146.57 133.22 146.66 132.99C146.75 132.76 146.89 132.38 147 132.07L147.23 131.41C147.59 130.32 147.91 129.18 148.23 127.99L148.46 127.1C148.54 126.8 148.61 126.51 148.69 126.2C148.85 125.64 148.99 125.07 149.14 124.52C149.144 124.477 149.144 124.433 149.14 124.39L149.4 123.48C149.45 123.34 149.49 123.18 149.54 123.03C149.67 122.58 149.82 122.13 149.97 121.68C150.12 121.23 150.27 120.8 150.44 120.36C150.61 119.92 150.78 119.49 150.97 119.07L154.36 121Z" fill="black"/>
<path d="M136.08 164.3C135.813 164.863 135.67 165.477 135.66 166.1C135.62 166.566 135.763 167.029 136.06 167.39C135.773 167.024 135.633 166.564 135.67 166.1C135.681 165.478 135.821 164.865 136.08 164.3ZM138.52 164.45C138.519 164.238 138.496 164.027 138.45 163.82C138.492 164.027 138.512 164.238 138.51 164.45C138.498 165.125 138.334 165.788 138.03 166.39C138.337 165.788 138.505 165.125 138.52 164.45ZM182.86 140.53C182.953 140.601 183.062 140.648 183.177 140.665C183.293 140.683 183.411 140.671 183.52 140.63C183.41 140.665 183.293 140.674 183.179 140.656C183.064 140.639 182.955 140.596 182.86 140.53Z" fill="#4FFFD1"/>
<path d="M165.72 127.91C165.72 132.5 163.3 137.61 160.32 139.33C159.938 139.608 159.497 139.793 159.031 139.872C158.566 139.95 158.088 139.919 157.636 139.782C157.184 139.644 156.771 139.403 156.428 139.078C156.085 138.754 155.822 138.354 155.66 137.91C156.123 137.811 156.565 137.635 156.97 137.39C159.97 135.66 162.36 130.56 162.36 125.97C162.404 124.677 162.151 123.39 161.62 122.21C164 121.74 165.72 124 165.72 127.91Z" fill="#4FFFD1"/>
<path opacity="0.3" d="M165.72 127.91C165.72 132.5 163.3 137.61 160.32 139.33C159.938 139.608 159.497 139.793 159.031 139.872C158.566 139.95 158.088 139.919 157.636 139.782C157.184 139.644 156.771 139.403 156.428 139.078C156.085 138.754 155.822 138.354 155.66 137.91C156.123 137.811 156.565 137.635 156.97 137.39C159.97 135.66 162.36 130.56 162.36 125.97C162.404 124.677 162.151 123.39 161.62 122.21C164 121.74 165.72 124 165.72 127.91Z" fill="black"/>
<path d="M138 166.39C137.899 166.6 137.775 166.798 137.63 166.98C137.474 167.175 137.284 167.341 137.07 167.47C136.92 167.575 136.738 167.624 136.556 167.609C136.373 167.595 136.202 167.517 136.07 167.39C135.773 167.029 135.63 166.566 135.67 166.1C135.68 165.477 135.823 164.863 136.09 164.3C136.299 163.803 136.646 163.376 137.09 163.07C137.166 163.019 137.251 162.981 137.34 162.96C137.477 162.912 137.625 162.906 137.765 162.941C137.906 162.977 138.032 163.053 138.13 163.16C138.293 163.348 138.404 163.576 138.45 163.82C138.496 164.027 138.519 164.238 138.52 164.45C138.505 165.129 138.326 165.794 138 166.39Z" fill="#37474F"/>
<path d="M185.21 137.5C185.197 138.343 184.936 139.164 184.46 139.86C184.346 140.023 184.215 140.174 184.07 140.31C183.97 140.38 183.88 140.46 183.78 140.52C183.7 140.571 183.612 140.608 183.52 140.63C183.385 140.676 183.239 140.681 183.1 140.645C182.962 140.61 182.837 140.535 182.74 140.43C182.456 140.067 182.317 139.61 182.35 139.15C182.36 138.233 182.669 137.345 183.23 136.62L183.36 136.47L183.5 136.33C183.587 136.251 183.68 136.181 183.78 136.12C184.57 135.66 185.21 136.29 185.21 137.5Z" fill="#37474F"/>
<path d="M97.5102 195.71L223.17 123.16C223.504 122.992 223.872 122.905 224.245 122.905C224.619 122.905 224.987 122.992 225.32 123.16L226.53 123.86C226.843 124.066 227.104 124.343 227.291 124.667C227.479 124.992 227.588 125.356 227.61 125.73V317.43C227.589 317.803 227.48 318.166 227.292 318.489C227.105 318.812 226.844 319.086 226.53 319.29L100.87 391.84C100.538 392.013 100.169 392.103 99.7952 392.103C99.4209 392.103 99.0522 392.013 98.7202 391.84L97.5102 391.14C97.1962 390.937 96.9347 390.663 96.747 390.34C96.5593 390.016 96.4508 389.653 96.4302 389.28V197.58C96.45 197.205 96.5582 196.84 96.7459 196.515C96.9336 196.19 97.1955 195.914 97.5102 195.71Z" fill="#F5F5F5" fill-opacity="0.27"/>
<path d="M227.57 125.4C227.43 124.96 227.02 124.82 226.57 125.1L100.87 197.65C100.552 197.851 100.29 198.129 100.11 198.46L96.75 196.52C96.9233 196.187 97.1867 195.91 97.51 195.72L223.17 123.17C223.5 122.997 223.867 122.907 224.24 122.907C224.613 122.907 224.98 122.997 225.31 123.17L226.53 123.86C226.797 124.035 227.027 124.261 227.205 124.525C227.384 124.79 227.508 125.087 227.57 125.4Z" fill="#FAFAFA" fill-opacity="0.5"/>
<path d="M100.62 392C100.491 392.049 100.357 392.082 100.22 392.1H100.01C99.7942 392.125 99.5761 392.125 99.3602 392.1C99.2232 392.083 99.0889 392.05 98.9602 392L98.7202 391.88L97.5102 391.18C97.1951 390.978 96.9327 390.704 96.7449 390.381C96.5571 390.057 96.4492 389.694 96.4302 389.32V197.58C96.4406 197.204 96.551 196.839 96.7502 196.52L100.11 198.46C99.9208 198.782 99.8143 199.146 99.8002 199.52V391.22C99.8002 391.81 100.14 392.1 100.62 392Z" fill="#E0E0E0" fill-opacity="0.42"/>
<path d="M150.26 151.68L150.09 151.96C149.689 152.615 149.399 153.331 149.23 154.08C149.23 154.14 149.23 154.17 149.23 154.2C149.228 154.217 149.228 154.233 149.23 154.25L147.18 165.79L146.54 169.48C146.54 169.63 146.47 169.78 146.43 169.94C146.391 170.089 146.344 170.236 146.29 170.38C146.29 170.48 146.22 170.58 146.18 170.68L149.54 172.62C149.701 172.234 149.818 171.832 149.89 171.42L150.55 167.73L152.55 156.19C152.702 155.265 153.061 154.387 153.6 153.62L150.26 151.68Z" fill="#4FFFD1"/>
<path d="M127.12 188.91C126.78 189.45 126.46 189.99 126.12 190.53C125.98 190.79 125.84 191.05 125.71 191.31C125.58 191.57 125.39 191.98 125.25 192.31C125.11 192.64 124.93 193.05 124.79 193.43C124.65 193.81 124.51 194.19 124.38 194.57C124.25 194.95 124.09 195.46 123.97 195.91C123.89 196.2 123.81 196.49 123.73 196.8C123.543 197.507 123.373 198.227 123.22 198.96C123.22 199.21 123.11 199.47 123.07 199.72C123.03 199.97 122.94 200.34 122.89 200.64C122.89 200.64 122.89 200.64 122.89 200.69C122.89 200.93 122.89 201.09 123.01 201.16C123.026 201.167 123.043 201.171 123.06 201.171C123.077 201.171 123.094 201.167 123.11 201.16L126 198.9L126.47 198.53L126.7 198.36L126.95 198.16L127.15 198.01L127.32 197.87C128.164 194.813 129.572 191.94 131.47 189.4L128.11 187.46C127.78 187.94 127.44 188.43 127.12 188.91Z" fill="#4FFFD1"/>
<path d="M163.48 126.29C163.32 126.55 163.18 126.81 163.04 127.07C162.948 127.213 162.868 127.364 162.8 127.52C162.68 127.73 162.58 127.95 162.47 128.17C162.36 128.39 162.29 128.52 162.21 128.7C162.04 129.04 161.89 129.38 161.75 129.7C161.61 130.02 161.43 130.44 161.29 130.81C161.15 131.14 161.04 131.47 160.93 131.81C160.75 132.31 160.6 132.81 160.46 133.32C160.38 133.59 160.32 133.85 160.25 134.11C160.252 134.13 160.252 134.15 160.25 134.17C160.25 134.31 160.18 134.44 160.16 134.58C160.08 134.89 160.02 135.21 159.97 135.52C159.92 135.83 159.87 136.01 159.8 136.26C159.73 136.51 159.67 136.78 159.59 137.04C159.51 137.3 159.43 137.53 159.35 137.78C159.35 137.78 159.35 137.78 159.35 137.85C159.25 138.12 159.14 138.4 159.02 138.68C158.9 138.96 158.8 139.23 158.66 139.52C158.626 139.595 158.596 139.672 158.57 139.75C158.47 139.96 158.36 140.17 158.26 140.39L157.73 141.39C157.61 141.63 157.49 141.85 157.36 142.08L160.73 144.02C161.941 141.977 162.825 139.757 163.35 137.44C163.986 134.166 165.184 131.026 166.89 128.16L163.48 126.29Z" fill="#4FFFD1"/>
<path d="M183.47 133.77C183.303 133.669 183.115 133.607 182.92 133.59C183.246 134.111 183.685 134.552 184.204 134.881C184.724 135.21 185.31 135.418 185.92 135.49C186.209 135.494 186.495 135.555 186.76 135.67L183.47 133.77Z" fill="#4FFFD1"/>
<path opacity="0.4" d="M183.47 133.77C183.303 133.669 183.115 133.607 182.92 133.59C183.246 134.111 183.685 134.552 184.204 134.881C184.724 135.21 185.31 135.418 185.92 135.49C186.209 135.494 186.495 135.555 186.76 135.67L183.47 133.77Z" fill="white" fill-opacity="0.22"/>
<path d="M196 148.38C195.472 148.122 194.89 147.996 194.303 148.014C193.716 148.031 193.142 148.191 192.63 148.48C188.72 150.2 187.03 150.98 185.01 151.82C184.62 154.42 186.15 154.66 186.91 154.35C189.75 153.23 191.2 152.54 196 150.43C196.507 150.145 197.075 149.987 197.657 149.968C198.238 149.949 198.815 150.069 199.34 150.32L196 148.38Z" fill="#4FFFD1"/>
<path opacity="0.4" d="M196 148.38C195.472 148.122 194.89 147.996 194.303 148.014C193.716 148.031 193.142 148.191 192.63 148.48C188.72 150.2 187.03 150.98 185.01 151.82C184.62 154.42 186.15 154.66 186.91 154.35C189.75 153.23 191.2 152.54 196 150.43C196.507 150.145 197.075 149.987 197.657 149.968C198.238 149.949 198.815 150.069 199.34 150.32L196 148.38Z" fill="white" fill-opacity="0.22"/>
<path d="M149.52 172.62C148.796 174.204 147.778 175.636 146.52 176.84L136 184.75C134.318 186.12 132.802 187.68 131.48 189.4L128.12 187.46C129.439 185.735 130.956 184.171 132.64 182.8L143.18 174.9C144.416 173.688 145.416 172.257 146.13 170.68L149.52 172.62Z" fill="#4FFFD1"/>
<path opacity="0.4" d="M149.52 172.62C148.796 174.204 147.778 175.636 146.52 176.84L136 184.75C134.318 186.12 132.802 187.68 131.48 189.4L128.12 187.46C129.439 185.735 130.956 184.171 132.64 182.8L143.18 174.9C144.416 173.688 145.416 172.257 146.13 170.68L149.52 172.62Z" fill="white" fill-opacity="0.22"/>
<path d="M160.68 144.1C159.229 146.783 157.441 149.27 155.36 151.5C154.705 152.141 154.122 152.852 153.62 153.62L150.26 151.68C150.753 150.906 151.337 150.195 152 149.56C154.078 147.329 155.862 144.843 157.31 142.16L160.68 144.1Z" fill="#4FFFD1"/>
<path opacity="0.4" d="M160.68 144.1C159.229 146.783 157.441 149.27 155.36 151.5C154.705 152.141 154.122 152.852 153.62 153.62L150.26 151.68C150.753 150.906 151.337 150.195 152 149.56C154.078 147.329 155.862 144.843 157.31 142.16L160.68 144.1Z" fill="white" fill-opacity="0.22"/>
<path d="M179.66 119.27C178.42 118.62 176.77 118.73 174.83 119.75C171.95 121.26 169.05 124.46 166.83 128.24L163.47 126.24C165.67 122.46 168.57 119.24 171.47 117.75C172.412 117.218 173.469 116.92 174.55 116.88C175.197 116.872 175.835 117.034 176.4 117.35L179.66 119.27Z" fill="#4FFFD1"/>
<path opacity="0.4" d="M179.66 119.27C178.42 118.62 176.77 118.73 174.83 119.75C171.95 121.26 169.05 124.46 166.83 128.24L163.47 126.24C165.67 122.46 168.57 119.24 171.47 117.75C172.412 117.218 173.469 116.92 174.55 116.88C175.197 116.872 175.835 117.034 176.4 117.35L179.66 119.27Z" fill="white" fill-opacity="0.22"/>
<path opacity="0.15" d="M131.51 189.4C129.612 191.94 128.204 194.813 127.36 197.87L127.19 198.01L126.99 198.16L126.74 198.36L126.51 198.53L126.04 198.9L123.19 201.18C123.175 201.187 123.157 201.191 123.14 201.191C123.123 201.191 123.106 201.187 123.09 201.18C122.98 201.11 122.93 200.95 122.97 200.71C122.97 200.71 122.97 200.71 122.97 200.66C122.97 200.36 123.08 200.05 123.15 199.74C123.22 199.43 123.25 199.23 123.3 198.98C123.454 198.253 123.624 197.533 123.81 196.82C123.89 196.51 123.97 196.22 124.05 195.93C124.17 195.48 124.31 195.04 124.46 194.59C124.61 194.14 124.72 193.83 124.87 193.45C125.02 193.07 125.16 192.7 125.33 192.33C125.5 191.96 125.63 191.64 125.79 191.33C125.95 191.02 126.06 190.81 126.2 190.55C126.49 190.01 126.81 189.47 127.2 188.93C127.59 188.39 127.86 187.93 128.2 187.48L131.51 189.4Z" fill="black"/>
<path opacity="0.15" d="M153.62 153.62C153.081 154.387 152.722 155.265 152.57 156.19L150.57 167.73L149.91 171.42C149.838 171.832 149.721 172.234 149.56 172.62L146.2 170.68C146.2 170.58 146.28 170.48 146.31 170.38C146.364 170.236 146.411 170.089 146.45 169.94C146.45 169.78 146.53 169.63 146.56 169.48L147.2 165.79L149.25 154.25C149.248 154.233 149.248 154.217 149.25 154.2C149.25 154.2 149.25 154.14 149.25 154.08C149.419 153.331 149.709 152.615 150.11 151.96L150.28 151.68L153.62 153.62Z" fill="black"/>
<path opacity="0.15" d="M166.84 128.24C165.134 131.106 163.936 134.246 163.3 137.52C162.775 139.836 161.891 142.057 160.68 144.1L157.31 142.16C157.44 141.93 157.56 141.71 157.68 141.47L158.21 140.47C158.31 140.25 158.42 140.04 158.52 139.83C158.546 139.752 158.576 139.675 158.61 139.6C158.74 139.32 158.86 139.03 158.97 138.76C159.08 138.49 159.2 138.2 159.3 137.93C159.3 137.93 159.3 137.88 159.3 137.86C159.38 137.61 159.47 137.37 159.54 137.12C159.61 136.87 159.69 136.6 159.75 136.34C159.81 136.08 159.87 135.84 159.92 135.6C159.97 135.36 160.03 134.97 160.11 134.66C160.11 134.52 160.17 134.39 160.2 134.25C160.202 134.23 160.202 134.21 160.2 134.19C160.27 133.93 160.33 133.67 160.41 133.4C160.55 132.89 160.7 132.4 160.88 131.89C160.99 131.55 161.1 131.22 161.24 130.89C161.38 130.52 161.54 130.15 161.7 129.78C161.86 129.41 161.99 129.1 162.16 128.78C162.24 128.6 162.33 128.43 162.42 128.25C162.51 128.07 162.63 127.81 162.75 127.6C162.818 127.444 162.898 127.293 162.99 127.15C163.13 126.89 163.27 126.63 163.43 126.37L166.84 128.24Z" fill="black"/>
<path d="M123.16 201.18L126 198.9C124.87 199.81 123.33 201 123.16 201.18Z" fill="#4FFFD1"/>
<path d="M199.35 150.34C198.824 150.089 198.246 149.968 197.663 149.985C197.08 150.003 196.51 150.159 196 150.44C191.21 152.56 189.76 153.25 186.92 154.38C186.16 154.68 184.63 154.44 185.02 151.84C185.016 151.783 185.016 151.727 185.02 151.67L185.67 147.98L187.49 137.92C187.49 137.92 187.9 136.33 186.85 135.74H186.77C186.512 135.613 186.227 135.551 185.94 135.56C185.328 135.485 184.741 135.273 184.222 134.941C183.703 134.609 183.265 134.164 182.94 133.64C182.379 132.805 181.989 131.866 181.795 130.879C181.601 129.892 181.606 128.875 181.81 127.89C182.58 123.57 181.74 120.55 179.81 119.43L179.66 119.33C178.42 118.68 176.77 118.79 174.83 119.81C169.72 122.49 164.56 130.44 163.3 137.58C162.51 142.08 157.98 149.01 155.36 151.58C152.74 154.15 152.57 156.27 152.57 156.27L150.57 167.81L149.91 171.5C149.43 174.26 146.6 176.93 146.6 176.93L136 184.75C131.794 188.096 128.759 192.689 127.33 197.87C127.33 197.87 123.33 200.93 123.13 201.18L124.48 200.41L197.2 158.6C197.2 158.6 198.04 158.15 198.2 158.03C198.36 157.91 201.31 155.15 201.31 155.15C201.26 152.77 200.57 151.07 199.35 150.34ZM178.35 129.13C177.57 133.52 174.41 138.41 171.27 140.06C169.1 141.19 167.51 140.49 166.98 138.49C166.748 137.369 166.748 136.211 166.98 135.09C167.75 130.7 170.93 125.81 174.07 124.17C174.361 124.012 174.665 123.881 174.98 123.78C177.55 123 179 125.19 178.33 129.13H178.35Z" fill="#4FFFD1"/>
<path d="M123.17 201.19L197.25 158.61L198.25 158.04C198.43 157.93 201.36 155.15 201.36 155.15L127.36 197.87C127.36 197.87 122.88 201.35 123.17 201.19Z" fill="#4FFFD1"/>
<path opacity="0.3" d="M123.17 201.19L197.25 158.61L198.25 158.04C198.43 157.93 201.36 155.15 201.36 155.15L127.36 197.87C127.36 197.87 122.88 201.35 123.17 201.19Z" fill="black"/>
<path d="M175 123.78C174.685 123.881 174.381 124.012 174.09 124.17C170.95 125.81 167.77 130.7 167 135.09C166.768 136.211 166.768 137.369 167 138.49C167.53 140.49 169.12 141.19 171.29 140.06C174.43 138.41 177.59 133.52 178.37 129.13C179 125.19 177.55 123 175 123.78ZM167.2 138.41C166.979 137.328 166.979 136.212 167.2 135.13C167.97 130.79 171.1 125.96 174.2 124.35C174.458 124.214 174.725 124.097 175 124C175.205 125.057 175.205 126.143 175 127.2C174.23 131.59 171.06 136.48 167.91 138.13C167.681 138.251 167.444 138.354 167.2 138.44V138.41Z" fill="#4FFFD1"/>
<path opacity="0.4" d="M175 123.78C174.685 123.881 174.381 124.012 174.09 124.17C170.95 125.81 167.77 130.7 167 135.09C166.768 136.211 166.768 137.369 167 138.49C167.53 140.49 169.12 141.19 171.29 140.06C174.43 138.41 177.59 133.52 178.37 129.13C179 125.19 177.55 123 175 123.78ZM167.2 138.41C166.979 137.328 166.979 136.212 167.2 135.13C167.97 130.79 171.1 125.96 174.2 124.35C174.458 124.214 174.725 124.097 175 124C175.205 125.057 175.205 126.143 175 127.2C174.23 131.59 171.06 136.48 167.91 138.13C167.681 138.251 167.444 138.354 167.2 138.44V138.41Z" fill="black"/>
<path d="M116.67 257.69C116.512 257.691 116.357 257.649 116.22 257.57C116.055 257.464 115.923 257.314 115.839 257.138C115.754 256.961 115.72 256.765 115.74 256.57V252.3C115.755 251.916 115.863 251.542 116.054 251.209C116.246 250.877 116.516 250.595 116.84 250.39L120.57 248.24C120.725 248.138 120.905 248.08 121.09 248.075C121.275 248.069 121.459 248.115 121.62 248.207C121.78 248.299 121.912 248.434 122.001 248.597C122.089 248.76 122.13 248.945 122.12 249.13V253.44C122.107 253.824 122 254.199 121.808 254.532C121.616 254.865 121.346 255.146 121.02 255.35L117.29 257.51C117.103 257.623 116.889 257.685 116.67 257.69ZM121.19 248.95C121.131 248.967 121.074 248.99 121.02 249.02L117.29 251.17C117.103 251.296 116.947 251.464 116.834 251.66C116.721 251.855 116.655 252.074 116.64 252.3V256.61C116.623 256.669 116.623 256.731 116.64 256.79C116.7 256.78 116.757 256.76 116.81 256.73L120.54 254.57C120.727 254.444 120.883 254.276 120.996 254.08C121.109 253.885 121.175 253.665 121.19 253.44V249.13C121.195 249.087 121.195 249.043 121.19 249V248.95Z" fill="#455A64"/>
<path d="M125.29 247.62L139.99 239.13C140.48 238.85 140.87 239.07 140.87 239.63V240.78C140.853 241.083 140.764 241.378 140.611 241.64C140.458 241.903 140.245 242.125 139.99 242.29L125.29 250.78C124.81 251.06 124.41 250.84 124.41 250.28V249.13C124.428 248.827 124.517 248.532 124.669 248.27C124.822 248.007 125.035 247.785 125.29 247.62Z" fill="#E0E0E0" fill-opacity="0.42"/>
<path d="M153.1 236.66C152.942 236.662 152.786 236.62 152.65 236.54C152.484 236.435 152.35 236.286 152.263 236.11C152.177 235.933 152.141 235.736 152.16 235.54V231.23C152.177 230.846 152.287 230.471 152.48 230.138C152.673 229.806 152.945 229.525 153.27 229.32L157 227.17C157.154 227.06 157.337 226.995 157.526 226.985C157.716 226.974 157.905 227.017 158.07 227.11C158.232 227.207 158.362 227.348 158.447 227.516C158.532 227.684 158.568 227.873 158.55 228.06V232.37C158.537 232.754 158.43 233.129 158.238 233.462C158.046 233.795 157.776 234.076 157.45 234.28L153.72 236.44C153.537 236.567 153.323 236.643 153.1 236.66ZM157.61 227.92C157.555 227.94 157.502 227.963 157.45 227.99L153.72 230.14C153.531 230.266 153.374 230.433 153.259 230.629C153.145 230.825 153.077 231.044 153.06 231.27V235.58C153.04 235.638 153.04 235.702 153.06 235.76C153.119 235.748 153.177 235.728 153.23 235.7L156.96 233.54C157.149 233.415 157.305 233.248 157.418 233.052C157.531 232.856 157.597 232.636 157.61 232.41V228.1C157.628 228.041 157.628 227.979 157.61 227.92Z" fill="#455A64"/>
<path d="M161.72 226.59L176.42 218.1C176.91 217.82 177.3 218.04 177.3 218.6V219.75C177.283 220.053 177.194 220.348 177.041 220.61C176.888 220.873 176.675 221.095 176.42 221.26L161.72 229.75C161.23 230.03 160.84 229.81 160.84 229.25V228.1C160.863 227.798 160.954 227.505 161.106 227.244C161.259 226.982 161.469 226.759 161.72 226.59Z" fill="#E0E0E0" fill-opacity="0.42"/>
<path d="M189.52 215.63C189.362 215.631 189.207 215.589 189.07 215.51C188.907 215.402 188.776 215.252 188.692 215.076C188.607 214.9 188.572 214.705 188.59 214.51V210.2C188.606 209.817 188.714 209.443 188.906 209.11C189.097 208.777 189.366 208.496 189.69 208.29L193.42 206.14C193.576 206.034 193.758 205.974 193.946 205.967C194.134 205.96 194.32 206.007 194.483 206.1C194.645 206.194 194.779 206.332 194.867 206.499C194.955 206.665 194.994 206.852 194.98 207.04V211.34C194.965 211.725 194.856 212.1 194.662 212.433C194.469 212.766 194.197 213.046 193.87 213.25L190.14 215.41C189.957 215.538 189.743 215.614 189.52 215.63ZM190.14 209.11C189.954 209.238 189.799 209.406 189.687 209.601C189.574 209.797 189.507 210.015 189.49 210.24V214.55C189.47 214.608 189.47 214.672 189.49 214.73C189.548 214.724 189.603 214.703 189.65 214.67L193.38 212.51C193.569 212.384 193.726 212.217 193.841 212.021C193.955 211.826 194.023 211.606 194.04 211.38V207.08C194.059 207.018 194.059 206.952 194.04 206.89C194.04 206.89 193.98 206.89 193.87 206.96L190.14 209.11Z" fill="#455A64"/>
<path d="M198.15 205.56L212.85 197.07C213.33 196.79 213.73 197.01 213.73 197.57V198.72C213.707 199.022 213.616 199.315 213.464 199.576C213.311 199.838 213.102 200.061 212.85 200.23L198.15 208.72C197.66 209 197.27 208.78 197.27 208.22V207.07C197.288 206.767 197.377 206.472 197.529 206.21C197.682 205.947 197.895 205.725 198.15 205.56Z" fill="#E0E0E0" fill-opacity="0.42"/>
<path d="M125.33 226.58V228.26C125.33 229.18 125.97 229.55 126.76 229.09L212.76 179.48C213.177 179.206 213.524 178.838 213.772 178.406C214.021 177.973 214.164 177.488 214.19 176.99V175.3C214.19 174.39 213.55 174.02 212.76 174.47L126.76 224.09C126.343 224.364 125.996 224.732 125.748 225.164C125.5 225.597 125.356 226.082 125.33 226.58Z" fill="#E0E0E0" fill-opacity="0.42"/>
<path d="M118.78 213.46V215.14C118.78 216.06 119.42 216.43 120.22 215.97L206.17 166.36C206.59 166.089 206.939 165.721 207.19 165.288C207.44 164.855 207.584 164.369 207.61 163.87V162.18C207.61 161.27 206.97 160.9 206.17 161.35L120.22 211C119.804 211.269 119.457 211.631 119.207 212.058C118.957 212.486 118.811 212.966 118.78 213.46Z" fill="#455A64"/>
<path d="M125.33 236.75V238.44C125.33 239.35 125.97 239.72 126.76 239.27L212.76 189.66C213.177 189.386 213.524 189.018 213.772 188.586C214.021 188.153 214.164 187.668 214.19 187.17V185.48C214.19 184.57 213.55 184.2 212.76 184.65L126.76 234.27C126.344 234.543 125.999 234.909 125.75 235.34C125.502 235.771 125.358 236.254 125.33 236.75Z" fill="#E0E0E0" fill-opacity="0.42"/>
<path d="M115.91 237.62C118.16 235.39 118.72 234.44 118.72 233.62C118.72 232.8 118.39 232.36 117.38 232.94C116.943 233.194 116.568 233.54 116.279 233.955C115.991 234.37 115.796 234.842 115.71 235.34L113.25 235.89C113.464 234.601 113.95 233.373 114.676 232.286C115.402 231.2 116.351 230.281 117.46 229.59C119.92 228.17 121.35 229.23 121.35 231.59C121.213 233.888 120.213 236.048 118.55 237.64V239.59L115.91 241.11V237.62Z" fill="#455A64"/>
<path d="M115.88 244.1C115.876 243.619 115.998 243.146 116.233 242.727C116.468 242.308 116.808 241.957 117.22 241.71C118.1 241.2 118.55 241.65 118.55 242.56C118.558 243.043 118.439 243.519 118.206 243.942C117.972 244.365 117.633 244.719 117.22 244.97C116.33 245.48 115.88 245 115.88 244.1Z" fill="#455A64"/>
<path d="M117.25 252.3L118.35 253.13L117.35 255.03C117.264 255.146 117.217 255.286 117.217 255.43C117.217 255.574 117.264 255.714 117.35 255.83C117.54 255.97 117.81 255.83 117.97 255.53L118.97 253.64L120.07 254.47C120.23 254.59 120.47 254.47 120.61 254.21C120.684 254.11 120.724 253.989 120.724 253.865C120.724 253.741 120.684 253.62 120.61 253.52L119.51 252.69L120.51 250.79C120.596 250.674 120.643 250.534 120.643 250.39C120.643 250.246 120.596 250.106 120.51 249.99C120.32 249.85 120.05 249.99 119.89 250.29L118.89 252.19L117.79 251.36C117.63 251.24 117.39 251.36 117.25 251.61C117.176 251.71 117.136 251.831 117.136 251.955C117.136 252.079 117.176 252.2 117.25 252.3Z" fill="#4FFFD1"/>
<path d="M116.67 295.66C116.513 295.664 116.357 295.626 116.22 295.55C116.055 295.444 115.923 295.294 115.839 295.118C115.754 294.941 115.72 294.745 115.74 294.55V290.24C115.753 289.856 115.86 289.481 116.052 289.148C116.244 288.815 116.514 288.534 116.84 288.33L120.57 286.18C120.725 286.078 120.905 286.02 121.09 286.015C121.275 286.009 121.459 286.055 121.62 286.147C121.78 286.239 121.912 286.375 122.001 286.538C122.089 286.701 122.13 286.885 122.12 287.07V291.38C122.107 291.764 122 292.139 121.808 292.472C121.616 292.805 121.346 293.086 121.02 293.29L117.29 295.44C117.107 295.567 116.893 295.643 116.67 295.66ZM121.19 286.93C121.129 286.941 121.071 286.965 121.02 287L117.29 289.15C117.103 289.276 116.947 289.444 116.834 289.64C116.721 289.835 116.655 290.055 116.64 290.28V294.59C116.623 294.649 116.623 294.711 116.64 294.77C116.7 294.76 116.757 294.74 116.81 294.71L120.54 292.55C120.727 292.424 120.883 292.256 120.996 292.06C121.109 291.865 121.175 291.646 121.19 291.42V287.11C121.2 287.05 121.2 286.99 121.19 286.93Z" fill="#455A64"/>
<path d="M125.29 285.59L139.99 277.11C140.48 276.83 140.87 277.05 140.87 277.61V278.75C140.854 279.055 140.766 279.352 140.613 279.616C140.46 279.88 140.247 280.104 139.99 280.27L125.29 288.76C124.81 289.04 124.41 288.81 124.41 288.25V287.11C124.427 286.805 124.515 286.509 124.668 286.245C124.821 285.981 125.034 285.756 125.29 285.59Z" fill="#E0E0E0" fill-opacity="0.42"/>
<path d="M153.1 274.63C152.943 274.635 152.787 274.597 152.65 274.52C152.484 274.415 152.35 274.266 152.263 274.09C152.177 273.913 152.141 273.716 152.16 273.52V269.21C152.175 268.825 152.284 268.45 152.478 268.117C152.671 267.784 152.943 267.504 153.27 267.3L157 265.15C157.154 265.04 157.337 264.975 157.526 264.965C157.716 264.954 157.905 264.997 158.07 265.09C158.232 265.187 158.362 265.328 158.447 265.496C158.532 265.664 158.568 265.853 158.55 266.04V270.35C158.537 270.734 158.43 271.109 158.238 271.442C158.046 271.775 157.776 272.056 157.45 272.26L153.72 274.41C153.537 274.537 153.323 274.613 153.1 274.63ZM157.61 265.9C157.553 265.914 157.499 265.938 157.45 265.97L153.72 268.12C153.531 268.246 153.374 268.413 153.259 268.609C153.145 268.805 153.077 269.024 153.06 269.25V273.56C153.04 273.618 153.04 273.682 153.06 273.74C153.119 273.728 153.177 273.708 153.23 273.68L156.96 271.52C157.148 271.394 157.304 271.226 157.416 271.03C157.529 270.835 157.595 270.616 157.61 270.39V266.08C157.628 266.021 157.628 265.959 157.61 265.9Z" fill="#455A64"/>
<path d="M161.72 264.56L176.42 256.08C176.91 255.8 177.3 256.02 177.3 256.58V257.72C177.284 258.025 177.196 258.322 177.043 258.586C176.89 258.85 176.677 259.074 176.42 259.24L161.72 267.73C161.23 268.01 160.84 267.73 160.84 267.22V266.08C160.861 265.776 160.952 265.482 161.104 265.218C161.257 264.955 161.467 264.73 161.72 264.56Z" fill="#E0E0E0" fill-opacity="0.42"/>
<path d="M189.52 253.6C189.363 253.604 189.208 253.566 189.07 253.49C188.907 253.382 188.776 253.232 188.692 253.056C188.607 252.88 188.572 252.685 188.59 252.49V248.18C188.606 247.797 188.714 247.423 188.906 247.09C189.097 246.757 189.366 246.476 189.69 246.27L193.42 244.12C193.575 244.015 193.756 243.955 193.943 243.948C194.13 243.941 194.315 243.986 194.478 244.079C194.64 244.171 194.773 244.308 194.862 244.472C194.951 244.637 194.992 244.823 194.98 245.01V249.32C194.965 249.705 194.856 250.08 194.662 250.413C194.469 250.746 194.197 251.026 193.87 251.23L190.14 253.38C189.957 253.508 189.743 253.584 189.52 253.6ZM190.14 247.09C189.954 247.218 189.799 247.386 189.687 247.581C189.574 247.777 189.507 247.995 189.49 248.22V252.53C189.47 252.588 189.47 252.652 189.49 252.71C189.546 252.697 189.6 252.677 189.65 252.65L193.38 250.49C193.569 250.364 193.726 250.197 193.841 250.001C193.955 249.805 194.023 249.586 194.04 249.36V245.05C194.058 244.991 194.058 244.929 194.04 244.87C193.98 244.885 193.923 244.908 193.87 244.94L190.14 247.09Z" fill="#455A64"/>
<path d="M198.15 243.53L212.85 235.05C213.33 234.77 213.73 234.99 213.73 235.55V236.69C213.709 236.994 213.618 237.288 213.466 237.552C213.313 237.815 213.103 238.04 212.85 238.21L198.15 246.7C197.66 246.98 197.27 246.75 197.27 246.19V245.05C197.286 244.745 197.374 244.448 197.527 244.184C197.68 243.92 197.894 243.696 198.15 243.53Z" fill="#E0E0E0" fill-opacity="0.42"/>
<path d="M125.33 264.55V266.24C125.33 267.15 125.97 267.52 126.76 267.07L212.76 217.46C213.177 217.186 213.524 216.818 213.772 216.386C214.021 215.953 214.164 215.468 214.19 214.97V213.28C214.19 212.37 213.55 212 212.76 212.45L126.76 262.07C126.344 262.343 125.999 262.709 125.75 263.14C125.502 263.571 125.358 264.054 125.33 264.55Z" fill="#E0E0E0" fill-opacity="0.42"/>
<path d="M125.33 274.73V276.42C125.33 277.33 125.97 277.7 126.76 277.25L212.76 227.63C213.178 227.36 213.526 226.994 213.774 226.562C214.023 226.131 214.165 225.647 214.19 225.15V223.46C214.19 222.54 213.55 222.17 212.76 222.63L126.76 272.25C126.344 272.523 125.999 272.889 125.75 273.32C125.502 273.751 125.358 274.234 125.33 274.73Z" fill="#E0E0E0" fill-opacity="0.42"/>
<path d="M115.91 275.6C118.16 273.37 118.72 272.42 118.72 271.6C118.72 270.78 118.39 270.34 117.38 270.92C116.943 271.174 116.568 271.52 116.279 271.935C115.991 272.35 115.796 272.822 115.71 273.32L113.25 273.87C113.464 272.581 113.95 271.353 114.676 270.266C115.402 269.18 116.351 268.261 117.46 267.57C119.92 266.15 121.35 267.21 121.35 269.62C121.213 271.917 120.213 274.078 118.55 275.67V277.62L115.91 279.14V275.6Z" fill="#455A64"/>
<path d="M115.88 282.08C115.876 281.599 115.998 281.126 116.233 280.707C116.468 280.288 116.808 279.937 117.22 279.69C118.1 279.18 118.55 279.63 118.55 280.54C118.557 281.023 118.438 281.499 118.204 281.921C117.971 282.344 117.632 282.698 117.22 282.95C116.33 283.46 115.88 283 115.88 282.08Z" fill="#455A64"/>
<path d="M153.68 269.21L154.78 270.04L153.78 271.94C153.694 272.056 153.648 272.196 153.648 272.34C153.648 272.484 153.694 272.624 153.78 272.74C153.96 272.88 154.24 272.74 154.4 272.44L155.4 270.55L156.5 271.38C156.66 271.5 156.9 271.38 157.03 271.12C157.104 271.02 157.144 270.899 157.144 270.775C157.144 270.651 157.104 270.53 157.03 270.43L155.93 269.6L156.93 267.7C157.011 267.58 157.05 267.436 157.04 267.292C157.031 267.147 156.975 267.009 156.88 266.9C156.7 266.77 156.42 266.9 156.26 267.2L155.26 269.1L154.16 268.27C154.01 268.15 153.77 268.27 153.63 268.52C153.562 268.625 153.529 268.749 153.538 268.873C153.548 268.998 153.597 269.116 153.68 269.21Z" fill="#4FFFD1"/>
<path d="M116.67 333.64C116.512 333.641 116.357 333.599 116.22 333.52C116.059 333.423 115.928 333.282 115.843 333.114C115.758 332.946 115.723 332.758 115.74 332.57V328.26C115.753 327.876 115.861 327.501 116.052 327.168C116.244 326.835 116.515 326.554 116.84 326.35L120.57 324.2C120.725 324.098 120.905 324.041 121.09 324.035C121.276 324.029 121.459 324.075 121.62 324.167C121.781 324.259 121.912 324.395 122.001 324.558C122.089 324.721 122.131 324.905 122.12 325.09V329.4C122.107 329.784 122 330.159 121.808 330.492C121.616 330.825 121.346 331.106 121.02 331.31L117.29 333.46C117.103 333.573 116.889 333.635 116.67 333.64ZM121.19 324.91C121.129 324.921 121.071 324.945 121.02 324.98L117.29 327.13C117.103 327.256 116.947 327.424 116.834 327.62C116.721 327.815 116.655 328.035 116.64 328.26V332.57C116.625 332.629 116.625 332.691 116.64 332.75C116.701 332.739 116.759 332.715 116.81 332.68L120.54 330.53C120.728 330.404 120.884 330.236 120.996 330.04C121.109 329.845 121.175 329.626 121.19 329.4V325.09C121.2 325.03 121.2 324.97 121.19 324.91Z" fill="#455A64"/>
<path d="M125.29 323.57L139.99 315.08C140.48 314.8 140.87 315.03 140.87 315.59V316.73C140.854 317.035 140.766 317.332 140.613 317.596C140.46 317.86 140.247 318.084 139.99 318.25L125.29 326.74C124.81 327.02 124.41 326.79 124.41 326.23V325.09C124.427 324.785 124.515 324.489 124.668 324.225C124.821 323.961 125.034 323.736 125.29 323.57Z" fill="#E0E0E0" fill-opacity="0.42"/>
<path d="M153.1 312.61C152.942 312.612 152.786 312.57 152.65 312.49C152.487 312.394 152.354 312.254 152.267 312.086C152.181 311.918 152.144 311.728 152.16 311.54V307.23C152.175 306.845 152.284 306.47 152.478 306.137C152.671 305.804 152.943 305.524 153.27 305.32L157 303.17C157.156 303.064 157.338 303.002 157.526 302.99C157.714 302.977 157.902 303.015 158.07 303.1C158.233 303.208 158.364 303.358 158.448 303.534C158.533 303.71 158.568 303.905 158.55 304.1V308.41C158.537 308.794 158.43 309.169 158.238 309.502C158.046 309.835 157.776 310.116 157.45 310.32L153.72 312.47C153.529 312.569 153.315 312.617 153.1 312.61ZM157.61 303.88C157.553 303.894 157.499 303.918 157.45 303.95L153.72 306.1C153.531 306.226 153.374 306.393 153.259 306.589C153.145 306.784 153.077 307.004 153.06 307.23V311.54C153.042 311.599 153.042 311.661 153.06 311.72C153.121 311.707 153.178 311.683 153.23 311.65L157 309.5C157.188 309.374 157.344 309.206 157.456 309.01C157.569 308.815 157.635 308.595 157.65 308.37V304.06C157.657 303.997 157.643 303.934 157.61 303.88Z" fill="#455A64"/>
<path d="M161.72 302.54L176.42 294.05C176.91 293.78 177.3 294 177.3 294.56V295.7C177.284 296.005 177.196 296.302 177.043 296.566C176.89 296.83 176.677 297.054 176.42 297.22L161.72 305.71C161.23 305.99 160.84 305.76 160.84 305.2V304.06C160.861 303.756 160.952 303.462 161.104 303.198C161.257 302.935 161.467 302.71 161.72 302.54Z" fill="#E0E0E0" fill-opacity="0.42"/>
<path d="M189.52 291.58C189.362 291.581 189.207 291.539 189.07 291.46C188.909 291.363 188.778 291.222 188.693 291.054C188.608 290.886 188.573 290.697 188.59 290.51V286.2C188.603 285.816 188.711 285.441 188.902 285.108C189.094 284.775 189.365 284.494 189.69 284.29L193.42 282.14C193.573 282.031 193.753 281.967 193.94 281.956C194.128 281.944 194.315 281.986 194.479 282.076C194.644 282.165 194.78 282.299 194.872 282.463C194.965 282.626 195.009 282.813 195 283V287.31C194.985 287.695 194.876 288.07 194.682 288.403C194.489 288.736 194.217 289.016 193.89 289.22L190.16 291.37C189.971 291.498 189.749 291.571 189.52 291.58ZM190.14 285.07C189.954 285.198 189.799 285.366 189.687 285.561C189.574 285.757 189.507 285.975 189.49 286.2V290.51C189.472 290.569 189.472 290.631 189.49 290.69C189.547 290.676 189.601 290.652 189.65 290.62L193.38 288.47C193.569 288.344 193.726 288.177 193.841 287.981C193.955 287.785 194.023 287.566 194.04 287.34V283C194.058 282.941 194.058 282.879 194.04 282.82C193.981 282.833 193.924 282.853 193.87 282.88L190.14 285.07Z" fill="#455A64"/>
<path d="M198.15 281.51L212.85 273.02C213.33 272.75 213.73 273.02 213.73 273.53V274.67C213.709 274.974 213.618 275.268 213.466 275.532C213.313 275.795 213.103 276.02 212.85 276.19L198.15 284.68C197.66 284.96 197.27 284.73 197.27 284.17V283C197.291 282.7 197.381 282.409 197.534 282.151C197.687 281.892 197.898 281.673 198.15 281.51Z" fill="#E0E0E0" fill-opacity="0.42"/>
<path d="M125.33 302.53V304.22C125.33 305.13 125.97 305.5 126.76 305.05L212.76 255.43C213.178 255.16 213.526 254.794 213.774 254.362C214.023 253.931 214.165 253.447 214.19 252.95V251.26C214.19 250.35 213.55 249.97 212.76 250.43L126.76 300.05C126.344 300.323 125.999 300.689 125.75 301.12C125.502 301.551 125.358 302.034 125.33 302.53Z" fill="#E0E0E0" fill-opacity="0.42"/>
<path d="M125.33 312.71V314.4C125.33 315.31 125.97 315.68 126.76 315.22L212.76 265.61C213.177 265.338 213.524 264.972 213.772 264.541C214.021 264.11 214.164 263.627 214.19 263.13V261.44C214.19 260.52 213.55 260.15 212.76 260.61L126.76 310.23C126.343 310.502 125.997 310.868 125.748 311.299C125.5 311.73 125.356 312.213 125.33 312.71Z" fill="#E0E0E0" fill-opacity="0.42"/>
<path d="M115.91 313.58C118.16 311.35 118.72 310.4 118.72 309.58C118.72 308.76 118.39 308.31 117.38 308.9C116.943 309.154 116.568 309.5 116.279 309.915C115.991 310.33 115.796 310.802 115.71 311.3L113.25 311.84C113.465 310.553 113.952 309.326 114.678 308.242C115.404 307.158 116.352 306.24 117.46 305.55C119.92 304.13 121.35 305.19 121.35 307.55C121.213 309.847 120.213 312.008 118.55 313.6V315.55L115.91 317.07V313.58Z" fill="#455A64"/>
<path d="M115.88 320.06C115.875 319.578 115.996 319.103 116.231 318.682C116.466 318.261 116.807 317.909 117.22 317.66C118.1 317.16 118.55 317.61 118.55 318.52C118.556 319.002 118.436 319.478 118.203 319.9C117.97 320.323 117.631 320.678 117.22 320.93C116.33 321.44 115.88 321 115.88 320.06Z" fill="#455A64"/>
<path d="M190.11 286.16L191.2 286.99L190.2 288.89C190.113 289.005 190.065 289.145 190.065 289.29C190.065 289.434 190.113 289.575 190.2 289.69C190.38 289.83 190.66 289.69 190.82 289.39L191.82 287.49L192.92 288.32C193.08 288.44 193.31 288.32 193.45 288.07C193.526 287.971 193.566 287.85 193.566 287.725C193.566 287.6 193.526 287.479 193.45 287.38L192.35 286.55L193.35 284.65C193.426 284.528 193.462 284.385 193.453 284.242C193.444 284.099 193.391 283.961 193.3 283.85C193.12 283.71 192.84 283.85 192.68 284.15L191.68 286.05L190.58 285.21C190.42 285.09 190.18 285.21 190.05 285.47C189.983 285.576 189.952 285.7 189.963 285.825C189.974 285.95 190.026 286.067 190.11 286.16Z" fill="#4FFFD1"/>
<path d="M116.67 371.62C116.512 371.621 116.357 371.579 116.22 371.5C116.059 371.403 115.928 371.262 115.843 371.094C115.758 370.926 115.723 370.738 115.74 370.55V366.24C115.753 365.856 115.861 365.481 116.052 365.148C116.244 364.815 116.515 364.534 116.84 364.33L120.57 362.17C120.728 362.069 120.91 362.01 121.097 362C121.285 361.989 121.472 362.027 121.64 362.11C121.805 362.216 121.937 362.366 122.021 362.542C122.106 362.719 122.14 362.915 122.12 363.11V367.42C122.104 367.804 121.996 368.178 121.805 368.51C121.613 368.843 121.344 369.124 121.02 369.33L117.29 371.48C117.099 371.579 116.885 371.628 116.67 371.62ZM121.19 362.89C121.13 362.9 121.073 362.92 121.02 362.95L117.29 365.11C117.103 365.236 116.947 365.404 116.834 365.6C116.721 365.796 116.655 366.015 116.64 366.24V370.55C116.625 370.609 116.625 370.671 116.64 370.73C116.699 370.714 116.756 370.69 116.81 370.66L120.54 368.51C120.728 368.384 120.884 368.216 120.996 368.021C121.109 367.825 121.175 367.606 121.19 367.38V363.07C121.201 363.011 121.201 362.95 121.19 362.89Z" fill="#455A64"/>
<path d="M125.29 361.55L139.99 353.06C140.48 352.78 140.87 353.01 140.87 353.57V354.71C140.854 355.015 140.766 355.312 140.613 355.576C140.46 355.84 140.247 356.064 139.99 356.23L125.29 364.72C124.81 365 124.41 364.72 124.41 364.21V363.07C124.427 362.765 124.515 362.469 124.668 362.205C124.821 361.941 125.034 361.716 125.29 361.55Z" fill="#E0E0E0" fill-opacity="0.42"/>
<path d="M153.1 350.59C152.942 350.592 152.786 350.55 152.65 350.47C152.478 350.371 152.34 350.223 152.253 350.045C152.166 349.867 152.133 349.667 152.16 349.47V345.16C152.175 344.775 152.284 344.4 152.478 344.067C152.671 343.734 152.943 343.454 153.27 343.25L157 341.09C157.155 340.987 157.337 340.93 157.523 340.924C157.709 340.919 157.893 340.965 158.054 341.059C158.216 341.153 158.347 341.289 158.435 341.454C158.523 341.618 158.562 341.804 158.55 341.99V346.3C158.537 346.684 158.43 347.059 158.238 347.392C158.046 347.725 157.776 348.006 157.45 348.21L153.72 350.36C153.538 350.491 153.324 350.571 153.1 350.59ZM157.61 341.86C157.554 341.873 157.5 341.893 157.45 341.92L153.72 344.08C153.531 344.206 153.374 344.373 153.259 344.569C153.145 344.765 153.077 344.984 153.06 345.21V349.52C153.042 349.579 153.042 349.641 153.06 349.7C153.119 349.682 153.175 349.658 153.23 349.63L156.96 347.48C157.148 347.354 157.304 347.186 157.416 346.991C157.529 346.795 157.595 346.576 157.61 346.35V342C157.622 341.954 157.622 341.906 157.61 341.86Z" fill="#455A64"/>
<path d="M161.72 340.52L176.42 332.03C176.91 331.75 177.3 332.03 177.3 332.54V333.68C177.284 333.985 177.196 334.282 177.043 334.546C176.89 334.81 176.677 335.034 176.42 335.2L161.72 343.69C161.23 343.97 160.84 343.74 160.84 343.18V342C160.867 341.703 160.96 341.417 161.113 341.16C161.265 340.904 161.472 340.686 161.72 340.52Z" fill="#E0E0E0" fill-opacity="0.42"/>
<path d="M189.52 329.56C189.362 329.561 189.207 329.519 189.07 329.44C188.909 329.343 188.778 329.202 188.693 329.034C188.608 328.866 188.573 328.678 188.59 328.49V324.18C188.603 323.796 188.711 323.421 188.902 323.088C189.094 322.755 189.365 322.474 189.69 322.27L193.42 320.11C193.58 320.009 193.763 319.95 193.952 319.94C194.141 319.929 194.33 319.967 194.5 320.05C194.663 320.158 194.794 320.308 194.878 320.484C194.963 320.66 194.998 320.856 194.98 321.05V325.36C194.963 325.744 194.854 326.119 194.66 326.452C194.467 326.784 194.196 327.065 193.87 327.27L190.14 329.42C189.949 329.52 189.736 329.568 189.52 329.56ZM190.14 323.05C189.954 323.178 189.799 323.346 189.687 323.541C189.574 323.737 189.507 323.955 189.49 324.18V328.49C189.472 328.549 189.472 328.611 189.49 328.67C189.545 328.65 189.598 328.627 189.65 328.6L193.38 326.45C193.569 326.324 193.726 326.157 193.841 325.961C193.955 325.766 194.023 325.546 194.04 325.32V321C194.06 320.942 194.06 320.878 194.04 320.82C193.981 320.833 193.924 320.853 193.87 320.88L190.14 323.05Z" fill="#455A64"/>
<path d="M198.15 319.49L212.85 311C213.33 310.72 213.73 310.95 213.73 311.51V312.65C213.709 312.954 213.618 313.248 213.466 313.512C213.313 313.775 213.103 314 212.85 314.17L198.15 322.66C197.66 322.94 197.27 322.66 197.27 322.15V321C197.288 320.697 197.377 320.402 197.529 320.14C197.682 319.877 197.895 319.655 198.15 319.49Z" fill="#E0E0E0" fill-opacity="0.42"/>
<path d="M125.33 340.51V342.2C125.33 343.11 125.97 343.48 126.76 343.02L212.76 293.41C213.177 293.138 213.524 292.772 213.772 292.341C214.021 291.91 214.164 291.427 214.19 290.93V289.24C214.19 288.32 213.55 287.95 212.76 288.41L126.76 338.03C126.343 338.302 125.997 338.668 125.748 339.099C125.5 339.53 125.356 340.013 125.33 340.51Z" fill="#E0E0E0" fill-opacity="0.42"/>
<path d="M125.33 350.69V352.38C125.33 353.29 125.97 353.66 126.76 353.2L212.76 303.59C213.176 303.317 213.522 302.951 213.77 302.52C214.018 302.089 214.162 301.606 214.19 301.11V299.42C214.19 298.5 213.55 298.13 212.76 298.59L126.76 348.21C126.343 348.482 125.997 348.848 125.748 349.279C125.5 349.71 125.356 350.193 125.33 350.69Z" fill="#E0E0E0" fill-opacity="0.42"/>
<path d="M115.91 351.56C118.16 349.33 118.72 348.38 118.72 347.56C118.72 346.74 118.39 346.29 117.38 346.88C116.944 347.133 116.569 347.478 116.281 347.89C115.993 348.303 115.798 348.774 115.71 349.27L113.25 349.82C113.465 348.533 113.952 347.306 114.678 346.222C115.404 345.137 116.352 344.22 117.46 343.53C119.92 342.11 121.35 343.17 121.35 345.58C121.213 347.877 120.213 350.038 118.55 351.63V353.58L115.91 355.1V351.56Z" fill="#455A64"/>
<path d="M115.88 358C115.875 357.518 115.996 357.043 116.231 356.622C116.466 356.201 116.807 355.849 117.22 355.6C118.1 355.1 118.55 355.54 118.55 356.46C118.557 356.941 118.438 357.416 118.204 357.837C117.971 358.258 117.632 358.611 117.22 358.86C116.33 359.42 115.88 359 115.88 358Z" fill="#455A64"/>
<path d="M190.11 324.3L191.2 325.13L190.2 327.03C190.113 327.145 190.065 327.285 190.065 327.43C190.065 327.574 190.113 327.715 190.2 327.83C190.38 327.97 190.66 327.83 190.82 327.53L191.82 325.63L192.92 326.47C193.08 326.59 193.31 326.47 193.45 326.21C193.526 326.111 193.566 325.99 193.566 325.865C193.566 325.74 193.526 325.619 193.45 325.52L192.35 324.69L193.35 322.79C193.426 322.668 193.462 322.525 193.453 322.382C193.444 322.239 193.391 322.102 193.3 321.99C193.12 321.85 192.84 321.99 192.68 322.29L191.68 324.19L190.58 323.35C190.42 323.24 190.18 323.35 190.05 323.61C189.983 323.716 189.952 323.84 189.963 323.965C189.974 324.09 190.026 324.207 190.11 324.3Z" fill="#4FFFD1"/>
<path d="M287.53 162.46L280.18 158.22L280.11 158.17C276.45 156.1 271.44 156.41 265.89 159.62C260.69 162.62 255.95 167.62 252.38 173.39C248.25 180.05 245.66 187.75 245.66 194.66C245.66 201.11 247.91 205.66 251.56 207.75L259.03 212.02C262.71 214.37 267.92 214.16 273.69 210.83C284.87 204.37 293.93 188.68 293.93 175.78C293.92 169.09 291.46 164.46 287.53 162.46Z" fill="#4FFFD1"/>
<path opacity="0.1" d="M258.87 212L251.55 207.81C247.9 205.69 245.65 201.16 245.65 194.72C245.65 187.81 248.24 180.11 252.37 173.45L260.18 177.96C256.05 184.61 253.46 192.31 253.46 199.21C253.44 205.33 255.5 209.74 258.87 212Z" fill="black"/>
<path opacity="0.4" d="M287.38 162.38C283.78 160.63 278.97 161.07 273.68 164.12C268.39 167.17 263.74 172.12 260.16 177.92L252.35 173.41C255.92 167.62 260.67 162.63 265.86 159.64C271.41 156.43 276.42 156.13 280.08 158.19L280.15 158.24L287.38 162.38Z" fill="white" fill-opacity="0.22"/>
<path d="M269.21 181.46C269.224 182.239 269.058 183.01 268.725 183.715C268.392 184.419 267.901 185.037 267.29 185.52C266.23 186.13 265.37 185.31 265.37 183.68C265.356 182.901 265.522 182.13 265.855 181.425C266.188 180.721 266.679 180.103 267.29 179.62C268.35 179 269.21 179.83 269.21 181.46Z" fill="#455A64"/>
<path d="M280.14 175.15C280.154 175.929 279.988 176.7 279.655 177.405C279.322 178.109 278.831 178.727 278.22 179.21C277.16 179.82 276.3 179 276.3 177.37C276.286 176.591 276.452 175.82 276.785 175.115C277.118 174.411 277.609 173.793 278.22 173.31C279.28 172.7 280.14 173.52 280.14 175.15Z" fill="#455A64"/>
<path d="M262.68 205.84C262.604 205.85 262.526 205.85 262.45 205.84C262.308 205.812 262.174 205.755 262.054 205.674C261.934 205.593 261.832 205.489 261.753 205.368C261.674 205.247 261.62 205.112 261.593 204.969C261.567 204.827 261.569 204.681 261.6 204.54C263.34 196.27 267.77 189.03 272.88 186.08C273.92 185.389 275.108 184.952 276.348 184.803C277.588 184.653 278.845 184.796 280.02 185.22C282.43 186.22 284.29 188.63 285.25 192.05C285.298 192.322 285.244 192.602 285.096 192.836C284.949 193.07 284.72 193.241 284.454 193.314C284.187 193.388 283.903 193.36 283.656 193.235C283.41 193.111 283.218 192.898 283.12 192.64C282.36 189.9 280.96 187.99 279.19 187.26C278.326 186.977 277.409 186.896 276.509 187.024C275.609 187.153 274.75 187.486 274 188C269.48 190.61 265.37 197.44 263.78 205C263.719 205.244 263.577 205.46 263.377 205.612C263.177 205.765 262.931 205.845 262.68 205.84Z" fill="#455A64"/>
<path d="M287.53 98.48L280.18 94.24H280.11C276.45 92.17 271.44 92.48 265.89 95.69C260.69 98.69 255.95 103.69 252.38 109.46C248.25 116.12 245.66 123.82 245.66 130.73C245.66 137.18 247.91 141.73 251.56 143.82L259.03 148.09C262.71 150.44 267.92 150.23 273.69 146.9C284.87 140.44 293.93 124.75 293.93 111.9C293.92 105.11 291.46 100.48 287.53 98.48Z" fill="#4FFFD1"/>
<path opacity="0.1" d="M258.87 148L251.55 143.81C247.9 141.69 245.65 137.16 245.65 130.72C245.65 123.81 248.24 116.11 252.37 109.45L260.18 113.96C256.05 120.61 253.46 128.31 253.46 135.21C253.44 141.35 255.5 145.76 258.87 148Z" fill="black"/>
<path opacity="0.4" d="M287.38 98.4C283.78 96.65 278.97 97.09 273.68 100.14C268.39 103.19 263.74 108.14 260.16 113.94L252.35 109.43C255.92 103.64 260.67 98.65 265.86 95.66C271.41 92.45 276.42 92.15 280.08 94.21H280.15L287.38 98.4Z" fill="white" fill-opacity="0.22"/>
<path d="M269.09 138.69C268.14 138.693 267.199 138.509 266.32 138.15C263.71 137.08 261.71 134.47 260.68 130.78C260.61 130.481 260.659 130.167 260.815 129.903C260.971 129.64 261.223 129.446 261.519 129.364C261.814 129.281 262.13 129.316 262.4 129.46C262.671 129.605 262.875 129.849 262.97 130.14C263.8 133.14 265.31 135.14 267.22 135.95C268.154 136.262 269.148 136.353 270.123 136.215C271.098 136.078 272.028 135.717 272.84 135.16C277.71 132.35 282.15 124.97 283.84 116.81C283.907 116.502 284.093 116.233 284.357 116.061C284.62 115.889 284.941 115.828 285.25 115.89C285.403 115.922 285.548 115.984 285.677 116.072C285.806 116.161 285.917 116.273 286.002 116.404C286.088 116.535 286.146 116.682 286.175 116.835C286.204 116.989 286.202 117.147 286.17 117.3C284.29 126.22 279.51 134.04 274 137.23C272.518 138.135 270.826 138.638 269.09 138.69Z" fill="#455A64"/>
<path d="M268.87 118.89C268.885 119.731 268.705 120.565 268.347 121.326C267.988 122.087 267.458 122.756 266.8 123.28C265.65 123.94 264.73 123.05 264.73 121.28C264.713 120.44 264.891 119.607 265.251 118.847C265.61 118.087 266.14 117.421 266.8 116.9C267.94 116.24 268.87 117.13 268.87 118.89Z" fill="#455A64"/>
<path d="M280.67 112.08C280.685 112.92 280.505 113.752 280.146 114.512C279.787 115.271 279.258 115.938 278.6 116.46C277.46 117.12 276.53 116.23 276.53 114.46C276.515 113.62 276.695 112.788 277.054 112.028C277.413 111.269 277.942 110.602 278.6 110.08C279.74 109.42 280.67 110.32 280.67 112.08Z" fill="#455A64"/>
<path d="M302.57 278.56L249.57 309.16C249.037 309.431 248.448 309.573 247.85 309.573C247.252 309.573 246.663 309.431 246.13 309.16L243.32 307.53C242.816 307.202 242.398 306.759 242.099 306.237C241.8 305.716 241.629 305.13 241.6 304.53V243.33C241.629 242.73 241.8 242.145 242.099 241.623C242.398 241.102 242.816 240.658 243.32 240.33L296.32 209.73C296.851 209.459 297.439 209.317 298.035 209.317C298.631 209.317 299.219 209.459 299.75 209.73L302.56 211.37C303.065 211.697 303.484 212.14 303.783 212.662C304.082 213.184 304.253 213.769 304.28 214.37V275.58C304.249 276.176 304.078 276.757 303.781 277.274C303.484 277.792 303.069 278.233 302.57 278.56Z" fill="#455A64"/>
<path d="M249.28 309.29C248.776 309.492 248.234 309.586 247.691 309.563C247.148 309.541 246.616 309.403 246.13 309.16L243.32 307.52C242.817 307.192 242.399 306.749 242.101 306.227C241.804 305.705 241.635 305.12 241.61 304.52V243.32C241.625 242.719 241.797 242.133 242.11 241.62L248.35 245.25C248.042 245.761 247.87 246.343 247.85 246.94V308.14C247.85 309.15 248.46 309.61 249.28 309.29Z" fill="#263238"/>
<path d="M302.57 278.56L249.57 309.16C248.62 309.71 247.85 309.27 247.85 308.16V247C247.879 246.4 248.05 245.815 248.349 245.293C248.648 244.772 249.066 244.328 249.57 244L302.57 213.4C303.52 212.85 304.29 213.3 304.29 214.4V275.61C304.253 276.202 304.079 276.777 303.78 277.289C303.481 277.801 303.067 278.237 302.57 278.56Z" fill="#37474F"/>
<path fill-rule="evenodd" clip-rule="evenodd" d="M274.62 263.31L260.22 283.71C266.58 290.14 278.82 285.31 287.56 272.92C292.81 265.49 295.63 257.47 295.63 249.98L278.2 260C276.817 260.878 275.604 262 274.62 263.31Z" fill="#4FFFD1"/>
<path opacity="0.3" fill-rule="evenodd" clip-rule="evenodd" d="M274.62 263.31L260.22 283.71C266.58 290.14 278.82 285.31 287.56 272.92C292.81 265.49 295.63 257.47 295.63 249.98L278.2 260C276.817 260.878 275.604 262 274.62 263.31Z" fill="black"/>
<path d="M259.49 283.19L273.89 262.79C274.948 261.386 276.257 260.189 277.75 259.26L295.18 249.2C295.317 249.121 295.472 249.079 295.63 249.079C295.788 249.079 295.943 249.121 296.08 249.2C296.217 249.279 296.331 249.393 296.41 249.53C296.488 249.667 296.53 249.822 296.53 249.98C296.53 257.7 293.68 265.82 288.3 273.44C282.51 281.64 275.07 286.86 268.4 287.44C266.793 287.626 265.166 287.447 263.638 286.915C262.111 286.383 260.724 285.513 259.58 284.37C259.442 284.23 259.353 284.049 259.328 283.854C259.303 283.659 259.342 283.461 259.44 283.29C259.446 283.252 259.463 283.217 259.49 283.19ZM294.69 251.56L278.69 260.82C277.419 261.614 276.301 262.63 275.39 263.82L261.44 283.57C262.387 284.346 263.481 284.923 264.656 285.267C265.831 285.61 267.064 285.713 268.28 285.57C274.34 285.07 281.46 280.01 286.85 272.36C287.77 271.07 288.6 269.76 289.36 268.45C292.439 263.317 294.265 257.531 294.69 251.56Z" fill="white" fill-opacity="0.22"/>
<path fill-rule="evenodd" clip-rule="evenodd" d="M275.27 258.93L270 243.28C259.72 253.07 254.09 269.07 257.43 279.01C257.967 280.777 258.92 282.389 260.21 283.71L274.61 263.31C275.018 262.666 275.288 261.944 275.401 261.19C275.515 260.435 275.47 259.666 275.27 258.93Z" fill="#4FFFD1"/>
<path d="M269.39 242.63C269.498 242.525 269.63 242.448 269.775 242.408C269.92 242.368 270.073 242.365 270.22 242.4C270.367 242.439 270.502 242.513 270.613 242.616C270.725 242.718 270.809 242.847 270.86 242.99L276.12 258.64C276.364 259.51 276.422 260.422 276.291 261.316C276.16 262.21 275.843 263.066 275.36 263.83L261 284.23C260.922 284.335 260.823 284.421 260.709 284.485C260.596 284.549 260.47 284.588 260.34 284.6C260.208 284.614 260.075 284.597 259.95 284.552C259.826 284.507 259.713 284.435 259.62 284.34C258.238 282.934 257.21 281.221 256.62 279.34C254.19 272.11 256.35 261.77 261.53 252.8C263.65 249.051 266.297 245.626 269.39 242.63ZM273.89 262.79C274.215 262.26 274.428 261.669 274.518 261.053C274.607 260.438 274.57 259.811 274.41 259.21L269.61 244.93C260.23 254.55 255.17 269.43 258.29 278.73C258.689 280.009 259.316 281.204 260.14 282.26L273.89 262.79Z" fill="white" fill-opacity="0.22"/>
<path fill-rule="evenodd" clip-rule="evenodd" d="M277.49 259.25L291.89 238.85C286.81 233.71 278.23 235.44 270.01 243.28L275.27 258.93C275.7 260.23 276.7 260.37 277.49 259.25Z" fill="#4FFFD1"/>
<path opacity="0.1" fill-rule="evenodd" clip-rule="evenodd" d="M277.49 259.25L291.89 238.85C286.81 233.71 278.23 235.44 270.01 243.28L275.27 258.93C275.7 260.23 276.7 260.37 277.49 259.25Z" fill="black"/>
<path d="M269.39 242.63C277.99 234.43 287.08 232.7 292.53 238.22C292.679 238.37 292.77 238.567 292.789 238.777C292.807 238.987 292.751 239.197 292.63 239.37L278.22 259.77C278.042 260.168 277.739 260.498 277.357 260.708C276.975 260.918 276.534 260.997 276.103 260.934C275.671 260.87 275.272 260.668 274.967 260.356C274.661 260.045 274.466 259.643 274.41 259.21L269.15 243.56C269.111 243.44 269.097 243.312 269.111 243.186C269.125 243.061 269.165 242.939 269.23 242.83C269.269 242.753 269.323 242.685 269.39 242.63ZM290.7 239C286.03 235 278.45 236.71 271.04 243.56L276.12 258.66C276.175 258.828 276.256 258.987 276.36 259.13C276.523 259.042 276.658 258.91 276.75 258.75L290.7 239Z" fill="white" fill-opacity="0.22"/>
<path fill-rule="evenodd" clip-rule="evenodd" d="M278.2 260L295.63 250C295.63 245 294.43 241.45 291.89 238.87L277.49 259.27C276.7 260.37 277 260.72 278.2 260Z" fill="#4FFFD1"/>
<path opacity="0.2" fill-rule="evenodd" clip-rule="evenodd" d="M278.2 260L295.63 250C295.63 245 294.43 241.45 291.89 238.87L277.49 259.27C276.7 260.37 277 260.72 278.2 260Z" fill="black"/>
<path d="M276.75 258.73L291.16 238.33C291.236 238.224 291.335 238.135 291.449 238.071C291.563 238.007 291.69 237.969 291.82 237.96C291.95 237.947 292.082 237.964 292.205 238.009C292.328 238.054 292.439 238.126 292.53 238.22C295.26 240.98 296.53 244.72 296.53 249.98C296.53 250.138 296.489 250.293 296.41 250.43C296.331 250.567 296.217 250.681 296.08 250.76L278.66 260.82C278.28 261.04 277.14 261.7 276.44 260.93C276.245 260.673 276.139 260.358 276.139 260.035C276.139 259.712 276.245 259.397 276.44 259.14L276.75 258.73ZM292 240.3L279.19 258.45L294.75 249.45C294.65 245.48 293.77 242.53 292 240.3Z" fill="white" fill-opacity="0.22"/>
<path d="M413.75 186.5C412.825 186.054 411.809 185.831 410.782 185.85C409.755 185.87 408.748 186.13 407.84 186.61L316.7 239.23C315.821 239.813 315.092 240.595 314.571 241.512C314.05 242.43 313.751 243.456 313.7 244.51V270.51C313.661 271.55 313.905 272.581 314.409 273.492C314.912 274.403 315.654 275.16 316.555 275.68C317.456 276.201 318.482 276.466 319.523 276.446C320.563 276.427 321.579 276.124 322.46 275.57L413.6 222.95C414.479 222.367 415.208 221.585 415.729 220.668C416.251 219.751 416.549 218.724 416.6 217.67V191.67C416.564 190.645 416.287 189.643 415.792 188.745C415.296 187.847 414.597 187.078 413.75 186.5Z" fill="#263238"/>
<path d="M416.57 191.12C416.32 189.58 415.07 189.04 413.57 189.92L375.57 211.85L322.43 242.53C321.528 243.09 320.785 243.871 320.27 244.8L314.55 241.5C315.064 240.571 315.803 239.787 316.7 239.22L407.84 186.61C408.679 186.078 409.643 185.774 410.636 185.731C411.629 185.687 412.616 185.904 413.499 186.36C414.382 186.816 415.13 187.495 415.669 188.331C416.208 189.166 416.519 190.127 416.57 191.12Z" fill="#455A64"/>
<path d="M319.37 247.81V273.81C319.37 275.75 320.74 276.54 322.42 275.57L413.56 222.95C414.439 222.367 415.168 221.585 415.689 220.668C416.211 219.75 416.509 218.724 416.56 217.67V191.67C416.56 189.73 415.2 188.94 413.56 189.91L375.56 211.85L322.41 242.53C321.524 243.11 320.787 243.89 320.259 244.807C319.731 245.724 319.427 246.753 319.37 247.81Z" fill="#37474F"/>
<path d="M334.87 244L336.36 247.16C336.377 247.205 336.404 247.247 336.438 247.281C336.472 247.316 336.513 247.343 336.558 247.361C336.603 247.379 336.652 247.387 336.7 247.385C336.749 247.383 336.796 247.371 336.84 247.35L340.17 246.08C340.7 245.87 340.91 246.62 340.53 247.34L338.12 251.86C337.975 252.122 337.909 252.421 337.93 252.72L338.5 256.82C338.59 257.47 338.04 258.32 337.57 258.26L334.57 257.89C334.449 257.896 334.332 257.93 334.227 257.991C334.123 258.052 334.034 258.138 333.97 258.24L330.97 262.05C330.5 262.65 329.97 262.43 330.04 261.68L330.61 256.93C330.635 256.814 330.631 256.694 330.598 256.581C330.564 256.467 330.503 256.364 330.42 256.28L328.01 254.54C327.63 254.26 327.84 253.27 328.37 252.87L331.7 250.3C331.933 250.105 332.101 249.843 332.18 249.55L333.67 244.67C334 243.9 334.63 243.51 334.87 244Z" fill="#4FFFD1"/>
<path d="M351.72 234.36L353.21 237.52C353.226 237.566 353.252 237.609 353.286 237.644C353.32 237.68 353.361 237.707 353.406 237.725C353.452 237.743 353.501 237.751 353.55 237.749C353.599 237.746 353.647 237.733 353.69 237.71L357.02 236.44C357.55 236.23 357.76 236.98 357.38 237.7L355 242.22C354.854 242.486 354.788 242.788 354.81 243.09L355.38 247.18C355.47 247.83 354.92 248.68 354.45 248.62L351.45 248.26C351.329 248.261 351.211 248.293 351.106 248.352C351.001 248.412 350.913 248.497 350.85 248.6L347.85 252.41C347.38 253.01 346.85 252.8 346.92 252.04L347.49 247.29C347.515 247.174 347.511 247.054 347.478 246.941C347.444 246.827 347.383 246.724 347.3 246.64L344.89 244.9C344.51 244.62 344.72 243.64 345.25 243.23L348.58 240.66C348.813 240.465 348.981 240.203 349.06 239.91L350.55 235.03C350.8 234.25 351.48 233.86 351.72 234.36Z" fill="#4FFFD1"/>
<path d="M368.57 224.72L370.06 227.88C370.077 227.925 370.104 227.967 370.138 228.001C370.172 228.036 370.213 228.063 370.258 228.081C370.303 228.098 370.352 228.107 370.4 228.105C370.449 228.103 370.496 228.091 370.54 228.07L373.87 226.79C374.4 226.59 374.61 227.33 374.23 228.05L371.82 232.57C371.675 232.836 371.609 233.138 371.63 233.44L372.2 237.53C372.29 238.18 371.74 239.04 371.27 238.98L368.27 238.61C368.149 238.616 368.031 238.65 367.927 238.711C367.823 238.772 367.734 238.858 367.67 238.96L364.67 242.76C364.2 243.37 363.67 243.15 363.74 242.4L364.31 237.65C364.335 237.533 364.331 237.411 364.297 237.296C364.264 237.181 364.203 237.076 364.12 236.99L361.71 235.25C361.33 234.98 361.54 233.99 362.07 233.58L365.4 231.01C365.633 230.815 365.801 230.553 365.88 230.26L367.37 225.38C367.65 224.61 368.33 224.21 368.57 224.72Z" fill="#4FFFD1"/>
<path d="M385.42 215.07L386.91 218.23C386.927 218.275 386.954 218.317 386.988 218.351C387.022 218.386 387.063 218.413 387.108 218.431C387.153 218.449 387.202 218.457 387.25 218.455C387.299 218.453 387.346 218.441 387.39 218.42L390.72 217.14C391.25 216.94 391.46 217.68 391.08 218.4L388.67 222.92C388.525 223.186 388.459 223.488 388.48 223.79L389.05 227.88C389.14 228.53 388.59 229.39 388.12 229.33L385.12 228.96C384.999 228.966 384.881 229 384.777 229.061C384.673 229.122 384.584 229.208 384.52 229.31L381.52 233.11C381.05 233.72 380.52 233.5 380.59 232.75L381.16 228C381.185 227.884 381.181 227.764 381.147 227.651C381.114 227.537 381.053 227.434 380.97 227.35L378.56 225.61C378.18 225.33 378.39 224.34 378.92 223.93L382.25 221.37C382.479 221.172 382.646 220.911 382.73 220.62L384.22 215.74C384.5 215 385.18 214.57 385.42 215.07Z" fill="#4FFFD1"/>
<path d="M402.27 205.42L403.76 208.58C403.777 208.625 403.804 208.667 403.838 208.701C403.872 208.736 403.913 208.763 403.958 208.781C404.003 208.799 404.052 208.807 404.1 208.805C404.149 208.803 404.196 208.791 404.24 208.77L407.57 207.5C408.1 207.29 408.31 208.04 407.93 208.76L405.52 213.28C405.375 213.542 405.309 213.841 405.33 214.14L405.9 218.24C405.99 218.89 405.44 219.74 404.97 219.68L401.97 219.31C401.849 219.316 401.732 219.35 401.627 219.411C401.523 219.472 401.434 219.558 401.37 219.66L398.37 223.47C397.9 224.07 397.37 223.85 397.44 223.1L398.01 218.35C398.035 218.234 398.031 218.114 397.998 218.001C397.964 217.887 397.903 217.784 397.82 217.7L395.45 216C395.07 215.72 395.28 214.73 395.81 214.33L399.14 211.76C399.373 211.565 399.541 211.303 399.62 211.01L401.11 206.13C401.35 205.31 402 204.92 402.27 205.42Z" fill="#4FFFD1"/>
<path d="M332.36 227.37L327.36 224.49C327.261 224.446 327.177 224.373 327.12 224.28L326.2 222.68L329.2 220.97L329.11 221.23L332.36 227.37Z" fill="#4FFFD1"/>
<path opacity="0.2" d="M332.36 227.37L327.36 224.49C327.261 224.446 327.177 224.373 327.12 224.28L326.2 222.68L329.2 220.97L329.11 221.23L332.36 227.37Z" fill="black"/>
<path d="M328.73 221.21L332.19 227.21C332.238 227.297 332.311 227.367 332.399 227.413C332.486 227.459 332.586 227.479 332.684 227.469C332.783 227.459 332.877 227.421 332.954 227.359C333.032 227.297 333.089 227.214 333.12 227.12L336.77 216.59L328.73 221.21Z" fill="#4FFFD1"/>
<path d="M416 137.6C415.956 136.764 415.715 135.95 415.296 135.225C414.877 134.501 414.293 133.885 413.59 133.43C412.842 133.055 412.017 132.86 411.18 132.86C410.343 132.86 409.518 133.055 408.77 133.43L316.11 186.9C315.408 187.359 314.825 187.976 314.406 188.702C313.987 189.428 313.746 190.243 313.7 191.08V221.58C313.746 222.417 313.987 223.232 314.406 223.958C314.825 224.684 315.408 225.301 316.11 225.76C316.857 226.139 317.682 226.337 318.52 226.337C319.358 226.337 320.183 226.139 320.93 225.76L413.82 172.14C415.99 170.9 416.01 169.66 416.01 168.14L416 137.6Z" fill="#4FFFD1"/>
<path opacity="0.2" d="M313.66 221.57C313.705 222.407 313.947 223.222 314.366 223.948C314.785 224.674 315.368 225.291 316.07 225.75C316.748 226.096 317.492 226.293 318.252 226.329C319.013 226.365 319.772 226.24 320.48 225.96C319.35 226.39 318.48 225.74 318.48 224.36V193.85C318.508 193.012 318.752 192.195 319.19 191.48L314.36 188.69C313.93 189.412 313.69 190.231 313.66 191.07V221.57Z" fill="black"/>
<path opacity="0.4" d="M415.89 136.92C415.61 135.92 414.67 135.57 413.56 136.21L320.89 189.68C320.175 190.12 319.588 190.741 319.19 191.48L314.37 188.69C314.777 187.957 315.361 187.338 316.07 186.89L408.73 133.43C409.477 133.051 410.302 132.853 411.14 132.853C411.978 132.853 412.803 133.051 413.55 133.43C414.157 133.821 414.678 134.333 415.081 134.933C415.483 135.533 415.758 136.209 415.89 136.92Z" fill="white" fill-opacity="0.22"/>
<path d="M325 194.39L408.21 146.25C409.02 145.79 409.68 146 409.68 146.73C409.62 147.18 409.456 147.609 409.201 147.984C408.946 148.359 408.606 148.669 408.21 148.89L325 197C324.2 197.47 323.54 197.26 323.54 196.53C323.603 196.085 323.768 195.661 324.021 195.29C324.274 194.919 324.609 194.611 325 194.39Z" fill="white" fill-opacity="0.22"/>
<path d="M325 208L396.37 166.8C397.18 166.33 397.83 166.54 397.83 167.27C397.771 167.72 397.609 168.15 397.356 168.527C397.102 168.904 396.765 169.216 396.37 169.44L325 210.63C324.2 211.1 323.54 210.88 323.54 210.15C323.607 209.705 323.772 209.281 324.025 208.909C324.278 208.537 324.611 208.226 325 208Z" fill="white" fill-opacity="0.22"/>
<path d="M325 214.62L406.51 167.5C407.31 167.03 407.97 167.25 407.97 167.98C407.905 168.427 407.74 168.853 407.487 169.227C407.234 169.601 406.9 169.913 406.51 170.14L325 217.25C324.2 217.72 323.54 217.51 323.54 216.78C323.6 216.332 323.763 215.903 324.017 215.529C324.27 215.154 324.606 214.843 325 214.62Z" fill="white" fill-opacity="0.22"/>
<path d="M325 201L406.51 153.88C407.31 153.41 407.97 153.63 407.97 154.36C407.909 154.808 407.746 155.236 407.493 155.611C407.239 155.985 406.903 156.297 406.51 156.52L325 203.68C324.2 204.14 323.54 203.93 323.54 203.2C323.594 202.745 323.755 202.308 324.008 201.926C324.262 201.544 324.601 201.227 325 201Z" fill="white" fill-opacity="0.22"/>
<path d="M413.75 85.19C412.825 84.7439 411.809 84.5213 410.782 84.5404C409.755 84.5595 408.748 84.8197 407.84 85.3L316.7 137.91C315.823 138.495 315.095 139.277 314.574 140.194C314.053 141.111 313.754 142.137 313.7 143.19V169.19C313.661 170.23 313.905 171.261 314.409 172.172C314.912 173.083 315.654 173.84 316.555 174.36C317.456 174.881 318.482 175.146 319.523 175.126C320.563 175.107 321.579 174.804 322.46 174.25L413.6 121.63C414.479 121.047 415.208 120.265 415.729 119.348C416.251 118.43 416.549 117.404 416.6 116.35V90.35C416.562 89.3269 416.284 88.327 415.789 87.4307C415.294 86.5345 414.596 85.767 413.75 85.19Z" fill="#263238"/>
<path d="M416.57 89.81C416.32 88.27 415.07 87.73 413.57 88.6L375.57 110.53L322.43 141.21C321.53 141.777 320.787 142.561 320.27 143.49L314.55 140.19C315.061 139.259 315.801 138.474 316.7 137.91L407.84 85.3001C408.679 84.7677 409.643 84.4645 410.636 84.4206C411.629 84.3767 412.616 84.5936 413.499 85.0498C414.382 85.5059 415.13 86.1854 415.669 87.0206C416.208 87.8558 416.519 88.8175 416.57 89.81Z" fill="#455A64"/>
<path d="M319.37 146.5V172.5C319.37 174.44 320.74 175.23 322.42 174.26L413.56 121.64C414.439 121.057 415.168 120.275 415.689 119.358C416.211 118.44 416.509 117.414 416.56 116.36V90.36C416.56 88.42 415.2 87.63 413.56 88.6L375.56 110.53L322.41 141.22C321.524 141.8 320.787 142.58 320.259 143.497C319.731 144.414 319.427 145.443 319.37 146.5Z" fill="#37474F"/>
<path d="M334.87 142.7L336.36 145.86C336.377 145.905 336.404 145.947 336.438 145.981C336.472 146.016 336.513 146.043 336.558 146.061C336.603 146.079 336.652 146.087 336.7 146.085C336.749 146.083 336.796 146.071 336.84 146.05L340.17 144.77C340.7 144.57 340.91 145.32 340.53 146.03L338.12 150.55C337.975 150.816 337.909 151.118 337.93 151.42L338.5 155.51C338.59 156.16 338.04 157.02 337.57 156.96L334.57 156.59C334.449 156.596 334.332 156.63 334.227 156.691C334.123 156.752 334.034 156.838 333.97 156.94L330.97 160.74C330.5 161.35 329.97 161.13 330.04 160.38L330.61 155.63C330.635 155.514 330.631 155.394 330.598 155.281C330.564 155.167 330.503 155.064 330.42 154.98L328.01 153.24C327.63 152.96 327.84 151.97 328.37 151.56L331.7 149C331.931 148.803 332.098 148.542 332.18 148.25L333.67 143.37C334 142.59 334.63 142.2 334.87 142.7Z" fill="#4FFFD1"/>
<path d="M351.72 133.05L353.21 136.21C353.227 136.255 353.254 136.297 353.288 136.331C353.322 136.366 353.363 136.393 353.408 136.411C353.453 136.428 353.502 136.437 353.55 136.435C353.599 136.433 353.646 136.421 353.69 136.4L357.02 135.13C357.55 134.92 357.76 135.67 357.38 136.39L355 140.91C354.855 141.172 354.789 141.471 354.81 141.77L355.38 145.87C355.47 146.52 354.92 147.37 354.45 147.31L351.45 146.94C351.329 146.946 351.212 146.98 351.107 147.041C351.003 147.102 350.914 147.188 350.85 147.29L347.85 151.1C347.38 151.7 346.85 151.49 346.92 150.73L347.49 145.98C347.515 145.864 347.511 145.744 347.478 145.631C347.444 145.517 347.383 145.414 347.3 145.33L344.89 143.59C344.51 143.31 344.72 142.32 345.25 141.92L348.58 139.35C348.813 139.155 348.981 138.893 349.06 138.6L350.55 133.72C350.8 132.94 351.48 132.55 351.72 133.05Z" fill="#4FFFD1"/>
<path d="M368.57 123.4L370.06 126.57C370.077 126.615 370.104 126.657 370.138 126.691C370.172 126.726 370.213 126.753 370.258 126.771C370.303 126.788 370.352 126.797 370.4 126.795C370.449 126.793 370.496 126.781 370.54 126.76L373.87 125.48C374.4 125.28 374.61 126.02 374.23 126.74L371.82 131.26C371.674 131.526 371.608 131.828 371.63 132.13L372.2 136.22C372.29 136.87 371.74 137.72 371.27 137.67L368.27 137.3C368.149 137.301 368.031 137.333 367.926 137.392C367.821 137.452 367.733 137.537 367.67 137.64L364.67 141.45C364.2 142.05 363.67 141.84 363.74 141.08L364.31 136.33C364.334 136.214 364.329 136.095 364.296 135.981C364.263 135.868 364.203 135.764 364.12 135.68L361.71 133.94C361.33 133.67 361.54 132.68 362.07 132.27L365.4 129.7C365.633 129.505 365.801 129.243 365.88 128.95L367.37 124.07C367.65 123.3 368.33 122.9 368.57 123.4Z" fill="#4FFFD1"/>
<path d="M385.42 113.76L386.91 116.92C386.927 116.965 386.954 117.007 386.988 117.041C387.022 117.076 387.063 117.103 387.108 117.121C387.153 117.138 387.202 117.147 387.25 117.145C387.299 117.143 387.346 117.131 387.39 117.11L390.72 115.83C391.25 115.63 391.46 116.37 391.08 117.09L388.67 121.61C388.525 121.876 388.459 122.178 388.48 122.48L389.05 126.57C389.14 127.22 388.59 128.08 388.12 128.02L385.12 127.65C384.999 127.656 384.882 127.69 384.777 127.751C384.673 127.812 384.584 127.898 384.52 128L381.52 131.8C381.05 132.41 380.52 132.19 380.59 131.44L381.16 126.69C381.194 126.571 381.197 126.445 381.169 126.324C381.141 126.204 381.083 126.092 381 126L378.59 124.26C378.21 123.99 378.42 123 378.95 122.59L382.28 120.03C382.511 119.829 382.678 119.565 382.76 119.27L384.25 114.39C384.5 113.65 385.18 113.25 385.42 113.76Z" fill="#4FFFD1"/>
<path d="M402.27 104.11L403.76 107.27C403.777 107.315 403.804 107.357 403.838 107.391C403.872 107.426 403.913 107.453 403.958 107.471C404.003 107.489 404.052 107.497 404.1 107.495C404.149 107.493 404.196 107.481 404.24 107.46L407.57 106.18C408.1 105.98 408.31 106.73 407.93 107.44L405.52 112C405.375 112.266 405.309 112.568 405.33 112.87L405.9 116.96C405.99 117.61 405.44 118.47 404.97 118.41L401.97 118.04C401.849 118.046 401.732 118.08 401.627 118.141C401.523 118.202 401.434 118.288 401.37 118.39L398.37 122.19C397.9 122.8 397.37 122.58 397.44 121.83L398.01 117.08C398.035 116.964 398.031 116.844 397.998 116.731C397.964 116.617 397.903 116.514 397.82 116.43L395.41 114.69C395.03 114.41 395.24 113.42 395.77 113.01L399.1 110.45C399.333 110.255 399.501 109.993 399.58 109.7L401.07 104.82C401.35 104 402 103.61 402.27 104.11Z" fill="#455A64"/>
<path d="M332.36 126.06L327.36 123.18C327.261 123.136 327.177 123.063 327.12 122.97L326.2 121.37L329.2 119.66L329.11 119.92L332.36 126.06Z" fill="#4FFFD1"/>
<path opacity="0.2" d="M332.36 126.06L327.36 123.18C327.261 123.136 327.177 123.063 327.12 122.97L326.2 121.37L329.2 119.66L329.11 119.92L332.36 126.06Z" fill="black"/>
<path d="M328.73 119.9L332.19 125.9C332.238 125.987 332.311 126.057 332.399 126.103C332.486 126.149 332.586 126.169 332.684 126.159C332.783 126.149 332.877 126.111 332.954 126.049C333.032 125.987 333.089 125.904 333.12 125.81L336.77 115.28L328.73 119.9Z" fill="#4FFFD1"/>
<path d="M416 36.29C415.955 35.453 415.713 34.6385 415.294 33.9123C414.875 33.1861 414.292 32.5687 413.59 32.11C412.843 31.7306 412.018 31.5328 411.18 31.5328C410.342 31.5328 409.517 31.7306 408.77 32.11L316.07 85.58C315.368 86.0387 314.785 86.6561 314.366 87.3823C313.947 88.1085 313.705 88.923 313.66 89.76V120.26C313.705 121.097 313.947 121.912 314.366 122.638C314.785 123.364 315.368 123.981 316.07 124.44C316.817 124.819 317.642 125.017 318.48 125.017C319.318 125.017 320.143 124.819 320.89 124.44L413.78 70.81C415.95 69.58 415.97 68.34 415.97 66.81L416 36.29Z" fill="#4FFFD1"/>
<path opacity="0.2" d="M313.66 120.26C313.705 121.097 313.947 121.912 314.366 122.638C314.785 123.364 315.368 123.981 316.07 124.44C316.748 124.786 317.493 124.984 318.253 125.018C319.014 125.053 319.773 124.924 320.48 124.64C319.35 125.07 318.48 124.43 318.48 123.05V92.54C318.509 91.699 318.754 90.8796 319.19 90.16L314.36 87.38C313.93 88.1019 313.69 88.9205 313.66 89.76V120.26Z" fill="black"/>
<path opacity="0.4" d="M415.89 35.61C415.61 34.61 414.67 34.26 413.56 34.9L320.89 88.37C320.175 88.8099 319.588 89.4308 319.19 90.17L314.37 87.38C314.777 86.647 315.361 86.028 316.07 85.58L408.73 32.11C409.478 31.7352 410.303 31.54 411.14 31.54C411.977 31.54 412.802 31.7352 413.55 32.11C414.158 32.5026 414.68 33.0157 415.082 33.6177C415.485 34.2197 415.76 34.8977 415.89 35.61Z" fill="white" fill-opacity="0.22"/>
<path d="M325 93.07L408.21 44.94C409.02 44.48 409.68 44.69 409.68 45.42C409.62 45.8697 409.456 46.2992 409.201 46.6742C408.946 47.0493 408.606 47.3594 408.21 47.58L325 95.71C324.2 96.18 323.54 95.97 323.54 95.24C323.604 94.7915 323.768 94.3633 324.021 93.9875C324.274 93.6117 324.609 93.298 325 93.07Z" fill="white" fill-opacity="0.22"/>
<path d="M325 106.68L396.37 65.4801C397.18 65.0101 397.83 65.22 397.83 65.95C397.772 66.3991 397.61 66.8283 397.356 67.2034C397.103 67.5784 396.765 67.889 396.37 68.1101L325 109.32C324.2 109.78 323.54 109.57 323.54 108.84C323.601 108.392 323.764 107.964 324.018 107.589C324.271 107.215 324.607 106.904 325 106.68Z" fill="white" fill-opacity="0.22"/>
<path d="M325 113.3L406.51 66.19C407.31 65.72 407.97 65.94 407.97 66.66C407.906 67.1084 407.742 67.5366 407.489 67.9125C407.236 68.2883 406.901 68.602 406.51 68.83L325 115.94C324.2 116.41 323.54 116.2 323.54 115.47C323.604 115.022 323.768 114.593 324.021 114.217C324.274 113.842 324.609 113.528 325 113.3Z" fill="white" fill-opacity="0.22"/>
<path d="M325 99.73L406.51 52.61C407.31 52.14 407.97 52.36 407.97 53.09C407.905 53.5367 407.74 53.9629 407.487 54.3369C407.234 54.7109 406.9 55.023 406.51 55.25L325 102.36C324.2 102.83 323.54 102.62 323.54 101.89C323.6 101.442 323.763 101.013 324.017 100.639C324.27 100.264 324.606 99.953 325 99.73Z" fill="white" fill-opacity="0.22"/>
<path d="M359.58 283.5L394.63 276.63C394.851 276.594 395.078 276.626 395.28 276.724C395.482 276.821 395.649 276.978 395.758 277.174C395.868 277.37 395.914 277.594 395.891 277.817C395.868 278.04 395.777 278.251 395.63 278.42L371.86 305.34L359.58 283.5Z" fill="#D9D4D4"/>
<path d="M395.65 278.42C395.797 278.251 395.888 278.04 395.911 277.817C395.934 277.594 395.888 277.37 395.778 277.174C395.669 276.978 395.502 276.821 395.3 276.724C395.098 276.626 394.871 276.594 394.65 276.63L387.79 278C388.729 278.582 389.489 279.412 389.987 280.398C390.485 281.384 390.7 282.489 390.61 283.59V284.21L395.65 278.42Z" fill="#4FFFD1"/>
<path d="M241.19 380.29L244.05 378.64L247.52 376.64L371.87 305.31C373.011 301.449 372.654 297.3 370.87 293.69C368.38 288.13 363.56 283.69 359.56 283.48L235.31 354.8L228.7 358.59C233.12 356.37 245.59 378 241.19 380.29Z" fill="#37474F"/>
<path d="M252.12 374.06L258.52 370.38C260.41 369.38 259.33 364.73 257.12 359.93C254.19 353.55 248.44 347.37 245.93 348.7L241.21 351.41L239.54 352.41C242.05 351.08 247.81 357.25 250.73 363.64C252.84 368.24 253.92 372.71 252.31 373.93C252.26 373.99 252.194 374.035 252.12 374.06Z" fill="#EBEBEB" fill-opacity="0.38"/>
<path d="M253.71 373.13C258.1 370.8 245.53 349.13 241.13 351.47L234.72 355.13C239.11 352.81 251.72 374.46 247.29 376.79L253.71 373.13Z" fill="#4FFFD1"/>
<path d="M241.19 380.29L247.52 376.67C251.85 374.41 239.89 353.41 235.31 354.8C235.218 354.817 235.13 354.851 235.05 354.9L228.7 358.59C233.12 356.37 245.59 378 241.19 380.29Z" fill="#EBEBEB" fill-opacity="0.38"/>
<path opacity="0.15" d="M395.81 277.24L394.63 276.63L369.2 290.54L237.7 366C237.45 365.61 237.25 365.58 237.09 365.85C240.83 371.68 243.65 379.02 241.19 380.3L244.05 378.65L247.52 376.65L371.87 305.32L395.64 278.4C395.787 278.249 395.882 278.056 395.913 277.848C395.943 277.639 395.907 277.427 395.81 277.24Z" fill="black"/>
<path d="M214.32 395.66L241.19 380.29C243.07 379.29 242.03 374.71 239.86 369.94C236.95 363.55 231.22 357.31 228.7 358.59L201.72 374C196.36 377.09 201.29 388.71 207.26 393.91C209.48 395.9 212 396.77 214.32 395.66Z" fill="#ECECEC"/>
<path opacity="0.1" d="M215.92 387.33C214.38 381.27 209.48 375.33 204.97 374.06C204.308 373.826 203.599 373.753 202.903 373.849C202.207 373.945 201.544 374.206 200.97 374.61C196.97 378.36 201.64 389.02 207.29 393.94C209.46 395.86 211.89 396.72 214.21 395.71C216.19 394.53 217 391.43 215.92 387.33Z" fill="black"/>
</svg>
