<svg width="121" height="115" viewBox="0 0 121 115" fill="none" xmlns="http://www.w3.org/2000/svg">
<path d="M51.4547 5.81427C55.0386 -1.90305 66.01 -1.90306 69.594 5.81426L79.7127 27.6027C81.1698 30.7403 84.145 32.9019 87.5792 33.3181L111.428 36.2085C119.875 37.2323 123.265 47.6667 117.033 53.4601L99.4383 69.8165C96.9046 72.1719 95.7682 75.6694 96.4335 79.0642L101.054 102.639C102.691 110.989 93.8149 117.438 86.3793 113.302L65.3861 101.622C62.3631 99.9396 58.6856 99.9396 55.6626 101.622L34.6694 113.301C27.2338 117.438 18.3577 110.99 19.9944 102.639L24.6151 79.0642C25.2805 75.6694 24.1441 72.1719 21.6104 69.8165L4.01515 53.4601C-2.21695 47.6667 1.17339 37.2323 9.62051 36.2085L33.4695 33.3181C36.9037 32.9019 39.8789 30.7403 41.336 27.6027L51.4547 5.81427Z" fill="white" fill-opacity="0.2"/>
</svg>
