<svg width="121" height="116" viewBox="0 0 121 116" fill="none" xmlns="http://www.w3.org/2000/svg">
<path d="M51.4547 6.629C55.0386 -1.08832 66.01 -1.08833 69.594 6.62899L79.7127 28.4175C81.1698 31.5551 84.145 33.7167 87.5792 34.1329L111.428 37.0233C119.875 38.0471 123.265 48.4815 117.033 54.2749L99.4383 70.6313C96.9046 72.9867 95.7682 76.4842 96.4335 79.879L101.054 103.453C102.691 111.803 93.8149 118.252 86.3793 114.116L65.3861 102.436C62.3631 100.754 58.6856 100.754 55.6626 102.436L34.6694 114.115C27.2338 118.252 18.3577 111.804 19.9944 103.453L24.6151 79.879C25.2805 76.4842 24.1441 72.9867 21.6104 70.6313L4.01515 54.2749C-2.21695 48.4815 1.17339 38.0471 9.62051 37.0233L33.4695 34.1329C36.9037 33.7167 39.8789 31.5551 41.336 28.4175L51.4547 6.629Z" fill="#FFC658"/>
</svg>
