<svg width="800" height="800" viewBox="0 0 800 800" fill="none" xmlns="http://www.w3.org/2000/svg">
<rect width="800" height="800" rx="101" fill="#EDF5FD"/>
<path fill-rule="evenodd" clip-rule="evenodd" d="M309.106 595.992C494.006 595.992 595.141 445.16 595.141 314.376C595.141 310.082 595.141 305.821 594.847 301.576C614.52 287.585 631.499 270.215 644.998 250.339C626.672 258.347 607.195 263.599 587.277 265.914C608.248 253.54 623.953 234.1 631.474 211.161C611.727 222.691 590.143 230.828 567.628 235.194C529.555 195.346 465.88 193.415 425.382 230.899C399.29 255.069 388.191 291.105 396.301 325.477C315.476 321.473 240.163 283.893 189.106 222.071C162.425 267.298 176.072 325.134 220.245 354.176C204.247 353.718 188.591 349.477 174.602 341.806V343.063C174.626 390.171 208.362 430.734 255.255 440.069C240.457 444.049 224.924 444.626 209.881 441.756C223.038 482.086 260.792 509.71 303.789 510.506C268.191 538.052 224.214 553.01 178.938 552.962C170.951 552.938 162.964 552.479 155.002 551.538C200.988 580.58 254.471 595.992 309.106 595.92" fill="#BDDBF8"/>
<path d="M189.466 222C240.392 283.947 314.898 327.561 428.527 327.561C542.156 327.561 410.2 535 341.778 535C273.356 535 223.311 482.538 210.188 442.126C225.192 445.002 240.685 444.424 255.444 440.436C208.673 431.083 175.024 390.438 175 343.235V341.976C188.953 349.662 204.568 353.911 220.525 354.371C176.466 325.27 162.855 267.318 189.466 222Z" fill="#4D9FEB"/>
</svg>
