<svg width="816" height="550" viewBox="0 0 816 550" fill="none" xmlns="http://www.w3.org/2000/svg">
<g clip-path="url(#clip0_296_411)">
<path d="M654.83 72.1119L657.448 51.1282C657.907 47.4345 659.089 43.8675 660.927 40.631C662.766 37.3944 665.223 34.5517 668.161 32.2652C671.098 29.9787 674.456 28.2933 678.045 27.3052C681.634 26.3172 685.382 26.0458 689.075 26.5066C692.769 26.9674 696.335 28.1513 699.571 29.9908C702.807 31.8303 705.649 34.2893 707.934 37.2273C710.219 40.1653 711.903 43.5247 712.89 47.1137C713.876 50.7027 714.146 54.4509 713.684 58.1442L711.066 79.1279C710.94 80.1292 710.422 81.0396 709.625 81.6593C708.829 82.2791 707.819 82.5576 706.818 82.4338L658.135 76.3603C657.134 76.2342 656.224 75.7161 655.604 74.9197C654.984 74.1233 654.706 73.1135 654.83 72.1119Z" fill="#21212C"/>
<path d="M678.149 78.3719C689.623 78.3719 698.924 69.0706 698.924 57.5969C698.924 46.1231 689.623 36.8218 678.149 36.8218C666.675 36.8218 657.374 46.1231 657.374 57.5969C657.374 69.0706 666.675 78.3719 678.149 78.3719Z" fill="#FFB8B8"/>
<path d="M650.586 51.9767C651.328 46.0805 654.379 40.7194 659.07 37.0698C663.76 33.4201 669.706 31.7799 675.604 32.5089L679.801 33.0326C685.697 33.7749 691.058 36.8259 694.708 41.516C698.357 46.2061 699.997 52.1523 699.268 58.0502L699.216 58.4699L690.347 57.3634L688.379 48.5155L686.717 56.9106L682.133 56.3387L681.14 51.8745L680.302 56.1102L650.534 52.3964L650.586 51.9767Z" fill="#21212C"/>
<path d="M576.539 131.706C577.174 132.952 578.074 134.045 579.177 134.905C580.28 135.766 581.558 136.375 582.922 136.689C584.285 137.002 585.701 137.013 587.069 136.72C588.437 136.428 589.724 135.838 590.84 134.994L609.709 146.048L619.223 136.219L592.357 120.984C590.814 119.203 588.673 118.05 586.337 117.744C584.002 117.437 581.635 117.997 579.685 119.319C577.736 120.641 576.338 122.631 575.758 124.914C575.179 127.197 575.456 129.614 576.539 131.706Z" fill="#FFB8B8"/>
<path d="M638.383 151.567C624.464 151.567 599.972 145.337 598.616 144.989L598.188 144.879L602.042 125.362L639.452 132.751L659.775 104.132L683.108 101.76L682.457 102.617C682.154 103.016 652.076 142.61 647.395 149.252C646.214 150.928 642.84 151.567 638.383 151.567Z" fill="#3F3D56"/>
<path d="M642.114 224.819L641.557 224.553C641.439 224.496 629.614 218.745 623.489 207.516C617.393 196.34 645.929 148.932 647.925 145.642L647.954 130.586L658.219 102.871L671.311 95.4717L660.071 121.698L642.114 224.819Z" fill="#3F3D56"/>
<path d="M628.999 386.636L616.487 386.635L610.535 338.375L629.001 338.376L628.999 386.636Z" fill="#FFB8B8"/>
<path d="M632.19 398.764L591.846 398.763V398.253C591.846 394.088 593.501 390.094 596.445 387.149C599.39 384.204 603.384 382.55 607.549 382.55H607.55L632.19 382.551L632.19 398.764Z" fill="#21212C"/>
<path d="M763.392 375.671L751.502 379.567L730.818 335.559L748.367 329.81L763.392 375.671Z" fill="#FFB8B8"/>
<path d="M770.201 386.203L731.863 398.764L731.704 398.279C730.407 394.322 730.736 390.011 732.617 386.296C734.499 382.58 737.779 379.765 741.736 378.468L741.737 378.467L765.153 370.795L770.201 386.203Z" fill="#21212C"/>
<path d="M739.167 367.781L703.499 308.234L673.389 244.616L646.294 300.812L635.53 373.596L597.783 374.12L597.931 373.53L655.697 144.002L700.938 150.761L698.879 180.624L700.105 182.368C710.325 196.886 720.892 211.897 714.832 228.078L732.013 279.093L770.044 364.038L739.167 367.781Z" fill="#21212C"/>
<path d="M657.764 193.748C651.209 193.748 643.729 186.262 647.609 173.483L647.358 173.301L656.678 132.124C648.544 120.493 659.268 110.893 660.273 110.035L665.391 100.822L687.976 86.4985L699.403 181.444L699.234 181.606C690.981 189.502 663.263 193.748 657.764 193.748Z" fill="#4F52FF"/>
<path d="M704.017 215.172C703.119 215.186 702.224 215.091 701.349 214.89C700.471 214.669 699.049 213.551 696.851 206.397C688.116 177.955 677.802 92.3762 685.295 84.0018L685.467 83.8099L697.77 85.8603C698.792 85.1056 704.159 81.3593 709.111 82.0108C710.131 82.139 711.113 82.475 711.998 82.9978C712.882 83.5207 713.65 84.2194 714.254 85.0508L714.339 85.1618L718.258 140.922L732.617 206.541L732.273 206.697C731.438 207.077 713.508 215.172 704.017 215.172Z" fill="#3F3D56"/>
<path d="M695.743 193.378C697.141 193.331 698.512 192.978 699.759 192.345C701.007 191.711 702.1 190.811 702.962 189.709C703.824 188.607 704.433 187.33 704.748 185.966C705.063 184.603 705.075 183.188 704.783 181.819L722.794 169.415L717.925 156.631L692.737 174.506C690.471 175.148 688.519 176.599 687.251 178.584C685.983 180.57 685.487 182.951 685.858 185.277C686.228 187.603 687.439 189.713 689.261 191.206C691.083 192.699 693.389 193.471 695.743 193.378Z" fill="#FFB8B8"/>
<path d="M716.851 179.355L700.809 167.59L723.359 136.84L706.054 106.302L713.796 84.1631L714.296 85.1166C714.529 85.5606 737.639 129.586 741.671 136.641C745.865 143.98 718.307 177.587 717.132 179.013L716.851 179.355Z" fill="#3F3D56"/>
<path d="M559.339 244.917L264.565 254.909C257.28 255.147 250.197 252.486 244.871 247.51C239.545 242.533 236.41 235.646 236.155 228.361L231.301 85.1382C231.062 77.8526 233.723 70.7698 238.7 65.4436C243.677 60.1175 250.563 56.9831 257.848 56.7279L552.621 46.7365C559.907 46.4978 566.99 49.1588 572.316 54.1356C577.642 59.1125 580.776 65.9989 581.031 73.2839L585.886 216.507C586.125 223.793 583.464 230.875 578.487 236.202C573.51 241.528 566.624 244.662 559.339 244.917Z" fill="#171722"/>
<path d="M585.886 216.507L585.912 217.265C586.147 224.225 583.607 230.993 578.852 236.081C574.096 241.168 567.515 244.158 560.555 244.393L264.308 254.434C257.349 254.669 250.582 252.131 245.495 247.377C240.408 242.624 237.417 236.044 237.18 229.085L237.155 228.328L585.886 216.507Z" fill="#171722"/>
<path d="M294.881 101.323C273.652 107.337 253.875 91.5174 250.002 76.3512L251.483 76.0342C269.392 71.434 289.972 83.6496 294.881 101.323Z" fill="#4F52FF"/>
<path d="M504.771 203.709C499.988 203.871 496.137 202.578 493.322 199.865C486.96 193.732 486.931 181.496 486.908 171.665C486.901 168.805 486.894 166.103 486.732 163.845L486.73 163.811C486.602 159.393 488.222 155.104 491.239 151.874C494.255 148.644 498.425 146.735 502.841 146.561L542.49 145.217C547.266 145.055 551.114 146.347 553.927 149.056C560.288 155.184 560.321 167.416 560.348 177.245C560.356 180.112 560.363 182.819 560.528 185.081C560.662 189.505 559.044 193.803 556.026 197.04C553.008 200.277 548.833 202.191 544.41 202.366L504.771 203.709ZM488.395 163.743C488.56 166.055 488.567 168.778 488.574 171.661C488.596 181.178 488.625 193.022 494.478 198.665C496.991 201.087 500.339 202.192 504.714 202.044L544.351 200.701C548.329 200.545 552.084 198.826 554.801 195.917C557.518 193.009 558.978 189.146 558.864 185.167C558.697 182.882 558.69 180.146 558.682 177.25C558.656 167.735 558.623 155.894 552.77 150.256C550.26 147.838 546.915 146.734 542.546 146.883L502.899 148.226C498.926 148.383 495.175 150.1 492.46 153.005C489.744 155.91 488.284 159.768 488.395 163.743Z" fill="#3F3D56"/>
<path d="M286.173 103.153C279.22 103.346 272.351 101.585 266.349 98.0685C257.558 93.0108 250.768 84.6635 248.627 76.2852L248.412 75.4454L250.725 74.9502C268.901 70.2876 290.056 82.6105 295.116 100.82L295.338 101.618L294.541 101.844C291.815 102.618 289.005 103.057 286.173 103.153ZM250.471 76.7087C252.732 84.3844 259.06 91.952 267.18 96.6242C275.035 101.284 284.41 102.662 293.275 100.46C288.052 83.5129 268.204 72.169 251.123 76.5686L250.471 76.7087Z" fill="#3F3D56"/>
<path d="M266.28 198.565C263.775 198.743 261.269 198.235 259.03 197.097C256.792 195.958 254.906 194.232 253.574 192.102C252.03 189.564 251.165 186.672 251.064 183.702C250.962 180.733 251.627 177.788 252.994 175.151C254.204 172.892 256.015 171.012 258.227 169.719C260.44 168.426 262.967 167.771 265.529 167.827L318.358 166.036C320.909 165.814 323.471 166.3 325.763 167.441C328.055 168.582 329.987 170.334 331.346 172.504C332.889 175.042 333.752 177.935 333.852 180.904C333.953 183.872 333.287 186.817 331.919 189.453C329.432 194.061 324.98 196.628 319.387 196.763L266.557 198.553C266.464 198.558 266.372 198.562 266.28 198.565ZM265.326 169.499C263.1 169.484 260.913 170.076 258.999 171.211C257.084 172.347 255.516 173.982 254.461 175.942C253.229 178.318 252.63 180.971 252.722 183.646C252.814 186.321 253.592 188.927 254.984 191.213C256.19 193.129 257.904 194.674 259.934 195.676C261.965 196.677 264.233 197.097 266.488 196.888L319.343 195.097C321.608 195.154 323.845 194.583 325.806 193.447C327.767 192.311 329.375 190.655 330.453 188.662C331.685 186.286 332.285 183.634 332.195 180.959C332.104 178.285 331.326 175.678 329.936 173.392C328.727 171.476 327.013 169.931 324.982 168.927C322.951 167.923 320.683 167.499 318.426 167.701L265.568 169.493C265.487 169.494 265.406 169.496 265.326 169.499Z" fill="#3F3D56"/>
<path d="M517.062 165.903L500.408 166.468C499.305 166.504 498.233 166.1 497.426 165.346C496.62 164.592 496.146 163.548 496.109 162.445C496.072 161.342 496.474 160.269 497.227 159.462C497.98 158.655 499.023 158.179 500.126 158.141L516.78 157.576C517.884 157.539 518.958 157.941 519.765 158.696C520.573 159.45 521.047 160.494 521.085 161.598C521.122 162.703 520.719 163.777 519.965 164.584C519.211 165.391 518.166 165.866 517.062 165.903Z" fill="#4F52FF"/>
<path d="M517.514 179.227L500.86 179.791C500.313 179.81 499.767 179.722 499.254 179.53C498.741 179.338 498.271 179.047 497.871 178.674C497.47 178.3 497.148 177.851 496.921 177.353C496.694 176.854 496.568 176.316 496.549 175.769C496.531 175.222 496.62 174.676 496.813 174.163C497.005 173.651 497.297 173.181 497.671 172.781C498.045 172.381 498.494 172.059 498.993 171.833C499.492 171.607 500.03 171.482 500.578 171.464L517.232 170.9C517.779 170.88 518.324 170.969 518.837 171.161C519.35 171.352 519.82 171.643 520.221 172.017C520.621 172.391 520.944 172.839 521.171 173.338C521.397 173.836 521.524 174.374 521.542 174.922C521.561 175.469 521.471 176.015 521.279 176.527C521.086 177.04 520.795 177.509 520.42 177.909C520.046 178.309 519.597 178.631 519.098 178.857C518.599 179.083 518.061 179.209 517.514 179.227Z" fill="#4F52FF"/>
<path d="M517.965 192.55L501.311 193.114C500.207 193.151 499.133 192.749 498.326 191.994C497.519 191.24 497.044 190.196 497.007 189.092C496.969 187.987 497.372 186.914 498.127 186.106C498.881 185.299 499.925 184.825 501.029 184.787L517.683 184.223C518.23 184.204 518.775 184.293 519.287 184.486C519.799 184.678 520.269 184.969 520.668 185.342C521.068 185.716 521.39 186.164 521.617 186.662C521.843 187.16 521.969 187.698 521.988 188.245C522.006 188.792 521.917 189.337 521.725 189.849C521.533 190.361 521.242 190.831 520.868 191.23C520.494 191.63 520.046 191.952 519.548 192.179C519.05 192.405 518.512 192.531 517.965 192.55Z" fill="#4F52FF"/>
<path d="M546.206 164.915L529.553 165.48C529.005 165.499 528.46 165.41 527.947 165.219C527.434 165.027 526.964 164.736 526.563 164.362C526.163 163.989 525.84 163.54 525.613 163.041C525.387 162.543 525.26 162.005 525.242 161.458C525.223 160.91 525.313 160.365 525.505 159.852C525.698 159.339 525.99 158.87 526.364 158.47C526.738 158.07 527.187 157.748 527.686 157.522C528.185 157.296 528.723 157.171 529.27 157.153L545.924 156.588C546.471 156.57 547.016 156.659 547.528 156.851C548.04 157.043 548.51 157.334 548.909 157.708C549.309 158.081 549.631 158.53 549.858 159.028C550.084 159.526 550.21 160.064 550.229 160.611C550.247 161.157 550.158 161.702 549.966 162.215C549.774 162.727 549.483 163.196 549.109 163.596C548.736 163.996 548.287 164.318 547.789 164.544C547.291 164.771 546.753 164.897 546.206 164.915Z" fill="#4F52FF"/>
<path d="M546.658 178.239L530.004 178.803C528.9 178.841 527.826 178.438 527.019 177.684C526.212 176.929 525.737 175.885 525.7 174.781C525.662 173.677 526.065 172.603 526.819 171.795C527.574 170.988 528.618 170.514 529.722 170.476L546.376 169.912C546.923 169.892 547.469 169.981 547.982 170.173C548.495 170.365 548.965 170.656 549.365 171.029C549.765 171.403 550.088 171.852 550.315 172.35C550.542 172.848 550.668 173.387 550.686 173.934C550.705 174.481 550.615 175.027 550.423 175.539C550.231 176.052 549.939 176.522 549.565 176.921C549.191 177.321 548.741 177.643 548.242 177.869C547.744 178.096 547.205 178.221 546.658 178.239Z" fill="#4F52FF"/>
<path d="M547.11 191.562L530.456 192.126C529.908 192.146 529.363 192.057 528.85 191.865C528.337 191.673 527.867 191.382 527.467 191.009C527.066 190.635 526.743 190.186 526.517 189.688C526.29 189.19 526.164 188.651 526.145 188.104C526.127 187.557 526.216 187.011 526.409 186.499C526.601 185.986 526.893 185.516 527.267 185.117C527.641 184.717 528.09 184.395 528.589 184.169C529.088 183.943 529.626 183.817 530.173 183.799L546.827 183.235C547.374 183.216 547.919 183.306 548.431 183.498C548.944 183.69 549.413 183.981 549.813 184.354C550.212 184.728 550.535 185.177 550.761 185.675C550.987 186.173 551.113 186.71 551.132 187.257C551.15 187.804 551.061 188.349 550.869 188.861C550.677 189.373 550.386 189.843 550.012 190.242C549.639 190.642 549.19 190.964 548.692 191.191C548.194 191.417 547.656 191.543 547.11 191.562Z" fill="#4F52FF"/>
<path d="M582.091 104.462L233.358 116.283L233.415 117.948L582.147 106.127L582.091 104.462Z" fill="#3F3D56"/>
<path d="M559.339 244.917L264.565 254.909C257.28 255.147 250.197 252.486 244.871 247.51C239.545 242.533 236.41 235.646 236.155 228.361L231.301 85.1382C231.062 77.8526 233.723 70.7698 238.7 65.4436C243.677 60.1175 250.563 56.9831 257.848 56.7279L552.621 46.7365C559.907 46.4978 566.99 49.1588 572.316 54.1356C577.642 59.1125 580.776 65.9989 581.031 73.2839L585.886 216.507C586.125 223.793 583.464 230.875 578.487 236.202C573.51 241.528 566.624 244.662 559.339 244.917ZM257.904 58.3932C251.061 58.6329 244.592 61.5774 239.917 66.5808C235.242 71.5841 232.742 78.2376 232.966 85.0816L237.821 228.305C238.06 235.148 241.005 241.617 246.008 246.293C251.011 250.968 257.665 253.468 264.509 253.243L559.282 243.252C566.126 243.012 572.595 240.068 577.27 235.064C581.945 230.061 584.445 223.408 584.221 216.563L579.366 73.3403C579.126 66.4968 576.182 60.0278 571.179 55.3526C566.175 50.6773 559.522 48.1776 552.678 48.4018L257.904 58.3932Z" fill="#3F3D56"/>
<path d="M136.994 209.481C136.925 208.016 136.535 206.584 135.853 205.286C135.17 203.988 134.211 202.856 133.043 201.968C131.875 201.081 130.527 200.461 129.094 200.151C127.661 199.841 126.177 199.849 124.747 200.174L111.48 181.479L98.1525 186.769L117.258 212.909C117.964 215.275 119.514 217.299 121.613 218.599C123.713 219.899 126.216 220.384 128.649 219.961C131.081 219.539 133.275 218.239 134.813 216.307C136.351 214.376 137.127 211.947 136.994 209.481Z" fill="#A0616A"/>
<path d="M111.139 208.096L70.9971 156.02L86.0378 108.749C87.14 96.8644 94.5769 93.5458 94.8933 93.4102L95.376 93.2031L108.464 128.106L98.8544 153.732L122.442 193.403L111.139 208.096Z" fill="#3F3D56"/>
<path d="M250.545 47.5628C249.089 47.7452 247.692 48.2445 246.451 49.0255C245.209 49.8065 244.154 50.8502 243.36 52.083C242.565 53.3158 242.051 54.7078 241.853 56.161C241.655 57.6141 241.777 59.093 242.213 60.4935L224.598 75.1657L230.904 88.0444L255.488 66.9752C257.792 66.0881 259.691 64.3866 260.824 62.1931C261.958 59.9995 262.248 57.4663 261.638 55.0735C261.029 52.6806 259.563 50.5944 257.519 49.2102C255.474 47.8259 252.993 47.2398 250.545 47.5628Z" fill="#A0616A"/>
<path d="M251.162 73.4482L202.346 117.496L154.054 106.155C142.12 105.975 138.236 98.8172 138.076 98.5122L137.833 98.047L171.619 82.2993L197.912 89.8991L235.639 63.3154L251.162 73.4482Z" fill="#3F3D56"/>
<path d="M166.605 386.585H179.721L185.96 335.994L166.602 335.995L166.605 386.585Z" fill="#A0616A"/>
<path d="M205.016 398.763L163.795 398.765L163.794 382.838L190.896 382.837C194.641 382.837 198.232 384.324 200.88 386.972C203.528 389.619 205.016 393.211 205.016 396.955L205.016 398.763Z" fill="#21212C"/>
<path d="M114.183 386.585H127.299L133.538 335.994L114.18 335.995L114.183 386.585Z" fill="#A0616A"/>
<path d="M152.594 398.763L111.372 398.765L111.372 382.838L138.474 382.837C140.328 382.837 142.164 383.202 143.877 383.911C145.591 384.621 147.147 385.661 148.458 386.972C149.769 388.283 150.809 389.839 151.519 391.552C152.229 393.265 152.594 395.101 152.594 396.955L152.594 398.763Z" fill="#21212C"/>
<path d="M109.518 201.925L110.588 276.814L111.657 375.239L135.194 373.099L146.962 237.23L161.94 373.099H186.239L188.686 236.16L180.127 206.204L109.518 201.925Z" fill="#21212C"/>
<path d="M155.584 211.981C129.975 211.983 106.402 200.392 106.084 200.233L105.82 200.101L103.671 148.526C103.047 146.703 90.776 110.741 88.6977 99.31C86.5919 87.729 117.111 77.5652 120.817 76.3766L121.658 67.0602L155.858 63.375L160.192 75.2957L172.462 79.8964C173.853 80.4184 175.004 81.4325 175.697 82.7465C176.39 84.0605 176.578 85.5832 176.223 87.026L169.404 114.757L186.059 206.506L182.473 206.661C173.989 210.322 164.823 212.136 155.584 211.981Z" fill="#3F3D56"/>
<path d="M140.098 57.4759C153.698 57.4759 164.722 46.4513 164.722 32.8517C164.722 19.2522 153.698 8.22754 140.098 8.22754C126.498 8.22754 115.474 19.2522 115.474 32.8517C115.474 46.4513 126.498 57.4759 140.098 57.4759Z" fill="#A0616A"/>
<path d="M120.153 56.6886C124.845 61.6874 133.56 59.0039 134.172 52.1748C134.22 51.6446 134.216 51.111 134.162 50.5815C133.846 47.5565 132.098 44.8102 132.517 41.6162C132.612 40.8213 132.908 40.0637 133.377 39.4153C137.117 34.4077 145.895 41.6551 149.424 37.1219C151.588 34.3422 149.045 29.9658 150.705 26.859C152.897 22.7586 159.389 24.7814 163.46 22.5358C167.99 20.0373 167.719 13.0874 164.737 8.86017C161.101 3.70484 154.725 0.953966 148.429 0.557516C142.133 0.161066 135.88 1.8631 130.001 4.15389C123.323 6.75669 116.7 10.3538 112.59 16.2265C107.591 23.3683 107.11 32.9698 109.61 41.3208C111.131 46.4008 116.32 52.6065 120.153 56.6886Z" fill="#21212C"/>
<path d="M453.926 537.835L465.74 537.834L471.36 492.266L453.924 492.267L453.926 537.835Z" fill="#FFB8B8"/>
<path d="M450.913 533.978L474.178 533.977C478.111 533.977 481.883 535.539 484.663 538.319C487.444 541.1 489.006 544.871 489.006 548.803V549.285L450.913 549.286L450.913 533.978Z" fill="#21212C"/>
<path d="M344.073 537.835L355.887 537.834L361.507 492.266L344.071 492.267L344.073 537.835Z" fill="#FFB8B8"/>
<path d="M341.059 533.978L364.325 533.977C368.257 533.977 372.029 535.539 374.81 538.319C377.59 541.1 379.152 544.871 379.153 548.803V549.285L341.06 549.286L341.059 533.978Z" fill="#21212C"/>
<path d="M458.635 306.588C458.635 306.588 468.551 333.504 467.135 344.837C465.718 356.17 477.051 435.5 475.634 442.583C474.218 449.666 477.051 485.081 475.634 490.748C474.218 496.414 479.61 503.182 476.777 508.849C473.944 514.515 469.968 526.163 469.968 526.163L451.552 524.746L448.719 509.164C448.719 509.164 440.219 507.747 441.636 499.247C443.052 490.748 434.553 434.083 434.553 434.083L410.47 354.753L376.472 427C376.472 427 375.055 477.998 370.805 483.665C366.555 489.331 375.055 504.914 370.805 510.58C366.555 516.247 362.306 526.163 362.306 526.163H341.056V514.83C341.056 514.83 328.307 507.747 341.056 486.498L349.671 358.888L358.171 300.807L458.635 306.588Z" fill="#21212C"/>
<path d="M405.826 128.463C420.439 128.463 432.285 116.617 432.285 102.005C432.285 87.3919 420.439 75.5459 405.826 75.5459C391.213 75.5459 379.367 87.3919 379.367 102.005C379.367 116.617 391.213 128.463 405.826 128.463Z" fill="#FFB8B8"/>
<path d="M428.342 100.179C426.475 104.95 424.608 109.72 422.741 114.49C420.446 120.354 417.817 126.628 412.437 129.901C405.794 133.941 396.924 131.971 390.498 127.594C384.718 123.657 380.282 118.046 377.784 111.514C375.287 104.982 374.848 97.8429 376.527 91.0545C378.206 84.266 381.922 78.1539 387.176 73.5391C392.429 68.9242 398.97 66.0276 405.918 65.2384L406.184 70.0281L412.061 65.1016C412.496 65.8474 413.094 66.4851 413.811 66.9667C414.527 67.4483 415.343 67.7613 416.198 67.8821C417.053 68.003 417.924 67.9287 418.746 67.6646C419.568 67.4006 420.319 66.9538 420.944 66.3577C419.4 69.558 421.182 73.4612 423.755 75.9128C426.916 78.9244 435.958 82.5439 435.583 87.9277C435.332 91.5206 429.799 96.4561 428.342 100.179Z" fill="#21212C"/>
<path d="M332.994 345.727C332.082 344.367 331.48 342.823 331.229 341.204C330.979 339.586 331.086 337.932 331.544 336.359C332.001 334.787 332.798 333.334 333.878 332.102C334.958 330.871 336.295 329.892 337.795 329.233L337.266 303.637L352.742 299.522L352.981 335.679C353.921 338.271 353.877 341.118 352.858 343.681C351.838 346.243 349.915 348.342 347.451 349.581C344.987 350.819 342.155 351.111 339.49 350.401C336.826 349.691 334.514 348.028 332.994 345.727Z" fill="#FFB8B8"/>
<path d="M386.171 144.816C386.171 144.816 406.675 134.564 426.039 141.399C445.404 148.233 455.655 156.207 455.655 156.207L443.126 222.273L460.212 311.122C460.212 311.122 372.502 304.287 364.529 311.122C356.555 317.956 356.555 303.148 356.555 303.148L363.39 218.856L350.86 165.319L386.171 144.816Z" fill="#3F3D56"/>
<path d="M472.709 347.243C471.452 346.193 470.44 344.88 469.745 343.397C469.05 341.914 468.689 340.297 468.687 338.659C468.685 337.021 469.042 335.403 469.733 333.918C470.424 332.433 471.432 331.117 472.686 330.064L464.992 305.646L478.691 297.352L489.071 331.987C490.701 334.212 491.458 336.956 491.199 339.702C490.94 342.447 489.683 345.002 487.666 346.883C485.65 348.763 483.013 349.838 480.256 349.905C477.5 349.971 474.814 349.024 472.709 347.243Z" fill="#FFB8B8"/>
<path d="M447.682 156.207H455.655C455.655 156.207 468.185 164.181 468.185 175.571C468.185 186.962 486.411 320.235 486.411 320.235L467.046 323.652L449.96 230.247L437.43 205.187L447.682 156.207Z" fill="#3F3D56"/>
<path d="M372.502 165.319H350.86C350.86 165.319 344.025 172.154 340.608 188.101C337.191 204.048 333.774 266.697 333.774 266.697L336.052 323.651H353.138L355.416 249.611L366.807 201.77L372.502 165.319Z" fill="#3F3D56"/>
</g>
<defs>
<clipPath id="clip0_296_411">
<rect width="816" height="548.787" fill="white" transform="translate(0 0.5)"/>
</clipPath>
</defs>
</svg>
