<svg width="739" height="469" viewBox="0 0 739 469" fill="none" xmlns="http://www.w3.org/2000/svg">
<g clip-path="url(#clip0_296_466)">
<path d="M611.867 467.833L613.867 467.793C613.094 445.556 610.721 423.403 606.768 401.506C598.119 354.625 583.739 323.836 564.025 309.995L562.876 311.631C608.928 343.965 611.844 466.597 611.867 467.833Z" fill="#21212C"/>
<path d="M586.867 467.354L588.867 467.315C588.824 465.1 587.574 412.901 567.025 398.473L565.876 400.11C585.597 413.956 586.858 466.822 586.867 467.354Z" fill="#21212C"/>
<path d="M551.498 311.813C557.021 311.813 561.498 307.336 561.498 301.813C561.498 296.29 557.021 291.813 551.498 291.813C545.975 291.813 541.498 296.29 541.498 301.813C541.498 307.336 545.975 311.813 551.498 311.813Z" fill="#4F52FF"/>
<path d="M556.45 397.813C561.973 397.813 566.45 393.336 566.45 387.813C566.45 382.29 561.973 377.813 556.45 377.813C550.928 377.813 546.45 382.29 546.45 387.813C546.45 393.336 550.928 397.813 556.45 397.813Z" fill="#4F52FF"/>
<path d="M591.529 317.807C589.649 329.811 594.547 340.548 594.547 340.548C594.547 340.548 602.493 331.822 604.372 319.818C606.251 307.814 601.353 297.078 601.353 297.078C601.353 297.078 593.408 305.803 591.529 317.807Z" fill="#21212C"/>
<path d="M558.842 346.961C570.335 350.904 581.76 347.951 581.76 347.951C581.76 347.951 574.552 338.607 563.059 334.665C551.566 330.722 540.141 333.675 540.141 333.675C540.141 333.675 547.349 343.019 558.842 346.961Z" fill="#21212C"/>
<path d="M558.472 423.123C563.674 424.757 569.213 424.996 574.536 423.816C571.156 419.513 566.604 416.279 561.428 414.504C556.253 412.728 550.674 412.487 545.364 413.81C548.843 418.008 553.363 421.22 558.472 423.123Z" fill="#21212C"/>
<path d="M325.096 155.697L260.624 122.171C260.624 122.171 238.973 98.3281 225.376 87.5585C211.779 76.7889 207.593 84.7005 207.593 84.7005L201.877 94.2269L215.691 113.439L253.003 145.035L319.672 171.148C320.715 172.856 322.221 174.232 324.015 175.118C325.809 176.003 327.817 176.362 329.806 176.151C331.796 175.941 333.685 175.17 335.254 173.929C336.823 172.688 338.007 171.027 338.67 169.14C339.333 167.252 339.446 165.215 338.997 163.266C338.548 161.316 337.555 159.534 336.134 158.126C334.713 156.718 332.921 155.743 330.967 155.313C329.013 154.883 326.978 155.016 325.096 155.697Z" fill="#9F616A"/>
<path d="M157.397 126.702L153.58 103.35L142.802 100.655C142.802 100.655 134.248 98.0205 132.249 115.25C130.249 132.48 131.799 164.649 131.799 164.649L109.917 233.945C108.096 234.791 106.554 236.138 105.469 237.827C104.385 239.516 103.802 241.479 103.79 243.486C103.777 245.494 104.335 247.464 105.399 249.166C106.463 250.869 107.988 252.234 109.798 253.103C111.607 253.972 113.627 254.31 115.62 254.076C117.614 253.842 119.501 253.046 121.06 251.782C122.619 250.517 123.787 248.836 124.427 246.933C125.068 245.03 125.155 242.985 124.678 241.035L153.356 175.427L157.397 126.702Z" fill="#9F616A"/>
<path d="M246.545 454.415L260.648 454.414L267.358 400.015L246.542 400.016L246.545 454.415Z" fill="#9F616A"/>
<path d="M242.947 449.81L270.722 449.809H270.723C275.418 449.809 279.92 451.674 283.239 454.994C286.559 458.313 288.424 462.815 288.424 467.509V468.084L242.948 468.086L242.947 449.81Z" fill="#21212C"/>
<path d="M92.7161 454.415L106.82 454.414L113.529 400.015L92.7141 400.016L92.7161 454.415Z" fill="#9F616A"/>
<path d="M89.1189 449.81L116.894 449.809H116.895C121.589 449.809 126.091 451.674 129.411 454.994C132.73 458.313 134.595 462.815 134.596 467.509V468.084L89.1197 468.086L89.1189 449.81Z" fill="#21212C"/>
<path d="M162.343 80.0536L138.95 100.023L158.148 160.776L162.48 174.342C162.48 174.342 136.03 198.729 119.664 266.854C103.298 334.979 76.5259 425.501 76.5259 425.501L133.038 441.677L179.014 287.572L233.093 408.472L239.337 444.232L287.463 430.041L276.11 340.359L219.35 185.118L225.246 143.967C225.246 143.967 234.1 123.426 218.718 101.68L213.894 81.2458L196.61 76.9888L162.343 80.0536Z" fill="#21212C"/>
<path d="M201.205 69.1977H137.96C136.659 69.1963 135.412 68.6788 134.492 67.7589C133.572 66.839 133.054 65.5917 133.053 64.2907V37.0297C133.053 27.3414 136.902 18.05 143.752 11.1993C150.603 4.34866 159.894 0.5 169.583 0.5C179.271 0.5 188.562 4.34866 195.413 11.1993C202.264 18.05 206.112 27.3414 206.112 37.0297V64.2907C206.111 65.5917 205.593 66.839 204.674 67.7589C203.754 68.6788 202.506 69.1963 201.205 69.1977Z" fill="#21212C"/>
<path d="M200.589 54.6271C207.684 41.6483 202.914 25.3753 189.935 18.2805C176.957 11.1856 160.684 15.9555 153.589 28.9343C146.494 41.9131 151.264 58.1861 164.243 65.281C177.222 72.3758 193.494 67.6059 200.589 54.6271Z" fill="#9F616A"/>
<path d="M214.755 39.7558H176.081L175.685 34.2035L173.702 39.7558H167.747L166.961 28.7513L163.031 39.7558H151.509V39.2106C151.518 31.5494 154.565 24.2045 159.982 18.7872C165.399 13.3699 172.744 10.3226 180.405 10.314H185.858C193.519 10.3226 200.864 13.3698 206.281 18.7871C211.699 24.2044 214.746 31.5494 214.755 39.2106V39.7558Z" fill="#21212C"/>
<path d="M175.765 74.2863C175.474 74.286 175.183 74.2604 174.897 74.2096L146.578 69.2132V22.4116H177.751L176.979 23.3115C166.242 35.8345 174.331 56.1407 180.109 67.1303C180.535 67.9352 180.725 68.8439 180.657 69.752C180.589 70.6601 180.266 71.5305 179.725 72.263C179.272 72.8894 178.677 73.3994 177.988 73.7511C177.3 74.1028 176.538 74.2863 175.765 74.2863Z" fill="#21212C"/>
<path d="M409.954 319.646L161.773 407.392C155.637 409.554 148.893 409.193 143.023 406.39C137.152 403.586 132.633 398.568 130.458 392.437L87.8235 271.851C85.6618 265.715 86.0224 258.972 88.8262 253.101C91.6299 247.231 96.648 242.712 102.779 240.536L350.96 152.789C357.097 150.628 363.84 150.988 369.711 153.792C375.581 156.596 380.1 161.614 382.276 167.745L424.91 288.33C427.071 294.467 426.711 301.21 423.907 307.08C421.103 312.951 416.085 317.47 409.954 319.646Z" fill="#171722"/>
<path d="M424.909 288.331L425.135 288.969C427.206 294.829 426.864 301.271 424.185 306.88C421.505 312.488 416.708 316.802 410.848 318.872L161.426 407.058C155.567 409.129 149.125 408.788 143.518 406.109C137.91 403.431 133.596 398.636 131.524 392.777L131.299 392.139L424.909 288.331Z" fill="#171722"/>
<path d="M146.285 268.534C129.834 279.358 108.75 271.212 101.377 259.346L102.552 258.678C116.557 249.948 137.356 254.812 146.285 268.534Z" fill="#4F52FF"/>
<path d="M352.436 299.245C348.409 300.668 344.784 300.603 341.659 299.05C334.596 295.541 331.282 285.136 328.619 276.775C327.844 274.343 327.112 272.045 326.367 270.168L326.356 270.139C325.06 266.414 325.286 262.327 326.985 258.768C328.684 255.208 331.718 252.462 335.43 251.127L368.812 239.325C372.834 237.903 376.455 237.968 379.578 239.518C386.639 243.022 389.956 253.424 392.621 261.782C393.398 264.219 394.132 266.521 394.88 268.402C396.184 272.131 395.962 276.223 394.264 279.79C392.565 283.356 389.527 286.107 385.81 287.445L352.436 299.245ZM327.755 269.633C328.517 271.556 329.255 273.872 330.036 276.324C332.614 284.417 335.822 294.49 342.32 297.719C345.11 299.104 348.256 299.145 351.94 297.843L385.312 286.043C388.655 284.842 391.389 282.369 392.919 279.164C394.45 275.958 394.654 272.278 393.487 268.922C392.731 267.022 391.989 264.696 391.204 262.233C388.624 254.143 385.413 244.074 378.916 240.85C376.13 239.466 372.987 239.426 369.308 240.727L335.928 252.529C332.589 253.73 329.858 256.2 328.328 259.402C326.798 262.604 326.592 266.28 327.755 269.633Z" fill="#3F3D56"/>
<path d="M139.366 272.431C133.5 274.465 127.181 274.813 121.127 273.434C112.287 271.493 104.263 266.214 100.189 259.659L99.7805 259.002L101.615 257.959C115.831 249.105 137.148 253.905 146.349 268.042L146.753 268.662L146.135 269.068C144.023 270.459 141.75 271.589 139.366 272.431ZM101.873 259.524C105.86 265.449 113.28 270.188 121.446 271.981C129.384 273.835 137.734 272.488 144.686 268.231C135.685 255.212 115.744 250.893 102.39 259.23L101.873 259.524Z" fill="#3F3D56"/>
<path d="M148.085 358.98C146.001 359.805 143.732 360.047 141.521 359.68C139.309 359.312 137.24 358.35 135.534 356.896C133.538 355.151 132.025 352.921 131.14 350.422C130.255 347.922 130.029 345.237 130.484 342.625C130.906 340.377 131.942 338.29 133.477 336.595C135.013 334.9 136.987 333.664 139.183 333.022L183.662 317.296C185.772 316.421 188.084 316.146 190.341 316.501C192.598 316.857 194.714 317.828 196.454 319.309C198.449 321.055 199.961 323.284 200.845 325.784C201.728 328.283 201.953 330.968 201.498 333.58C200.62 338.17 197.521 341.551 192.797 343.17L148.318 358.896C148.24 358.924 148.163 358.952 148.085 358.98ZM139.459 334.5C137.561 335.086 135.859 336.178 134.535 337.658C133.211 339.139 132.316 340.952 131.945 342.904C131.535 345.257 131.739 347.676 132.536 349.928C133.333 352.18 134.696 354.188 136.495 355.76C138.037 357.067 139.91 357.92 141.908 358.227C143.905 358.534 145.949 358.281 147.811 357.497L192.312 341.764C194.255 341.203 196.006 340.116 197.369 338.622C198.733 337.128 199.656 335.287 200.037 333.3C200.448 330.947 200.245 328.529 199.449 326.277C198.653 324.025 197.29 322.016 195.493 320.444C193.948 319.139 192.074 318.285 190.076 317.976C188.078 317.667 186.033 317.916 184.167 318.695L139.664 334.429C139.595 334.452 139.527 334.476 139.459 334.5Z" fill="#3F3D56"/>
<path d="M352.733 263.766L338.712 268.723C337.782 269.052 336.76 268.998 335.87 268.573C334.98 268.148 334.296 267.387 333.967 266.457C333.638 265.528 333.692 264.505 334.117 263.616C334.542 262.726 335.303 262.041 336.233 261.713L350.254 256.755C351.184 256.426 352.206 256.481 353.096 256.905C353.986 257.33 354.67 258.091 354.999 259.021C355.328 259.951 355.274 260.973 354.849 261.863C354.424 262.753 353.663 263.437 352.733 263.766Z" fill="#4F52FF"/>
<path d="M356.699 274.983L342.678 279.941C341.748 280.269 340.726 280.215 339.836 279.79C338.946 279.365 338.262 278.604 337.933 277.675C337.604 276.745 337.658 275.723 338.083 274.833C338.508 273.943 339.269 273.259 340.199 272.93L354.22 267.972C355.15 267.644 356.172 267.698 357.062 268.123C357.952 268.548 358.636 269.309 358.965 270.238C359.294 271.168 359.24 272.19 358.815 273.08C358.39 273.97 357.629 274.654 356.699 274.983Z" fill="#4F52FF"/>
<path d="M360.665 286.2L346.643 291.157C346.183 291.32 345.695 291.391 345.208 291.365C344.72 291.339 344.242 291.217 343.802 291.007C343.361 290.797 342.966 290.502 342.64 290.138C342.313 289.775 342.061 289.352 341.899 288.891C341.736 288.431 341.665 287.943 341.691 287.456C341.717 286.968 341.839 286.49 342.049 286.05C342.259 285.609 342.555 285.214 342.918 284.888C343.281 284.561 343.704 284.309 344.165 284.147L358.186 279.189C358.647 279.026 359.134 278.956 359.622 278.982C360.11 279.008 360.587 279.129 361.028 279.34C361.469 279.55 361.863 279.845 362.19 280.208C362.516 280.571 362.768 280.995 362.931 281.455C363.094 281.916 363.164 282.403 363.138 282.891C363.113 283.379 362.991 283.856 362.781 284.297C362.57 284.737 362.275 285.132 361.912 285.459C361.549 285.785 361.125 286.037 360.665 286.2Z" fill="#4F52FF"/>
<path d="M377.271 255.09L363.249 260.048C362.789 260.21 362.301 260.281 361.813 260.255C361.326 260.229 360.848 260.108 360.407 259.897C359.967 259.687 359.572 259.392 359.245 259.029C358.919 258.666 358.667 258.242 358.504 257.782C358.342 257.321 358.271 256.833 358.297 256.346C358.323 255.858 358.444 255.38 358.655 254.94C358.865 254.499 359.16 254.104 359.523 253.778C359.886 253.451 360.31 253.2 360.77 253.037L374.792 248.079C375.722 247.751 376.744 247.805 377.634 248.23C378.523 248.655 379.208 249.416 379.537 250.345C379.865 251.275 379.811 252.297 379.386 253.187C378.961 254.077 378.2 254.761 377.271 255.09Z" fill="#4F52FF"/>
<path d="M381.237 266.307L367.215 271.265C366.755 271.428 366.267 271.498 365.779 271.472C365.292 271.446 364.814 271.325 364.374 271.114C363.933 270.904 363.538 270.609 363.212 270.246C362.885 269.883 362.633 269.459 362.47 268.999C362.308 268.538 362.237 268.051 362.263 267.563C362.289 267.075 362.41 266.598 362.621 266.157C362.831 265.717 363.126 265.322 363.489 264.995C363.852 264.669 364.276 264.417 364.736 264.254L378.758 259.297C379.218 259.134 379.706 259.063 380.194 259.089C380.681 259.115 381.159 259.237 381.6 259.447C382.04 259.657 382.435 259.953 382.762 260.316C383.088 260.679 383.34 261.102 383.503 261.563C383.666 262.023 383.736 262.511 383.71 262.998C383.684 263.486 383.563 263.964 383.352 264.404C383.142 264.845 382.847 265.24 382.484 265.566C382.121 265.893 381.697 266.145 381.237 266.307Z" fill="#4F52FF"/>
<path d="M385.203 277.525L371.181 282.482C370.251 282.811 369.229 282.757 368.339 282.332C367.449 281.907 366.765 281.146 366.436 280.216C366.108 279.286 366.162 278.264 366.587 277.374C367.012 276.485 367.773 275.8 368.702 275.471L382.724 270.514C383.184 270.351 383.672 270.281 384.16 270.306C384.647 270.332 385.125 270.454 385.565 270.664C386.006 270.875 386.401 271.17 386.727 271.533C387.054 271.896 387.306 272.32 387.469 272.78C387.631 273.24 387.702 273.728 387.676 274.216C387.65 274.703 387.529 275.181 387.318 275.622C387.108 276.062 386.813 276.457 386.45 276.784C386.087 277.11 385.663 277.362 385.203 277.525Z" fill="#4F52FF"/>
<path d="M391.559 193.994L97.9473 297.804L98.443 299.206L392.055 195.397L391.559 193.994Z" fill="#3F3D56"/>
<path d="M409.954 319.646L161.773 407.392C155.637 409.554 148.893 409.193 143.023 406.39C137.152 403.586 132.633 398.568 130.458 392.437L87.8235 271.851C85.6618 265.715 86.0224 258.972 88.8262 253.101C91.6299 247.231 96.648 242.712 102.779 240.536L350.96 152.789C357.097 150.628 363.84 150.988 369.711 153.792C375.581 156.596 380.1 161.614 382.276 167.745L424.91 288.33C427.071 294.467 426.711 301.21 423.907 307.08C421.103 312.951 416.085 317.47 409.954 319.646ZM103.275 241.938C97.5153 243.982 92.8014 248.227 90.1676 253.742C87.5338 259.257 87.195 265.591 89.2257 271.356L131.86 391.941C133.903 397.701 138.148 402.414 143.663 405.048C149.178 407.682 155.513 408.021 161.277 405.99L409.458 318.243C415.218 316.2 419.932 311.955 422.566 306.44C425.199 300.925 425.538 294.59 423.508 288.826L380.874 168.241C378.83 162.481 374.585 157.767 369.07 155.133C363.555 152.5 357.221 152.161 351.456 154.191L103.275 241.938Z" fill="#3F3D56"/>
</g>
<defs>
<clipPath id="clip0_296_466">
<rect width="739" height="468" fill="white" transform="translate(0 0.5)"/>
</clipPath>
</defs>
</svg>
