<svg width="857" height="561" viewBox="0 0 857 561" fill="none" xmlns="http://www.w3.org/2000/svg">
<g clip-path="url(#clip0_296_500)">
<path d="M505.671 37.4561H411.027V39.2591H505.671V37.4561Z" fill="#CCCCCC"/>
<path d="M337.114 37.4561H36.9561V39.2591H337.114V37.4561Z" fill="#CCCCCC"/>
<path d="M36.956 75.3129C57.3662 75.3129 73.912 58.7671 73.912 38.3569C73.912 17.9466 57.3662 1.40088 36.956 1.40088C16.5458 1.40088 0 17.9466 0 38.3569C0 58.7671 16.5458 75.3129 36.956 75.3129Z" fill="#4F52FF"/>
<path d="M205.513 75.3129C225.923 75.3129 242.469 58.7671 242.469 38.3569C242.469 17.9466 225.923 1.40088 205.513 1.40088C185.103 1.40088 168.557 17.9466 168.557 38.3569C168.557 58.7671 185.103 75.3129 205.513 75.3129Z" fill="#3F3D56"/>
<path d="M374.066 76.216C366.578 76.216 359.259 73.9957 353.033 69.8358C346.808 65.6759 341.955 59.7633 339.09 52.8456C336.224 45.928 335.475 38.316 336.935 30.9723C338.396 23.6285 342.002 16.8829 347.296 11.5884C352.591 6.29383 359.337 2.68821 366.68 1.22745C374.024 -0.233309 381.636 0.516396 388.554 3.38178C395.471 6.24716 401.384 11.0995 405.544 17.3252C409.704 23.5509 411.924 30.8704 411.924 38.358C411.924 48.3986 407.935 58.0279 400.836 65.1277C393.736 72.2274 384.107 76.216 374.066 76.216ZM374.066 2.30301C366.935 2.30301 359.964 4.41761 354.035 8.37938C348.106 12.3412 343.484 17.9722 340.756 24.5604C338.027 31.1486 337.313 38.398 338.704 45.392C340.095 52.386 343.529 58.8104 348.571 63.8527C353.614 68.8951 360.038 72.329 367.032 73.7202C374.026 75.1114 381.275 74.3974 387.864 71.6685C394.452 68.9396 400.083 64.3183 404.045 58.3891C408.006 52.4599 410.121 45.489 410.121 38.358C410.121 28.7956 406.322 19.6249 399.561 12.8633C392.799 6.10166 383.628 2.30301 374.066 2.30301Z" fill="#CCCCCC"/>
<path d="M542.623 76.216C535.136 76.216 527.816 73.9957 521.59 69.8358C515.365 65.6759 510.512 59.7633 507.647 52.8456C504.782 45.928 504.032 38.316 505.493 30.9723C506.953 23.6285 510.559 16.8829 515.853 11.5884C521.148 6.29383 527.894 2.68821 535.237 1.22745C542.581 -0.233309 550.193 0.516396 557.111 3.38178C564.028 6.24716 569.941 11.0995 574.101 17.3252C578.261 23.5509 580.481 30.8704 580.481 38.358C580.481 48.3986 576.493 58.0279 569.393 65.1277C562.293 72.2274 552.664 76.216 542.623 76.216ZM542.623 2.30301C535.492 2.30301 528.521 4.41761 522.592 8.37938C516.663 12.3412 512.042 17.9722 509.313 24.5604C506.584 31.1486 505.87 38.398 507.261 45.392C508.652 52.386 512.086 58.8104 517.128 63.8527C522.171 68.8951 528.595 72.329 535.589 73.7202C542.583 75.1114 549.833 74.3974 556.421 71.6685C563.009 68.9396 568.64 64.3183 572.602 58.3891C576.564 52.4599 578.678 45.489 578.678 38.358C578.678 33.6232 577.745 28.9348 575.934 24.5604C574.122 20.186 571.466 16.2113 568.118 12.8633C564.77 9.51527 560.795 6.85947 556.421 5.04753C552.046 3.2356 547.358 2.30301 542.623 2.30301Z" fill="#CCCCCC"/>
<path d="M34.1111 49.376C33.4619 49.3765 32.8301 49.1659 32.3111 48.776L32.2791 48.752L25.4961 43.564C24.8617 43.0776 24.4465 42.3591 24.3419 41.5665C24.2372 40.774 24.4517 39.9724 24.9381 39.338C25.4245 38.7036 26.143 38.2884 26.9355 38.1837C27.7281 38.0791 28.5297 38.2936 29.1641 38.78L33.5571 42.149L43.9381 28.605C44.4243 27.9709 45.1424 27.5559 45.9345 27.4513C46.7267 27.3466 47.5279 27.5609 48.1621 28.047L48.0981 28.136L48.1641 28.047C48.7976 28.5338 49.2121 29.2521 49.3165 30.0443C49.421 30.8364 49.2068 31.6376 48.7211 32.272L36.5101 48.195C36.2273 48.5621 35.8636 48.8591 35.4474 49.0629C35.0311 49.2667 34.5735 49.3717 34.1101 49.37L34.1111 49.376Z" fill="#171722"/>
<path d="M656.58 196.46C657.271 196.776 657.935 197.146 658.567 197.568L721.721 170.614L723.974 153.978L749.209 153.823L747.718 191.981L664.361 214.028C664.185 214.607 663.975 215.175 663.73 215.728C662.525 218.3 660.586 220.458 658.159 221.931C655.731 223.405 652.922 224.128 650.084 224.011C647.247 223.893 644.507 222.94 642.21 221.27C639.912 219.601 638.159 217.29 637.171 214.627C636.183 211.965 636.003 209.069 636.655 206.305C637.307 203.541 638.76 201.031 640.834 199.09C642.908 197.15 645.508 195.865 648.31 195.398C651.111 194.93 653.988 195.301 656.579 196.463L656.58 196.46Z" fill="#FEB8B8"/>
<path d="M758.386 542.221H741.123L732.911 475.637H758.388L758.386 542.221Z" fill="#FEB8B8"/>
<path d="M728.793 537.289H762.085V558.244H707.831C707.831 552.685 710.04 547.353 713.971 543.422C717.902 539.491 723.234 537.282 728.793 537.282V537.289Z" fill="#21212C"/>
<path d="M825.522 537.344L808.344 539.034L793.644 473.576L818.999 471.085L825.522 537.344Z" fill="#FEB8B8"/>
<path d="M795.578 535.34L828.704 532.077L830.758 552.934L776.777 558.251C776.232 552.72 777.907 547.199 781.432 542.902C784.958 538.606 790.046 535.886 795.577 535.34H795.578Z" fill="#21212C"/>
<path d="M763.191 83.354C782.291 83.354 797.774 67.8707 797.774 48.771C797.774 29.6713 782.291 14.188 763.191 14.188C744.091 14.188 728.608 29.6713 728.608 48.771C728.608 67.8707 744.091 83.354 763.191 83.354Z" fill="#FEB8B8"/>
<path d="M737.265 528.755C735.781 528.758 734.344 528.237 733.207 527.284C732.069 526.331 731.305 525.007 731.048 523.545C722.119 473.955 692.907 311.773 692.208 307.277C692.192 307.174 692.185 307.07 692.185 306.965V294.871C692.184 294.431 692.322 294.001 692.578 293.643L696.436 288.243C696.62 287.983 696.86 287.769 697.139 287.616C697.419 287.464 697.729 287.377 698.047 287.363C720.047 286.332 792.083 283.309 795.563 287.657C799.058 292.022 797.816 305.268 797.534 307.877L797.548 308.149L829.914 515.131C830.168 516.782 829.76 518.467 828.781 519.82C827.802 521.173 826.329 522.086 824.681 522.361L804.467 525.691C802.962 525.933 801.419 525.626 800.121 524.827C798.822 524.028 797.853 522.789 797.391 521.336C791.139 501.358 770.175 434.152 762.909 408.146C762.87 407.975 762.768 407.824 762.623 407.725C762.478 407.626 762.3 407.584 762.126 407.609C761.952 407.635 761.794 407.724 761.683 407.861C761.572 407.997 761.517 408.171 761.528 408.346C761.891 433.136 762.768 496.382 763.077 518.227L763.109 520.58C763.122 522.173 762.538 523.713 761.471 524.895C760.404 526.078 758.932 526.817 757.346 526.967L737.854 528.733C737.658 528.75 737.462 528.758 737.265 528.755Z" fill="#21212C"/>
<path d="M741.243 96.953C735.208 100.541 731.596 107.133 729.524 113.853C725.687 126.274 723.378 139.116 722.647 152.095L720.456 190.954L693.343 293.982C716.843 313.865 730.396 309.345 762.029 293.082C793.662 276.819 797.276 298.504 797.276 298.504L803.601 210.841L812.638 115.048C810.609 112.605 808.313 110.398 805.792 108.467C797.439 101.97 787.721 97.4541 777.369 95.2589C767.017 93.0637 756.302 93.2466 746.031 95.794L741.243 96.953Z" fill="#171722"/>
<path d="M732.437 217.267C733.166 217.54 733.872 217.87 734.549 218.253L796.996 186.994L798.032 170.061L823.791 168.285L825.171 206.885L741.721 234.485C741.04 237.409 739.485 240.057 737.263 242.076C735.04 244.095 732.256 245.389 729.28 245.787C726.304 246.184 723.277 245.666 720.603 244.302C717.928 242.937 715.733 240.79 714.308 238.147C712.884 235.504 712.297 232.49 712.628 229.506C712.958 226.522 714.19 223.709 716.158 221.441C718.126 219.174 720.738 217.56 723.646 216.813C726.554 216.067 729.621 216.223 732.438 217.262L732.437 217.267Z" fill="#FEB8B8"/>
<path d="M812.188 115.48C827.551 120.902 830.259 179.651 830.259 179.651C812.184 169.71 790.494 185.977 790.494 185.977C790.494 185.977 785.976 170.612 780.553 150.731C778.916 145.138 778.72 139.223 779.984 133.534C781.248 127.845 783.93 122.569 787.782 118.196C787.782 118.196 796.823 110.055 812.188 115.48Z" fill="#171722"/>
<path d="M794.194 57.9142C789.885 54.4672 784.007 60.7302 784.007 60.7302L780.56 29.7142C780.56 29.7142 759.017 32.2952 745.226 28.8522C731.435 25.4092 729.283 41.3522 729.283 41.3522C728.572 34.9136 728.428 28.425 728.852 21.9611C729.714 14.2051 740.916 6.44917 760.737 1.27817C780.558 -3.89283 790.899 18.5142 790.899 18.5142C804.695 25.4032 798.508 61.3652 794.194 57.9142Z" fill="#21212C"/>
<path d="M190.135 519.576C193.29 520.685 196.678 520.963 199.972 520.383C203.266 519.803 206.355 518.384 208.941 516.263C215.528 510.735 217.593 501.627 219.273 493.193L224.243 468.248L213.838 475.413C206.355 480.565 198.704 485.883 193.522 493.346C188.34 500.809 186.079 510.997 190.242 519.072" fill="#171722"/>
<path d="M191.742 551.513C190.432 541.971 189.085 532.307 190.004 522.663C190.82 514.098 193.433 505.733 198.753 498.874C201.577 495.24 205.012 492.127 208.906 489.674C209.921 489.033 210.856 490.642 209.845 491.28C203.107 495.537 197.894 501.824 194.96 509.235C191.72 517.476 191.2 526.459 191.76 535.212C192.098 540.506 192.813 545.765 193.534 551.017C193.591 551.255 193.555 551.505 193.434 551.717C193.314 551.929 193.117 552.088 192.884 552.161C192.646 552.225 192.393 552.193 192.178 552.071C191.964 551.949 191.807 551.748 191.74 551.511L191.742 551.513Z" fill="#171722"/>
<path d="M201.169 536.203C202.522 538.26 204.382 539.933 206.57 541.063C208.758 542.192 211.2 542.739 213.66 542.65C219.983 542.35 225.255 537.937 230 533.75L244.036 521.358L234.747 520.914C228.067 520.594 221.214 520.296 214.847 522.356C208.48 524.416 202.616 529.374 201.453 535.956" fill="#171722"/>
<path d="M188.04 556.998C194.34 545.842 201.658 533.443 214.725 529.48C218.358 528.382 222.168 527.989 225.949 528.321C227.141 528.421 226.843 530.261 225.649 530.158C219.311 529.632 212.985 531.305 207.737 534.897C202.686 538.335 198.754 543.114 195.426 548.183C193.387 551.283 191.561 554.524 189.735 557.756C189.153 558.788 187.453 558.043 188.04 556.998Z" fill="#171722"/>
<path d="M632.419 235.097H316.73C315.18 235.095 313.694 234.479 312.598 233.383C311.502 232.287 310.886 230.801 310.884 229.251V150.942C310.886 149.392 311.502 147.906 312.598 146.81C313.694 145.715 315.18 145.098 316.73 145.096H632.419C633.969 145.098 635.455 145.715 636.551 146.81C637.647 147.906 638.263 149.392 638.265 150.942V229.251C638.263 230.801 637.647 232.287 636.551 233.383C635.455 234.479 633.969 235.095 632.419 235.097ZM316.73 147.435C315.8 147.436 314.908 147.806 314.251 148.464C313.593 149.121 313.223 150.013 313.222 150.943V229.252C313.223 230.182 313.593 231.074 314.25 231.732C314.908 232.39 315.8 232.759 316.73 232.76H632.419C633.349 232.759 634.241 232.39 634.899 231.732C635.556 231.074 635.926 230.182 635.927 229.252V150.942C635.926 150.012 635.556 149.12 634.899 148.463C634.241 147.805 633.349 147.435 632.419 147.434L316.73 147.435Z" fill="#171722"/>
<path d="M420.781 171.215C419.728 171.215 418.719 171.634 417.974 172.378C417.23 173.122 416.812 174.132 416.812 175.184C416.812 176.237 417.23 177.247 417.974 177.991C418.719 178.735 419.728 179.153 420.781 179.153H607.889C608.942 179.153 609.951 178.735 610.695 177.991C611.44 177.247 611.858 176.237 611.858 175.184C611.858 174.132 611.44 173.122 610.695 172.378C609.951 171.634 608.942 171.215 607.889 171.215H420.781Z" fill="#171722"/>
<path d="M420.781 195.03C419.728 195.03 418.719 195.448 417.974 196.193C417.23 196.937 416.812 197.947 416.812 198.999C416.812 200.052 417.23 201.061 417.974 201.806C418.719 202.55 419.728 202.968 420.781 202.968H501.294C502.347 202.968 503.356 202.55 504.1 201.806C504.845 201.061 505.263 200.052 505.263 198.999C505.263 197.947 504.845 196.937 504.1 196.193C503.356 195.448 502.347 195.03 501.294 195.03H420.781Z" fill="#171722"/>
<path d="M366.006 210.725C379.158 210.725 389.82 200.063 389.82 186.911C389.82 173.759 379.158 163.097 366.006 163.097C352.854 163.097 342.192 173.759 342.192 186.911C342.192 200.063 352.854 210.725 366.006 210.725Z" fill="#171722"/>
<path d="M362.263 200.146C361.463 200.147 360.684 199.888 360.044 199.408L360.004 199.378L351.646 192.984C350.864 192.385 350.352 191.499 350.222 190.522C350.093 189.545 350.357 188.557 350.956 187.774C351.556 186.992 352.441 186.48 353.418 186.35C354.395 186.221 355.384 186.485 356.166 187.084L361.58 191.235L374.373 174.545C374.972 173.764 375.857 173.252 376.833 173.123C377.809 172.994 378.797 173.258 379.578 173.857L379.499 173.967L379.581 173.857C380.362 174.457 380.872 175.342 381.001 176.318C381.13 177.294 380.866 178.281 380.268 179.063L365.221 198.697C364.873 199.149 364.425 199.515 363.913 199.766C363.401 200.017 362.838 200.147 362.267 200.145L362.263 200.146Z" fill="#4F52FF"/>
</g>
<defs>
<clipPath id="clip0_296_500">
<rect width="856.385" height="559.94" fill="white" transform="translate(0 0.5)"/>
</clipPath>
</defs>
</svg>
