<svg width="620" height="563" viewBox="0 0 620 563" fill="none" xmlns="http://www.w3.org/2000/svg">
<g clip-path="url(#clip0_296_595)">
<path d="M314.144 140.349H87.1506C72.3802 140.349 60.4065 152.323 60.4065 167.093V391.195C60.4065 405.966 72.3802 417.94 87.1506 417.94H314.144C328.914 417.94 340.888 405.966 340.888 391.195V167.093C340.888 152.323 328.914 140.349 314.144 140.349Z" fill="#171722"/>
<path d="M134.818 145.849C116.542 145.849 99.0137 153.109 86.0903 166.033C73.1668 178.956 65.9065 196.484 65.9065 214.761V391.196C65.9065 393.986 66.456 396.748 67.5236 399.326C68.5912 401.903 70.1561 404.245 72.1288 406.218C74.1015 408.19 76.4434 409.755 79.0209 410.823C81.5983 411.89 84.3608 412.44 87.1506 412.44H232.023C259.437 412.44 285.728 401.55 305.113 382.165C324.497 362.781 335.387 336.49 335.387 309.076V167.093C335.387 161.459 333.149 156.055 329.165 152.071C325.181 148.087 319.778 145.849 314.143 145.849H134.818Z" fill="#171722"/>
<path d="M49.3153 18.7096C53.9857 18.7096 57.7719 14.839 57.7719 10.0645C57.7719 5.28996 53.9857 1.41943 49.3153 1.41943C44.6448 1.41943 40.8586 5.28996 40.8586 10.0645C40.8586 14.839 44.6448 18.7096 49.3153 18.7096Z" fill="#171722"/>
<path d="M78.5291 18.7096C83.1996 18.7096 86.9857 14.839 86.9857 10.0645C86.9857 5.28996 83.1996 1.41943 78.5291 1.41943C73.8587 1.41943 70.0725 5.28996 70.0725 10.0645C70.0725 14.839 73.8587 18.7096 78.5291 18.7096Z" fill="#171722"/>
<path d="M107.743 18.7096C112.413 18.7096 116.199 14.839 116.199 10.0645C116.199 5.28996 112.413 1.41943 107.743 1.41943C103.072 1.41943 99.2861 5.28996 99.2861 10.0645C99.2861 14.839 103.072 18.7096 107.743 18.7096Z" fill="#171722"/>
<path d="M141.054 16.8976C140.921 16.8978 140.789 16.8712 140.666 16.8196C140.544 16.7679 140.432 16.6922 140.339 16.5968L134.633 10.7638C134.451 10.577 134.348 10.326 134.348 10.0646C134.348 9.80318 134.451 9.55217 134.633 9.36538L140.339 3.53286C140.431 3.4375 140.54 3.3612 140.662 3.3084C140.783 3.2556 140.913 3.22733 141.045 3.22522C141.177 3.22312 141.309 3.24723 141.431 3.29615C141.554 3.34506 141.666 3.41783 141.76 3.51023C141.855 3.60263 141.93 3.71283 141.982 3.83448C142.033 3.95612 142.06 4.08678 142.061 4.21892C142.062 4.35106 142.037 4.48206 141.986 4.60433C141.936 4.7266 141.862 4.83772 141.769 4.93128L136.747 10.0646L141.769 15.1984C141.907 15.3391 142 15.5173 142.037 15.7107C142.073 15.904 142.052 16.1039 141.976 16.2854C141.9 16.4668 141.772 16.6217 141.608 16.7306C141.444 16.8395 141.251 16.8976 141.054 16.8976Z" fill="#171722"/>
<path d="M150.643 16.8976C150.446 16.8976 150.253 16.8395 150.089 16.7306C149.925 16.6217 149.797 16.4668 149.721 16.2854C149.645 16.1039 149.623 15.904 149.66 15.7106C149.697 15.5173 149.79 15.3391 149.928 15.1984L154.949 10.0646L149.928 4.93128C149.834 4.83772 149.761 4.72659 149.71 4.60431C149.66 4.48204 149.635 4.35105 149.636 4.21891C149.637 4.08677 149.664 3.95611 149.715 3.83446C149.767 3.71282 149.842 3.60261 149.936 3.51021C150.031 3.41781 150.143 3.34505 150.266 3.29613C150.388 3.24721 150.52 3.22312 150.652 3.22522C150.784 3.22733 150.914 3.2556 151.035 3.3084C151.156 3.3612 151.266 3.43748 151.357 3.53284L157.063 9.36536C157.246 9.55216 157.348 9.80317 157.348 10.0646C157.348 10.326 157.246 10.577 157.063 10.7638L151.357 16.5968C151.264 16.6922 151.153 16.7679 151.03 16.8196C150.908 16.8712 150.776 16.8978 150.643 16.8976Z" fill="#171722"/>
<path d="M537.153 2.42041H526.543C526.255 2.42032 525.97 2.47692 525.704 2.58695C525.439 2.69697 525.197 2.85828 524.994 3.06166C524.79 3.26504 524.629 3.50649 524.519 3.77223C524.409 4.03798 524.352 4.32279 524.353 4.61041V15.2304C524.352 15.518 524.409 15.8028 524.519 16.0686C524.629 16.3343 524.79 16.5758 524.994 16.7792C525.197 16.9826 525.439 17.1439 525.704 17.2539C525.97 17.3639 526.255 17.4205 526.543 17.4204H537.153C537.735 17.421 538.293 17.1907 538.705 16.7802C539.118 16.3697 539.35 15.8123 539.353 15.2304V4.61041C539.35 4.0285 539.118 3.47116 538.705 3.06062C538.293 2.65009 537.735 2.41985 537.153 2.42041Z" fill="#171722"/>
<path d="M511.153 2.42041H500.543C500.255 2.42032 499.97 2.47692 499.704 2.58695C499.439 2.69697 499.197 2.85828 498.994 3.06166C498.79 3.26504 498.629 3.50649 498.519 3.77223C498.409 4.03798 498.352 4.32279 498.353 4.61041V15.2304C498.352 15.518 498.409 15.8028 498.519 16.0686C498.629 16.3343 498.79 16.5758 498.994 16.7792C499.197 16.9826 499.439 17.1439 499.704 17.2539C499.97 17.3639 500.255 17.4205 500.543 17.4204H511.153C511.735 17.421 512.293 17.1907 512.705 16.7802C513.118 16.3697 513.35 15.8123 513.353 15.2304V4.61041C513.35 4.0285 513.118 3.47116 512.705 3.06062C512.293 2.65009 511.735 2.41985 511.153 2.42041Z" fill="#171722"/>
<path d="M561.653 2.92041H551.043C550.755 2.92032 550.47 2.97692 550.204 3.08695C549.939 3.19697 549.697 3.35828 549.494 3.56166C549.29 3.76504 549.129 4.00649 549.019 4.27223C548.909 4.53798 548.852 4.82279 548.853 5.11041V15.7304C548.852 16.018 548.909 16.3028 549.019 16.5686C549.129 16.8343 549.29 17.0758 549.494 17.2792C549.697 17.4826 549.939 17.6439 550.204 17.7539C550.47 17.8639 550.755 17.9205 551.043 17.9204H561.653C562.235 17.921 562.793 17.6907 563.205 17.2802C563.618 16.8697 563.85 16.3123 563.853 15.7304V5.11041C563.85 4.5285 563.618 3.97116 563.205 3.56062C562.793 3.15009 562.235 2.91985 561.653 2.92041Z" fill="#171722"/>
<path d="M348.877 18.5H279.877C277.49 18.5 275.201 17.5518 273.513 15.864C271.825 14.1761 270.877 11.8869 270.877 9.5C270.877 7.11305 271.825 4.82387 273.513 3.13605C275.201 1.44822 277.49 0.5 279.877 0.5H348.877C351.264 0.5 353.553 1.44822 355.241 3.13605C356.929 4.82387 357.877 7.11305 357.877 9.5C357.877 11.8869 356.929 14.1761 355.241 15.864C353.553 17.5518 351.264 18.5 348.877 18.5Z" fill="#171722"/>
<path d="M235.268 317.9H81.2752C80.3945 317.9 79.5498 317.55 78.927 316.927C78.3042 316.304 77.9543 315.459 77.9543 314.579C77.9543 313.698 78.3042 312.853 78.927 312.23C79.5498 311.608 80.3945 311.258 81.2752 311.258H235.268C236.149 311.258 236.993 311.608 237.616 312.23C238.239 312.853 238.589 313.698 238.589 314.579C238.589 315.459 238.239 316.304 237.616 316.927C236.993 317.55 236.149 317.9 235.268 317.9Z" fill="#171722"/>
<path d="M235.268 223.177H3.3215C2.88492 223.178 2.45246 223.092 2.04889 222.926C1.64532 222.759 1.27855 222.515 0.969574 222.206C0.660593 221.898 0.415479 221.531 0.24823 221.128C0.0809806 220.725 -0.00512695 220.293 -0.00512695 219.856C-0.00512695 219.419 0.0809806 218.987 0.24823 218.584C0.415479 218.181 0.660593 217.814 0.969574 217.506C1.27855 217.197 1.64532 216.953 2.04889 216.786C2.45246 216.62 2.88492 216.534 3.3215 216.535H235.268C236.148 216.537 236.991 216.887 237.613 217.51C238.234 218.132 238.583 218.976 238.583 219.856C238.583 220.736 238.234 221.58 237.613 222.202C236.991 222.825 236.148 223.175 235.268 223.177Z" fill="#171722"/>
<path d="M235.273 246.891H3.31619C2.43576 246.892 1.59193 247.243 0.96991 247.866C0.34789 248.489 -0.00146484 249.334 -0.00146484 250.214C-0.00146484 251.094 0.34789 251.939 0.96991 252.562C1.59193 253.185 2.43576 253.536 3.31619 253.537H235.273C236.153 253.536 236.997 253.185 237.619 252.562C238.241 251.939 238.59 251.094 238.59 250.214C238.59 249.334 238.241 248.489 237.619 247.866C236.997 247.243 236.153 246.892 235.273 246.891Z" fill="#171722"/>
<path d="M235.268 283.898H3.32135C2.4406 283.898 1.59593 283.548 0.973145 282.925C0.350362 282.303 0.000488281 281.458 0.000488281 280.577C0.000488281 279.696 0.350362 278.852 0.973145 278.229C1.59593 277.606 2.4406 277.256 3.32135 277.256H235.268C236.149 277.256 236.993 277.606 237.616 278.229C238.239 278.852 238.589 279.696 238.589 280.577C238.589 281.458 238.239 282.303 237.616 282.925C236.993 283.548 236.149 283.898 235.268 283.898Z" fill="#171722"/>
<path d="M430.582 549.214L419.933 549.213L414.868 508.14L430.584 508.141L430.582 549.214Z" fill="#A0616A"/>
<path d="M430.957 560.323L398.211 560.322V559.908C398.211 556.527 399.554 553.286 401.944 550.896C404.334 548.505 407.576 547.162 410.956 547.162L416.939 542.625L428.099 547.163L430.957 547.163L430.957 560.323Z" fill="#21212C"/>
<path d="M537.725 549.214L527.077 549.213L522.011 508.14L537.728 508.141L537.725 549.214Z" fill="#A0616A"/>
<path d="M538.1 560.323L505.354 560.322V559.908C505.355 556.527 506.698 553.286 509.088 550.896C511.478 548.505 514.72 547.162 518.1 547.162L524.082 542.625L535.242 547.163L538.101 547.163L538.1 560.323Z" fill="#21212C"/>
<path d="M439.27 313.248C439.27 313.248 432.277 320.67 431.981 325.486C431.686 330.301 435.33 321.554 431.686 330.301C428.042 339.047 428.042 333.216 428.042 339.047C428.042 344.878 420.319 350.572 420.319 350.572L407.585 402.964L414.922 525.638H430.957C445.859 480.213 452.792 445.135 444.806 429.427L467.074 379.932C467.074 379.932 509.153 511.601 510.871 513.153C512.59 514.705 512.59 512.518 512.59 514.704C512.59 516.891 510.404 514.705 512.59 516.891L522.795 527.095L538.101 525.638C538.101 525.638 540.149 430.308 523.09 413.832C523.09 413.832 527.03 362.813 523.09 362.957C519.15 363.1 519.15 369.66 519.15 363.1C519.15 356.54 523.819 354.79 523.819 354.79L510.699 308.712L439.27 313.248Z" fill="#21212C"/>
<path d="M521.892 211.685L507.072 273.735L510.572 296.815L514.772 324.465L500.252 323.525L477.782 322.065L436.062 319.365L432.412 196.915L451.552 176.915L454.972 167.205L482.642 167.035L489.262 178.695L506.282 183.535C508.47 184.923 510.525 186.51 512.422 188.275C516.622 192.165 520.342 197.105 522.082 202.165C522.607 203.64 522.939 205.176 523.072 206.735L521.892 211.685Z" fill="#171722"/>
<path d="M393.094 369.122C394.209 368.506 395.177 367.655 395.931 366.628C396.685 365.601 397.206 364.422 397.46 363.174C397.713 361.925 397.692 360.637 397.399 359.397C397.105 358.157 396.546 356.996 395.759 355.994L416.866 317.568L407.673 309.117L382.938 354.939C381.349 356.388 380.348 358.37 380.122 360.508C379.897 362.647 380.465 364.794 381.716 366.542C382.968 368.29 384.818 369.518 386.915 369.994C389.012 370.47 391.211 370.159 393.094 369.122Z" fill="#171722"/>
<path d="M444.574 189.429L439.654 277.564L415.951 332.95L400.524 353.409L402.278 344.138L391.644 338.818L390.645 338.322L411.061 259.094L412.941 228.307C413.265 223.008 414.686 217.835 417.112 213.114C419.538 208.393 422.918 204.227 427.037 200.879L438.845 191.287L444.574 189.429Z" fill="#171722"/>
<path d="M393.094 369.122C394.209 368.506 395.177 367.655 395.931 366.628C396.685 365.601 397.206 364.422 397.46 363.174C397.713 361.925 397.692 360.637 397.399 359.397C397.105 358.157 396.546 356.996 395.759 355.994L416.866 317.568L407.673 309.117L382.938 354.939C381.349 356.388 380.348 358.37 380.122 360.508C379.897 362.647 380.465 364.794 381.716 366.542C382.968 368.29 384.818 369.518 386.915 369.994C389.012 370.47 391.211 370.159 393.094 369.122Z" fill="#A0616A"/>
<path d="M444.574 189.429L439.654 277.564L415.951 332.95L400.524 353.409L402.278 344.138L391.644 338.818L390.645 338.322L411.061 259.094L412.941 228.307C413.265 223.008 414.686 217.835 417.112 213.114C419.538 208.393 422.918 204.227 427.037 200.879L438.845 191.287L444.574 189.429Z" fill="#171722"/>
<path d="M467.419 192.467H240.426C225.656 192.467 213.682 204.441 213.682 219.211V336.314C213.682 351.084 225.656 363.058 240.426 363.058H467.419C482.189 363.058 494.163 351.084 494.163 336.314V219.211C494.163 204.441 482.189 192.467 467.419 192.467Z" fill="#171722"/>
<path d="M467.419 364.058H240.426C233.071 364.05 226.019 361.124 220.817 355.923C215.616 350.722 212.69 343.67 212.682 336.314V219.211C212.69 211.856 215.616 204.804 220.817 199.603C226.019 194.401 233.071 191.476 240.426 191.467H467.419C474.775 191.476 481.827 194.402 487.028 199.603C492.229 204.804 495.155 211.856 495.163 219.211V336.314C495.155 343.67 492.229 350.721 487.028 355.923C481.827 361.124 474.775 364.05 467.419 364.058ZM240.426 193.467C233.599 193.467 227.05 196.18 222.222 201.008C217.394 205.836 214.682 212.384 214.682 219.211V262.981C214.682 289.258 225.121 314.459 243.701 333.039C262.282 351.62 287.482 362.058 313.759 362.058H467.419C474.247 362.058 480.795 359.346 485.623 354.518C490.451 349.69 493.163 343.142 493.163 336.314V219.211C493.163 215.831 492.497 212.483 491.203 209.36C489.91 206.236 488.013 203.398 485.623 201.008C483.232 198.617 480.394 196.721 477.271 195.427C474.147 194.133 470.8 193.467 467.419 193.467L240.426 193.467Z" fill="#3F3D56"/>
<path d="M300.423 316.763H247.423C245.49 316.763 243.923 318.33 243.923 320.263C243.923 322.196 245.49 323.763 247.423 323.763H300.423C302.356 323.763 303.923 322.196 303.923 320.263C303.923 318.33 302.356 316.763 300.423 316.763Z" fill="#4F52FF"/>
<path d="M460.423 307.263H423.423C421.49 307.263 419.923 308.83 419.923 310.763V329.763C419.923 331.696 421.49 333.263 423.423 333.263H460.423C462.356 333.263 463.923 331.696 463.923 329.763V310.763C463.923 308.83 462.356 307.263 460.423 307.263Z" fill="#4F52FF"/>
<path d="M261.923 258.263C271.864 258.263 279.923 250.204 279.923 240.263C279.923 230.322 271.864 222.263 261.923 222.263C251.981 222.263 243.923 230.322 243.923 240.263C243.923 250.204 251.981 258.263 261.923 258.263Z" fill="#4F52FF"/>
<path d="M467.797 161.882C480.279 161.882 490.398 151.762 490.398 139.28C490.398 126.797 480.279 116.678 467.797 116.678C455.314 116.678 445.195 126.797 445.195 139.28C445.195 151.762 455.314 161.882 467.797 161.882Z" fill="#A0616A"/>
<path d="M486.339 150.962C486.515 152.312 484.072 152.455 483.521 151.21C482.971 149.964 483.685 148.553 484.38 147.382L485.992 144.663C486.296 144.151 486.472 143.574 486.508 142.979C486.543 142.385 486.436 141.791 486.195 141.247C485.955 140.702 485.587 140.223 485.124 139.85C484.66 139.476 484.114 139.219 483.531 139.099C485.007 135.781 483.406 131.639 480.466 129.507C477.527 127.376 473.153 131.364 469.587 132.049C466.021 132.733 463.166 130.003 459.915 131.621L461.868 127.119L451.058 131.777L453.57 126.712C450.841 126.861 449.68 130.184 449.136 132.861C448.557 135.714 447.037 139.281 443.935 138.69C443.2 138.526 442.525 138.157 441.99 137.627C441.455 137.096 441.08 136.426 440.909 135.692C438.513 126.451 445.471 116.348 454.694 114.727C455.681 112.004 457.514 109.668 459.924 108.061C462.334 106.455 465.196 105.663 468.089 105.801C470.982 105.938 473.756 106.999 476.002 108.827C478.249 110.655 479.852 113.155 480.575 115.959L483.599 112.257L484.189 117.503C486.362 117.272 488.415 118.806 489.472 120.72C490.528 122.633 490.029 125.103 491.043 127.039C495.587 135.716 494.084 145.485 487.066 152.14" fill="#21212C"/>
<path d="M565.609 545.198C566.074 545.219 566.534 545.097 566.928 544.848C567.321 544.599 567.628 544.236 567.807 543.806C567.987 543.377 568.03 542.903 567.931 542.448C567.832 541.994 567.596 541.58 567.254 541.265L567.099 540.646C567.119 540.597 567.14 540.547 567.16 540.498C567.629 539.392 568.413 538.449 569.416 537.787C570.418 537.126 571.594 536.775 572.795 536.78C573.996 536.784 575.169 537.143 576.167 537.812C577.164 538.481 577.942 539.43 578.402 540.54C580.24 544.968 582.581 549.404 583.158 554.086C583.411 556.155 583.304 558.253 582.841 560.286C587.16 550.866 589.402 540.628 589.416 530.265C589.417 527.665 589.273 525.067 588.984 522.482C588.745 520.364 588.413 518.26 587.989 516.172C585.674 504.841 580.705 494.22 573.489 485.183C569.996 483.277 567.172 480.346 565.396 476.786C564.752 475.506 564.298 474.14 564.046 472.73C564.44 472.782 565.531 466.781 565.234 466.413C565.783 465.58 566.766 465.166 567.366 464.353C570.348 460.309 574.457 461.015 576.602 466.51C581.184 468.823 581.229 472.658 578.417 476.347C576.628 478.694 576.382 481.869 574.813 484.382C574.974 484.588 575.142 484.789 575.304 484.995C578.255 488.791 580.828 492.866 582.985 497.164C582.46 492.349 583.086 487.479 584.811 482.954C586.559 478.737 589.836 475.185 592.722 471.539C593.485 470.56 594.521 469.829 595.7 469.438C596.879 469.048 598.146 469.015 599.343 469.345C600.54 469.675 601.613 470.353 602.425 471.292C603.237 472.231 603.752 473.39 603.906 474.623C603.912 474.676 603.917 474.73 603.923 474.784C603.494 475.025 603.075 475.282 602.664 475.554C602.149 475.898 601.749 476.391 601.518 476.966C601.287 477.542 601.235 478.173 601.369 478.779C601.503 479.384 601.817 479.935 602.27 480.359C602.722 480.783 603.292 481.061 603.905 481.155L603.968 481.165C603.815 482.71 603.546 484.241 603.161 485.744C606.863 500.06 598.871 505.274 587.459 505.509C587.207 505.638 586.962 505.767 586.71 505.89C588.877 512.03 590.236 518.426 590.753 524.917C591.046 528.747 591.029 532.594 590.702 536.421L590.721 536.285C591.548 532.03 593.818 528.19 597.148 525.415C602.093 521.352 609.08 519.856 614.416 516.591C614.983 516.226 615.642 516.032 616.316 516.03C616.99 516.029 617.65 516.22 618.219 516.581C618.788 516.942 619.241 517.459 619.526 518.07C619.811 518.68 619.916 519.36 619.827 520.028L619.805 520.17C619.01 520.494 618.236 520.867 617.487 521.288C617.058 521.529 616.638 521.786 616.228 522.057C615.712 522.402 615.313 522.894 615.081 523.47C614.85 524.045 614.799 524.677 614.933 525.283C615.067 525.888 615.381 526.439 615.833 526.863C616.286 527.287 616.856 527.565 617.469 527.659L617.532 527.669C617.577 527.675 617.616 527.682 617.661 527.688C616.302 530.933 614.395 533.92 612.022 536.518C609.708 549.015 599.766 550.2 589.132 546.561H589.126C587.959 551.631 586.268 556.567 584.081 561.287H566.061C565.996 561.087 565.938 560.88 565.88 560.68C567.548 560.785 569.223 560.685 570.866 560.383C569.529 558.743 568.192 557.089 566.855 555.449C566.826 555.418 566.798 555.385 566.771 555.352C566.093 554.512 565.409 553.679 564.73 552.839L564.73 552.838C564.694 550.264 564.99 547.696 565.609 545.198Z" fill="#171722"/>
<path d="M287.058 561.341C287.058 561.497 287.088 561.652 287.148 561.797C287.207 561.941 287.295 562.073 287.406 562.183C287.516 562.294 287.648 562.382 287.792 562.441C287.937 562.501 288.092 562.531 288.248 562.531H618.538C618.854 562.531 619.156 562.405 619.38 562.182C619.603 561.959 619.728 561.656 619.728 561.341C619.728 561.025 619.603 560.723 619.38 560.499C619.156 560.276 618.854 560.151 618.538 560.151H288.248C288.092 560.15 287.937 560.181 287.792 560.24C287.648 560.3 287.516 560.388 287.406 560.498C287.295 560.609 287.207 560.74 287.148 560.885C287.088 561.03 287.058 561.184 287.058 561.341Z" fill="#CCCCCC"/>
<path d="M477.423 363.774C478.515 363.118 479.452 362.233 480.169 361.18C480.886 360.127 481.365 358.93 481.574 357.674C481.783 356.417 481.716 355.13 481.379 353.902C481.041 352.673 480.441 351.533 479.62 350.559L499.348 311.407L489.86 303.288L466.769 349.96C465.233 351.465 464.302 353.481 464.153 355.626C464.004 357.771 464.647 359.896 465.96 361.599C467.274 363.302 469.166 364.464 471.278 364.864C473.391 365.265 475.577 364.877 477.423 363.774Z" fill="#A0616A"/>
<path d="M522.082 202.165L523.072 206.735L520.702 270.615L510.572 296.815L500.252 323.525L498.982 326.815L484.292 347.805L485.712 338.475L474.892 333.535L473.882 333.085L477.782 322.065L486.752 296.745L490.632 285.785L491.472 253.175L492.252 222.345C492.388 217.039 493.623 211.819 495.88 207.015C498.136 202.211 501.365 197.927 505.362 194.435L512.422 188.275C516.622 192.165 520.342 197.105 522.082 202.165Z" fill="#171722"/>
<path d="M286.072 361.747L239.194 360.747C233.363 360.739 227.773 358.418 223.65 354.294C219.528 350.169 217.209 344.579 217.202 338.747L215.202 289.735C220.958 329.693 243.078 355.04 286.072 361.747Z" fill="#4F52FF"/>
</g>
<defs>
<clipPath id="clip0_296_595">
<rect width="619.868" height="562.031" fill="white" transform="translate(0 0.5)"/>
</clipPath>
</defs>
</svg>
