<svg width="599" height="536" viewBox="0 0 599 536" fill="none" xmlns="http://www.w3.org/2000/svg">
<g clip-path="url(#clip0_296_571)">
<path d="M3.35162 120.574C2.18043 120.904 1.18771 121.684 0.591246 122.744C-0.00521785 123.805 -0.156731 125.059 0.16995 126.23L76.8862 400.209C77.2156 401.38 77.9961 402.373 79.0565 402.969C80.1169 403.566 81.3706 403.717 82.5425 403.39L365.357 324.2C366.528 323.87 367.521 323.09 368.118 322.029C368.714 320.969 368.866 319.715 368.539 318.543L291.823 44.5652C291.493 43.394 290.713 42.4013 289.652 41.8049C288.592 41.2084 287.338 41.0569 286.166 41.3836L3.35162 120.574Z" fill="#171722"/>
<path d="M86.0965 390.453L355.601 314.989L282.612 54.3208L13.1072 129.784L86.0965 390.453Z" fill="#171722"/>
<path d="M48.7392 164.591C46.9411 165.095 46.1998 168.081 47.0867 171.249C47.9736 174.416 50.1583 176.584 51.9563 176.08L174.873 141.663C176.672 141.159 177.413 138.172 176.526 135.005C175.639 131.837 173.454 129.67 171.656 130.173L48.7392 164.591Z" fill="#171722"/>
<path d="M58.6381 199.943C56.84 200.447 56.0987 203.433 56.9856 206.601C57.8726 209.768 60.0572 211.936 61.8552 211.432L184.772 177.015C186.57 176.511 187.312 173.524 186.425 170.357C185.538 167.189 183.353 165.022 181.555 165.525L58.6381 199.943Z" fill="#171722"/>
<path d="M68.4228 234.887C66.6247 235.391 65.8834 238.378 66.7703 241.545C67.6572 244.713 69.8418 246.88 71.6399 246.377L194.557 211.959C196.355 211.455 197.096 208.469 196.21 205.301C195.323 202.134 193.138 199.966 191.34 200.47L68.4228 234.887Z" fill="#171722"/>
<path d="M78.3215 270.239C76.5234 270.743 75.7821 273.73 76.669 276.897C77.5559 280.065 79.7405 282.232 81.5386 281.729L204.456 247.311C206.254 246.808 206.995 243.821 206.108 240.653C205.221 237.486 203.037 235.318 201.239 235.822L78.3215 270.239Z" fill="#171722"/>
<path d="M234.036 113.115C233.28 113.325 232.574 113.683 231.957 114.166C231.34 114.65 230.824 115.25 230.44 115.934C230.055 116.617 229.809 117.369 229.715 118.147C229.621 118.926 229.681 119.715 229.893 120.47C230.104 121.225 230.462 121.931 230.947 122.547C231.431 123.164 232.032 123.678 232.716 124.062C233.399 124.446 234.152 124.692 234.93 124.785C235.709 124.878 236.498 124.816 237.253 124.604L260.231 118.17C261.755 117.743 263.047 116.729 263.822 115.35C264.598 113.971 264.794 112.34 264.368 110.817C263.941 109.293 262.927 108.001 261.548 107.226C260.169 106.45 258.538 106.254 257.014 106.68L234.036 113.115Z" fill="#171722"/>
<path d="M243.743 147.781C242.987 147.992 242.281 148.349 241.664 148.833C241.047 149.316 240.531 149.917 240.147 150.6C239.762 151.283 239.516 152.035 239.422 152.814C239.328 153.592 239.388 154.381 239.6 155.136C239.811 155.891 240.169 156.597 240.654 157.214C241.138 157.83 241.739 158.345 242.423 158.729C243.106 159.113 243.859 159.358 244.637 159.451C245.416 159.544 246.205 159.483 246.96 159.271L269.938 152.836C271.462 152.41 272.754 151.395 273.529 150.016C274.305 148.637 274.501 147.007 274.075 145.483C273.648 143.959 272.634 142.668 271.255 141.892C269.876 141.116 268.245 140.92 266.721 141.347L243.743 147.781Z" fill="#171722"/>
<path d="M253.449 182.448C252.695 182.659 251.99 183.017 251.373 183.501C250.757 183.984 250.242 184.585 249.858 185.268C249.474 185.95 249.228 186.702 249.135 187.48C249.041 188.258 249.102 189.047 249.313 189.801C249.524 190.555 249.882 191.261 250.366 191.877C250.85 192.493 251.45 193.008 252.133 193.392C252.816 193.776 253.568 194.022 254.346 194.115C255.123 194.209 255.912 194.148 256.666 193.937L279.645 187.503C281.169 187.076 282.46 186.062 283.236 184.683C284.012 183.304 284.208 181.673 283.781 180.15C283.355 178.626 282.34 177.334 280.961 176.559C279.582 175.783 277.952 175.587 276.428 176.013L253.449 182.448Z" fill="#171722"/>
<path d="M263.156 217.114C261.634 217.542 260.345 218.557 259.57 219.935C258.796 221.314 258.601 222.943 259.027 224.466C259.453 225.988 260.466 227.279 261.844 228.055C263.221 228.831 264.851 229.028 266.374 228.604L289.352 222.169C290.874 221.741 292.164 220.727 292.938 219.348C293.713 217.97 293.908 216.34 293.482 214.818C293.055 213.296 292.042 212.005 290.665 211.229C289.287 210.453 287.658 210.256 286.135 210.68L263.156 217.114Z" fill="#171722"/>
<path d="M272.43 277.203C271.468 277.472 270.568 277.927 269.782 278.543C268.996 279.16 268.339 279.925 267.848 280.795C267.358 281.666 267.044 282.624 266.925 283.616C266.805 284.608 266.882 285.613 267.152 286.575C267.421 287.537 267.877 288.437 268.495 289.222C269.112 290.008 269.878 290.664 270.749 291.153C271.62 291.642 272.579 291.955 273.571 292.073C274.562 292.192 275.568 292.114 276.53 291.843L305.809 283.645C307.751 283.101 309.397 281.808 310.385 280.051C311.373 278.294 311.623 276.216 311.08 274.275C310.536 272.334 309.244 270.688 307.486 269.699C305.729 268.711 303.651 268.461 301.71 269.005L272.43 277.203Z" fill="#4F52FF"/>
<path d="M302.564 247.637L85.8975 308.305L86.4367 310.231L303.103 249.563L302.564 247.637Z" fill="#171722"/>
<path d="M520.202 506.572L502.825 510.773L478.352 445.747L503.999 439.547L520.202 506.572Z" fill="#A0616A"/>
<path d="M472.845 535.614L472.728 535.128C471.35 529.404 472.3 523.366 475.369 518.341C478.437 513.316 483.374 509.713 489.096 508.323L523.094 500.104L528.43 522.177L472.845 535.614Z" fill="#21212C"/>
<path d="M443.276 518.41L425.399 518.409L416.894 449.453L443.279 449.454L443.276 518.41Z" fill="#A0616A"/>
<path d="M447.606 535.511L390.42 535.508V535.008C390.42 529.118 392.76 523.47 396.925 519.305C401.09 515.14 406.738 512.801 412.628 512.801H412.629L447.607 512.802L447.606 535.511Z" fill="#21212C"/>
<path d="M416.88 491.49L399.521 284.619L471.378 271.374L471.661 271.323L492.693 284.843L485.373 360.977L519.077 479.675L489.975 487.334L456.217 377.248L448.491 343.771L444.532 387.271L447.471 494.549L416.88 491.49Z" fill="#21212C"/>
<path d="M397.296 289.311L397.106 289.07L421.936 102.113L421.969 101.868L422.144 101.693C422.51 101.327 431.209 92.7299 440.158 92.7299C441.451 92.7299 442.682 92.6972 443.861 92.6673C450.709 92.4893 456.118 92.3469 462.547 98.7764C469.096 105.326 490.466 129.241 490.466 161.996C490.466 193.699 493.353 292.223 493.383 293.214L493.423 294.606L492.256 293.847C491.968 293.662 463.226 275.36 439.12 292.373C431.587 297.69 424.819 299.554 419.033 299.554C405.565 299.554 397.411 289.458 397.296 289.311Z" fill="#4F52FF"/>
<path d="M453.536 77.304C470.893 67.8162 477.271 46.0547 467.784 28.6983C458.296 11.342 436.534 4.96326 419.178 14.4511C401.822 23.9389 395.443 45.7005 404.931 63.0568C414.419 80.4132 436.18 86.7918 453.536 77.304Z" fill="#A0616A"/>
<path d="M381.53 329.49C383.224 328.177 384.61 326.508 385.59 324.601C386.57 322.694 387.12 320.596 387.201 318.454C387.282 316.312 386.892 314.178 386.06 312.202C385.227 310.227 383.971 308.458 382.381 307.021L402.72 259.045L376.089 263.946L360.857 308.754C358.619 311.585 357.498 315.14 357.705 318.743C357.913 322.346 359.435 325.748 361.983 328.304C364.531 330.86 367.929 332.393 371.531 332.611C375.134 332.83 378.691 331.719 381.53 329.49Z" fill="#A0616A"/>
<path d="M361.879 292.171L368.429 278.343C368.024 278.1 367.691 277.754 367.462 277.341C361.343 266.736 398.304 178.668 400.768 172.827C400.392 169.65 396.512 135.983 399.349 124.634C402.689 111.275 409.547 105.05 422.279 103.816C436.32 102.498 440.109 121.566 440.145 121.759L440.158 170.779L424.043 227.207L387.291 302.18L361.879 292.171Z" fill="#4F52FF"/>
<path d="M440.937 59.371C436.643 59.9296 433.405 55.5368 431.903 51.4762C430.4 47.4155 429.256 42.6881 425.523 40.4946C420.423 37.4978 413.898 41.1021 408.067 40.1134C401.481 38.9968 397.198 32.017 396.863 25.3454C396.527 18.6738 399.182 12.2573 401.787 6.10617L402.697 13.7506C402.575 11.1597 403.12 8.58093 404.28 6.26097C405.44 3.94101 407.176 1.95744 409.321 0.5L408.149 11.717C408.884 5.43296 415.654 0.563671 421.845 1.86592L421.661 8.54941C429.268 7.64489 436.941 6.7391 444.57 7.42821C452.199 8.11732 459.882 10.5312 465.665 15.5557C474.314 23.0716 477.473 35.4474 476.413 46.857C475.352 58.2666 470.642 68.9851 465.733 79.3392C464.498 81.9443 462.79 84.884 459.926 85.2159C457.353 85.5141 454.998 83.363 454.198 80.8992C453.399 78.4353 453.789 75.7586 454.268 73.2129C454.992 69.3671 455.904 65.4362 455.224 61.5826C454.543 57.7289 451.771 53.9208 447.886 53.4485C444.001 52.9763 440.026 57.4166 441.894 60.8554L440.937 59.371Z" fill="#21212C"/>
</g>
<defs>
<clipPath id="clip0_296_571">
<rect width="598.111" height="535.114" fill="white" transform="translate(0 0.5)"/>
</clipPath>
</defs>
</svg>
