<svg width="599" height="536" viewBox="0 0 599 536" fill="none" xmlns="http://www.w3.org/2000/svg">
<mask id="mask0_530_291" style="mask-type:luminance" maskUnits="userSpaceOnUse" x="0" y="0" width="599" height="536">
<path d="M598.111 0.5H0V535.614H598.111V0.5Z" fill="white"/>
</mask>
<g mask="url(#mask0_530_291)">
<path d="M3.35162 120.574C2.18043 120.904 1.18771 121.684 0.591246 122.744C-0.00521761 123.805 -0.156731 125.059 0.16995 126.23L76.8862 400.209C77.2156 401.38 77.9961 402.373 79.0565 402.969C80.1169 403.566 81.3706 403.717 82.5425 403.39L365.357 324.2C366.528 323.87 367.521 323.09 368.118 322.029C368.714 320.969 368.866 319.715 368.539 318.543L291.823 44.5652C291.493 43.394 290.713 42.4013 289.652 41.8049C288.592 41.2084 287.338 41.0569 286.166 41.3836L3.35162 120.574Z" fill="#171722"/>
<path d="M86.0965 390.453L355.601 314.989L282.612 54.3203L13.1072 129.784L86.0965 390.453Z" fill="#171722"/>
<path d="M48.7392 164.59C46.9411 165.094 46.1998 168.08 47.0867 171.248C47.9736 174.415 50.1583 176.583 51.9563 176.079L174.873 141.662C176.672 141.158 177.413 138.171 176.526 135.004C175.639 131.836 173.454 129.669 171.656 130.172L48.7392 164.59Z" fill="#171722"/>
<path d="M58.6381 199.944C56.84 200.448 56.0987 203.434 56.9856 206.602C57.8726 209.769 60.0572 211.937 61.8552 211.433L184.772 177.016C186.57 176.512 187.312 173.525 186.425 170.358C185.538 167.19 183.353 165.023 181.555 165.526L58.6381 199.944Z" fill="#171722"/>
<path d="M68.4228 234.886C66.6247 235.39 65.8834 238.377 66.7703 241.544C67.6572 244.712 69.8418 246.879 71.6399 246.376L194.557 211.958C196.355 211.454 197.096 208.468 196.21 205.3C195.323 202.133 193.138 199.965 191.34 200.469L68.4228 234.886Z" fill="#171722"/>
<path d="M78.3215 270.24C76.5234 270.744 75.7821 273.731 76.669 276.898C77.5559 280.066 79.7405 282.233 81.5386 281.73L204.456 247.312C206.254 246.809 206.995 243.822 206.108 240.654C205.221 237.487 203.037 235.319 201.239 235.823L78.3215 270.24Z" fill="#171722"/>
<path d="M234.036 113.115C233.28 113.325 232.574 113.683 231.957 114.166C231.34 114.65 230.824 115.25 230.44 115.934C230.055 116.617 229.809 117.369 229.715 118.147C229.621 118.926 229.681 119.715 229.893 120.47C230.104 121.225 230.462 121.931 230.947 122.547C231.431 123.164 232.032 123.678 232.716 124.062C233.399 124.446 234.152 124.692 234.93 124.785C235.709 124.878 236.498 124.816 237.253 124.604L260.231 118.17C261.755 117.743 263.047 116.729 263.822 115.35C264.598 113.971 264.794 112.34 264.368 110.817C263.941 109.293 262.927 108.001 261.548 107.226C260.169 106.45 258.538 106.254 257.014 106.68L234.036 113.115Z" fill="#171722"/>
<path d="M243.743 147.78C242.987 147.991 242.281 148.348 241.664 148.832C241.047 149.315 240.531 149.916 240.147 150.599C239.762 151.282 239.516 152.034 239.422 152.813C239.328 153.591 239.388 154.38 239.6 155.135C239.811 155.89 240.169 156.596 240.654 157.213C241.138 157.829 241.739 158.344 242.423 158.728C243.106 159.112 243.859 159.357 244.637 159.45C245.416 159.543 246.205 159.482 246.96 159.27L269.938 152.835C271.462 152.409 272.754 151.394 273.529 150.015C274.305 148.636 274.501 147.006 274.075 145.482C273.648 143.958 272.634 142.667 271.255 141.891C269.876 141.115 268.245 140.919 266.721 141.346L243.743 147.78Z" fill="#171722"/>
<path d="M253.449 182.449C252.695 182.66 251.99 183.018 251.373 183.502C250.757 183.985 250.242 184.586 249.858 185.269C249.474 185.951 249.228 186.703 249.135 187.481C249.041 188.259 249.102 189.047 249.313 189.801C249.524 190.555 249.882 191.262 250.366 191.878C250.85 192.494 251.45 193.009 252.133 193.393C252.816 193.777 253.568 194.023 254.346 194.116C255.123 194.21 255.912 194.149 256.666 193.938L279.645 187.504C281.169 187.077 282.46 186.063 283.236 184.684C284.012 183.305 284.208 181.673 283.781 180.15C283.355 178.626 282.34 177.335 280.961 176.56C279.582 175.784 277.952 175.588 276.428 176.014L253.449 182.449Z" fill="#171722"/>
<path d="M263.156 217.114C261.634 217.542 260.345 218.557 259.57 219.935C258.796 221.314 258.601 222.943 259.027 224.466C259.453 225.988 260.466 227.279 261.844 228.055C263.221 228.831 264.851 229.028 266.374 228.604L289.352 222.169C290.874 221.741 292.164 220.727 292.938 219.348C293.713 217.97 293.908 216.34 293.482 214.818C293.055 213.296 292.042 212.005 290.665 211.229C289.287 210.453 287.658 210.256 286.135 210.68L263.156 217.114Z" fill="#171722"/>
<path d="M272.43 277.202C271.468 277.471 270.568 277.926 269.782 278.542C268.996 279.159 268.339 279.924 267.848 280.794C267.358 281.665 267.044 282.623 266.925 283.615C266.805 284.607 266.882 285.612 267.152 286.574C267.421 287.536 267.877 288.436 268.495 289.221C269.112 290.007 269.878 290.663 270.749 291.152C271.62 291.641 272.579 291.954 273.571 292.072C274.562 292.191 275.568 292.113 276.53 291.842L305.809 283.644C307.751 283.1 309.397 281.807 310.385 280.05C311.373 278.293 311.623 276.215 311.08 274.274C310.536 272.333 309.244 270.687 307.486 269.698C305.729 268.71 303.651 268.46 301.71 269.004L272.43 277.202Z" fill="#965FDB"/>
<path d="M302.564 247.637L85.8975 308.305L86.4367 310.231L303.103 249.563L302.564 247.637Z" fill="#171722"/>
<path d="M520.202 506.572L502.825 510.773L478.352 445.747L503.999 439.547L520.202 506.572Z" fill="#A0616A"/>
<path d="M472.845 535.614L472.728 535.128C471.35 529.404 472.3 523.366 475.369 518.341C478.437 513.316 483.374 509.713 489.096 508.323L523.094 500.104L528.43 522.177L472.845 535.614Z" fill="#21212C"/>
<path d="M443.276 518.41L425.399 518.409L416.894 449.453L443.279 449.454L443.276 518.41Z" fill="#A0616A"/>
<path d="M447.606 535.511L390.42 535.508V535.008C390.42 529.118 392.76 523.47 396.925 519.305C401.09 515.14 406.738 512.801 412.628 512.801H412.629L447.607 512.802L447.606 535.511Z" fill="#21212C"/>
<path d="M416.88 491.489L399.521 284.618L471.378 271.373L471.661 271.322L492.693 284.842L485.373 360.976L519.077 479.674L489.975 487.333L456.217 377.247L448.491 343.77L444.532 387.27L447.471 494.548L416.88 491.489Z" fill="#21212C"/>
<path d="M397.296 289.311L397.106 289.07L421.936 102.113L421.969 101.868L422.144 101.693C422.51 101.327 431.209 92.7299 440.158 92.7299C441.451 92.7299 442.682 92.6972 443.861 92.6673C450.709 92.4893 456.118 92.3469 462.547 98.7764C469.096 105.326 490.466 129.241 490.466 161.996C490.466 193.699 493.353 292.223 493.383 293.214L493.423 294.606L492.256 293.847C491.968 293.662 463.226 275.36 439.12 292.373C431.587 297.69 424.819 299.554 419.033 299.554C405.565 299.554 397.411 289.458 397.296 289.311Z" fill="#965FDB"/>
<path d="M453.536 77.3034C470.893 67.8156 477.271 46.054 467.784 28.6976C458.296 11.3413 436.534 4.96261 419.178 14.4505C401.822 23.9383 395.443 45.6999 404.931 63.0562C414.419 80.4126 436.18 86.7912 453.536 77.3034Z" fill="#A0616A"/>
<path d="M381.53 329.49C383.224 328.177 384.61 326.508 385.59 324.601C386.57 322.694 387.12 320.596 387.201 318.454C387.282 316.312 386.892 314.178 386.06 312.202C385.227 310.227 383.971 308.458 382.381 307.021L402.72 259.045L376.089 263.946L360.857 308.754C358.619 311.585 357.498 315.14 357.705 318.743C357.913 322.346 359.435 325.748 361.983 328.304C364.531 330.86 367.929 332.393 371.531 332.611C375.134 332.83 378.691 331.719 381.53 329.49Z" fill="#A0616A"/>
<path d="M361.879 292.17L368.429 278.342C368.024 278.099 367.691 277.753 367.462 277.34C361.343 266.735 398.304 178.667 400.768 172.826C400.392 169.649 396.512 135.982 399.349 124.633C402.689 111.274 409.547 105.049 422.279 103.815C436.32 102.497 440.109 121.565 440.145 121.758L440.158 170.778L424.043 227.206L387.291 302.179L361.879 292.17Z" fill="#965FDB"/>
<path d="M440.937 59.371C436.643 59.9296 433.405 55.5368 431.903 51.4762C430.4 47.4155 429.256 42.6881 425.523 40.4946C420.423 37.4978 413.898 41.1021 408.067 40.1134C401.481 38.9968 397.198 32.017 396.863 25.3454C396.527 18.6738 399.182 12.2573 401.787 6.10617L402.697 13.7506C402.575 11.1597 403.12 8.58093 404.28 6.26097C405.44 3.94101 407.176 1.95744 409.321 0.5L408.149 11.717C408.884 5.43296 415.654 0.563671 421.845 1.86592L421.661 8.54941C429.268 7.64489 436.941 6.7391 444.57 7.42821C452.199 8.11732 459.882 10.5312 465.665 15.5557C474.314 23.0716 477.473 35.4474 476.413 46.857C475.352 58.2666 470.642 68.9851 465.733 79.3392C464.498 81.9443 462.79 84.884 459.926 85.2159C457.353 85.5141 454.998 83.363 454.198 80.8992C453.399 78.4353 453.789 75.7586 454.268 73.2129C454.992 69.3671 455.904 65.4362 455.224 61.5826C454.543 57.7289 451.771 53.9208 447.886 53.4485C444.001 52.9763 440.026 57.4166 441.894 60.8554L440.937 59.371Z" fill="#21212C"/>
</g>
</svg>
