<svg width="816" height="550" viewBox="0 0 816 550" fill="none" xmlns="http://www.w3.org/2000/svg">
<mask id="mask0_530_264" style="mask-type:luminance" maskUnits="userSpaceOnUse" x="0" y="0" width="816" height="550">
<path d="M816 0.607422H0V549.394H816V0.607422Z" fill="white"/>
</mask>
<g mask="url(#mask0_530_264)">
<path d="M654.83 72.2198L657.448 51.2361C657.907 47.5424 659.089 43.9754 660.927 40.7389C662.766 37.5023 665.223 34.6596 668.161 32.3731C671.098 30.0866 674.456 28.4012 678.045 27.4131C681.634 26.4251 685.382 26.1537 689.075 26.6145C692.769 27.0753 696.335 28.2592 699.571 30.0987C702.807 31.9382 705.649 34.3972 707.934 37.3352C710.219 40.2732 711.903 43.6326 712.89 47.2216C713.876 50.8106 714.146 54.5588 713.684 58.2521L711.066 79.2358C710.94 80.2371 710.422 81.1475 709.625 81.7672C708.829 82.387 707.819 82.6655 706.818 82.5417L658.135 76.4682C657.134 76.3421 656.224 75.824 655.604 75.0276C654.984 74.2312 654.706 73.2214 654.83 72.2198Z" fill="#21212C"/>
<path d="M678.149 78.4798C689.623 78.4798 698.924 69.1785 698.924 57.7048C698.924 46.231 689.623 36.9297 678.149 36.9297C666.675 36.9297 657.374 46.231 657.374 57.7048C657.374 69.1785 666.675 78.4798 678.149 78.4798Z" fill="#FFB8B8"/>
<path d="M650.586 52.0846C651.328 46.1884 654.379 40.8273 659.07 37.1777C663.76 33.528 669.706 31.8878 675.604 32.6168L679.801 33.1405C685.697 33.8828 691.058 36.9338 694.708 41.6239C698.357 46.314 699.997 52.2602 699.268 58.1581L699.216 58.5778L690.347 57.4713L688.379 48.6234L686.717 57.0185L682.133 56.4466L681.14 51.9824L680.302 56.2181L650.534 52.5043L650.586 52.0846Z" fill="#21212C"/>
<path d="M576.539 131.814C577.174 133.06 578.074 134.153 579.177 135.013C580.28 135.874 581.558 136.483 582.922 136.797C584.285 137.11 585.701 137.121 587.069 136.828C588.437 136.536 589.724 135.946 590.84 135.102L609.709 146.156L619.223 136.327L592.357 121.092C590.814 119.311 588.673 118.158 586.337 117.852C584.002 117.545 581.635 118.105 579.685 119.427C577.736 120.749 576.338 122.739 575.758 125.022C575.179 127.305 575.456 129.722 576.539 131.814Z" fill="#FFB8B8"/>
<path d="M638.383 151.674C624.464 151.674 599.972 145.444 598.616 145.096L598.188 144.986L602.042 125.469L639.452 132.858L659.775 104.239L683.108 101.867L682.457 102.724C682.154 103.123 652.076 142.717 647.395 149.359C646.214 151.035 642.84 151.674 638.383 151.674Z" fill="#3F3D56"/>
<path d="M642.114 224.927L641.557 224.661C641.439 224.604 629.614 218.853 623.489 207.624C617.393 196.448 645.929 149.04 647.925 145.75L647.954 130.694L658.219 102.979L671.311 95.5801L660.071 121.806L642.114 224.927Z" fill="#3F3D56"/>
<path d="M628.999 386.743L616.487 386.742L610.535 338.482L629.001 338.483L628.999 386.743Z" fill="#FFB8B8"/>
<path d="M632.19 398.872L591.846 398.871V398.361C591.846 394.196 593.501 390.202 596.445 387.257C599.39 384.312 603.384 382.658 607.549 382.658L632.19 382.659V398.872Z" fill="#21212C"/>
<path d="M763.392 375.779L751.502 379.675L730.818 335.667L748.367 329.918L763.392 375.779Z" fill="#FFB8B8"/>
<path d="M770.201 386.31L731.863 398.871L731.704 398.386C730.407 394.429 730.736 390.118 732.617 386.403C734.499 382.687 737.779 379.872 741.736 378.575L741.737 378.574L765.153 370.902L770.201 386.31Z" fill="#21212C"/>
<path d="M739.167 367.888L703.499 308.341L673.389 244.723L646.294 300.919L635.53 373.703L597.783 374.227L597.931 373.637L655.697 144.109L700.938 150.868L698.879 180.731L700.105 182.475C710.325 196.993 720.892 212.004 714.832 228.185L732.013 279.2L770.044 364.145L739.167 367.888Z" fill="#21212C"/>
<path d="M657.764 193.855C651.209 193.855 643.729 186.369 647.609 173.59L647.358 173.408L656.678 132.231C648.544 120.6 659.268 111 660.273 110.142L665.391 100.929L687.976 86.6055L699.403 181.551L699.234 181.713C690.981 189.609 663.263 193.855 657.764 193.855Z" fill="#965FDB"/>
<path d="M704.017 215.28C703.119 215.294 702.224 215.199 701.349 214.998C700.471 214.777 699.049 213.659 696.851 206.505C688.116 178.063 677.802 92.4841 685.295 84.1097L685.467 83.9178L697.77 85.9682C698.792 85.2135 704.159 81.4672 709.111 82.1187C710.131 82.2469 711.113 82.5829 711.998 83.1057C712.882 83.6286 713.65 84.3273 714.254 85.1587L714.339 85.2697L718.258 141.03L732.617 206.649L732.273 206.805C731.438 207.185 713.508 215.28 704.017 215.28Z" fill="#3F3D56"/>
<path d="M695.743 193.485C697.141 193.438 698.512 193.085 699.759 192.452C701.007 191.818 702.1 190.918 702.962 189.816C703.824 188.714 704.433 187.437 704.748 186.073C705.063 184.71 705.075 183.295 704.783 181.926L722.794 169.522L717.925 156.738L692.737 174.613C690.471 175.255 688.519 176.706 687.251 178.691C685.983 180.677 685.487 183.058 685.858 185.384C686.228 187.71 687.439 189.82 689.261 191.313C691.083 192.806 693.389 193.578 695.743 193.485Z" fill="#FFB8B8"/>
<path d="M716.851 179.463L700.809 167.698L723.359 136.948L706.054 106.41L713.796 84.2715L714.296 85.225C714.529 85.669 737.639 129.694 741.671 136.749C745.865 144.088 718.307 177.695 717.132 179.121L716.851 179.463Z" fill="#3F3D56"/>
<path d="M559.339 245.025L264.565 255.017C257.28 255.255 250.197 252.594 244.871 247.618C239.545 242.641 236.41 235.754 236.155 228.469L231.301 85.2466C231.062 77.961 233.723 70.8782 238.7 65.552C243.677 60.2259 250.563 57.0915 257.848 56.8363L552.621 46.8449C559.907 46.6062 566.99 49.2672 572.316 54.244C577.642 59.2209 580.776 66.1073 581.031 73.3923L585.886 216.615C586.125 223.901 583.464 230.983 578.487 236.31C573.51 241.636 566.624 244.77 559.339 245.025Z" fill="#171722"/>
<path d="M585.886 216.615L585.912 217.373C586.147 224.333 583.607 231.101 578.852 236.189C574.096 241.276 567.515 244.266 560.555 244.501L264.308 254.542C257.349 254.777 250.582 252.239 245.495 247.485C240.408 242.732 237.417 236.152 237.18 229.193L237.155 228.436L585.886 216.615Z" fill="#171722"/>
<path d="M294.881 101.43C273.652 107.444 253.875 91.6243 250.002 76.4581L251.483 76.1411C269.392 71.5409 289.972 83.7565 294.881 101.43Z" fill="#965FDB"/>
<path d="M504.771 203.816C499.988 203.978 496.137 202.685 493.322 199.972C486.96 193.839 486.931 181.603 486.908 171.772C486.901 168.912 486.894 166.21 486.732 163.952L486.73 163.918C486.602 159.5 488.222 155.211 491.239 151.981C494.255 148.751 498.425 146.842 502.841 146.668L542.49 145.324C547.266 145.162 551.114 146.454 553.927 149.163C560.288 155.291 560.321 167.523 560.348 177.352C560.356 180.219 560.363 182.926 560.528 185.188C560.662 189.612 559.044 193.91 556.026 197.147C553.008 200.384 548.833 202.298 544.41 202.473L504.771 203.816ZM488.395 163.85C488.56 166.162 488.567 168.885 488.574 171.768C488.596 181.285 488.625 193.129 494.478 198.772C496.991 201.194 500.339 202.299 504.714 202.151L544.351 200.808C548.329 200.652 552.084 198.933 554.801 196.024C557.518 193.116 558.978 189.253 558.864 185.274C558.697 182.989 558.69 180.253 558.682 177.357C558.656 167.842 558.623 156.001 552.77 150.363C550.26 147.945 546.915 146.841 542.546 146.99L502.899 148.333C498.926 148.49 495.175 150.207 492.46 153.112C489.744 156.017 488.284 159.875 488.395 163.85Z" fill="#3F3D56"/>
<path d="M286.173 103.26C279.22 103.453 272.351 101.692 266.349 98.1755C257.558 93.1178 250.768 84.7705 248.627 76.3922L248.412 75.5524L250.725 75.0572C268.901 70.3946 290.056 82.7175 295.116 100.927L295.338 101.725L294.541 101.951C291.815 102.725 289.005 103.164 286.173 103.26ZM250.471 76.8157C252.732 84.4914 259.06 92.059 267.18 96.7312C275.035 101.391 284.41 102.769 293.275 100.567C288.052 83.6199 268.204 72.276 251.123 76.6756L250.471 76.8157Z" fill="#3F3D56"/>
<path d="M266.28 198.673C263.775 198.851 261.269 198.343 259.03 197.205C256.792 196.066 254.906 194.34 253.574 192.21C252.03 189.672 251.165 186.78 251.064 183.81C250.962 180.841 251.627 177.896 252.994 175.259C254.204 173 256.015 171.12 258.227 169.827C260.44 168.534 262.967 167.879 265.529 167.935L318.358 166.144C320.909 165.922 323.471 166.408 325.763 167.549C328.055 168.69 329.987 170.442 331.346 172.612C332.889 175.15 333.752 178.043 333.852 181.012C333.953 183.98 333.287 186.925 331.919 189.561C329.432 194.169 324.98 196.736 319.387 196.871L266.557 198.661C266.464 198.666 266.372 198.67 266.28 198.673ZM265.326 169.607C263.1 169.592 260.913 170.184 258.999 171.319C257.084 172.455 255.516 174.09 254.461 176.05C253.229 178.426 252.63 181.079 252.722 183.754C252.814 186.429 253.592 189.035 254.984 191.321C256.19 193.237 257.904 194.782 259.934 195.784C261.965 196.785 264.233 197.205 266.488 196.996L319.343 195.205C321.608 195.262 323.845 194.691 325.806 193.555C327.767 192.419 329.375 190.763 330.453 188.77C331.685 186.394 332.285 183.742 332.195 181.067C332.104 178.393 331.326 175.786 329.936 173.5C328.727 171.584 327.013 170.039 324.982 169.035C322.951 168.031 320.683 167.607 318.426 167.809L265.568 169.601C265.487 169.602 265.406 169.604 265.326 169.607Z" fill="#3F3D56"/>
<path d="M517.062 166.011L500.408 166.576C499.305 166.612 498.233 166.208 497.426 165.454C496.62 164.7 496.146 163.656 496.109 162.553C496.072 161.45 496.474 160.377 497.227 159.57C497.98 158.763 499.023 158.287 500.126 158.249L516.78 157.684C517.884 157.647 518.958 158.049 519.765 158.804C520.573 159.558 521.047 160.602 521.085 161.706C521.122 162.811 520.719 163.885 519.965 164.692C519.211 165.499 518.166 165.974 517.062 166.011Z" fill="#965FDB"/>
<path d="M517.514 179.334L500.86 179.898C500.313 179.917 499.767 179.829 499.254 179.637C498.741 179.445 498.271 179.154 497.871 178.781C497.47 178.407 497.148 177.958 496.921 177.46C496.694 176.961 496.568 176.423 496.549 175.876C496.531 175.329 496.62 174.783 496.813 174.27C497.005 173.758 497.297 173.288 497.671 172.888C498.045 172.488 498.494 172.166 498.993 171.94C499.492 171.714 500.03 171.589 500.578 171.571L517.232 171.007C517.779 170.987 518.324 171.076 518.837 171.268C519.35 171.459 519.82 171.75 520.221 172.124C520.621 172.498 520.944 172.946 521.171 173.445C521.397 173.943 521.524 174.481 521.542 175.029C521.561 175.576 521.471 176.122 521.279 176.634C521.086 177.147 520.795 177.616 520.42 178.016C520.046 178.416 519.597 178.738 519.098 178.964C518.599 179.19 518.061 179.316 517.514 179.334Z" fill="#965FDB"/>
<path d="M517.965 192.658L501.311 193.222C500.207 193.259 499.133 192.857 498.326 192.102C497.519 191.348 497.044 190.304 497.007 189.2C496.969 188.095 497.372 187.022 498.127 186.214C498.881 185.407 499.925 184.933 501.029 184.895L517.683 184.331C518.23 184.312 518.775 184.401 519.287 184.594C519.799 184.786 520.269 185.077 520.668 185.45C521.068 185.824 521.39 186.272 521.617 186.77C521.843 187.268 521.969 187.806 521.988 188.353C522.006 188.9 521.917 189.445 521.725 189.957C521.533 190.469 521.242 190.939 520.868 191.338C520.494 191.738 520.046 192.06 519.548 192.287C519.05 192.513 518.512 192.639 517.965 192.658Z" fill="#965FDB"/>
<path d="M546.206 165.023L529.553 165.588C529.005 165.607 528.46 165.518 527.947 165.327C527.434 165.135 526.964 164.844 526.563 164.47C526.163 164.097 525.84 163.648 525.613 163.149C525.387 162.651 525.26 162.113 525.242 161.566C525.223 161.018 525.313 160.473 525.505 159.96C525.698 159.447 525.99 158.978 526.364 158.578C526.738 158.178 527.187 157.856 527.686 157.63C528.185 157.404 528.723 157.279 529.27 157.261L545.924 156.696C546.471 156.678 547.016 156.767 547.528 156.959C548.04 157.151 548.51 157.442 548.909 157.816C549.309 158.189 549.631 158.638 549.858 159.136C550.084 159.634 550.21 160.172 550.229 160.719C550.247 161.265 550.158 161.81 549.966 162.323C549.774 162.835 549.483 163.304 549.109 163.704C548.736 164.104 548.287 164.426 547.789 164.652C547.291 164.879 546.753 165.005 546.206 165.023Z" fill="#965FDB"/>
<path d="M546.658 178.347L530.004 178.911C528.9 178.949 527.826 178.546 527.019 177.792C526.212 177.037 525.737 175.993 525.7 174.889C525.662 173.785 526.065 172.711 526.819 171.903C527.574 171.096 528.618 170.622 529.722 170.584L546.376 170.02C546.923 170 547.469 170.089 547.982 170.281C548.495 170.473 548.965 170.764 549.365 171.137C549.765 171.511 550.088 171.96 550.315 172.458C550.542 172.956 550.668 173.495 550.686 174.042C550.705 174.589 550.615 175.135 550.423 175.647C550.231 176.16 549.939 176.63 549.565 177.029C549.191 177.429 548.741 177.751 548.242 177.977C547.744 178.204 547.205 178.329 546.658 178.347Z" fill="#965FDB"/>
<path d="M547.11 191.669L530.456 192.233C529.908 192.253 529.363 192.164 528.85 191.972C528.337 191.78 527.867 191.489 527.467 191.116C527.066 190.742 526.743 190.293 526.517 189.795C526.29 189.297 526.164 188.758 526.145 188.211C526.127 187.664 526.216 187.118 526.409 186.606C526.601 186.093 526.893 185.623 527.267 185.224C527.641 184.824 528.09 184.502 528.589 184.276C529.088 184.05 529.626 183.924 530.173 183.906L546.827 183.342C547.374 183.323 547.919 183.413 548.431 183.605C548.944 183.797 549.413 184.088 549.813 184.461C550.212 184.835 550.535 185.284 550.761 185.782C550.987 186.28 551.113 186.817 551.132 187.364C551.15 187.911 551.061 188.456 550.869 188.968C550.677 189.48 550.386 189.95 550.012 190.349C549.639 190.749 549.19 191.071 548.692 191.298C548.194 191.524 547.656 191.65 547.11 191.669Z" fill="#965FDB"/>
<path d="M582.091 104.57L233.358 116.391L233.415 118.056L582.147 106.235L582.091 104.57Z" fill="#3F3D56"/>
<path d="M559.339 245.025L264.565 255.017C257.28 255.255 250.197 252.594 244.871 247.618C239.545 242.641 236.41 235.754 236.155 228.469L231.301 85.2466C231.062 77.961 233.723 70.8782 238.7 65.552C243.677 60.2259 250.563 57.0915 257.848 56.8363L552.621 46.8449C559.907 46.6062 566.99 49.2672 572.316 54.244C577.642 59.2209 580.776 66.1073 581.031 73.3923L585.886 216.615C586.125 223.901 583.464 230.983 578.487 236.31C573.51 241.636 566.624 244.77 559.339 245.025ZM257.904 58.5016C251.061 58.7413 244.592 61.6858 239.917 66.6892C235.242 71.6925 232.742 78.346 232.966 85.19L237.821 228.413C238.06 235.256 241.005 241.725 246.008 246.401C251.011 251.076 257.665 253.576 264.509 253.351L559.282 243.36C566.126 243.12 572.595 240.176 577.27 235.172C581.945 230.169 584.445 223.516 584.221 216.671L579.366 73.4487C579.126 66.6052 576.182 60.1362 571.179 55.461C566.175 50.7857 559.522 48.286 552.678 48.5102L257.904 58.5016Z" fill="#3F3D56"/>
<path d="M136.994 209.588C136.925 208.123 136.535 206.691 135.853 205.393C135.17 204.095 134.211 202.963 133.043 202.075C131.875 201.188 130.527 200.568 129.094 200.258C127.661 199.948 126.177 199.956 124.747 200.281L111.48 181.586L98.1525 186.876L117.258 213.016C117.964 215.382 119.514 217.406 121.613 218.706C123.713 220.006 126.216 220.491 128.649 220.068C131.081 219.646 133.275 218.346 134.813 216.414C136.351 214.483 137.127 212.054 136.994 209.588Z" fill="#A0616A"/>
<path d="M111.139 208.203L70.9971 156.127L86.0378 108.856C87.14 96.9718 94.5769 93.6532 94.8933 93.5176L95.376 93.3105L108.464 128.213L98.8544 153.839L122.442 193.51L111.139 208.203Z" fill="#3F3D56"/>
<path d="M250.545 47.6707C249.089 47.8531 247.692 48.3524 246.451 49.1334C245.209 49.9144 244.154 50.9581 243.36 52.1909C242.565 53.4237 242.051 54.8157 241.853 56.2689C241.655 57.722 241.777 59.2009 242.213 60.6014L224.598 75.2736L230.904 88.1523L255.488 67.0831C257.792 66.196 259.691 64.4945 260.824 62.301C261.958 60.1074 262.248 57.5742 261.638 55.1814C261.029 52.7885 259.563 50.7023 257.519 49.3181C255.474 47.9338 252.993 47.3477 250.545 47.6707Z" fill="#A0616A"/>
<path d="M251.162 73.5547L202.346 117.602L154.054 106.261C142.12 106.081 138.236 98.9237 138.076 98.6187L137.833 98.1535L171.619 82.4058L197.912 90.0056L235.639 63.4219L251.162 73.5547Z" fill="#3F3D56"/>
<path d="M166.605 386.693H179.721L185.96 336.102L166.602 336.103L166.605 386.693Z" fill="#A0616A"/>
<path d="M205.016 398.871L163.795 398.873L163.794 382.946L190.896 382.945C194.641 382.945 198.232 384.432 200.88 387.08C203.528 389.727 205.016 393.319 205.016 397.063V398.871Z" fill="#21212C"/>
<path d="M114.183 386.693H127.299L133.538 336.102L114.18 336.103L114.183 386.693Z" fill="#A0616A"/>
<path d="M152.594 398.871L111.372 398.873V382.946L138.474 382.945C140.328 382.945 142.164 383.31 143.877 384.019C145.591 384.729 147.147 385.769 148.458 387.08C149.769 388.391 150.809 389.947 151.519 391.66C152.229 393.373 152.594 395.209 152.594 397.063V398.871Z" fill="#21212C"/>
<path d="M109.518 202.033L110.588 276.922L111.657 375.347L135.194 373.207L146.962 237.338L161.94 373.207H186.239L188.686 236.268L180.127 206.312L109.518 202.033Z" fill="#21212C"/>
<path d="M155.584 212.088C129.975 212.09 106.402 200.499 106.084 200.34L105.82 200.208L103.671 148.633C103.047 146.81 90.776 110.848 88.6977 99.4174C86.5919 87.8364 117.111 77.6726 120.817 76.484L121.658 67.1676L155.858 63.4824L160.192 75.4031L172.462 80.0038C173.853 80.5258 175.004 81.5399 175.697 82.8539C176.39 84.1679 176.578 85.6906 176.223 87.1334L169.404 114.864L186.059 206.613L182.473 206.768C173.989 210.429 164.823 212.243 155.584 212.088Z" fill="#3F3D56"/>
<path d="M140.098 57.5843C153.698 57.5843 164.722 46.5597 164.722 32.9601C164.722 19.3606 153.698 8.33594 140.098 8.33594C126.498 8.33594 115.474 19.3606 115.474 32.9601C115.474 46.5597 126.498 57.5843 140.098 57.5843Z" fill="#A0616A"/>
<path d="M120.153 56.796C124.845 61.7948 133.56 59.1113 134.172 52.2822C134.22 51.752 134.216 51.2184 134.162 50.6889C133.846 47.6639 132.098 44.9176 132.517 41.7236C132.612 40.9287 132.908 40.1711 133.377 39.5227C137.117 34.5151 145.895 41.7625 149.424 37.2293C151.588 34.4496 149.045 30.0732 150.705 26.9664C152.897 22.866 159.389 24.8888 163.46 22.6432C167.99 20.1447 167.719 13.1948 164.737 8.96759C161.101 3.81226 154.725 1.06139 148.429 0.664938C142.133 0.268488 135.88 1.97052 130.001 4.26131C123.323 6.86411 116.7 10.4612 112.59 16.3339C107.591 23.4757 107.11 33.0772 109.61 41.4282C111.131 46.5082 116.32 52.7139 120.153 56.796Z" fill="#21212C"/>
<path d="M453.926 537.942L465.74 537.941L471.36 492.373L453.924 492.374L453.926 537.942Z" fill="#FFB8B8"/>
<path d="M450.913 534.085L474.178 534.084C478.111 534.084 481.883 535.646 484.663 538.426C487.444 541.207 489.006 544.978 489.006 548.91V549.392L450.913 549.393V534.085Z" fill="#21212C"/>
<path d="M344.073 537.942L355.887 537.941L361.507 492.373L344.071 492.374L344.073 537.942Z" fill="#FFB8B8"/>
<path d="M341.059 534.085L364.325 534.084C368.257 534.084 372.029 535.646 374.81 538.426C377.59 541.207 379.152 544.978 379.153 548.91V549.392L341.06 549.393L341.059 534.085Z" fill="#21212C"/>
<path d="M458.635 306.695C458.635 306.695 468.551 333.611 467.135 344.944C465.718 356.277 477.051 435.607 475.634 442.69C474.218 449.773 477.051 485.188 475.634 490.855C474.218 496.521 479.61 503.289 476.777 508.956C473.944 514.622 469.968 526.27 469.968 526.27L451.552 524.853L448.719 509.271C448.719 509.271 440.219 507.854 441.636 499.354C443.052 490.855 434.553 434.19 434.553 434.19L410.47 354.86L376.472 427.107C376.472 427.107 375.055 478.105 370.805 483.772C366.555 489.438 375.055 505.021 370.805 510.687C366.555 516.354 362.306 526.27 362.306 526.27H341.056V514.937C341.056 514.937 328.307 507.854 341.056 486.605L349.671 358.995L358.171 300.914L458.635 306.695Z" fill="#21212C"/>
<path d="M405.826 128.569C420.439 128.569 432.285 116.723 432.285 102.111C432.285 87.4983 420.439 75.6523 405.826 75.6523C391.213 75.6523 379.367 87.4983 379.367 102.111C379.367 116.723 391.213 128.569 405.826 128.569Z" fill="#FFB8B8"/>
<path d="M428.342 100.286C426.475 105.057 424.608 109.827 422.741 114.597C420.446 120.461 417.817 126.735 412.437 130.008C405.794 134.048 396.924 132.078 390.498 127.701C384.718 123.764 380.282 118.153 377.784 111.621C375.287 105.089 374.848 97.9503 376.527 91.1619C378.206 84.3734 381.922 78.2613 387.176 73.6465C392.429 69.0316 398.97 66.135 405.918 65.3458L406.184 70.1355L412.061 65.209C412.496 65.9548 413.094 66.5925 413.811 67.0741C414.527 67.5557 415.343 67.8687 416.198 67.9895C417.053 68.1104 417.924 68.0361 418.746 67.772C419.568 67.508 420.319 67.0612 420.944 66.4651C419.4 69.6654 421.182 73.5686 423.755 76.0202C426.916 79.0318 435.958 82.6513 435.583 88.0351C435.332 91.628 429.799 96.5635 428.342 100.286Z" fill="#21212C"/>
<path d="M332.994 345.834C332.082 344.474 331.48 342.93 331.229 341.311C330.979 339.693 331.086 338.039 331.544 336.466C332.001 334.894 332.798 333.441 333.878 332.209C334.958 330.978 336.295 329.999 337.795 329.34L337.266 303.744L352.742 299.629L352.981 335.786C353.921 338.378 353.877 341.225 352.858 343.788C351.838 346.35 349.915 348.449 347.451 349.688C344.987 350.926 342.155 351.218 339.49 350.508C336.826 349.798 334.514 348.135 332.994 345.834Z" fill="#FFB8B8"/>
<path d="M386.171 144.923C386.171 144.923 406.675 134.671 426.039 141.506C445.404 148.34 455.655 156.314 455.655 156.314L443.126 222.38L460.212 311.229C460.212 311.229 372.502 304.394 364.529 311.229C356.555 318.063 356.555 303.255 356.555 303.255L363.39 218.963L350.86 165.426L386.171 144.923Z" fill="#3F3D56"/>
<path d="M472.709 347.35C471.452 346.3 470.44 344.987 469.745 343.504C469.05 342.021 468.689 340.404 468.687 338.766C468.685 337.128 469.042 335.51 469.733 334.025C470.424 332.54 471.432 331.224 472.686 330.171L464.992 305.753L478.691 297.459L489.071 332.094C490.701 334.319 491.458 337.063 491.199 339.809C490.94 342.554 489.683 345.109 487.666 346.99C485.65 348.87 483.013 349.945 480.256 350.012C477.5 350.078 474.814 349.131 472.709 347.35Z" fill="#FFB8B8"/>
<path d="M447.682 156.314H455.655C455.655 156.314 468.185 164.288 468.185 175.678C468.185 187.069 486.411 320.342 486.411 320.342L467.046 323.759L449.96 230.354L437.43 205.294L447.682 156.314Z" fill="#3F3D56"/>
<path d="M372.502 165.426H350.86C350.86 165.426 344.025 172.261 340.608 188.208C337.191 204.155 333.774 266.804 333.774 266.804L336.052 323.758H353.138L355.416 249.718L366.807 201.877L372.502 165.426Z" fill="#3F3D56"/>
</g>
</svg>
