<svg width="732" height="552" viewBox="0 0 732 552" fill="none" xmlns="http://www.w3.org/2000/svg">
<mask id="mask0_530_206" style="mask-type:luminance" maskUnits="userSpaceOnUse" x="0" y="0" width="732" height="552">
<path d="M731.67 0.5H0V551.118H731.67V0.5Z" fill="white"/>
</mask>
<g mask="url(#mask0_530_206)">
<path d="M466.985 82.1055L470.811 131.056L526.268 107.892L494.985 58.1055L466.985 82.1055Z" fill="#A0616A"/>
<path d="M465.323 97.0189C488.154 97.0189 506.662 78.511 506.662 55.6804C506.662 32.8497 488.154 14.3418 465.323 14.3418C442.493 14.3418 423.985 32.8497 423.985 55.6804C423.985 78.511 442.493 97.0189 465.323 97.0189Z" fill="#A0616A"/>
<path d="M387.985 441.105L394.985 503.892L345.985 497.105L361.985 439.105L387.985 441.105Z" fill="#A0616A"/>
<path d="M578.985 450.105L585.985 512.892L536.985 506.105L552.985 448.105L578.985 450.105Z" fill="#A0616A"/>
<path d="M462.485 260.605C461.816 260.605 408.339 263.29 373.007 265.068C356.285 265.909 343.555 280.383 344.853 297.077L357.485 459.605L393.485 460.605L394.363 329.605L465.485 333.605L462.485 260.605Z" fill="#21212C"/>
<path d="M619.485 259.605C619.485 259.605 628.485 328.605 621.485 335.605C614.485 342.605 394.985 330.105 394.985 330.105C394.985 330.105 443.138 260.568 451.811 258.586C460.485 256.605 598.485 249.605 598.485 249.605L619.485 259.605Z" fill="#21212C"/>
<path d="M335.127 172.733C326.768 161.043 326.024 147.253 333.465 141.935C340.906 136.616 353.712 141.783 362.072 153.479C365.476 158.105 367.722 163.479 368.623 169.151L403.415 219.133L383.615 232.841L347.841 184.007C342.763 181.318 338.403 177.453 335.127 172.733Z" fill="#A0616A"/>
<path d="M464.985 113.105L515.985 92.1055L611.985 240.105C611.985 240.105 544.985 255.105 521.985 258.105C498.985 261.105 472.985 249.105 472.985 249.105L464.985 113.105Z" fill="#965FDB"/>
<path d="M526.985 138.107L508.485 80.3984L532.485 98.607C532.485 98.607 600.485 143.607 600.485 162.607C600.485 181.607 621.485 239.607 621.485 239.607C621.485 239.607 644.985 259.107 636.985 277.107C628.985 295.107 647.485 292.607 649.485 305.607C651.485 318.607 620.985 336.107 620.985 336.107C620.985 336.107 613.485 262.607 589.485 262.607C565.485 262.607 526.985 138.107 526.985 138.107Z" fill="#3F3D56"/>
<path d="M468.568 111.631L443.485 121.607C443.485 121.607 447.485 191.607 451.485 197.607C455.485 203.607 469.485 235.607 469.485 235.607V246.036C469.485 246.036 441.485 254.607 442.485 259.607C443.485 264.607 508.485 278.607 508.485 278.607C508.485 278.607 495.485 238.607 487.485 225.607C479.485 212.607 468.568 111.631 468.568 111.631Z" fill="#3F3D56"/>
<path d="M452.485 121.606C452.485 121.606 423.485 117.606 418.485 151.606C413.485 185.606 416.662 190.106 416.662 190.106L408.485 209.606L381.485 179.606L355.485 196.606C355.485 196.606 402.485 272.606 421.485 270.606C440.485 268.606 468.485 213.606 468.485 213.606L452.485 121.606Z" fill="#3F3D56"/>
<path d="M597.323 270.645L582.485 480.606L543.985 479.106C543.985 479.106 535.485 280.606 535.485 277.606C535.485 274.606 539.485 257.606 564.485 256.606C589.485 255.606 597.323 270.645 597.323 270.645Z" fill="#21212C"/>
<path d="M541.485 484.605C541.485 484.605 561.485 478.605 564.485 482.605C567.485 486.605 584.485 488.605 584.485 488.605L589.485 537.605C589.485 537.605 575.485 547.605 573.485 549.605C571.485 551.605 518.485 553.605 517.485 541.605C516.485 529.605 531.485 514.605 531.485 514.605L541.485 484.605Z" fill="#21212C"/>
<path d="M394.485 470.605C394.485 470.605 400.485 465.605 402.485 479.605C404.485 493.605 411.485 516.605 401.485 519.605C391.485 522.605 291.485 523.605 291.485 514.605V505.605L300.485 498.605L318.489 495.736C318.489 495.736 353.485 463.605 357.485 463.605C361.485 463.605 374.485 476.605 374.485 476.605L394.485 470.605Z" fill="#21212C"/>
<path d="M505.985 78.106C505.985 78.106 485.985 54.106 477.985 56.106C469.985 58.106 474.985 61.106 474.985 61.106L454.985 39.106C454.985 39.106 438.985 33.106 423.985 52.106C423.985 52.106 414.985 36.106 423.985 27.106C432.985 18.106 435.985 19.106 437.985 14.106C439.985 9.10599 453.985 5.10599 453.985 5.10599C453.985 5.10599 453.181 -2.09086 457.583 1.50756C461.985 5.10598 472.977 5.10599 472.977 5.10599C472.977 5.10599 473.04 1.10599 477.512 5.10599C481.985 9.10599 486.985 7.10599 486.985 7.10599C486.985 7.10599 486.985 14.0272 490.485 14.0666C493.985 14.106 499.985 9.10599 500.985 13.106C501.985 17.106 508.985 19.106 509.985 31.106C510.985 43.106 505.985 78.106 505.985 78.106Z" fill="#21212C"/>
<path d="M342.995 179.349L228.758 258.176C224.816 260.896 219.396 259.902 216.676 255.96L184.514 209.351C181.794 205.409 182.788 199.989 186.73 197.269L300.967 118.442C304.909 115.722 310.329 116.716 313.049 120.658L345.211 167.267C347.931 171.209 346.937 176.629 342.995 179.349Z" fill="#171722"/>
<path d="M312.839 120.803L345.001 167.411C347.647 171.246 346.685 176.492 342.85 179.139L286.786 217.825C272 213.784 258.508 204.71 249.123 191.109C242.976 182.199 239.27 172.337 237.857 162.3L301.112 118.652C304.947 116.005 310.193 116.968 312.839 120.803Z" fill="#171722"/>
<path d="M223.84 260.709C220.761 260.709 217.731 259.248 215.853 256.529L183.691 209.919C182.224 207.792 181.673 205.219 182.141 202.671C182.608 200.123 184.036 197.912 186.163 196.446L300.399 117.618C304.796 114.586 310.839 115.695 313.872 120.089L346.034 166.698C347.501 168.825 348.052 171.399 347.584 173.946C347.117 176.493 345.689 178.705 343.563 180.172L229.326 258.999C227.651 260.154 225.736 260.709 223.84 260.709ZM305.888 117.907C304.384 117.907 302.865 118.348 301.535 119.265L187.299 198.092C185.612 199.255 184.479 201.01 184.108 203.032C183.737 205.054 184.173 207.097 185.337 208.782L217.499 255.392C219.906 258.878 224.701 259.76 228.19 257.353L342.427 178.526C344.114 177.363 345.246 175.608 345.617 173.585C345.989 171.564 345.552 169.521 344.388 167.835L312.226 121.226C310.737 119.068 308.331 117.907 305.888 117.907Z" fill="#3F3D56"/>
<path d="M224.667 237.437C221.771 239.435 221.041 243.416 223.039 246.311C225.037 249.206 229.018 249.936 231.913 247.938L243.674 239.823C246.569 237.825 247.299 233.844 245.302 230.949C243.304 228.054 239.323 227.324 236.428 229.321L224.667 237.437Z" fill="#965FDB"/>
<path d="M232.639 172.411C228.071 175.563 226.919 181.844 230.071 186.412C233.223 190.98 239.503 192.132 244.071 188.98L262.367 176.355C266.935 173.203 268.087 166.923 264.935 162.355C261.783 157.787 255.502 156.635 250.934 159.787L232.639 172.411Z" fill="#965FDB"/>
<path d="M340.259 186.309H201.466C196.676 186.309 192.78 182.412 192.78 177.623V120.994C192.78 116.205 196.676 112.309 201.466 112.309H340.259C345.049 112.309 348.945 116.205 348.945 120.994V177.623C348.945 182.412 345.049 186.309 340.259 186.309Z" fill="#171722"/>
<path d="M348.69 120.995V177.623C348.69 182.282 344.919 186.054 340.259 186.054H272.143C262.268 174.331 256.318 159.199 256.318 142.674C256.318 131.85 258.869 121.628 263.407 112.564H340.259C344.919 112.564 348.69 116.335 348.69 120.995Z" fill="#171722"/>
<path d="M340.259 187.309H201.466C196.125 187.309 191.78 182.964 191.78 177.623V120.994C191.78 115.653 196.125 111.309 201.466 111.309H340.259C345.6 111.309 349.946 115.653 349.946 120.994V177.623C349.946 182.964 345.6 187.309 340.259 187.309ZM201.466 113.309C197.228 113.309 193.78 116.756 193.78 120.994V177.623C193.78 181.861 197.228 185.309 201.466 185.309H340.259C344.497 185.309 347.946 181.861 347.946 177.623V120.994C347.946 116.756 344.497 113.309 340.259 113.309H201.466Z" fill="#3F3D56"/>
<path d="M209.876 166.916C206.359 166.916 203.497 169.777 203.497 173.295C203.497 176.812 206.359 179.674 209.876 179.674H224.166C227.684 179.674 230.545 176.812 230.545 173.295C230.545 169.777 227.684 166.916 224.166 166.916H209.876Z" fill="#965FDB"/>
<path d="M253.369 117.922C247.819 117.922 243.304 122.438 243.304 127.988C243.304 133.538 247.819 138.053 253.369 138.053H275.597C281.147 138.053 285.663 133.538 285.663 127.988C285.663 122.438 281.147 117.922 275.597 117.922H253.369Z" fill="#965FDB"/>
<path d="M456.259 382.309H317.466C312.676 382.309 308.78 378.412 308.78 373.623V316.994C308.78 312.205 312.676 308.309 317.466 308.309H456.259C461.049 308.309 464.945 312.205 464.945 316.994V373.623C464.945 378.412 461.049 382.309 456.259 382.309Z" fill="#171722"/>
<path d="M464.69 316.995V373.623C464.69 378.282 460.919 382.054 456.259 382.054H388.143C378.268 370.331 372.318 355.199 372.318 338.674C372.318 327.85 374.869 317.628 379.407 308.564H456.259C460.919 308.564 464.69 312.335 464.69 316.995Z" fill="#171722"/>
<path d="M456.259 383.309H317.466C312.125 383.309 307.78 378.964 307.78 373.623V316.994C307.78 311.653 312.125 307.309 317.466 307.309H456.259C461.6 307.309 465.946 311.653 465.946 316.994V373.623C465.946 378.964 461.6 383.309 456.259 383.309ZM317.466 309.309C313.228 309.309 309.78 312.756 309.78 316.994V373.623C309.78 377.861 313.228 381.309 317.466 381.309H456.259C460.497 381.309 463.946 377.861 463.946 373.623V316.994C463.946 312.756 460.497 309.309 456.259 309.309H317.466Z" fill="#3F3D56"/>
<path d="M325.876 362.916C322.359 362.916 319.497 365.777 319.497 369.295C319.497 372.812 322.359 375.674 325.876 375.674H340.166C343.684 375.674 346.545 372.812 346.545 369.295C346.545 365.777 343.684 362.916 340.166 362.916H325.876Z" fill="#965FDB"/>
<path d="M369.369 313.922C363.819 313.922 359.304 318.438 359.304 323.988C359.304 329.538 363.819 334.053 369.369 334.053H391.597C397.147 334.053 401.663 329.538 401.663 323.988C401.663 318.438 397.147 313.922 391.597 313.922H369.369Z" fill="#965FDB"/>
<path d="M465.674 331.517C452.927 338.154 439.169 336.958 434.946 328.844C430.724 320.731 437.634 308.776 450.387 302.138C455.445 299.417 461.081 297.946 466.823 297.849L521.189 270.408L531.986 291.934L478.618 320.509C475.245 325.159 470.806 328.934 465.674 331.517Z" fill="#A0616A"/>
<path d="M527.485 97.6068C527.485 97.6068 583.485 94.6068 595.485 124.607C607.485 154.607 617.485 252.607 617.485 252.607L495.485 318.981L474.485 286.607L556.485 222.607L527.485 97.6068Z" fill="#3F3D56"/>
</g>
</svg>
