<svg xmlns="http://www.w3.org/2000/svg" fill="none" viewBox="-0.5 -0.5 200 200" id="Coding--Streamline-Bangalore.svg" height="200" width="200"><desc>Coding Streamline Illustration: https://streamlinehq.com</desc><g id="Development-Coding-01"><g id="color 2"><path id="Vector" fill="#eee4ff" d="M82.65564499999999 74.43196999999999c-2.892465 2.4198399999999998 -11.853435000000001 4.12129 -20.26616 25.351605L50.006710000000005 88.64853c-5.715678 2.900425 -10.144323499999999 7.8279635 -12.420585 13.819555L56.207550000000005 119.201c2.1570605 1.931295 4.992114 2.9282850000000002 7.8832855 2.77207 2.8910720000000003 -0.15522 5.602447000000001 -1.451705 7.5392145 -3.60389l7.716225 -8.589834999999999 -3.065595 20.329839999999997 -12.55292 13.989700000000001c3.1496725000000003 5.530209999999999 8.004277499999999 9.893284999999999 13.83846 12.4375l13.290215 -14.783710000000001c1.9674135000000001 -2.188005 3.357926 -4.832715 4.045669999999999 -7.694335 2.892465 -12.139 1.909405 -33.556375 3.7809999999999997 -52.007655 -7.5013049999999994 -1.3989699999999998 -10.28034 -3.10042 -16.02746 -7.618715Z" stroke-width="1"></path></g><g id="color 1"><path id="Vector_2" fill="#6b63ff" d="m185.10582 75.282695 -21.5517 22.742715 8.54506 -37.62095 21.5517 -22.742715 -8.54506 37.62095Z" stroke-width="1"></path><path id="Vector_3" fill="#6b63ff" d="M116.77917 66.94559c-0.28357499999999997 -0.18905 -0.775105 -0.018904999999999998 -1.417875 0.434815l1.4925 1.228825c0.24676 -0.86963 0.24676 -1.47459 -0.074625 -1.66364Z" stroke-width="1"></path><path id="Vector_4" fill="#6b63ff" d="M103.43224 78.572165c-0.398 1.02087 -0.345265 1.8785599999999998 -0.037809999999999996 2.07955 0.307455 0.20099 1.194 0 1.791 -0.775105l-1.75319 -1.3044449999999999Z" stroke-width="1"></path><path id="Vector_5" fill="#6b63ff" d="M112.03699999999999 67.77740999999999c-0.28357499999999997 -0.18905 -0.775105 -0.018904999999999998 -1.417875 0.434815l1.4925 1.228825c0.243775 -0.850725 0.223875 -1.4556850000000001 -0.074625 -1.66364Z" stroke-width="1"></path><path id="Vector_6" fill="#6b63ff" d="m67.81522000000001 139.44626499999998 -4.179 4.6506300000000005c3.1496725000000003 5.530209999999999 8.004277499999999 9.893284999999999 13.83846 12.4375l4.367055000000001 -4.858585c-5.742344 -2.661625 -10.607695 -6.903309999999999 -14.026515 -12.229545Z" stroke-width="1"></path><path id="Vector_7" fill="#6b63ff" d="m91.86238 70.87782999999999 6.9948500000000005 10.870375000000001 1.8526900000000002 -3.36509 -8.847539999999999 -7.505285Z" stroke-width="1"></path><path id="Vector_8" fill="#6b63ff" d="m99.027375 43.465579999999996 0.964155 2.07955 0.52934 -1.417875 -1.4934949999999998 -0.661675Z" stroke-width="1"></path><path id="Vector_9" fill="#6b63ff" d="m94.01755 93.4504 -14.689185 16.33392 -1.4934949999999998 10.01965L94.01755 93.4504Z" stroke-width="1"></path><path id="Vector_10" fill="#6b63ff" d="M58.32491 156.271715c-1.228825 1.32335 -2.49546 2.6467 -3.799905 4.00786 -1.039775 6.144125 -0.5482450000000001 20.247255 1.43678 26.80729 5.273499999999999 -8.771920000000001 7.1838999999999995 -14.328 9.8505 -23.366580000000003 -2.872764 -2.072585 -5.3997655 -4.58695 -7.487375 -7.44857Z" stroke-width="1"></path><path id="Vector_11" fill="#6b63ff" d="M37.511500000000005 83.77104c-0.90744 -0.90744 -1.9472150000000001 -2.0228349999999997 -3.32728 -3.51633 -10.70222 1.5124 -22.479039999999998 5.085445 -27.46996995 7.44857 7.612356950000001 2.8786345 15.76658095 4.0405955 23.880009949999998 3.4029l0.41591 0.3781c1.7844330000000002 -2.8706745 3.9741295 -5.4686195 6.501329999999999 -7.71324Z" stroke-width="1"></path><path id="Vector_12" fill="#6b63ff" d="m54.09019 92.221575 -4.0794999999999995 -3.6815c-5.7113995 2.9059969999999997 -10.1383535 7.831645 -12.420585 13.819555l4.140194999999999 3.724285c2.8643064999999996 -5.60384 7.1203195 -10.3767555 12.35989 -13.86234Z" stroke-width="1"></path><path id="Vector_13" fill="#6b63ff" d="M107.34557500000001 31.158425c0.080595 -0.4579985 -0.004975 -0.929728 -0.24079 -1.3307129999999998 -0.23481999999999997 -0.40098500000000004 -0.605955 -0.7051565 -1.04475 -0.858287 0.28258 -0.2611875 0.482575 -0.5992884999999999 0.576105 -0.9728115 0.09353 -0.3734235 0.07561999999999999 -0.765951 -0.051739999999999994 -1.1294245 -0.126365 -0.36337400000000003 -0.357205 -0.6818735 -0.661675 -0.9162955 -0.305465 -0.234422 -0.67262 -0.3746175 -1.0566900000000001 -0.4032735 0.156215 -0.33322549999999995 0.217905 -0.7033655 0.176115 -1.069227 -0.040795000000000005 -0.3658615 -0.18308 -0.7131165 -0.40993999999999997 -1.0030595 -0.22686 -0.289943 -0.52934 -0.5113305 -0.874605 -0.6393869999999999 -0.345265 -0.128156 -0.7193849999999999 -0.158006 -1.08057 -0.0862665 0.046765 -0.36685650000000003 -0.010945 -0.7394839999999999 -0.166165 -1.0752965s-0.40098500000000004 -0.6213775 -0.71043 -0.824258c-0.30944499999999997 -0.2028805 -0.6696350000000001 -0.314818 -1.03878 -0.3232755 -0.37013999999999997 -0.0084575 -0.73431 0.0870625 -1.05271 0.275615 -0.06766 -0.3768065 -0.241984 -0.7262505 -0.5029724999999999 -1.006343 -0.26098849999999996 -0.28009249999999997 -0.5972985 -0.4788935 -0.9684335000000001 -0.572722 -0.371135 -0.0938285 -0.7614735 -0.07850549999999999 -1.1242504999999998 0.043979000000000004 -0.3626775 0.1224845 -0.682371 0.3469565 -0.9206735 0.646551 -0.180294 -0.3608865 -0.461879 -0.661476 -0.8102285 -0.865053s-0.748439 -0.301286 -1.151414 -0.2812865c-0.402975 0.020099 -0.791423 0.15701099999999998 -1.1178825 0.394219 -0.3264595 0.2371085 -0.576702 0.5641649999999999 -0.72038 0.9411704999999999 -0.228452 -0.24079 -0.513818 -0.420288 -0.82983 -0.5218775 -0.316012 -0.10149 -0.652521 -0.121987 -0.9785825 -0.059302 -0.325962 0.062685 -0.6309295 0.20626350000000002 -0.886744 0.4178005 -0.255914 0.2114375 -0.4544165 0.48386850000000003 -0.5773985 0.792219 0.0325365 -0.47272450000000005 -0.0707445 -0.944852 -0.2974055 -1.3608615 -0.2267605 -0.416109 -0.5676475 -0.7586875 -0.9824630000000001 -0.987637 -0.414915 -0.22885 -0.8864455 -0.334519 -1.359369 -0.3045695 -0.472824 0.030049 -0.92734 0.19452250000000001 -1.3099175 0.474018 -0.20944749999999998 -0.48347049999999997 -0.561578 -0.89152 -1.0092285 -1.169523 -0.4476505 -0.27790349999999997 -0.9695280000000001 -0.41252700000000003 -1.4957835000000002 -0.38586099999999995 -0.526355 0.0267655 -1.0319144999999998 0.21352700000000002 -1.449118 0.5354095s-0.726151 0.7634635 -0.8855500000000001 1.2657395c-0.4327255 -0.261685 -0.9352005 -0.3845675 -1.4398645 -0.352031 -0.504664 0.0325365 -0.987239 0.2189 -1.3827515 0.533917 -0.39551250000000004 0.31511649999999997 -0.6850575 0.743862 -0.8295315 1.2285264999999999 -0.144474 0.48456499999999997 -0.13701149999999998 1.0018654999999999 0.0213925 1.4820525 -0.5061565 0.057311999999999995 -0.9823635 0.269247 -1.3638465 0.6070495 -0.3813835 0.337703 -0.6493369999999999 0.7847565 -0.7674435 1.280366 -0.118206 0.49551 -0.0806945 1.0153975 0.1073605 1.488918 0.188055 0.473421 0.5174995 0.877391 0.9433595 1.1568865000000002 -0.398796 0.322977 -0.6876445 0.7616725 -0.826447 1.25569 -0.138902 0.4940175 -0.120992 1.0189795 0.051242499999999996 1.5023505 0.1722345 0.48347049999999997 0.4902365 0.90147 0.9101265 1.1964875 0.41989 0.2950175 0.9210714999999999 0.452327 1.434193 0.450337 -0.10298249999999999 0.492923 -0.0530335 1.005547 0.14328 1.469217 0.19621399999999997 0.4637695 0.52934 0.856496 0.954802 1.125743 0.42546199999999995 0.2693465 0.9230615 0.4022785 1.4261335 0.381085 0.5030720000000001 -0.0211935 0.9877365 -0.19541799999999998 1.3891194999999998 -0.49949 0.159001 0.4078505 0.4263575 0.764359 0.7732145 1.0313174999999999 0.346857 0.266859 0.759981 0.4339195 1.1948955 0.48307249999999996 -0.0798985 0.2822815 -0.0960175 0.5788909999999999 -0.047163 0.8681375 0.048755 0.289346 0.1612895 0.5641649999999999 0.32944450000000003 0.804557 0.1680555 0.2404915 0.38745300000000005 0.44058600000000003 0.6423719999999999 0.5858559999999999 0.254919 0.1451705 0.5389915 0.2319345 0.8315215 0.2538245 -0.158006 0.33432 -0.2191985 0.7061515 -0.17661249999999998 1.0735055 0.042586 0.3672545 0.18715949999999998 0.7153054999999999 0.417502 1.0045520000000001 0.230243 0.289346 0.536902 0.5083455 0.8852515000000001 0.632223 0.348449 0.1238775 0.724559 0.14775749999999999 1.085744 0.0687545 -0.043382 0.367553 0.017114 0.7399815000000001 0.17472200000000002 1.074799 0.15760800000000003 0.334917 0.40596 0.6188899999999999 0.716798 0.819681 0.310838 0.2008905 0.671824 0.31044 1.0418645 0.3165095 0.37013999999999997 0.0059700000000000005 0.7344094999999999 -0.09193799999999999 1.0516155 -0.28267950000000003 0.067461 0.3772045 0.24278 0.7267480000000001 0.5047634999999999 1.0064425000000001 0.261884 0.2796945 0.5992884999999999 0.4775005 0.9712195 0.5694385000000001 0.371931 0.0920375 0.7626674999999999 0.074227 1.124748 -0.0510435 0.3620805 -0.12537 0.6800825 -0.35292650000000003 0.915599 -0.6552074999999999 0.238402 0.341882 0.5474490000000001 0.6284420000000001 0.906246 0.8404765 0.358797 0.21193499999999998 0.7588865 0.344469 1.1733040000000001 0.3883485 0.6333175 -1.144051 1.0619634999999998 -2.3898905 1.266635 -3.6815 0.210343 -1.3150915 -0.035422 -2.66262 -0.6965 -3.81881 -2.816845 -0.9263450000000001 -1.55021 -4.23472 0.359195 -2.94918 0.90744 0.623865 1.25171 0.584065 1.32335 -0.018904999999999998 0.0052735 -0.1742245 0.0576105 -0.343673 0.1515385 -0.490535 0.093928 -0.14686200000000002 0.225865 -0.265466 0.3817815 -0.343275 0.1680555 0.354618 0.437203 0.651526 0.7736124999999999 0.853511 0.3358125 0.2020845 0.7248575 0.30009199999999997 1.1168875 0.281983 0.39203 -0.0182085 0.77013 -0.151837 1.085545 -0.3841695 0.31641 -0.232233 0.5572 -0.552822 0.691525 -0.9214695 0.18308 0.193428 0.402975 0.3481505 0.64675 0.45501349999999996 0.243775 0.1069625 0.506455 0.163777 0.77212 0.16735899999999998 0.26666 0.0034825 0.530335 -0.046367000000000005 0.777095 -0.14686200000000002 0.24676 -0.1003955 0.47063499999999997 -0.249148 0.65869 -0.4377005 0.46764999999999995 1.101863 0.822865 2.2484015 1.05868 3.421805 0.28357499999999997 -0.1598965 0.524365 -0.38705500000000004 0.6994849999999999 -0.6615755000000001 0.176115 -0.2745205 0.281585 -0.5879455 0.307455 -0.9127135 0.025869999999999997 -0.32486750000000003 -0.02786 -0.6511279999999999 -0.15721 -0.9501255 -0.12935 -0.299097 -0.33034 -0.561777 -0.5850599999999999 -0.7650555 0.28457 -0.14437450000000002 0.5313300000000001 -0.353026 0.721375 -0.609537 0.190045 -0.25641149999999996 0.3184 -0.553618 0.373125 -0.868038Z" stroke-width="1"></path><path id="Vector_14" fill="#6b63ff" d="M148.634095 25.7516945c-0.12736 -0.7664485 -0.478595 -1.477973 -1.009925 -2.0446255 -0.532325 -0.5666525 -1.21987 -0.962961 -1.97607 -1.1387775 -0.757195 -0.1758165 -1.549215 -0.12338 -2.275565 0.150842 -0.727345 0.274222 -1.356185 0.757792 -1.80891 1.3897165 -0.45173 0.631825 -0.7064499999999999 1.3835475000000002 -0.731325 2.1600455 -0.024875 0.776498 0.18109 1.5429465 0.592025 2.2024324999999996 0.410935 0.6594859999999999 1.0079349999999998 1.1823584999999999 1.71538 1.50245 0.70844 0.32019099999999995 1.495485 0.423273 2.261635 0.2962115 1.02684 -0.171737 1.94423 -0.7437625000000001 2.5501850000000004 -1.590806 0.605955 -0.8470435 0.85172 -1.899853 0.68257 -2.927489Z" stroke-width="1"></path><path id="Vector_15" fill="#6b63ff" d="m31.271855 113.8877 -8.866444999999999 2.85366 3.66359 21.628314999999997 5.2028550000000005 -24.481975000000002Z" stroke-width="1"></path><path id="Vector_16" fill="#6b63ff" d="m146.3844 85.9680995 -0.0059700000000000005 -0.016915 0.0059700000000000005 0.016915Z" stroke-width="1"></path><path id="Vector_17" fill="#6b63ff" d="m154.40012 76.492615 -5.085445 4.669535c1.7840349999999998 0.3776025 3.517325 0.9678365 5.161065000000001 1.758165 0.6965 0.29660949999999997 1.336285 0.7125195 1.8904999999999998 1.228825 0.775105 0.888535 -3.383 -0.3781 -5.425735 -0.6049599999999999h-0.018904999999999998c0.412925 0.21750699999999998 0.789035 0.49809700000000007 1.115395 0.83182 0.6706300000000001 0.767145 -4.458595 -0.9691299999999999 -4.9153 -0.6427700000000001 1.9661199999999999 0.888535 5.009825 2.5710800000000003 5.74712 3.8805 0.86963 1.569115 -3.5919499999999998 -1.551205 -6.484415 -1.64573 1.833785 0.850725 3.837715 2.042735 4.556105 3.366085 0.9830599999999999 1.791 -2.5710800000000003 -1.4925 -6.8058 -1.6258299999999999h-0.018904999999999998c4.045669999999999 2.45765 5.93617 4.4775 0.18905 1.985025 -1.053705 -0.4713315 -2.178055 -0.7652545 -3.32728 -0.86963l-11.550955 10.56292 34.104620000000004 -1.32335 5.009825 -22.08104 -14.14094 0.510435Z" stroke-width="1"></path></g><g id="outlines"><path id="Vector_18" stroke="#120071" stroke-linejoin="round" d="m185.10582 75.282695 -21.5517 22.742715 8.54506 -37.62095 21.5517 -22.742715 -8.54506 37.62095Z" stroke-width="1"></path><path id="Vector_19" stroke="#120071" stroke-linejoin="round" d="m154.40012 76.492615 -5.085445 4.669535c1.7840349999999998 0.3776025 3.517325 0.9678365 5.161065000000001 1.758165 0.6965 0.29660949999999997 1.336285 0.7125195 1.8904999999999998 1.228825 0.775105 0.888535 -3.383 -0.3781 -5.425735 -0.6049599999999999h-0.018904999999999998c0.412925 0.21750699999999998 0.789035 0.49809700000000007 1.115395 0.83182 0.6706300000000001 0.767145 -4.458595 -0.9691299999999999 -4.9153 -0.6427700000000001 1.9661199999999999 0.888535 5.009825 2.5710800000000003 5.74712 3.8805 0.86963 1.569115 -3.5919499999999998 -1.551205 -6.484415 -1.64573 1.833785 0.850725 3.837715 2.042735 4.556105 3.366085 0.9830599999999999 1.791 -2.5710800000000003 -1.4925 -6.8058 -1.6258299999999999h-0.018904999999999998c4.045669999999999 2.45765 5.93617 4.4775 0.18905 1.985025 -1.053705 -0.4713315 -2.178055 -0.7652545 -3.32728 -0.86963l-11.550955 10.56292 34.104620000000004 -1.32335 5.009825 -22.08104 -14.14094 0.510435Z" stroke-width="1"></path><path id="Vector_20" stroke="#120071" stroke-linejoin="round" d="M107.34557500000001 31.158425c0.080595 -0.4579985 -0.004975 -0.929728 -0.24079 -1.3307129999999998 -0.23481999999999997 -0.40098500000000004 -0.605955 -0.7051565 -1.04475 -0.858287 0.28258 -0.2611875 0.482575 -0.5992884999999999 0.576105 -0.9728115 0.09353 -0.3734235 0.07561999999999999 -0.765951 -0.051739999999999994 -1.1294245 -0.126365 -0.36337400000000003 -0.357205 -0.6818735 -0.661675 -0.9162955 -0.305465 -0.234422 -0.67262 -0.3746175 -1.0566900000000001 -0.4032735 0.156215 -0.33322549999999995 0.217905 -0.7033655 0.176115 -1.069227 -0.040795000000000005 -0.3658615 -0.18308 -0.7131165 -0.40993999999999997 -1.0030595 -0.22686 -0.289943 -0.52934 -0.5113305 -0.874605 -0.6393869999999999 -0.345265 -0.128156 -0.7193849999999999 -0.158006 -1.08057 -0.0862665 0.046765 -0.36685650000000003 -0.010945 -0.7394839999999999 -0.166165 -1.0752965s-0.40098500000000004 -0.6213775 -0.71043 -0.824258c-0.30944499999999997 -0.2028805 -0.6696350000000001 -0.314818 -1.03878 -0.3232755 -0.37013999999999997 -0.0084575 -0.73431 0.0870625 -1.05271 0.275615 -0.06766 -0.3768065 -0.241984 -0.7262505 -0.5029724999999999 -1.006343 -0.26098849999999996 -0.28009249999999997 -0.5972985 -0.4788935 -0.9684335000000001 -0.572722 -0.371135 -0.0938285 -0.7614735 -0.07850549999999999 -1.1242504999999998 0.043979000000000004 -0.3626775 0.1224845 -0.682371 0.3469565 -0.9206735 0.646551 -0.180294 -0.3608865 -0.461879 -0.661476 -0.8102285 -0.865053s-0.748439 -0.301286 -1.151414 -0.2812865c-0.402975 0.020099 -0.791423 0.15701099999999998 -1.1178825 0.394219 -0.3264595 0.2371085 -0.576702 0.5641649999999999 -0.72038 0.9411704999999999 -0.228452 -0.24079 -0.513818 -0.420288 -0.82983 -0.5218775 -0.316012 -0.10149 -0.652521 -0.121987 -0.9785825 -0.059302 -0.325962 0.062685 -0.6309295 0.20626350000000002 -0.886744 0.4178005 -0.255914 0.2114375 -0.4544165 0.48386850000000003 -0.5773985 0.792219 0.0325365 -0.47272450000000005 -0.0707445 -0.944852 -0.2974055 -1.3608615 -0.2267605 -0.416109 -0.5676475 -0.7586875 -0.9824630000000001 -0.987637 -0.414915 -0.22885 -0.8864455 -0.334519 -1.359369 -0.3045695 -0.472824 0.030049 -0.92734 0.19452250000000001 -1.3099175 0.474018 -0.20944749999999998 -0.48347049999999997 -0.561578 -0.89152 -1.0092285 -1.169523 -0.4476505 -0.27790349999999997 -0.9695280000000001 -0.41252700000000003 -1.4957835000000002 -0.38586099999999995 -0.526355 0.0267655 -1.0319144999999998 0.21352700000000002 -1.449118 0.5354095s-0.726151 0.7634635 -0.8855500000000001 1.2657395c-0.4327255 -0.261685 -0.9352005 -0.3845675 -1.4398645 -0.352031 -0.504664 0.0325365 -0.987239 0.2189 -1.3827515 0.533917 -0.39551250000000004 0.31511649999999997 -0.6850575 0.743862 -0.8295315 1.2285264999999999 -0.144474 0.48456499999999997 -0.13701149999999998 1.0018654999999999 0.0213925 1.4820525 -0.5061565 0.057311999999999995 -0.9823635 0.269247 -1.3638465 0.6070495 -0.3813835 0.337703 -0.6493369999999999 0.7847565 -0.7674435 1.280366 -0.118206 0.49551 -0.0806945 1.0153975 0.1073605 1.488918 0.188055 0.473421 0.5174995 0.877391 0.9433595 1.1568865000000002 -0.398796 0.322977 -0.6876445 0.7616725 -0.826447 1.25569 -0.138902 0.4940175 -0.120992 1.0189795 0.051242499999999996 1.5023505 0.1722345 0.48347049999999997 0.4902365 0.90147 0.9101265 1.1964875 0.41989 0.2950175 0.9210714999999999 0.452327 1.434193 0.450337 -0.10298249999999999 0.492923 -0.0530335 1.005547 0.14328 1.469217 0.19621399999999997 0.4637695 0.52934 0.856496 0.954802 1.125743 0.42546199999999995 0.2693465 0.9230615 0.4022785 1.4261335 0.381085 0.5030720000000001 -0.0211935 0.9877365 -0.19541799999999998 1.3891194999999998 -0.49949 0.159001 0.4078505 0.4263575 0.764359 0.7732145 1.0313174999999999 0.346857 0.266859 0.759981 0.4339195 1.1948955 0.48307249999999996 -0.0798985 0.2822815 -0.0960175 0.5788909999999999 -0.047163 0.8681375 0.048755 0.289346 0.1612895 0.5641649999999999 0.32944450000000003 0.804557 0.1680555 0.2404915 0.38745300000000005 0.44058600000000003 0.6423719999999999 0.5858559999999999 0.254919 0.1451705 0.5389915 0.2319345 0.8315215 0.2538245 -0.158006 0.33432 -0.2191985 0.7061515 -0.17661249999999998 1.0735055 0.042586 0.3672545 0.18715949999999998 0.7153054999999999 0.417502 1.0045520000000001 0.230243 0.289346 0.536902 0.5083455 0.8852515000000001 0.632223 0.348449 0.1238775 0.724559 0.14775749999999999 1.085744 0.0687545 -0.043382 0.367553 0.017114 0.7399815000000001 0.17472200000000002 1.074799 0.15760800000000003 0.334917 0.40596 0.6188899999999999 0.716798 0.819681 0.310838 0.2008905 0.671824 0.31044 1.0418645 0.3165095 0.37013999999999997 0.0059700000000000005 0.7344094999999999 -0.09193799999999999 1.0516155 -0.28267950000000003 0.067461 0.3772045 0.24278 0.7267480000000001 0.5047634999999999 1.0064425000000001 0.261884 0.2796945 0.5992884999999999 0.4775005 0.9712195 0.5694385000000001 0.371931 0.0920375 0.7626674999999999 0.074227 1.124748 -0.0510435 0.3620805 -0.12537 0.6800825 -0.35292650000000003 0.915599 -0.6552074999999999 0.238402 0.341882 0.5474490000000001 0.6284420000000001 0.906246 0.8404765 0.358797 0.21193499999999998 0.7588865 0.344469 1.1733040000000001 0.3883485 0.6333175 -1.144051 1.0619634999999998 -2.3898905 1.266635 -3.6815 0.210343 -1.3150915 -0.035422 -2.66262 -0.6965 -3.81881 -2.816845 -0.9263450000000001 -1.55021 -4.23472 0.359195 -2.94918 0.90744 0.623865 1.25171 0.584065 1.32335 -0.018904999999999998 0.0052735 -0.1742245 0.0576105 -0.343673 0.1515385 -0.490535 0.093928 -0.14686200000000002 0.225865 -0.265466 0.3817815 -0.343275 0.1680555 0.354618 0.437203 0.651526 0.7736124999999999 0.853511 0.3358125 0.2020845 0.7248575 0.30009199999999997 1.1168875 0.281983 0.39203 -0.0182085 0.77013 -0.151837 1.085545 -0.3841695 0.31641 -0.232233 0.5572 -0.552822 0.691525 -0.9214695 0.18308 0.193428 0.402975 0.3481505 0.64675 0.45501349999999996 0.243775 0.1069625 0.506455 0.163777 0.77212 0.16735899999999998 0.26666 0.0034825 0.530335 -0.046367000000000005 0.777095 -0.14686200000000002 0.24676 -0.1003955 0.47063499999999997 -0.249148 0.65869 -0.4377005 0.46764999999999995 1.101863 0.822865 2.2484015 1.05868 3.421805 0.28357499999999997 -0.1598965 0.524365 -0.38705500000000004 0.6994849999999999 -0.6615755000000001 0.176115 -0.2745205 0.281585 -0.5879455 0.307455 -0.9127135 0.025869999999999997 -0.32486750000000003 -0.02786 -0.6511279999999999 -0.15721 -0.9501255 -0.12935 -0.299097 -0.33034 -0.561777 -0.5850599999999999 -0.7650555 0.28457 -0.14437450000000002 0.5313300000000001 -0.353026 0.721375 -0.609537 0.190045 -0.25641149999999996 0.3184 -0.553618 0.373125 -0.868038Z" stroke-width="1"></path><path id="Vector_21" stroke="#120071" stroke-linecap="round" stroke-linejoin="round" d="m105.62522 42.86062 56.431425000000004 -9.490310000000001" stroke-width="1"></path><path id="Vector_22" stroke="#120071" stroke-linecap="round" stroke-linejoin="round" d="m13.02853 58.40053 82.23675 -13.80065" stroke-width="1"></path><path id="Vector_23" stroke="#120071" stroke-linecap="round" stroke-linejoin="round" d="m99.87809999999999 51.74597 16.919974999999997 15.19962" stroke-width="1"></path><path id="Vector_24" stroke="#120071" stroke-linecap="round" stroke-linejoin="round" d="M116.873695 68.60923c0.22686 -0.850725 0.227855 -1.457675 -0.07561999999999999 -1.66364 -0.28258 -0.19104000000000002 -0.796 -0.02189 -1.43678 0.434815 -0.960175 0.7580905 -1.82881 1.626427 -2.587 2.587" stroke-width="1"></path><path id="Vector_25" stroke="#120071" stroke-linecap="round" stroke-linejoin="round" d="M46.168 91.01165499999999c-6.389889999999999 -5.085445 -6.91923 -5.236685 -11.985769999999999 -10.77585 -10.70023 1.5124 -22.47705 5.085445 -27.46797995 7.44857 7.618028450000001 2.8784355 15.77722745 4.040297 23.895929950000003 3.4029l8.677395 7.807765000000001" stroke-width="1"></path><path id="Vector_26" stroke="#120071" stroke-linecap="round" stroke-linejoin="round" d="m94.225505 51.78378 17.827415000000002 15.993630000000001" stroke-width="1"></path><path id="Vector_27" stroke="#120071" stroke-linecap="round" stroke-linejoin="round" d="m103.39443 80.651715 -11.53205 -9.773885 6.983905 10.86739" stroke-width="1"></path><path id="Vector_28" stroke="#120071" stroke-linecap="round" stroke-linejoin="round" d="M144.550615 82.784c0.6965 0.15123999999999999 7.074450000000001 2.3800399999999997 8.412725 4.764060000000001 0.8955 1.587025 -3.62976 -1.569115 -6.560035 -1.66364" stroke-width="1"></path><path id="Vector_29" stroke="#120071" stroke-linecap="round" stroke-linejoin="round" d="M143.92675 84.86753c1.77707 0.6427700000000001 5.988905 2.4218300000000004 7.0893749999999995 4.423769999999999 0.995 1.81687 -2.587 -1.5124 -6.88142 -1.644735" stroke-width="1"></path><path id="Vector_30" stroke="#120071" stroke-linecap="round" stroke-linejoin="round" d="M143.43522000000002 87.24956c4.49939 2.627795 6.97893 5.06057 0.86963 2.4198399999999998 -3.15614 -1.364145 -26.1685 -2.060645 -26.1685 -2.060645 -2.01985 -0.20895 -3.94816 -0.9464440000000001 -5.5919 -2.138255l-9.11221 -6.91923" stroke-width="1"></path><path id="Vector_31" stroke="#120071" stroke-linecap="round" stroke-linejoin="round" d="m110.61614 68.2123245 9.26345 8.223675s23.21534 4.34815 24.99241 4.8556c1.77707 0.50745 6.032685 1.58603 7.278425 3.0058949999999998 0.66267 0.755205 -2.985 -0.5482450000000001 -5.198874999999999 -0.661675" stroke-width="1"></path><path id="Vector_32" stroke="#120071" stroke-linecap="round" stroke-linejoin="round" d="M112.12853999999999 69.44105c0.22686 -0.850725 0.227855 -1.457675 -0.07561999999999999 -1.66364 -0.28258 -0.19104000000000002 -0.796 -0.020895 -1.43678 0.434815 -2.615855 1.861645 -6.5033199999999995 7.632645 -7.316235 10.794755 -0.199 0.7761 -0.16318000000000002 1.4755850000000001 0.094525 1.644735 0.2985 0.199 1.153205 -0.037809999999999996 1.791 -0.7562" stroke-width="1"></path><path id="Vector_33" stroke="#120071" stroke-linecap="round" stroke-linejoin="round" d="M74.50759000000001 86.814745c4.5642640000000005 0.19223400000000002 9.054002500000001 -1.204149 12.70416 -3.951145" stroke-width="1"></path><path id="Vector_34" stroke="#120071" stroke-linecap="round" stroke-linejoin="round" d="m98.68708500000001 82.03178 2.0228349999999997 -3.648665" stroke-width="1"></path><path id="Vector_35" stroke="#120071" stroke-linecap="round" stroke-linejoin="round" d="M99.57561999999999 49.949000000000005c-1.24773 1.81488 -3.535235 1.02087 -6.69237 -2.0228349999999997" stroke-width="1"></path><path id="Vector_36" stroke="#120071" stroke-linecap="round" stroke-linejoin="round" d="M79.32538000000001 109.805215 94.01755 93.4504l-16.182679999999998 26.35357" stroke-width="1"></path><path id="Vector_37" stroke="#120071" stroke-linecap="round" stroke-linejoin="round" d="M56.207550000000005 119.180105c1.0671375 0.958185 2.312579 1.69747 3.6652815 2.174075 1.3527025 0.476605 2.7860995 0.68257 4.218302499999999 0.6049599999999999 1.4323025 -0.076615 2.8352524999999997 -0.43581 4.1287525 -1.0547 1.2935995 -0.619885 2.4523765 -1.48852 3.4101635 -2.556155l7.691350000000001 -8.54307 -3.04072 20.298 -12.55292 13.989700000000001c3.1496725000000003 5.530209999999999 8.004277499999999 9.893284999999999 13.83846 12.4375l13.290215 -14.802615000000001c1.9674135000000001 -2.188005 3.357926 -4.832715 4.045669999999999 -7.694335 2.8934599999999997 -12.139 1.909405 -33.57528 3.7809999999999997 -52.007655 -7.52419 -1.3989699999999998 -10.303225000000001 -3.10042 -16.03144 -7.618715 -3.7014 2.705405 -11.962885 4.713315 -20.265165 25.357575L50.006710000000005 88.629625c-5.7113000000000005 2.9059969999999997 -10.1383535 7.8315455 -12.420585 13.819555l18.621425 16.730925000000003Z" stroke-width="1"></path><path id="Vector_38" stroke="#120071" stroke-linecap="round" stroke-linejoin="round" d="M100.495 44.097405c-0.500485 -0.186662 -0.98903 -0.40397000000000005 -1.46265 -0.65073l0.960175 2.0895" stroke-width="1"></path><path id="Vector_39" stroke="#120071" stroke-linecap="round" stroke-linejoin="round" d="M101.27707 58.116955c-1.393 -4.0198 -2.54919 -10.165915 -0.787045 -14.01955 7.15803 2.6258049999999997 6.552075 -6.65456 4.454615 -11.558915M82.65067 74.39416c0.8044575 -2.5279965 1.34922 -5.1314139999999995 1.6258299999999999 -7.769955 0.48158 -4.059400999999999 1.65966 -8.005372 3.4825 -11.664385000000001 1.78105 -3.742195 5.870500000000001 -7.192855 7.96 -11.172854999999998 0.6261534999999999 -1.0934055 1.023855 -2.3025295 1.169125 -3.55414 0.21084050000000001 -1.3150915 -0.035024 -2.6627195 -0.6965 -3.81881 -2.816845 -0.9263450000000001 -1.54424 -4.24268 0.359195 -2.94918 0.910425 0.619885 1.266635 0.586055 1.32335 -0.018904999999999998 0.051242499999999996 -0.3181015 0.115022 -0.6207805 0.190244 -0.90744" stroke-width="1"></path><path id="Vector_40" stroke="#120071" stroke-linecap="round" stroke-linejoin="round" d="M67.909745 139.44626499999998c3.4193175 5.32723 8.285763000000001 9.56991 14.029499999999999 12.231535" stroke-width="1"></path><path id="Vector_41" stroke="#120071" stroke-linecap="round" stroke-linejoin="round" d="M41.707415000000005 106.097845c3.17604 -5.771 7.14609 -10.51118 12.36387 -13.80065" stroke-width="1"></path><path id="Vector_42" stroke="#120071" stroke-linecap="round" stroke-linejoin="round" d="M65.981435 147.5187c-3.99393 4.875500000000001 -7.566975 8.70227 -11.45643 12.760874999999999 -1.039775 6.144125 -0.5482450000000001 20.247255 1.43678 26.80729 5.273499999999999 -8.771920000000001 7.1838999999999995 -14.348894999999999 9.8505 -23.3825l8.091339999999999 -8.99878" stroke-width="1"></path><path id="Vector_43" stroke="#120071" stroke-linecap="round" stroke-linejoin="round" d="M31.02609 91.465375c1.784632 -2.8655005 3.9751244999999997 -5.4572765 6.5033199999999995 -7.694335" stroke-width="1"></path><path id="Vector_44" stroke="#120071" stroke-linecap="round" stroke-linejoin="round" d="M151.01612500000002 83.46856000000001c2.060645 0.207955 6.2535750000000005 1.4925 5.48245 0.6049599999999999 -0.5601849999999999 -0.5220765 -1.20594 -0.944056 -1.909405 -1.24773 -2.6666000000000003 -1.30345 -5.217779999999999 -1.720355 -8.053529999999999 -2.49546l-21.9895 -5.33121 -9.175889999999999 -7.62767" stroke-width="1"></path><path id="Vector_45" stroke="#120071" stroke-linecap="round" stroke-linejoin="round" d="m80.689525 86.07745 -16.957784999999998 24.916790000000002 -16.390635 -12.987735" stroke-width="1"></path><path id="Vector_46" stroke="#120071" stroke-linecap="round" stroke-linejoin="round" d="M127.04458500000001 29.343545c0.12736 0.7664485 0.023880000000000002 1.553394 -0.29651 2.2613365 -0.319395 0.707843 -0.842765 1.3049425000000001 -1.50245 1.7156784999999999 -0.65869 0.410736 -1.425835 0.616701 -2.201935 0.591826 -0.777095 -0.024875 -1.5283200000000001 -0.279396 -2.160145 -0.731524 -0.631825 -0.4520285 -1.115395 -1.081366 -1.390015 -1.8083129999999998 -0.273625 -0.7268475 -0.32636000000000004 -1.518768 -0.150245 -2.275565 0.17512 -0.7566974999999999 0.572125 -1.444342 1.13828 -1.975871 0.5671499999999999 -0.531529 1.278575 -0.8831619999999999 2.044725 -1.010323 1.0278349999999998 -0.169946 2.08154 0.0751225 2.9282850000000002 0.6812765s1.4188699999999999 1.5238425 1.5900100000000001 2.5514785v0Z" stroke-width="1"></path><path id="Vector_47" stroke="#120071" stroke-linecap="round" stroke-linejoin="round" d="M137.74481500000002 27.566474999999997c0.12736 0.7664485 0.023880000000000002 1.553394 -0.29651 2.2613365 -0.319395 0.707843 -0.842765 1.3049425000000001 -1.50245 1.7156784999999999 -0.65869 0.410736 -1.425835 0.616701 -2.201935 0.591826 -0.777095 -0.024875 -1.5283200000000001 -0.2794955 -2.160145 -0.731524 -0.631825 -0.4520285 -1.115395 -1.081366 -1.390015 -1.8083129999999998 -0.273625 -0.7268475 -0.32636000000000004 -1.518768 -0.150245 -2.275565 0.17512 -0.7566974999999999 0.572125 -1.444342 1.13828 -1.975871 0.5671499999999999 -0.531529 1.278575 -0.8831619999999999 2.044725 -1.010323 1.0278349999999998 -0.169946 2.0805450000000003 0.07502299999999999 2.9282850000000002 0.6812765 0.846745 0.606154 1.4188699999999999 1.5238425 1.5900100000000001 2.5514785v0Z" stroke-width="1"></path><path id="Vector_48" stroke="#120071" stroke-linecap="round" stroke-linejoin="round" d="M148.634095 25.751595000000002c0.12736 0.7664485 0.023880000000000002 1.553394 -0.29651 2.2613365 -0.319395 0.707843 -0.842765 1.3049425000000001 -1.50245 1.7156784999999999 -0.65869 0.410736 -1.425835 0.6166015 -2.201935 0.591826 -0.777095 -0.024875 -1.5283200000000001 -0.2794955 -2.160145 -0.731524 -0.631825 -0.45212800000000003 -1.115395 -1.081366 -1.390015 -1.8083129999999998 -0.273625 -0.7268475 -0.32636000000000004 -1.518768 -0.150245 -2.275565 0.17512 -0.756797 0.572125 -1.444342 1.13828 -1.975871 0.5671499999999999 -0.531529 1.278575 -0.8831619999999999 2.044725 -1.010323 1.0278349999999998 -0.1702445 2.08154 0.0747245 2.9282850000000002 0.6808785 0.8477399999999999 0.6062535 1.419865 1.524141 1.5900100000000001 2.5518765v0Z" stroke-width="1"></path><path id="Vector_49" stroke="#120071" stroke-linecap="round" stroke-linejoin="round" d="m36.111534999999996 11.913135 -7.22171 10.17089" stroke-width="1"></path><path id="Vector_50" stroke="#120071" stroke-linecap="round" stroke-linejoin="round" d="m37.586124999999996 20.609435 -10.151985 -7.22171" stroke-width="1"></path><path id="Vector_51" stroke="#120071" stroke-linecap="round" stroke-linejoin="round" d="m7.43265 121.54323 -0.22686 0.07561999999999999 6.975945 6.181935L4.975 137.91496l4.9342049999999995 4.404864999999999 9.206735 -10.13308 6.956045 6.182930000000001 5.19987 -24.481975000000002 -23.839205 7.65553Z" stroke-width="1"></path><path id="Vector_52" stroke="#120071" stroke-linecap="round" stroke-linejoin="round" d="m129.18085000000002 135.49512 -14.63247 -4.5371999999999995 12.307155 -8.54506" stroke-width="1"></path><path id="Vector_53" stroke="#120071" stroke-linecap="round" stroke-linejoin="round" d="m141.20442999999997 133.56681 12.212629999999999 -9.03659 -14.537945 -4.064575" stroke-width="1"></path><path id="Vector_54" stroke="#120071" stroke-linecap="round" stroke-linejoin="round" d="m136.62942 115.07772 -5.350115 26.05109" stroke-width="1"></path><path id="Vector_55" stroke="#120071" stroke-linecap="round" stroke-linejoin="round" d="m18.269692499999998 90.661614 9.8072175 60.467940999999996c0.350439 2.0626349999999998 1.103853 4.03572 2.2171585 5.805825 1.113405 1.7711000000000001 2.5648115000000002 3.30539 4.271336 4.51531 1.7065245 1.208925 3.634735 2.070595 5.6743855 2.53526 2.0397499999999997 0.46367 4.1508415 0.5213800000000001 6.2127799999999995 0.16915000000000002l7.862788500000001 -1.322355" stroke-width="1"></path><path id="Vector_56" stroke="#120071" stroke-linecap="round" stroke-linejoin="round" d="m171.226565 90.00222749999999 5.84065 36.0025825c0.35223 2.06164 0.29452 4.17303 -0.16915000000000002 6.2127799999999995 -0.46466500000000005 2.0397499999999997 -1.326335 3.96806 -2.53526 5.674485000000001 -1.2099199999999999 1.706425 -2.74421 3.15813 -4.51531 4.271535 -1.7711000000000001 1.113405 -3.74319 1.86662 -5.805825 2.21686l-95.210754 16.01154" stroke-width="1"></path><path id="Vector_57" stroke="#120071" stroke-linecap="round" stroke-linejoin="round" d="M74.8686755 27.339217 25.354589999999998 35.65781500000001c-2.062237 0.3505385 -4.035222500000001 1.1039525 -5.8061235 2.217258 -1.770901 1.1133055 -3.304992 2.5647119999999997 -4.5147129999999995 4.271336 -1.2096215 1.7065245 -2.071192 3.634735 -2.53526 5.6743855 -0.464068 2.0396505 -0.5216784999999999 4.1508415 -0.1694485 6.2126805l4.850028 29.903530999999997" stroke-width="1"></path><path id="Vector_58" stroke="#120071" stroke-linecap="round" stroke-linejoin="round" d="m102.694945 22.6642095 40.248745 -6.7621195c2.06164 -0.35223 4.17303 -0.2946195 6.2127799999999995 0.1694485s3.96806 1.3256385 5.674485000000001 2.53526c1.706425 1.209721 3.15813 2.743812 4.271535 4.5147129999999995 1.113405 1.770901 1.86662 3.7438865000000003 2.21686 5.8061235l7.463495 46.0112875" stroke-width="1"></path><path id="Vector_59" stroke="#120071" stroke-linecap="round" stroke-linejoin="round" d="M58.32491 156.271715c2.082336 2.860625 4.609835 5.36902 7.48638 7.429665" stroke-width="1"></path></g></g></svg>