<svg xmlns="http://www.w3.org/2000/svg" fill="none" viewBox="-0.5 -0.5 200 200" id="Trophy-Awards--Streamline-Bangalore.svg" height="200" width="200"><desc>Trophy Awards Streamline Illustration: https://streamlinehq.com</desc><g id="Users-People-Trophy-Awards-01"><g id="color 2"><path id="Vector" fill="#eee4ff" d="M94.717035 85.09439c-6.2197450000000005 3.17604 -15.04838 14.97276 -15.04838 14.97276L68.91171 87.36099999999999a20.436305 20.436305 0 0 0 -11.38081 9.019675l14.462325 16.390635a9.974875 9.974875 0 0 0 12.81759 1.81488l18.2085 -11.588765 -9.41469 8.96097 -3.13823 42.27158a20.330835 20.330835 0 0 0 14.934949999999999 -0.207955l4.140194999999999 -64.61729c-3.23574 1.92831 -11.47832 -0.84973 -14.824504999999998 -4.31034Z" stroke-width="1"></path><path id="Vector_2" fill="#eee4ff" d="M106.04113 77.286625a2.930275 2.930275 0 1 0 0 5.86055 2.930275 2.930275 0 0 0 0 -5.86055Z" stroke-width="1"></path><path id="Vector_3" fill="#eee4ff" d="M129.67238 143.567555a10.34004 10.34004 0 0 0 8.450535 10.17089v22.629285h3.799905v-22.629285a10.350985 10.350985 0 0 0 8.450535 -10.17089h-20.700975Zm10.341035 7.22171a1.9472150000000001 1.9472150000000001 0 1 1 0.000995 -3.8944300000000003 1.9472150000000001 1.9472150000000001 0 0 1 -0.000995 3.8944300000000003Z" stroke-width="1"></path><path id="Vector_4" fill="#eee4ff" d="M61.860144999999996 176.314a7.24559 7.24559 0 0 1 1.1342999999999999 -3.346185c2.5690899999999997 -3.837715 4.5371999999999995 -7.0645 4.5371999999999995 -16.352825H54.31705c0 8.6565 1.654685 11.741000000000001 4.4426749999999995 16.182679999999998a7.459515 7.459515 0 0 1 1.24773 3.51633c-0.07561999999999999 3.043705 -0.398 4.12129 -3.421805 5.17997h8.6963c-3.0058949999999998 -1.0616649999999999 -3.3839949999999996 -2.13925 -3.421805 -5.17997Zm-3.28947 -9.811695 0.83182 -2.76013 -2.30641 -1.73926 2.892465 -0.056715 0.9452499999999999 -2.7223200000000003 0.9452499999999999 2.7223200000000003 2.892465 0.056715 -2.30641 1.73926 0.83182 2.76013 -2.363125 -1.644735 -2.363125 1.644735Z" stroke-width="1"></path></g><g id="color 1"><path id="Vector_5" fill="#6b63ff" d="m102.997425 102.997425 -9.41469 8.96097 0.22686 -3.119325 9.18783 -5.841645000000001Z" stroke-width="1"></path><path id="Vector_6" fill="#6b63ff" d="M104.077 170.01565a45.27449 45.27449 0 0 1 -0.87162 -15.214545000000001c-3.2506649999999997 0.898485 -6.673465 0.9751 -9.960944999999999 0.22288a16.951815 16.951815 0 0 1 -0.8129149999999999 7.013755000000001c1.32335 1.52434 4.00985 2.23079 4.556105 7.996815000000001a3.27355 3.27355 0 0 0 3.232755 2.94918h10.114175a8.44954 8.44954 0 0 0 -6.257555 -2.968085Z" stroke-width="1"></path><path id="Vector_7" fill="#6b63ff" d="M60.894000000000005 80.48156999999999c-7.3918550000000005 -1.228825 -18.82938 -1.77707 -23.13972 0a65.388415 65.388415 0 0 0 13.159870000000002 7.202805c1.7621449999999999 0.47759999999999997 3.37504 1.393 4.68844 2.661625l3.459615 3.8944300000000003a19.74677 19.74677 0 0 1 8.16696 -6.27646l-6.335165 -7.482399999999999Z" stroke-width="1"></path><path id="Vector_8" fill="#6b63ff" d="m103.69691 61.141754999999996 1.43678 1.644735c0.048755 -0.377105 0.148255 -0.745255 0.2985 -1.0945a9.497275 9.497275 0 0 1 -1.73528 -0.550235Z" stroke-width="1"></path><path id="Vector_9" fill="#6b63ff" d="M97.908 49.666419999999995c-5.138179999999999 5.444640000000001 2.972065 10.189795 3.582 10.53108a28.56645 28.56645 0 0 0 -0.434815 -4.593915c-2.07955 -0.6965 -1.115395 -3.1571350000000002 0.28357499999999997 -2.189 0.44178 0.35223 0.9024650000000001 0.5611799999999999 0.9830599999999999 0 0.586055 -3.55414 3.28947 -4.49939 4.99092 -1.2099199999999999 -2.311385 -4.674510000000001 -5.3988700000000005 -6.353075 -9.40474 -2.5382450000000003Z" stroke-width="1"></path><path id="Vector_10" fill="#6b63ff" d="M98.346795 43.106385a3.9979099999999996 3.9979099999999996 0 1 0 0.359195 5.8227400000000005 4.237705 4.237705 0 0 0 -0.359195 -5.8227400000000005Z" stroke-width="1"></path><path id="Vector_11" fill="#6b63ff" d="M82.03178 70.707685c-0.17014500000000002 1.70145 0.17014500000000002 3.0845000000000002 1.001965 3.36509 0.9830599999999999 0.32138500000000003 2.098455 -0.5482450000000001 3.119325 -1.92831a67.647065 67.647065 0 0 1 -4.12129 -1.43678Z" stroke-width="1"></path><path id="Vector_12" fill="#6b63ff" d="m94.54689 77.81596499999999 -1.153205 1.606925a44.19392 44.19392 0 0 0 -0.796 -2.174075c0.68257 0.18905 1.344245 0.3781 1.949205 0.5671499999999999Z" stroke-width="1"></path><path id="Vector_13" fill="#6b63ff" d="M107.30776499999999 8.71819v22.969575000000003c15.180715 5.52026 30.36143 -5.52026 45.542145 0V8.71819c-15.180715 -5.52026 -30.36541 5.52026 -45.542145 0Z" stroke-width="1"></path></g><g id="outlines"><path id="Vector_14" stroke="#120071" stroke-linecap="round" stroke-linejoin="round" d="M152.84991 50.933055v15.123999999999999" stroke-width="1"></path><path id="Vector_15" stroke="#120071" stroke-linecap="round" stroke-linejoin="round" d="M152.84991 4.975v35.12549" stroke-width="1"></path><path id="Vector_16" stroke="#120071" stroke-linecap="round" stroke-linejoin="round" d="m108.555495 64.07203 -2.514365 13.214595000000001 -9.03659 -12.89321" stroke-width="1"></path><path id="Vector_17" stroke="#120071" stroke-linecap="round" stroke-linejoin="round" d="M94.717035 85.09439c-6.2197450000000005 3.17604 -15.04838 14.97276 -15.04838 14.97276L68.91171 87.36099999999999a20.436305 20.436305 0 0 0 -11.38081 9.019675l14.4275 16.390635a9.978855 9.978855 0 0 0 12.8156 1.81488l9.03659 -5.74712 -3.36509 45.390905a20.476105 20.476105 0 0 0 14.953854999999999 -0.22686l4.140194999999999 -64.59838500000001" stroke-width="1"></path><path id="Vector_18" stroke="#120071" stroke-linecap="round" stroke-linejoin="round" d="m102.997425 102.997425 -9.41469 8.96097 0.22686 -3.119325 9.18783 -5.841645000000001Z" stroke-width="1"></path><path id="Vector_19" stroke="#120071" stroke-linecap="round" stroke-linejoin="round" d="M111.56139 174.977715a6.864505 6.864505 0 0 0 -1.228825 -1.99h-10.095270000000001a3.288475 3.288475 0 0 1 -3.232755 -2.94918 10.830575 10.830575 0 0 0 -2.098455 -5.771c-0.45471500000000004 -0.54725 -1.81488 -1.5124 -2.45765 -2.23079 -0.9263450000000001 3.232755 -0.17512 3.02878 0.83182 4.23472a10.64849 10.64849 0 0 1 2.098455 5.74712 3.2506649999999997 3.2506649999999997 0 0 0 3.21385 2.958135l12.96883 0.000995Z" stroke-width="1"></path><path id="Vector_20" stroke="#120071" stroke-linecap="round" stroke-linejoin="round" d="M103.20339 154.801105a45.317275 45.317275 0 0 0 0.87162 15.195640000000001 8.39581 8.39581 0 0 1 6.23865 2.95913h-10.095270000000001a3.25962 3.25962 0 0 1 -3.232755 -2.940225 10.62859 10.62859 0 0 0 -2.098455 -5.771c-0.466655 -0.554215 -1.833785 -1.5124 -2.45765 -2.23079 0.094525 -0.32138500000000003 0.18905 -0.661675 0.32138500000000003 -1.05868 0.49551 -1.929305 0.6636650000000001 -3.92826 0.4975 -5.913284999999999" stroke-width="1"></path><path id="Vector_21" stroke="#120071" stroke-linecap="round" stroke-linejoin="round" d="M67.229165 87.96795 60.894000000000005 80.48156999999999c-7.3918550000000005 -1.228825 -18.82938 -1.77707 -23.13972 0a65.73765999999999 65.73765999999999 0 0 0 13.159870000000002 7.202805c1.76314 0.476605 3.376035 1.393 4.68844 2.661625l3.459615 3.8944300000000003" stroke-width="1"></path><path id="Vector_22" stroke="#120071" stroke-linecap="round" stroke-linejoin="round" d="M37.75627 80.48156999999999a49.28832 49.28832 0 0 1 -2.4198399999999998 -1.81488c4.179 -2.00393 16.33392 -1.606925 23.839205 -0.22686l1.7183650000000001 2.04174" stroke-width="1"></path><path id="Vector_23" stroke="#120071" stroke-linecap="round" stroke-linejoin="round" d="m105.13369 62.7845 -1.45469 -1.6427450000000001c0.56914 0.23382499999999998 1.1571850000000001 0.4179 1.758165 0.5482450000000001" stroke-width="1"></path><path id="Vector_24" stroke="#120071" stroke-linecap="round" stroke-linejoin="round" d="M50.57386 52.934000000000005c-0.037809999999999996 0.056715 -1.6915 -1.167135 -3.686475 -2.6865 -2.23477 -1.6915 -2.02383 -2.77804 0.888535 -1.228825a14.559835 14.559835 0 0 0 4.6506300000000005 1.77707" stroke-width="1"></path><path id="Vector_25" stroke="#120071" stroke-linecap="round" stroke-linejoin="round" d="M53.579755 49.269415s-4.975 -3.535235 -5.2934 -3.7809999999999997c-2.3253150000000002 -1.77707 -3.019825 -0.98704 -1.24773 1.001965 1.62981 1.829805 3.837715 3.9322399999999997 3.837715 3.9322399999999997" stroke-width="1"></path><path id="Vector_26" stroke="#120071" stroke-linecap="round" stroke-linejoin="round" d="M87.74109 62.049195c-12.25044 -4.329245 -25.409315 -10.546999999999999 -25.502845 -10.5868 -1.011915 -0.43083499999999997 -2.04174 -1.720355 -1.8526900000000002 -2.6865 0.32238 -1.644735 1.04077 -3.9929349999999997 0.207955 -4.1591 -1.26564 -0.251735 -2.0228349999999997 3.28947 -3.21385 4.102385 -0.41591 0.28357499999999997 -1.60593 -0.58705 -2.0228349999999997 -0.9830599999999999 -0.6965 -0.6636650000000001 -3.0616149999999998 -2.8934599999999997 -3.28947 -3.119325 -2.0895 -2.070595 -2.786 -1.149225 -1.266635 0.83182a14.952860000000001 14.952860000000001 0 0 1 1.9671150000000002 3.24171" stroke-width="1"></path><path id="Vector_27" stroke="#120071" stroke-linecap="round" stroke-linejoin="round" d="M54.468289999999996 48.324165a9.154 9.154 0 0 0 -2.892465 5.5053350000000005" stroke-width="1"></path><path id="Vector_28" stroke="#120071" stroke-linecap="round" stroke-linejoin="round" d="M55.394635 49.949000000000005c-0.6427700000000001 2.363125 -0.22686 4.31034 1.77707 5.52026" stroke-width="1"></path><path id="Vector_29" stroke="#120071" stroke-linecap="round" stroke-linejoin="round" d="M114.075755 73.014095c0.14726 1.0964900000000002 0.18506999999999998 2.20492 0.11343 3.3083750000000003" stroke-width="1"></path><path id="Vector_30" stroke="#120071" stroke-linecap="round" stroke-linejoin="round" d="M101.46612 60.21541c-4.782965000000001 -2.6865 -7.3848899999999995 -6.89535 -2.76013 -11.30519 4.045669999999999 -3.459615 7.0893749999999995 0.17014500000000002 8.601775 3.28947" stroke-width="1"></path><path id="Vector_31" stroke="#120071" stroke-linecap="round" stroke-linejoin="round" d="M98.346795 43.106385a3.9979099999999996 3.9979099999999996 0 1 0 0.359195 5.8227400000000005 4.237705 4.237705 0 0 0 -0.359195 -5.8227400000000005v0Z" stroke-width="1"></path><path id="Vector_32" stroke="#120071" stroke-linecap="round" stroke-linejoin="round" d="M83.071555 74.09168c-0.8338099999999999 -0.28457 -1.2109150000000002 -1.6915 -1.03878 -3.393945" stroke-width="1"></path><path id="Vector_33" stroke="#120071" stroke-linecap="round" stroke-linejoin="round" d="M86.15307 72.14446500000001C75.78716 68.83907500000001 58.64331 60.297000000000004 52.16188 56.528935000000004c-1.362155 -0.796 -2.745205 -1.54424 -4.12129 -2.30641a43.6208 43.6208 0 0 1 -1.66364 -0.964155c-2.331285 -1.42683 -2.2118849999999997 -2.3253150000000002 0.71839 -1.2099199999999999a17.00455 17.00455 0 0 0 3.421805 0.888535h0.018904999999999998c0.38805 0.06567 0.779085 0.10347999999999999 1.17211 0.11343" stroke-width="1"></path><path id="Vector_34" stroke="#120071" stroke-linecap="round" stroke-linejoin="round" d="M151.48875 47.908255000000004c-1.8705999999999998 -0.1592 -1.909405 -2.422825 -0.094525 -2.4009349999999996 1.342255 0.016915 2.30641 0.07561999999999999 3.36509 0.132335 1.7959749999999999 0.0995 1.758165 2.4875 0.28357499999999997 2.53327a35.620005 35.620005 0 0 1 -3.55414 -0.26467v0Z" stroke-width="1"></path><path id="Vector_35" stroke="#120071" stroke-linecap="round" stroke-linejoin="round" d="M152.88772 40.32735c0.661675 -0.018904999999999998 1.1342999999999999 -0.008955 1.77707 -0.018904999999999998 1.70145 -0.024875 1.758165 2.388 0.359195 2.514365 -0.72436 0.048755 -1.449715 0.048755 -2.174075 0" stroke-width="1"></path><path id="Vector_36" stroke="#120071" stroke-linecap="round" stroke-linejoin="round" d="M151.03503 50.479335c-1.7959749999999999 -0.20596499999999998 -1.7959749999999999 -2.4009349999999996 -0.037809999999999996 -2.3253150000000002 1.3044449999999999 0.056715 2.229795 0.14029499999999998 3.2516599999999998 0.22686 1.71936 0.14526999999999998 1.644735 2.45765 0.22686 2.45765 -0.86963 0 -1.77707 -0.168155 -3.44071 -0.359195Z" stroke-width="1"></path><path id="Vector_37" stroke="#120071" stroke-linecap="round" stroke-linejoin="round" d="M152.832 42.8845c0.6965 0.018904999999999998 1.2855400000000001 0.074625 1.9661199999999999 0.094525 1.81488 0.05373 1.8526900000000002 2.476555 0.34029000000000004 2.5710800000000003 -0.90744 0.056715 -1.871595 -0.078605 -3.610855 -0.17014500000000002a1.2109150000000002 1.2109150000000002 0 0 1 -1.163155 -1.60792c0.08656499999999999 -0.24676 0.249745 -0.4577 0.466655 -0.603965" stroke-width="1"></path><path id="Vector_38" stroke="#120071" stroke-linecap="round" stroke-linejoin="round" d="M117.87566 59.024395c13.989700000000001 -7.278425 30.51267 -20.17661 32.74346 -20.020394999999997 2.627795 0.184075 2.39397 0.2985 2.15517 4.801869999999999 -0.05870499999999999 1.0945 -1.9661199999999999 1.2099199999999999 -2.30641 -2.2885 0.28357499999999997 2.6865 -0.9452499999999999 4.518295 -2.76013 5.10435" stroke-width="1"></path><path id="Vector_39" stroke="#120071" stroke-linecap="round" stroke-linejoin="round" d="M154.13545 50.819625c-2.3820300000000003 0.22686 -5.40683 0.18905 -9.357975 3.0845000000000002a212.67328999999998 212.67328999999998 0 0 1 -21.041265 13.6116" stroke-width="1"></path><path id="Vector_40" stroke="#120071" stroke-linecap="round" stroke-linejoin="round" d="M92.63449999999999 77.26175c0.6805800000000001 0.207955 1.3104149999999999 0.365165 1.93428 0.5353100000000001L93.41259000000001 79.401" stroke-width="1"></path><path id="Vector_41" stroke="#120071" stroke-linecap="round" stroke-linejoin="round" d="M92.63449999999999 77.26175a37.367225 37.367225 0 0 1 2.0895 7.851545c3.346185 3.459615 11.588765 6.2197450000000005 14.8255 4.291435 1.92831 -6.368 4.34815 -8.526155000000001 4.6506300000000005 -13.08226 3.62976 -1.833785 7.580905 -4.00786 9.868409999999999 -6.08741 0 -4.19691 -2.552175 -9.154 -6.181935 -11.210664999999999a102.87305 102.87305 0 0 1 -9.320165000000001 5.0476350000000005c-1.1342999999999999 0.492525 -1.6258299999999999 0.6427700000000001 -2.189 0.434815 -1.909405 0.964155 -4.61282 0.71839 -7.03266 -0.056715 -0.373125 0.11542000000000001 -0.76615 0.148255 -1.153205 0.094525a53.599655 53.599655 0 0 1 -10.435559999999999 -2.49546c3.1571350000000002 1.24574 -1.25171 12.89719 -4.669535 12.0395A143.324775 143.324775 0 0 0 92.63449999999999 77.26175Z" stroke-width="1"></path><path id="Vector_42" stroke="#120071" stroke-linecap="round" stroke-linejoin="round" d="M106.36550000000001 64.506845a1.9123899999999998 1.9123899999999998 0 0 1 -1.228825 -1.720355c0.04975 -0.37611 0.150245 -0.74426 0.2985 -1.0945 3.9740300000000004 0.6188899999999999 3.618815 -5.389915 1.871595 -9.490310000000001 -1.70145 -3.28947 -4.44367 -2.35019 -4.99092 1.2099199999999999 -0.08656499999999999 0.56317 -0.597 0.341285 -1.001965 0.018904999999999998 -1.3989699999999998 -0.964155 -2.363125 1.4925 -0.28357499999999997 2.189 0.271635 1.51638 0.41690499999999997 3.053655 0.434815 4.593915 -0.00995 1.92831 -0.32138500000000003 3.6815 -2.136265 4.23472" stroke-width="1"></path><path id="Vector_43" stroke="#120071" stroke-linecap="round" stroke-linejoin="round" d="M81.23777 194.025v-19.018430000000002h38.414959999999994V194.025" stroke-width="1"></path><path id="Vector_44" stroke="#120071" stroke-linecap="round" stroke-linejoin="round" d="M42.82281 194.025v-9.509215000000001h38.414959999999994V194.025" stroke-width="1"></path><path id="Vector_45" stroke="#120071" stroke-linecap="round" stroke-linejoin="round" d="M119.65273 194.025v-13.989700000000001h38.433865000000004V194.025" stroke-width="1"></path><path id="Vector_46" stroke="#120071" stroke-linecap="round" stroke-linejoin="round" d="M107.30776499999999 8.71819v22.969575000000003c15.180715 5.52026 30.36143 -5.52026 45.542145 0V8.71819c-15.180715 -5.52026 -30.36541 5.52026 -45.542145 0Z" stroke-width="1"></path><path id="Vector_47" stroke="#120071" stroke-linecap="round" stroke-linejoin="round" d="M147.32965 176.36773v3.66757h-14.651375v-3.66757h14.651375Z" stroke-width="1"></path><path id="Vector_48" stroke="#120071" stroke-linecap="round" stroke-linejoin="round" d="M129.67238 143.567555a10.372875 10.372875 0 0 0 8.450535 10.17089v22.629285h3.799905v-22.629285a10.33208 10.33208 0 0 0 8.450535 -10.17089h-20.700975Z" stroke-width="1"></path><path id="Vector_49" stroke="#120071" stroke-linecap="round" stroke-linejoin="round" d="M132.527035 150.69474a10.655455 10.655455 0 0 1 -9.641549999999999 -5.312305h6.962015" stroke-width="1"></path><path id="Vector_50" stroke="#120071" stroke-linecap="round" stroke-linejoin="round" d="M147.575415 150.69474a10.655455 10.655455 0 0 0 9.641549999999999 -5.312305h-6.938135" stroke-width="1"></path><path id="Vector_51" stroke="#120071" stroke-linecap="round" stroke-linejoin="round" d="M139.257215 95.473235a3.3232999999999997 3.3232999999999997 0 0 1 -2.05368 3.07455 3.32728 3.32728 0 1 1 2.05368 -3.07455Z" stroke-width="1"></path><path id="Vector_52" stroke="#120071" stroke-linecap="round" stroke-linejoin="round" d="M141.971575 148.84404a1.9502 1.9502 0 0 1 -2.329295 1.911395 1.9531850000000002 1.9531850000000002 0 0 1 -1.53031 -1.531305 1.94423 1.94423 0 0 1 0.8278399999999999 -1.9999499999999997 1.945225 1.945225 0 0 1 2.45964 0.24278c0.365165 0.365165 0.5711299999999999 0.860675 0.572125 1.3770799999999999Z" stroke-width="1"></path><path id="Vector_53" stroke="#120071" stroke-linecap="round" stroke-linejoin="round" d="M76.38814 28.71968v6.7868949999999995" stroke-width="1"></path><path id="Vector_54" stroke="#120071" stroke-linecap="round" stroke-linejoin="round" d="M79.78208500000001 32.113625h-6.8058" stroke-width="1"></path><path id="Vector_55" stroke="#120071" stroke-linecap="round" stroke-linejoin="round" d="m61.141754999999996 128.594795 -2.34422 5.226735h4.27253l-2.34422 5.227729999999999" stroke-width="1"></path><path id="Vector_56" stroke="#120071" stroke-linecap="round" stroke-linejoin="round" d="m65.1725 88.953 11.452449999999999 13.515085000000001c2.04174 2.49546 3.648665 2.4009349999999996 5.463545 0.018904999999999998 3.383 -4.4426749999999995 9.565930000000002 -12.212629999999999 14.726 -15.69115" stroke-width="1"></path><path id="Vector_57" stroke="#120071" stroke-linecap="round" stroke-linejoin="round" d="m63.61831 89.915165 12.647445 14.575755A4.18298 4.18298 0 0 0 79.6 105.93864500000001a4.184970000000001 4.184970000000001 0 0 0 3.2068849999999998 -1.7123950000000001c3.6645849999999998 -5.0118149999999995 10.000745 -13.04445 15.35086 -16.6364" stroke-width="1"></path><path id="Vector_58" stroke="#120071" stroke-linecap="round" stroke-linejoin="round" d="m98.70599 105.81427000000001 -3.55414 49.550005" stroke-width="1"></path><path id="Vector_59" stroke="#120071" stroke-linecap="round" stroke-linejoin="round" d="M65.73567 184.44016499999998h-9.603739999999998l0.45372 -2.94918h8.6963l0.45372 2.94918Z" stroke-width="1"></path><path id="Vector_60" stroke="#120071" stroke-linecap="round" stroke-linejoin="round" d="M57.03937 170.05345999999997c-2.476555 0 -8.16696 -3.071565 -8.16696 -11.200714999999999h5.501355" stroke-width="1"></path><path id="Vector_61" stroke="#120071" stroke-linecap="round" stroke-linejoin="round" d="m62.465105 163.73919 0.83182 2.76013 -2.363125 -1.644735 -2.363125 1.644735 0.83182 -2.76013 -2.30641 -1.73926 2.892465 -0.07561999999999999 0.9452499999999999 -2.7223200000000003 0.9452499999999999 2.7223200000000003 2.892465 0.07561999999999999 -2.30641 1.73926Z" stroke-width="1"></path><path id="Vector_62" stroke="#120071" stroke-linecap="round" stroke-linejoin="round" d="M65.28195 181.488c-3.0058949999999998 -1.05868 -3.4029 -2.136265 -3.421805 -5.17997a7.1858900000000006 7.1858900000000006 0 0 1 1.1342999999999999 -3.346185c2.695455 -4.06756 4.5371999999999995 -7.2834 4.5371999999999995 -16.352825H54.335955c0 8.6565 1.654685 11.741000000000001 4.4426749999999995 16.182679999999998a7.41275 7.41275 0 0 1 1.24773 3.51633c-0.06368 3.043705 -0.398 4.12129 -3.421805 5.17997h8.677395Z" stroke-width="1"></path><path id="Vector_63" stroke="#120071" stroke-linecap="round" stroke-linejoin="round" d="M64.90385 170.05345999999997c2.49546 0 8.072434999999999 -3.0845000000000002 8.072434999999999 -11.210664999999999h-5.48245" stroke-width="1"></path><path id="Vector_64" stroke="#120071" stroke-linecap="round" stroke-linejoin="round" d="M172.92702 194.025H26.07298" stroke-width="1"></path><path id="Vector_65" stroke="#120071" d="M106.04113 77.286625a2.930275 2.930275 0 1 0 0 5.86055 2.930275 2.930275 0 0 0 0 -5.86055Z" stroke-width="1"></path></g></g></svg>