<svg width="693" height="205" viewBox="0 0 693 205" fill="none" xmlns="http://www.w3.org/2000/svg">
<path d="M10.1275 162.065C11.8363 162.065 13.6354 161.526 15.434 160.267V64.0292C15.434 60.7915 16.0637 59.5324 18.9419 58.0031L102.318 9.97453C102.588 4.03833 98.8099 0.35083 93.6834 0.35083C91.3448 0.35083 88.8262 0.98053 86.1281 2.59923L10.7572 45.9511C1.94287 51.0776 0.86377 52.6966 0.86377 62.9501V149.024C0.86377 156.759 4.55123 162.065 10.1275 162.065ZM46.1041 182.842C47.7231 182.842 49.5218 182.302 51.4106 181.043V84.8053C51.4106 81.2983 51.8603 80.3983 54.8283 78.7798L138.204 30.6609C138.474 24.8149 134.786 21.0372 129.57 21.0372C127.321 21.0372 124.713 21.7568 122.105 23.1958L46.5538 66.6375C37.7395 71.6742 36.7502 73.5631 36.7502 83.6363V169.8C36.7502 177.535 40.6176 182.842 46.1041 182.842ZM84.5992 204.787C87.7471 204.787 91.5244 203.528 96.0216 201.01L166.536 160.536C174.811 155.769 178.049 150.822 178.049 140.749L177.869 59.2622C177.869 48.4692 174 42.9828 167.255 42.9828C164.288 42.9828 160.51 44.1524 156.283 46.5804L85.5885 87.3243C77.1338 92.2713 74.1658 97.3073 74.1658 107.111V188.598C74.1658 199.031 77.8533 204.787 84.5992 204.787Z" fill="#F7F7F7"/>
<path d="M675.638 47.5745C671.155 47.5745 667.262 45.982 663.96 42.797C660.657 39.4941 659.005 35.5423 659.005 30.9418C659.005 26.3413 660.657 22.4485 663.96 19.2635C667.262 15.9606 671.155 14.3091 675.638 14.3091C680.356 14.3091 684.308 15.9606 687.493 19.2635C690.796 22.4485 692.447 26.3413 692.447 30.9418C692.447 35.5423 690.796 39.4941 687.493 42.797C684.308 45.982 680.356 47.5745 675.638 47.5745ZM662.367 148.079V59.6067H689.086V148.079H662.367Z" fill="#F7F7F7"/>
<path d="M590.206 150.025C579.471 150.025 571.214 146.427 565.434 139.231C559.653 132.035 556.763 122.303 556.763 110.035V59.6064H583.482V105.435C583.482 119.001 588.023 125.783 597.107 125.783C608.195 125.783 613.739 118.057 613.739 102.604V59.6064H640.458V148.078H613.739V139.054C608.667 146.368 600.822 150.025 590.206 150.025Z" fill="#F7F7F7"/>
<path d="M454.258 150.025C440.574 150.025 429.309 145.66 420.462 136.931C411.732 128.202 407.368 117.113 407.368 103.666C407.368 90.454 411.791 79.4835 420.639 70.7542C429.604 62.025 440.81 57.6604 454.258 57.6604C460.746 57.6604 466.821 58.781 472.483 61.0223C478.263 63.2636 483.336 66.5076 487.7 70.7542C492.183 75.0009 495.663 80.4861 498.14 87.21C500.617 93.9339 501.738 101.542 501.502 110.036H433.379C433.85 114.872 435.974 118.942 439.748 122.245C443.523 125.43 448.832 127.022 455.673 127.022C459.566 127.022 463.105 126.256 466.29 124.722C469.475 123.071 471.598 121.065 472.66 118.706H500.617C497.786 128.025 492.124 135.575 483.631 141.355C475.137 147.135 465.346 150.025 454.258 150.025ZM453.55 78.8936C448.478 78.8936 444.231 80.1912 440.81 82.7864C437.507 85.3816 435.266 88.8025 434.086 93.0491H471.952C470.655 88.2127 468.236 84.6738 464.698 82.4325C461.277 80.0733 457.561 78.8936 453.55 78.8936Z" fill="#F7F7F7"/>
<path d="M382.615 136.754C373.532 145.601 362.561 150.025 349.703 150.025C336.846 150.025 325.875 145.601 316.792 136.754C307.709 127.789 303.167 116.819 303.167 103.843C303.167 90.8668 307.709 79.9553 316.792 71.1081C325.875 62.143 336.846 57.6604 349.703 57.6604C362.561 57.6604 373.532 62.143 382.615 71.1081C391.698 79.9553 396.24 90.8668 396.24 103.843C396.24 116.819 391.698 127.789 382.615 136.754ZM335.548 119.237C339.323 123.13 344.041 125.076 349.703 125.076C355.366 125.076 360.025 123.13 363.682 119.237C367.457 115.344 369.344 110.213 369.344 103.843C369.344 97.4727 367.457 92.3414 363.682 88.4486C360.025 84.5558 355.366 82.6095 349.703 82.6095C344.041 82.6095 339.323 84.5558 335.548 88.4486C331.891 92.3414 330.063 97.4727 330.063 103.843C330.063 110.213 331.891 115.344 335.548 119.237Z" fill="#F7F7F7"/>
<path d="M286.676 59.6067V153.387C286.676 164.121 283.373 172.379 276.767 178.159C270.161 183.939 261.962 186.829 252.172 186.829C247.453 186.829 243.855 186.593 241.378 186.121V163.473C243.029 163.709 244.504 163.827 245.802 163.827C250.638 163.827 254.177 162.647 256.418 160.288C258.777 157.928 259.957 154.154 259.957 148.963V59.6067H286.676ZM273.228 47.5745C268.745 47.5745 264.853 45.982 261.55 42.797C258.247 39.4941 256.595 35.5423 256.595 30.9418C256.595 26.3413 258.247 22.4485 261.55 19.2635C264.853 15.9606 268.745 14.3091 273.228 14.3091C277.946 14.3091 281.898 15.9606 285.083 19.2635C288.386 22.4485 290.038 26.3413 290.038 30.9418C290.038 35.5423 288.386 39.4941 285.083 42.797C281.898 45.982 277.946 47.5745 273.228 47.5745Z" fill="#F7F7F7"/>
</svg>
