<svg width="814" height="252" viewBox="0 0 814 252" fill="none" xmlns="http://www.w3.org/2000/svg">
<path d="M260.857 191.152V121.628H242.378V99.6726H260.857V87.7802C260.857 76.9246 264.151 68.3865 270.737 62.1659C277.324 55.9453 285.679 52.835 295.803 52.835C302.023 52.835 307.329 53.5058 311.72 54.8475V76.9856C308.793 75.8879 305.377 75.339 301.474 75.339C295.986 75.339 292.021 76.5587 289.582 78.9982C287.142 81.3156 285.923 85.2798 285.923 90.8905V99.6726H311.72V121.628H285.923V191.152H260.857ZM326.54 191.152V53.9327H351.605V191.152H326.54Z" fill="#F7F7F7"/>
<path d="M449.976 179.443C440.584 188.591 429.241 193.165 415.945 193.165C402.65 193.165 391.307 188.591 381.915 179.443C372.523 170.173 367.827 158.829 367.827 145.412C367.827 132.117 372.523 120.835 381.915 111.565C391.307 102.295 402.65 97.6599 415.945 97.6599C429.241 97.6599 440.584 102.295 449.976 111.565C459.368 120.835 464.064 132.117 464.064 145.412C464.064 158.829 459.368 170.173 449.976 179.443ZM415.945 169.746C422.41 169.746 427.777 167.49 432.046 162.977C436.437 158.342 438.632 152.487 438.632 145.412C438.632 138.338 436.437 132.544 432.046 128.031C427.777 123.396 422.41 121.079 415.945 121.079C409.359 121.079 403.87 123.396 399.479 128.031C395.21 132.544 393.076 138.338 393.076 145.412C393.076 152.487 395.21 158.342 399.479 162.977C403.87 167.49 409.359 169.746 415.945 169.746Z" fill="#F7F7F7"/>
<path d="M557.366 191.152L540.168 139.192L523.153 191.152H498.27L467.899 99.6726H494.611L511.992 158.22L530.471 99.6726H549.682L568.344 158.22L585.542 99.6726H612.437L582.248 191.152H557.366Z" fill="#F7F7F7"/>
<path d="M693.624 193.165C682.768 193.165 674.291 189.506 668.192 182.187C662.215 174.869 659.227 165.05 659.227 152.731V99.6726H684.293V148.523C684.293 163.038 689.476 170.295 699.844 170.295C705.699 170.295 710.273 168.099 713.566 163.708C716.981 159.317 718.689 152.853 718.689 144.315V99.6726H743.754V191.152H718.689V180.724C713.078 189.018 704.723 193.165 693.624 193.165Z" fill="#F7F7F7"/>
<path d="M778.497 84.6699C774.228 84.6699 770.507 83.1452 767.336 80.0959C764.165 76.9246 762.579 73.1435 762.579 68.7524C762.579 64.3614 764.165 60.6412 767.336 57.5919C770.507 54.4206 774.228 52.835 778.497 52.835C783.01 52.835 786.791 54.4206 789.84 57.5919C793.012 60.6412 794.597 64.3614 794.597 68.7524C794.597 73.1435 793.012 76.9246 789.84 80.0959C786.791 83.1452 783.01 84.6699 778.497 84.6699ZM766.055 191.152V99.6726H791.121V191.152H766.055Z" fill="#F7F7F7"/>
<path d="M11.1275 182.496C12.8363 182.496 14.6354 181.957 16.434 180.698V84.4599C16.434 81.2222 17.0637 79.9631 19.9419 78.4338L103.318 30.4052C103.588 24.469 99.8099 20.7815 94.6834 20.7815C92.3448 20.7815 89.8262 21.4112 87.1281 23.0299L11.7572 66.3818C2.94287 71.5083 1.86377 73.1273 1.86377 83.3808V169.455C1.86377 177.19 5.55123 182.496 11.1275 182.496ZM47.1041 203.273C48.7231 203.273 50.5218 202.733 52.4106 201.474V105.236C52.4106 101.729 52.8603 100.829 55.8283 99.2105L139.204 51.0916C139.474 45.2456 135.786 41.4679 130.57 41.4679C128.321 41.4679 125.713 42.1875 123.105 43.6265L47.5538 87.0682C38.7395 92.1049 37.7502 93.9938 37.7502 104.067V190.231C37.7502 197.966 41.6176 203.273 47.1041 203.273ZM85.5992 225.218C88.7471 225.218 92.5244 223.959 97.0216 221.441L167.536 180.967C175.811 176.2 179.049 171.253 179.049 161.18L178.869 79.6929C178.869 68.8999 175 63.4135 168.255 63.4135C165.288 63.4135 161.51 64.5831 157.283 67.0111L86.5885 107.755C78.1338 112.702 75.1658 117.738 75.1658 127.542V209.029C75.1658 219.462 78.8533 225.218 85.5992 225.218Z" fill="#F7F7F7"/>
</svg>
