<svg width="1001" height="309" viewBox="0 0 1001 309" fill="none" xmlns="http://www.w3.org/2000/svg">
<mask id="mask0_1_25284" style="mask-type:luminance" maskUnits="userSpaceOnUse" x="0" y="0" width="1001" height="309">
<path d="M0.972168 305.144C173.033 230.847 832.805 241.249 1000.97 308.929V126.531C992.74 121.644 981.655 114.953 980.655 113.544C980.067 112.658 979.852 110.914 979.292 110.282C977.87 108.679 975.985 109.381 974.565 107.016C973.547 105.317 974.17 103.231 972.72 101.522C970.57 98.9901 967.16 100.056 965.32 100.353C960.992 101.056 956.775 101.296 952.315 101.741C949.215 102.051 948.877 101.476 946.482 97.779C940.18 96.988 933.922 97.9166 928.192 99.276C925.905 99.8198 924.87 99.6327 922.417 99.1419C920.302 98.7217 917.967 99.9116 916.112 99.4279C913.507 98.75 908.472 93.1394 905.867 91.2574C903.292 89.3896 898.375 88.3338 897.392 84.464C895.172 84.1109 893.79 85.8057 891.772 85.7881C889.855 85.774 887.91 84.9654 886.017 84.9972C881.242 85.0819 880.295 83.0093 875.81 80.3188C873.005 78.6416 870.86 76.1312 868.457 74.3692C866.1 72.6356 863.03 73.0593 860.385 71.2232C857.902 69.4966 854.8 67.0533 852.465 64.8606C850.887 66.0999 850.985 66.8414 849.11 66.0858C847.797 65.5562 845.68 63.187 844.382 62.2654C842.387 60.8495 839.042 59.642 838.3 57.0221C837.032 56.496 835.857 55.2283 835.427 53.7878C833.597 53.4982 831.69 54.5292 829.947 55.0871C826.517 56.1817 822.877 56.5736 818.992 56.3688C817.007 56.2664 813.972 57.0185 812.16 56.5524C810.035 56.0051 807.14 53.2158 805.127 51.8881C801.75 49.6602 800.185 49.8085 796.575 49.5154C793.587 49.2718 790.61 48.9681 787.642 48.9293C785.737 48.901 781.802 50.1757 780.137 49.5472C778.152 48.7951 775.742 44.7416 774.38 42.7961C770.597 37.3868 767.822 36.0239 761.702 33.2133C756.622 30.8865 753.252 27.6204 749.087 23.5634C745.21 19.7925 741.175 20.9259 736.865 18.1082C734.787 16.7524 732.69 14.8174 730.645 13.2815C728.567 11.7138 724.792 7.22608 722.607 6.60464C719.702 5.77489 714.115 8.87853 711.932 10.3721C707.672 13.2709 703.17 15.6049 697.405 15.6508C694.987 15.6684 692.427 14.8034 689.962 14.8281C686.067 14.874 682.302 16.3357 678.637 16.9148C675.472 17.4162 672.632 18.8886 669.712 20.1173C666.095 21.6427 662.21 22.43 658.587 23.8636C654.072 25.6537 651.592 31.3208 646.517 31.1972C640.24 31.0418 632.335 26.9001 626.432 24.5803C623.43 23.3975 620.57 21.3496 617.52 20.2762C611.392 18.1153 604.672 19.5524 598.462 18.1647C593.345 17.0243 589.397 12.8296 583.932 12.6389C582.395 12.586 580.345 12.9178 578.78 13.2003C576.175 13.6735 576.112 13.5781 574.782 16.4275C572.885 20.4845 569.98 24.2273 567.742 28.1748C565.747 31.6986 564.595 35.7556 561.952 39.0216C560.465 40.8612 558.24 41.9028 556.755 43.4917C555.022 45.2854 533.595 56.6125 530.517 57.1456C529.412 55.8533 528.002 49.8402 526.995 49.6072C526.047 49.3918 524.932 48.7986 523.92 48.5126C522.73 48.1772 521.51 48.3361 520.162 48.2125C519.112 48.1137 517.987 47.7252 517.155 47.2274C516.187 46.6413 515.745 45.7833 514.89 45.1159C514.13 44.5192 513.195 44.0955 512.525 43.4282C511.975 42.8809 511.747 42.496 510.997 42.1571C509.63 41.5427 508.412 40.8542 506.915 40.4375C505.152 39.9432 503.495 39.3006 501.7 38.8874C500.317 38.5697 499.335 38.3331 498.725 37.3515C498.335 36.7195 498.145 35.971 497.64 35.3778C497.215 34.8799 496.6 34.5092 496.165 34.0078C495.785 33.5735 495.527 33.0651 494.99 32.7296C494.302 32.3024 493.445 32.0764 492.742 31.7268C491.782 31.2502 491.25 30.6181 490.197 30.198C489.147 29.7813 488.41 29.4459 487.27 29.2234C486.295 29.0292 485.347 28.6585 484.375 28.4325C482.907 28.09 481.442 27.8923 479.955 27.6204C477.525 27.172 475.032 26.7872 472.71 26.1269C471.837 25.8797 470.92 25.9362 470.08 25.682C468.9 25.3253 468.182 24.8098 466.852 24.6651C466.317 24.6086 465.725 24.7286 465.215 24.6616C464.682 24.5909 464.31 24.3932 463.745 24.3367C462.657 24.2237 461.422 24.4603 460.31 24.485C458.907 24.5239 457.9 24.2273 456.597 24.0084C453.802 23.5282 451.242 23.0197 448.662 22.0557C447.085 21.4661 445.49 20.6152 444.232 19.676C443.152 18.8709 442.135 18.5249 440.72 18.1541C439.655 17.8752 438.757 17.4762 437.612 17.3456C436.152 17.1832 434.602 17.1867 433.187 16.8724C431.91 16.5935 430.665 16.0709 429.435 15.7002C427.527 15.1246 426.015 14.1289 424.225 13.4404C423.085 13.0026 422.002 12.6495 420.92 12.1375C419.74 11.5761 418.432 10.824 417.177 10.4039C415.992 10.0049 414.547 9.82835 413.317 9.5141C412.417 9.28459 411.63 8.93855 410.71 8.77613C408.485 8.38067 406.117 8.55014 403.875 8.25002C400.97 7.86162 398.532 6.50225 396.59 4.91689C394.357 3.09849 391.927 1.20592 388.885 0.358506C387.48 -0.0334219 387.097 0.499741 385.875 1.29419C384.145 2.42054 382.402 3.53983 380.765 4.75445C378.787 6.21976 377.067 7.68508 374.955 8.98092C374.105 9.50349 373.11 9.87776 372.26 10.3933C371.7 10.7358 371.707 10.9405 371.297 11.216C370.987 11.4243 370.655 11.4949 370.362 11.682C369.665 12.1305 369.02 12.7943 368.365 13.3133C367.007 14.3832 365.64 15.4354 364.247 16.477C363.157 17.2926 362.3 18.1188 361.707 19.171C360.695 19.1534 359.852 18.7438 358.862 18.6485C357.917 18.5602 356.982 18.7367 356.007 18.8639C354.62 19.0439 353.22 19.171 351.835 19.3935C349.492 19.7642 347.487 21.8933 345.242 22.8573C344.007 23.3904 343.127 23.1715 341.917 23.1574C340.525 23.1433 338.522 23.4293 337.102 23.7965C336.05 24.0719 335.047 24.8663 334.07 25.4277C332.055 26.5823 329.822 27.8888 328.062 29.287C326.092 30.8547 323.612 32.4118 322.182 34.2797C321.49 35.18 320.177 36.1404 319.122 36.836C318.487 37.2562 317.775 37.4363 317.122 37.8176C316.435 38.2201 315.882 38.6968 315.167 39.0852C314.297 39.5583 313.12 40.2115 312.605 40.9601C312.392 41.2708 312.27 41.8816 312.105 42.2241C311.575 43.3258 311.257 44.325 310.55 45.409C310.207 45.9351 309.905 46.4576 309.575 46.9837C309.477 47.1426 309.075 47.8241 308.992 47.8947C308.652 48.1878 308.28 48.3502 307.72 48.2549C307.472 48.2125 307.232 47.9971 307.017 47.9124C306.537 47.7253 305.99 47.7111 305.5 47.5663C304.477 47.2627 304.175 46.7189 302.89 47.0508C301.792 47.3368 301.272 48.149 300.487 48.8587C299.895 49.3954 299.365 50.038 298.737 50.5429C298.26 50.9242 298.25 50.9242 297.65 51.0831C297.355 51.1643 297.03 51.1149 296.74 51.2208C296.515 51.302 296.38 51.5386 296.225 51.5986C295.1 52.0117 293.86 52.672 292.727 53.0074C292.007 53.2193 291.535 53.2157 290.845 53.4982C290.265 53.7418 289.865 54.0243 289.347 54.2962C287.15 55.4473 285.422 57.0962 282.982 58.0672C281.675 58.5862 280.945 58.5756 279.657 58.5297C278.312 58.4873 276.9 58.6992 275.555 58.6498C274.412 58.6039 272.362 58.8405 271.45 58.4344C269.43 57.5305 268.06 55.7933 266.167 54.8117C265.3 54.3633 264.482 53.8019 263.325 53.703C262.305 53.6183 261.147 53.8337 260.06 53.8019C258.672 53.7595 257.615 53.3358 256.56 52.7391C255.085 51.9058 253.46 51.1608 251.747 50.5711C250.029 49.9744 248.14 49.7908 246.133 49.6778C243.936 49.5542 241.543 49.9356 239.372 49.812C238.057 49.7378 236.603 49.2329 235.448 48.8834C235.015 48.7527 234.421 48.7916 234.039 48.5974C233.567 48.3608 233.084 47.93 232.636 47.6405C232.065 47.2662 231.672 46.7578 231.082 46.4011C230.355 45.9633 229.707 45.695 229.239 45.0559C228.76 44.4027 228.207 43.8943 227.643 43.3046C227.377 43.0292 226.676 41.9629 226.319 41.9099C225.749 41.8252 223.675 43.354 223.172 43.7848C222.858 44.0531 222.655 44.4239 222.337 44.6852C222.019 44.9464 221.633 45.1301 221.387 45.3702C221.238 45.5149 220.975 46.1187 220.827 46.3199C220.377 46.9343 219.793 47.5663 219.203 48.1136C216.346 50.7653 212.842 52.1918 209.213 53.5582C208.281 53.9078 207.127 54.102 206.258 54.554C205.676 54.8576 205.049 55.3166 204.422 55.6415C202.905 56.4253 201.007 57.1209 199.67 58.1943C199.327 58.4697 199.139 58.7416 198.861 59.0347C198.176 59.7514 197.463 60.2245 196.661 60.8742C194.711 62.4561 192.723 63.9779 190.711 65.5173C189.247 66.6366 188.138 67.7276 187.163 69.14C186.312 70.3687 185.773 71.5975 185.003 72.7909C184.423 73.6913 183.899 74.5246 183.05 75.3402C181.843 76.4984 180.583 76.6043 179.048 76.7702C177.359 76.9539 175.802 76.5054 174.206 76.4172C173.788 76.3924 173.527 76.3571 173.148 76.3042C172.682 76.2335 172.5 76.0393 171.845 76.3218C170.985 76.6926 170.547 77.4729 169.94 78.0943C168.877 79.1783 167.566 80.1811 166.487 81.3498C165.39 82.5362 164.014 83.8002 162.584 84.6794C161.535 85.322 160.576 85.8693 159.62 86.5861C156.632 88.8423 153.473 91.1797 150.384 93.1217C147.307 95.0531 144.052 96.2395 140.734 97.214C139.408 97.606 138.224 97.6624 136.887 98.1073C134.038 99.0465 131.106 99.8057 128.282 100.967C127.459 101.303 126.166 101.772 125.382 102.33C124.907 102.662 124.383 103.238 123.842 103.615C122.52 104.541 121.164 105.339 119.801 106.186C117.907 107.365 116.229 108.781 114.412 110.066C112.547 111.387 110.492 112.238 108.491 113.145C105.596 114.452 102.508 115.352 99.6064 116.394C97.5602 117.125 95.3162 117.721 93.3289 118.929C92.7994 119.25 92.0677 119.903 91.5347 120.013C91.2224 120.076 90.3284 119.893 90.0667 119.9C88.6384 119.925 86.9059 119.501 85.5079 119.872C84.8784 120.034 83.9714 120.684 83.3549 121.012C81.9397 121.768 80.5482 122.414 79.1179 123.067C76.6142 124.208 74.1142 125.369 71.6167 126.538C69.7519 127.41 68.0839 128.575 66.2717 129.613C65.2534 130.196 64.8712 130.482 64.0812 131.22C61.4439 133.681 58.3697 135.319 55.4122 137.205C54.6992 137.657 54.1959 138.37 53.4634 138.606C52.4659 138.924 51.1379 138.61 50.1487 138.741C48.2357 138.995 46.2117 139.701 44.2767 140.033C43.0547 140.245 41.8759 140.368 40.6549 140.545C38.2827 140.88 35.6679 142.18 33.2304 142.861C31.7659 143.271 31.0502 142.692 29.7059 143.027C27.9632 143.458 26.5274 143.702 24.7173 144.553C23.0124 145.358 21.3652 146.385 19.6997 147.391C14.5767 150.484 9.07032 153.404 4.60889 157.74C3.55802 158.761 2.29541 159.605 0.972168 160.346L0.972168 305.144Z" fill="white"/>
</mask>
<g mask="url(#mask0_1_25284)">
<path d="M0.972168 305.143C173.033 230.846 832.807 241.248 1000.97 308.929V126.531C992.74 121.644 981.654 114.953 980.654 113.544C980.065 112.658 979.85 110.913 979.292 110.281C977.869 108.678 975.985 109.381 974.568 107.015C973.55 105.317 974.169 103.23 972.721 101.521C970.568 98.9898 967.163 100.056 965.323 100.352C960.991 101.055 956.777 101.296 952.317 101.74C949.218 102.051 948.881 101.475 946.482 97.7785C940.181 96.9874 933.924 97.9163 928.194 99.2758C925.905 99.8191 924.869 99.6319 922.421 99.1415C920.304 98.7212 917.967 99.9109 916.114 99.4274C913.507 98.749 908.47 93.1385 905.869 91.2566C903.292 89.3876 898.378 88.3348 897.39 84.4617C895.175 84.1108 893.789 85.8056 891.77 85.7883C889.856 85.7727 887.912 84.966 886.016 84.998C881.243 85.0829 880.298 83.0078 875.813 80.3182C873.004 78.6399 870.862 76.1323 868.458 74.3673C866.102 72.636 863.028 73.058 860.384 71.222C857.905 69.4968 854.801 67.0516 852.464 64.862C850.887 66.0985 850.985 66.8411 849.108 66.0838C847.795 65.5543 845.678 63.1854 844.384 62.2661C842.39 60.8503 839.04 59.6398 838.298 57.0222C837.034 56.4945 835.856 55.2277 835.427 53.7877C833.599 53.4983 831.691 54.5267 829.948 55.0847C826.519 56.1791 822.881 56.5742 818.991 56.3697C817.01 56.2666 813.973 57.017 812.163 56.5517C810.034 56.005 807.138 53.214 805.126 51.8875C801.752 49.6589 800.188 49.8079 796.574 49.5133C793.586 49.2699 790.611 48.9666 787.642 48.9276C785.74 48.8999 781.801 50.1744 780.138 49.548C778.151 48.7933 775.746 44.7408 774.378 42.7947C770.599 37.3853 767.826 36.0223 761.703 33.2115C756.623 30.8859 753.255 27.6193 749.089 23.5633C745.212 19.7907 741.175 20.924 736.862 18.1089C734.789 16.752 732.691 14.818 730.648 13.2791C728.568 11.7143 724.795 7.22421 722.611 6.60468C719.703 5.77547 714.114 8.87744 711.93 10.3704C707.672 13.2713 703.169 15.6056 697.402 15.6498C694.985 15.6671 692.427 14.8032 689.96 14.8284C686.065 14.8717 682.304 16.336 678.635 16.9148C675.47 17.4157 672.635 18.8861 669.715 20.1173C666.095 21.644 662.212 22.4308 658.586 23.8631C654.071 25.6524 651.592 31.3208 646.519 31.1969C640.243 31.0418 632.335 26.901 626.433 24.5805C623.433 23.3969 620.568 21.3503 617.519 20.275C611.393 18.1158 604.673 19.5532 598.463 18.1643C593.345 17.0231 589.398 12.8303 583.933 12.6397C582.395 12.5859 580.345 12.9169 578.78 13.2011C576.175 13.6742 576.112 13.5781 574.782 16.4253C572.885 20.4856 569.98 24.227 567.743 28.1738C565.747 31.6977 564.595 35.7537 561.952 39.0212C560.465 40.8616 558.24 41.9013 556.755 43.4905C555.022 45.2858 533.595 56.6106 530.517 57.1452C529.412 55.8533 528.003 49.8391 526.995 49.6078C526.047 49.3903 524.933 48.7976 523.92 48.5134C522.73 48.1764 521.51 48.3341 520.163 48.2102C519.112 48.114 517.987 47.7258 517.155 47.225C516.187 46.6418 515.745 45.784 514.89 45.1168C514.13 44.5198 513.195 44.0944 512.525 43.4272C511.975 42.8813 511.747 42.4949 510.998 42.1561C509.63 41.5435 508.412 40.8538 506.915 40.4353C505.152 39.9431 503.495 39.2985 501.7 38.8869C500.317 38.5706 499.335 38.3306 498.725 37.3498C498.335 36.7207 498.145 35.9704 497.64 35.3768C497.215 34.8777 496.6 34.5077 496.165 34.0078C495.785 33.5737 495.528 33.0659 494.99 32.7306C494.303 32.3034 493.445 32.0755 492.743 31.7255C491.782 31.2498 491.25 30.6173 490.198 30.1988C489.147 29.7802 488.41 29.4467 487.27 29.2214C486.295 29.0282 485.347 28.6599 484.375 28.432C482.908 28.0889 481.442 27.8914 479.955 27.6184C477.525 27.1722 475.033 26.7874 472.71 26.1263C471.838 25.8794 470.92 25.9366 470.08 25.6818C468.9 25.3231 468.182 24.8075 466.852 24.6646C466.317 24.6083 465.725 24.7278 465.215 24.6611C464.682 24.5909 464.31 24.3934 463.745 24.3344C462.658 24.2227 461.422 24.4592 460.31 24.4861C458.908 24.5216 457.9 24.2262 456.598 24.0061C453.803 23.5295 451.242 23.02 448.663 22.0556C447.085 21.4647 445.49 20.6138 444.233 19.6754C443.152 18.8705 442.135 18.523 440.72 18.1522C439.655 17.8732 438.758 17.4763 437.612 17.3455C436.152 17.1809 434.603 17.1852 433.187 16.8732C431.91 16.5916 430.665 16.0709 429.435 15.7C427.528 15.1247 426.015 14.1274 424.225 13.4394C423.085 13.0036 422.003 12.6501 420.92 12.1362C419.74 11.5756 418.433 10.8218 417.177 10.4024C415.993 10.0056 414.547 9.82624 413.317 9.51257C412.417 9.28383 411.63 8.93721 410.71 8.77518C408.485 8.38094 406.117 8.54992 403.875 8.24925C400.97 7.8628 398.533 6.50157 396.59 4.91679C394.358 3.0972 391.928 1.20654 388.885 0.357397C387.48 -0.0342495 387.098 0.498635 385.875 1.29233C384.145 2.42047 382.403 3.53822 380.765 4.75302C378.787 6.21996 377.068 7.68428 374.955 8.97966C374.105 9.50214 373.11 9.87733 372.26 10.3946C371.7 10.7351 371.707 10.9405 371.298 11.2152C370.987 11.424 370.655 11.4933 370.363 11.6813C369.665 12.1284 369.02 12.793 368.365 13.312C367.007 14.3839 365.64 15.4332 364.247 16.4755C363.158 17.2918 362.3 18.1175 361.707 19.1711C360.695 19.1529 359.852 18.744 358.863 18.6495C357.917 18.5585 356.982 18.7353 356.007 18.8627C354.62 19.0438 353.22 19.1685 351.835 19.3912C349.493 19.7647 347.487 21.8936 345.242 22.858C344.007 23.39 343.128 23.1725 341.917 23.1578C340.525 23.1422 338.522 23.4281 337.102 23.7973C336.05 24.0702 335.047 24.8656 334.07 25.4271C332.055 26.583 329.822 27.8888 328.063 29.2864C326.093 30.853 323.612 32.4109 322.182 34.2781C321.49 35.1801 320.177 36.1402 319.122 36.8368C318.487 37.2562 317.775 37.4355 317.122 37.8168C316.435 38.218 315.882 38.6971 315.168 39.0862C314.298 39.5575 313.12 40.2109 312.605 40.9578C312.393 41.2688 312.27 41.8814 312.105 42.2228C311.575 43.325 311.258 44.3249 310.55 45.4097C310.207 45.933 309.905 46.4564 309.575 46.9815C309.477 47.1409 309.075 47.8246 308.993 47.8939C308.652 48.1868 308.28 48.3505 307.72 48.2535C307.472 48.2119 307.233 47.9961 307.017 47.9112C306.537 47.7232 305.99 47.7111 305.5 47.5664C304.477 47.2631 304.175 46.7189 302.89 47.0517C301.793 47.3341 301.272 48.1477 300.487 48.8591C299.895 49.3963 299.365 50.0384 298.737 50.5419C298.26 50.9257 298.25 50.9257 297.65 51.0842C297.355 51.1631 297.03 51.1137 296.74 51.2194C296.515 51.3009 296.38 51.5392 296.225 51.5963C295.1 52.0123 293.86 52.6708 292.728 53.0069C292.007 53.2201 291.535 53.2132 290.845 53.4991C290.265 53.7409 289.865 54.0242 289.347 54.2954C287.15 55.4469 285.422 57.0967 282.982 58.0671C281.675 58.587 280.945 58.5758 279.658 58.5307C278.312 58.4857 276.9 58.6988 275.555 58.6494C274.412 58.6052 272.363 58.8392 271.45 58.4328C269.43 57.5308 268.06 55.7909 266.167 54.8101C265.3 54.3621 264.482 53.8006 263.325 53.7036C262.305 53.6178 261.147 53.8344 260.06 53.8006C258.672 53.7573 257.615 53.3345 256.56 52.7383C255.085 51.9056 253.46 51.1605 251.747 50.5687C250.029 49.9751 248.14 49.7897 246.133 49.6771C243.936 49.5549 241.544 49.9362 239.372 49.8131C238.058 49.7378 236.604 49.2334 235.448 48.8825C235.015 48.7508 234.421 48.7898 234.04 48.5983C233.567 48.3618 233.085 47.9303 232.637 47.6383C232.065 47.2666 231.672 46.7588 231.082 46.4018C230.355 45.9634 229.707 45.6939 229.24 45.0562C228.76 44.4029 228.207 43.8951 227.644 43.3059C227.377 43.0269 226.676 41.9629 226.32 41.9109C225.75 41.8251 223.675 43.3544 223.172 43.785C222.859 44.0511 222.655 44.4237 222.337 44.6862C222.02 44.9453 221.633 45.1272 221.388 45.3698C221.238 45.5154 220.975 46.1176 220.828 46.3186C220.377 46.9321 219.793 47.5646 219.204 48.1114C216.346 50.7654 212.842 52.1916 209.213 53.5563C208.282 53.9063 207.127 54.0996 206.259 54.5527C205.676 54.8577 205.049 55.3178 204.422 55.6419C202.905 56.4252 201.007 57.1192 199.67 58.1919C199.328 58.4683 199.14 58.743 198.861 59.035C198.177 59.7524 197.463 60.2238 196.661 60.8746C194.711 62.4567 192.723 63.9765 190.711 65.5154C189.247 66.6374 188.138 67.7283 187.164 69.1381C186.312 70.3676 185.774 71.5954 185.004 72.792C184.423 73.6914 183.899 74.5224 183.05 75.3386C181.843 76.4988 180.583 76.6019 179.048 76.7691C177.359 76.9528 175.802 76.5057 174.206 76.4156C173.788 76.3922 173.528 76.3576 173.148 76.3021C172.682 76.2319 172.501 76.0387 171.845 76.3211C170.986 76.692 170.547 77.4736 169.94 78.0931C168.877 79.1779 167.567 80.1822 166.488 81.3502C165.389 82.5364 164.014 83.8015 162.584 84.6792C161.535 85.3213 160.576 85.8671 159.62 86.5872C156.632 88.8426 153.474 91.1795 150.384 93.1212C147.307 95.0526 144.052 96.2388 140.734 97.2136C139.408 97.6052 138.224 97.6615 136.887 98.1069C134.038 99.0462 131.106 99.8052 128.281 100.967C127.459 101.302 126.166 101.772 125.381 102.329C124.907 102.662 124.383 103.237 123.842 103.615C122.52 104.54 121.164 105.338 119.802 106.185C117.907 107.364 116.229 108.781 114.413 110.066C112.546 111.386 110.492 112.237 108.491 113.145C105.596 114.451 102.508 115.351 99.6066 116.393C97.56 117.124 95.3164 117.72 93.3287 118.928C92.7992 119.25 92.0679 119.903 91.5348 120.012C91.2225 120.076 90.3287 119.893 90.0667 119.9C88.6385 119.924 86.906 119.5 85.5078 119.871C84.8784 120.034 83.9716 120.683 83.3551 121.011C81.9397 121.767 80.5483 122.413 79.1182 123.067C76.6139 124.207 74.1139 125.369 71.617 126.538C69.752 127.409 68.0839 128.575 66.2716 129.613C65.2532 130.195 64.871 130.481 64.0814 131.219C61.444 133.68 58.3697 135.319 55.4123 137.204C54.6993 137.656 54.196 138.369 53.4634 138.606C52.466 138.924 51.1379 138.609 50.1486 138.74C48.2357 138.994 46.2117 139.7 44.2767 140.032C43.0547 140.244 41.8759 140.367 40.6549 140.544C38.2827 140.88 35.668 142.179 33.2305 142.86C31.7659 143.27 31.0502 142.691 29.706 143.027C27.9632 143.457 26.5275 143.701 24.7173 144.552C23.0124 145.357 21.3653 146.384 19.6997 147.391C14.5767 150.484 9.07033 153.404 4.60889 157.739C3.55801 158.76 2.29541 159.604 0.972168 160.346V305.143Z" fill="url(#paint0_linear_1_25284)"/>
</g>
<defs>
<linearGradient id="paint0_linear_1_25284" x1="500.973" y1="0.2258" x2="500.973" y2="308.929" gradientUnits="userSpaceOnUse">
<stop stop-color="#4D24A7"/>
<stop offset="1" stop-color="#975DE0"/>
</linearGradient>
</defs>
</svg>
